 0
SECTION
 2
ENTITIES
  0
POLYLINE
 8
Layer0
 66
     1
70
    8
 10
0.0
 20
 0.0
 30
0.0
  0
VERTEX
  8
MY3DLAYER
10
27.6
20
8.28274345112798
30
0.0
 70
     32
  0
VERTEX
  8
MY3DLAYER
10
25.0
20
8.31171229832861
30
0.0
 70
     32
  0
VERTEX
  8
MY3DLAYER
10
22.4
20
8.28274345112799
30
0.0
 70
     32
  0
VERTEX
  8
MY3DLAYER
10
22.4
20
8.13094215875383
30
0.0
 70
     32
  0
VERTEX
  8
MY3DLAYER
10
22.3962196819855
20
8.09185369896578
30
0.0
 70
     32
  0
VERTEX
  8
MY3DLAYER
10
22.3877482098968
20
8.05350747811493
30
0.0
 70
     32
  0
VERTEX
  8
MY3DLAYER
10
22.3747094965485
20
8.01646438905483
30
0.0
 70
     32
  0
VERTEX
  8
MY3DLAYER
10
22.3572942601125
20
7.98126626363928
30
0.0
 70
     32
  0
VERTEX
  8
MY3DLAYER
10
22.3357572344697
20
7.94842794730978
30
0.0
 70
     32
  0
VERTEX
  8
MY3DLAYER
10
22.3104134432002
20
7.91842976841542
30
0.0
 70
     32
  0
VERTEX
  8
MY3DLAYER
10
22.2816335917108
20
7.89171051241633
30
0.0
 70
     32
  0
VERTEX
  8
MY3DLAYER
10
22.2498386449018
20
7.86866100373825
30
0.0
 70
     32
  0
VERTEX
  8
MY3DLAYER
10
22.215493669683
20
7.84961838915627
30
0.0
 70
     32
  0
VERTEX
  8
MY3DLAYER
10
22.1791010324086
20
7.83486120632538
30
0.0
 70
     32
  0
VERTEX
  8
MY3DLAYER
10
22.1411930507285
20
7.82460530959063
30
0.0
 70
     32
  0
VERTEX
  8
MY3DLAYER
10
22.1023242073413
20
7.8190007126707
30
0.0
 70
     32
  0
VERTEX
  8
MY3DLAYER
10
22.063063039537
20
7.81812939439658
30
0.0
 70
     32
  0
VERTEX
  8
MY3DLAYER
10
22.0239838231622
20
7.82200409960163
30
0.0
 70
     32
  0
VERTEX
  8
MY3DLAYER
10
21.9856581726473
20
7.83056815270188
30
0.0
 70
     32
  0
VERTEX
  8
MY3DLAYER
10
21.9486466799622
20
7.8436962866938
30
0.0
 70
     32
  0
VERTEX
  8
MY3DLAYER
10
21.9134907147982
20
7.86119647544357
30
0.0
 70
     32
  0
VERTEX
  8
MY3DLAYER
10
21.8807045059158
20
7.88281274246676
30
0.0
 70
     32
  0
VERTEX
  8
MY3DLAYER
10
21.7512529797696
20
7.97988097178194
30
0.0
 70
     32
  0
VERTEX
  8
MY3DLAYER
10
21.1398553178149
20
8.46585090608524
30
0.0
 70
     32
  0
VERTEX
  8
MY3DLAYER
10
20.5423998261255
20
8.96886264903041
30
0.0
 70
     32
  0
VERTEX
  8
MY3DLAYER
10
19.9593613624393
20
9.4885164067893
30
0.0
 70
     32
  0
VERTEX
  8
MY3DLAYER
10
19.3912033258372
20
10.024399158457
30
0.0
 70
     32
  0
VERTEX
  8
MY3DLAYER
10
18.8383772884339
20
10.5760849843213
30
0.0
 70
     32
  0
VERTEX
  8
MY3DLAYER
10
18.4771118123732
20
10.957527988687
30
0.0
 70
     32
  0
VERTEX
  8
MY3DLAYER
10
18.1014491346988
20
10.9516612063647
30
0.0
 70
     32
  0
VERTEX
  8
MY3DLAYER
10
17.7266133682714
20
10.9260679506285
30
0.0
 70
     32
  0
VERTEX
  8
MY3DLAYER
10
17.3536396561791
20
10.8808188995838
30
0.0
 70
     32
  0
VERTEX
  8
MY3DLAYER
10
16.9835579992773
20
10.8160390126037
30
0.0
 70
     32
  0
VERTEX
  8
MY3DLAYER
10
16.6173904117476
20
10.7319071852427
30
0.0
 70
     32
  0
VERTEX
  8
MY3DLAYER
10
16.2561480987131
20
10.6286557551999
30
0.0
 70
     32
  0
VERTEX
  8
MY3DLAYER
10
15.900828663703
20
10.5065698606978
30
0.0
 70
     32
  0
VERTEX
  8
MY3DLAYER
10
15.5524133536792
20
10.3659866530468
30
0.0
 70
     32
  0
VERTEX
  8
MY3DLAYER
10
15.2118643492347
20
10.2072943655713
30
0.0
 70
     32
  0
VERTEX
  8
MY3DLAYER
10
14.8801221074433
20
10.0309312414678
30
0.0
 70
     32
  0
VERTEX
  8
MY3DLAYER
10
14.558102764702
20
9.83738432355676
30
0.0
 70
     32
  0
VERTEX
  8
MY3DLAYER
10
14.2466956067373
20
9.62718810926944
30
0.0
 70
     32
  0
VERTEX
  8
MY3DLAYER
10
13.9467606127614
20
9.4009230745844
30
0.0
 70
     32
  0
VERTEX
  8
MY3DLAYER
10
13.6591260805613
20
9.15921407099039
30
0.0
 70
     32
  0
VERTEX
  8
MY3DLAYER
10
13.3845863390793
20
8.90272859990218
30
0.0
 70
     32
  0
VERTEX
  8
MY3DLAYER
10
13.1238995548011
20
8.63217496929441
30
0.0
 70
     32
  0
VERTEX
  8
MY3DLAYER
10
12.8777856380101
20
8.34830033764477
30
0.0
 70
     32
  0
VERTEX
  8
MY3DLAYER
10
12.64692425469
20
8.05188865058794
30
0.0
 70
     32
  0
VERTEX
  8
MY3DLAYER
10
12.4319529495644
20
7.74375847597825
30
0.0
 70
     32
  0
VERTEX
  8
MY3DLAYER
10
12.2334653854601
20
7.42476074334007
30
0.0
 70
     32
  0
VERTEX
  8
MY3DLAYER
10
12.0520097038525
20
7.09577639394835
30
0.0
 70
     32
  0
VERTEX
  8
MY3DLAYER
10
11.8880870111229
20
6.7577139480295
30
0.0
 70
     32
  0
VERTEX
  8
MY3DLAYER
10
11.7421499947084
20
6.41150699579946
30
0.0
 70
     32
  0
VERTEX
  8
MY3DLAYER
10
11.6146016729633
20
6.05811161927002
30
0.0
 70
     32
  0
VERTEX
  8
MY3DLAYER
10
11.5057942821884
20
5.69850375194074
30
0.0
 70
     32
  0
VERTEX
  8
MY3DLAYER
10
11.416028303897
20
5.33367648367018
30
0.0
 70
     32
  0
VERTEX
  8
MY3DLAYER
10
11.3455516350091
20
4.96463731816758
30
0.0
 70
     32
  0
VERTEX
  8
MY3DLAYER
10
11.2945589032611
20
4.59240539067983
30
0.0
 70
     32
  0
VERTEX
  8
MY3DLAYER
10
11.263190929723
20
4.21800865355663
30
0.0
 70
     32
  0
VERTEX
  8
MY3DLAYER
10
11.2515343399091
20
3.84248103746663
30
0.0
 70
     32
  0
VERTEX
  8
MY3DLAYER
10
11.259621324553
20
3.46685959610346
30
0.0
 70
     32
  0
VERTEX
  8
MY3DLAYER
10
11.2874295507108
20
3.09218164226801
30
0.0
 70
     32
  0
VERTEX
  8
MY3DLAYER
10
11.3348822234347
20
2.71948188323435
30
0.0
 70
     32
  0
VERTEX
  8
MY3DLAYER
10
11.4018482978494
20
2.34978956331167
30
0.0
 70
     32
  0
VERTEX
  8
MY3DLAYER
10
11.4881428410451
20
1.98412562149209
30
0.0
 70
     32
  0
VERTEX
  8
MY3DLAYER
10
11.5935275427859
20
1.62349987203517
30
0.0
 70
     32
  0
VERTEX
  8
MY3DLAYER
10
11.6158288780838
20
1.52900033740775
30
0.0
 70
     32
  0
VERTEX
  8
MY3DLAYER
10
11.683292262072
20
1.43586412711351
30
0.0
 70
     32
  0
VERTEX
  8
MY3DLAYER
10
11.7262733492172
20
1.32919506883079
30
0.0
 70
     32
  0
VERTEX
  8
MY3DLAYER
10
11.7422290837146
20
1.21530443539787
30
0.0
 70
     32
  0
VERTEX
  8
MY3DLAYER
10
11.7302154149149
20
1.10093077755189
30
0.0
 70
     32
  0
VERTEX
  8
MY3DLAYER
10
11.6909431538329
20
0.992841225065934
30
0.0
 70
     32
  0
VERTEX
  8
MY3DLAYER
10
11.6267359166949
20
0.897431096954645
30
0.0
 70
     32
  0
VERTEX
  8
MY3DLAYER
10
11.5413926438712
20
0.820345510553238
30
0.0
 70
     32
  0
VERTEX
  8
MY3DLAYER
10
11.4399628285174
20
0.766145377671667
30
0.0
 70
     32
  0
VERTEX
  8
MY3DLAYER
10
11.3284477539383
20
0.738037549781125
30
0.0
 70
     32
  0
VERTEX
  8
MY3DLAYER
10
11.2134454165219
20
0.737685078694062
30
0.0
 70
     32
  0
VERTEX
  8
MY3DLAYER
10
11.1017601430351
20
0.76510881901661
30
0.0
 70
     32
  0
VERTEX
  8
MY3DLAYER
10
11.0000000000001
20
0.818686194247167
30
0.0
 70
     32
  0
VERTEX
  8
MY3DLAYER
10
10.4593679255663
20
1.21738720486097
30
0.0
 70
     32
  0
VERTEX
  8
MY3DLAYER
10
9.9426575212519
20
1.64663759081816
30
0.0
 70
     32
  0
VERTEX
  8
MY3DLAYER
10
9.45159271105708
20
2.10500522488419
30
0.0
 70
     32
  0
VERTEX
  8
MY3DLAYER
10
8.98781185644052
20
2.59096083464928
30
0.0
 70
     32
  0
VERTEX
  8
MY3DLAYER
10
8.55286229018156
20
3.10288310470821
30
0.0
 70
     32
  0
VERTEX
  8
MY3DLAYER
10
8.14819515394461
20
3.63906408592703
30
0.0
 70
     32
  0
VERTEX
  8
MY3DLAYER
10
7.77516055676995
20
4.19771489375047
30
0.0
 70
     32
  0
VERTEX
  8
MY3DLAYER
10
7.43500307064522
20
4.77697167653714
30
0.0
 70
     32
  0
VERTEX
  8
MY3DLAYER
10
7.12885757818402
20
5.37490183401099
30
0.0
 70
     32
  0
VERTEX
  8
MY3DLAYER
10
6.85774548626628
20
5.98951046508205
30
0.0
 70
     32
  0
VERTEX
  8
MY3DLAYER
10
6.62257131827323
20
6.61874702352395
30
0.0
 70
     32
  0
VERTEX
  8
MY3DLAYER
10
6.42411969628481
20
7.26051215930277
30
0.0
 70
     32
  0
VERTEX
  8
MY3DLAYER
10
6.26305272331164
20
7.91266472273272
30
0.0
 70
     32
  0
VERTEX
  8
MY3DLAYER
10
6.13990777428886
20
8.57302890808901
30
0.0
 70
     32
  0
VERTEX
  8
MY3DLAYER
10
6.05509570321024
20
9.23940151284585
30
0.0
 70
     32
  0
VERTEX
  8
MY3DLAYER
10
6.00889947237658
20
9.90955928831951
30
0.0
 70
     32
  0
VERTEX
  8
MY3DLAYER
10
6.00147320833594
20
10.5812663571922
30
0.0
 70
     32
  0
VERTEX
  8
MY3DLAYER
10
6.03284168766489
20
11.2522816731691
30
0.0
 70
     32
  0
VERTEX
  8
MY3DLAYER
10
6.10290025430466
20
11.9203664978818
30
0.0
 70
     32
  0
VERTEX
  8
MY3DLAYER
10
6.21141516873038
20
12.5832918700907
30
0.0
 70
     32
  0
VERTEX
  8
MY3DLAYER
10
6.35802438778635
20
13.2388460422678
30
0.0
 70
     32
  0
VERTEX
  8
MY3DLAYER
10
6.54223877258706
20
13.8848418597492
30
0.0
 70
     32
  0
VERTEX
  8
MY3DLAYER
10
6.76344372045279
20
14.5191240578368
30
0.0
 70
     32
  0
VERTEX
  8
MY3DLAYER
10
7.02090121543633
20
15.1395764525037
30
0.0
 70
     32
  0
VERTEX
  8
MY3DLAYER
10
7.31375229059783
20
15.7441290007141
30
0.0
 70
     32
  0
VERTEX
  8
MY3DLAYER
10
7.64101989381597
20
16.3307647068
30
0.0
 70
     32
  0
VERTEX
  8
MY3DLAYER
10
8.00161214756899
20
16.8975263518541
30
0.0
 70
     32
  0
VERTEX
  8
MY3DLAYER
10
8.39432599181546
20
17.4425230236863
30
0.0
 70
     32
  0
VERTEX
  8
MY3DLAYER
10
8.81785119781679
20
17.9639364255591
30
0.0
 70
     32
  0
VERTEX
  8
MY3DLAYER
10
9.27077473951224
20
18.4600269426517
30
0.0
 70
     32
  0
VERTEX
  8
MY3DLAYER
10
9.75158550786034
20
18.9291394460146
30
0.0
 70
     32
  0
VERTEX
  8
MY3DLAYER
10
10.2586793524202
20
19.3697088146509
30
0.0
 70
     32
  0
VERTEX
  8
MY3DLAYER
10
10.7903644333496
20
19.7802651572986
30
0.0
 70
     32
  0
VERTEX
  8
MY3DLAYER
10
11.3448668659659
20
20.1594387164949
30
0.0
 70
     32
  0
VERTEX
  8
MY3DLAYER
10
11.9203366390375
20
20.5059644385589
30
0.0
 70
     32
  0
VERTEX
  8
MY3DLAYER
10
12.5148537870578
20
20.8186861942472
30
0.0
 70
     32
  0
VERTEX
  8
MY3DLAYER
10
12.3957854591121
20
21.1603429896358
30
0.0
 70
     32
  0
VERTEX
  8
MY3DLAYER
10
12.1596549744205
20
21.9048000214985
30
0.0
 70
     32
  0
VERTEX
  8
MY3DLAYER
10
11.9446041249233
20
22.6556175827083
30
0.0
 70
     32
  0
VERTEX
  8
MY3DLAYER
10
11.7508038330762
20
23.4121989233257
30
0.0
 70
     32
  0
VERTEX
  8
MY3DLAYER
10
11.5784081313877
20
24.1739427123584
30
0.0
 70
     32
  0
VERTEX
  8
MY3DLAYER
10
11.427554039994
20
24.9402435156989
30
0.0
 70
     32
  0
VERTEX
  8
MY3DLAYER
10
11.2983614577557
20
25.7104922773241
30
0.0
 70
     32
  0
VERTEX
  8
MY3DLAYER
10
11.1909330669612
20
26.4840768033727
30
0.0
 70
     32
  0
VERTEX
  8
MY3DLAYER
10
11.1053542517161
20
27.2603822487173
30
0.0
 70
     32
  0
VERTEX
  8
MY3DLAYER
10
11.0416930300787
20
28.0387916056435
30
0.0
 70
     32
  0
VERTEX
  8
MY3DLAYER
10
11.0000000000001
20
28.8186861942472
30
0.0
 70
     32
  0
VERTEX
  8
MY3DLAYER
10
10.9837375696758
20
29.5253057635116
30
0.0
 70
     32
  0
VERTEX
  8
MY3DLAYER
10
10.9905184293682
20
30.2320799157337
30
0.0
 70
     32
  0
VERTEX
  8
MY3DLAYER
10
11.0203353714558
20
30.9382573950348
30
0.0
 70
     32
  0
VERTEX
  8
MY3DLAYER
10
11.0731567024295
20
31.6430875797613
30
0.0
 70
     32
  0
VERTEX
  8
MY3DLAYER
10
11.1489262765808
20
32.3458212803481
30
0.0
 70
     32
  0
VERTEX
  8
MY3DLAYER
10
11.2475635556814
20
33.045711535659
30
0.0
 70
     32
  0
VERTEX
  8
MY3DLAYER
10
11.3689636945903
20
33.7420144069588
30
0.0
 70
     32
  0
VERTEX
  8
MY3DLAYER
10
11.5129976526969
20
34.4339897686731
30
0.0
 70
     32
  0
VERTEX
  8
MY3DLAYER
10
11.6795123310835
20
35.1209020950942
30
0.0
 70
     32
  0
VERTEX
  8
MY3DLAYER
10
11.8683307352596
20
35.8020212421983
30
0.0
 70
     32
  0
VERTEX
  8
MY3DLAYER
10
12.0792521632955
20
36.4766232237421
30
0.0
 70
     32
  0
VERTEX
  8
MY3DLAYER
10
12.312052419156
20
37.1439909808137
30
0.0
 70
     32
  0
VERTEX
  8
MY3DLAYER
10
12.566484051006
20
37.8034151440209
30
0.0
 70
     32
  0
VERTEX
  8
MY3DLAYER
10
12.842276614237
20
38.4541947875056
30
0.0
 70
     32
  0
VERTEX
  8
MY3DLAYER
10
13.139136958931
20
39.0956381739829
30
0.0
 70
     32
  0
VERTEX
  8
MY3DLAYER
10
13.456749541462
20
39.7270634900144
30
0.0
 70
     32
  0
VERTEX
  8
MY3DLAYER
10
13.7947767598969
20
40.347799570732
30
0.0
 70
     32
  0
VERTEX
  8
MY3DLAYER
10
14.1528593128461
20
40.9571866132435
30
0.0
 70
     32
  0
VERTEX
  8
MY3DLAYER
10
14.5306165813778
20
41.5545768779608
30
0.0
 70
     32
  0
VERTEX
  8
MY3DLAYER
10
14.9276470335911
20
42.1393353771062
30
0.0
 70
     32
  0
VERTEX
  8
MY3DLAYER
10
15.3435286514194
20
42.7108405496637
30
0.0
 70
     32
  0
VERTEX
  8
MY3DLAYER
10
15.7778193792084
20
43.2684849220588
30
0.0
 70
     32
  0
VERTEX
  8
MY3DLAYER
10
16.2300575935933
20
43.8116757538641
30
0.0
 70
     32
  0
VERTEX
  8
MY3DLAYER
10
16.699762594175
20
44.3398356678448
30
0.0
 70
     32
  0
VERTEX
  8
MY3DLAYER
10
17.1864351144734
20
44.8524032636738
30
0.0
 70
     32
  0
VERTEX
  8
MY3DLAYER
10
17.6895578526168
20
45.3488337146642
30
0.0
 70
     32
  0
VERTEX
  8
MY3DLAYER
10
18.2085960212003
20
45.8285993468858
30
0.0
 70
     32
  0
VERTEX
  8
MY3DLAYER
10
18.7429979157306
20
46.2911902000485
30
0.0
 70
     32
  0
VERTEX
  8
MY3DLAYER
10
19.2921955010532
20
46.7361145695579
30
0.0
 70
     32
  0
VERTEX
  8
MY3DLAYER
10
19.8556050151368
20
47.1628995291658
30
0.0
 70
     32
  0
VERTEX
  8
MY3DLAYER
10
20.4326275895761
20
47.5710914336604
30
0.0
 70
     32
  0
VERTEX
  8
MY3DLAYER
10
21.0226498861498
20
47.9602564010627
30
0.0
 70
     32
  0
VERTEX
  8
MY3DLAYER
10
21.625044748761
20
48.3299807738152
30
0.0
 70
     32
  0
VERTEX
  8
MY3DLAYER
10
22.2391718700632
20
48.6798715584733
30
0.0
 70
     32
  0
VERTEX
  8
MY3DLAYER
10
22.8643784720666
20
49.0095568434325
30
0.0
 70
     32
  0
VERTEX
  8
MY3DLAYER
10
23.5
20
49.3186861942471
30
0.0
 70
     32
  0
VERTEX
  8
MY3DLAYER
10
23.7376863513829
20
49.4191772930968
30
0.0
 70
     32
  0
VERTEX
  8
MY3DLAYER
10
23.9820463322599
20
49.5021318730034
30
0.0
 70
     32
  0
VERTEX
  8
MY3DLAYER
10
24.2317880545353
20
49.5671113677425
30
0.0
 70
     32
  0
VERTEX
  8
MY3DLAYER
10
24.4855911777967
20
49.6137722421929
30
0.0
 70
     32
  0
VERTEX
  8
MY3DLAYER
10
24.7421138897211
20
49.6418678085454
30
0.0
 70
     32
  0
VERTEX
  8
MY3DLAYER
10
25.0
20
49.651249530499
30
0.0
 70
     32
  0
VERTEX
  8
MY3DLAYER
10
25.257886110279
20
49.6418678085454
30
0.0
 70
     32
  0
VERTEX
  8
MY3DLAYER
10
25.5144088222033
20
49.6137722421929
30
0.0
 70
     32
  0
VERTEX
  8
MY3DLAYER
10
25.7682119454647
20
49.5671113677426
30
0.0
 70
     32
  0
VERTEX
  8
MY3DLAYER
10
26.0179536677401
20
49.5021318730034
30
0.0
 70
     32
  0
VERTEX
  8
MY3DLAYER
10
26.2623136486171
20
49.4191772930968
30
0.0
 70
     32
  0
VERTEX
  8
MY3DLAYER
10
26.5
20
49.3186861942471
30
0.0
 70
     32
  0
VERTEX
  8
MY3DLAYER
10
27.1356215279334
20
49.0095568434325
30
0.0
 70
     32
  0
VERTEX
  8
MY3DLAYER
10
27.7608281299368
20
48.6798715584733
30
0.0
 70
     32
  0
VERTEX
  8
MY3DLAYER
10
28.374955251239
20
48.3299807738152
30
0.0
 70
     32
  0
VERTEX
  8
MY3DLAYER
10
28.9773501138502
20
47.9602564010627
30
0.0
 70
     32
  0
VERTEX
  8
MY3DLAYER
10
29.5673724104239
20
47.5710914336605
30
0.0
 70
     32
  0
VERTEX
  8
MY3DLAYER
10
30.1443949848632
20
47.1628995291658
30
0.0
 70
     32
  0
VERTEX
  8
MY3DLAYER
10
30.7078044989468
20
46.7361145695579
30
0.0
 70
     32
  0
VERTEX
  8
MY3DLAYER
10
31.2570020842694
20
46.2911902000485
30
0.0
 70
     32
  0
VERTEX
  8
MY3DLAYER
10
31.7914039787997
20
45.8285993468858
30
0.0
 70
     32
  0
VERTEX
  8
MY3DLAYER
10
32.3104421473832
20
45.3488337146642
30
0.0
 70
     32
  0
VERTEX
  8
MY3DLAYER
10
32.8135648855266
20
44.8524032636738
30
0.0
 70
     32
  0
VERTEX
  8
MY3DLAYER
10
33.300237405825
20
44.3398356678449
30
0.0
 70
     32
  0
VERTEX
  8
MY3DLAYER
10
33.7699424064067
20
43.8116757538641
30
0.0
 70
     32
  0
VERTEX
  8
MY3DLAYER
10
34.2221806207916
20
43.2684849220588
30
0.0
 70
     32
  0
VERTEX
  8
MY3DLAYER
10
34.6564713485806
20
42.7108405496637
30
0.0
 70
     32
  0
VERTEX
  8
MY3DLAYER
10
35.0723529664089
20
42.1393353771062
30
0.0
 70
     32
  0
VERTEX
  8
MY3DLAYER
10
35.4693834186222
20
41.5545768779608
30
0.0
 70
     32
  0
VERTEX
  8
MY3DLAYER
10
35.8471406871539
20
40.9571866132435
30
0.0
 70
     32
  0
VERTEX
  8
MY3DLAYER
10
36.2052232401031
20
40.3477995707321
30
0.0
 70
     32
  0
VERTEX
  8
MY3DLAYER
10
36.543250458538
20
39.7270634900144
30
0.0
 70
     32
  0
VERTEX
  8
MY3DLAYER
10
36.860863041069
20
39.0956381739829
30
0.0
 70
     32
  0
VERTEX
  8
MY3DLAYER
10
37.157723385763
20
38.4541947875056
30
0.0
 70
     32
  0
VERTEX
  8
MY3DLAYER
10
37.433515948994
20
37.8034151440209
30
0.0
 70
     32
  0
VERTEX
  8
MY3DLAYER
10
37.687947580844
20
37.1439909808137
30
0.0
 70
     32
  0
VERTEX
  8
MY3DLAYER
10
37.9207478367045
20
36.4766232237422
30
0.0
 70
     32
  0
VERTEX
  8
MY3DLAYER
10
38.1316692647404
20
35.8020212421983
30
0.0
 70
     32
  0
VERTEX
  8
MY3DLAYER
10
38.3204876689165
20
35.1209020950942
30
0.0
 70
     32
  0
VERTEX
  8
MY3DLAYER
10
38.4870023473031
20
34.4339897686731
30
0.0
 70
     32
  0
VERTEX
  8
MY3DLAYER
10
38.6310363054097
20
33.7420144069588
30
0.0
 70
     32
  0
VERTEX
  8
MY3DLAYER
10
38.7524364443186
20
33.045711535659
30
0.0
 70
     32
  0
VERTEX
  8
MY3DLAYER
10
38.8510737234192
20
32.3458212803481
30
0.0
 70
     32
  0
VERTEX
  8
MY3DLAYER
10
38.9268432975705
20
31.6430875797613
30
0.0
 70
     32
  0
VERTEX
  8
MY3DLAYER
10
38.9796646285442
20
30.9382573950348
30
0.0
 70
     32
  0
VERTEX
  8
MY3DLAYER
10
39.0094815706318
20
30.2320799157337
30
0.0
 70
     32
  0
VERTEX
  8
MY3DLAYER
10
39.0162624303242
20
29.5253057635116
30
0.0
 70
     32
  0
VERTEX
  8
MY3DLAYER
10
38.9999999999999
20
28.8186861942472
30
0.0
 70
     32
  0
VERTEX
  8
MY3DLAYER
10
38.9583069699213
20
28.0387916056435
30
0.0
 70
     32
  0
VERTEX
  8
MY3DLAYER
10
38.8946457482839
20
27.2603822487173
30
0.0
 70
     32
  0
VERTEX
  8
MY3DLAYER
10
38.8090669330388
20
26.4840768033727
30
0.0
 70
     32
  0
VERTEX
  8
MY3DLAYER
10
38.7016385422443
20
25.7104922773241
30
0.0
 70
     32
  0
VERTEX
  8
MY3DLAYER
10
38.572445960006
20
24.9402435156989
30
0.0
 70
     32
  0
VERTEX
  8
MY3DLAYER
10
38.4215918686123
20
24.1739427123584
30
0.0
 70
     32
  0
VERTEX
  8
MY3DLAYER
10
38.2491961669238
20
23.4121989233258
30
0.0
 70
     32
  0
VERTEX
  8
MY3DLAYER
10
38.0553958750767
20
22.6556175827083
30
0.0
 70
     32
  0
VERTEX
  8
MY3DLAYER
10
37.8403450255795
20
21.9048000214985
30
0.0
 70
     32
  0
VERTEX
  8
MY3DLAYER
10
37.6042145408879
20
21.1603429896358
30
0.0
 70
     32
  0
VERTEX
  8
MY3DLAYER
10
37.4851462129422
20
20.8186861942472
30
0.0
 70
     32
  0
VERTEX
  8
MY3DLAYER
10
38.0796633609625
20
20.5059644385589
30
0.0
 70
     32
  0
VERTEX
  8
MY3DLAYER
10
38.6551331340341
20
20.1594387164949
30
0.0
 70
     32
  0
VERTEX
  8
MY3DLAYER
10
39.2096355666504
20
19.7802651572986
30
0.0
 70
     32
  0
VERTEX
  8
MY3DLAYER
10
39.7413206475798
20
19.3697088146509
30
0.0
 70
     32
  0
VERTEX
  8
MY3DLAYER
10
40.2484144921397
20
18.9291394460146
30
0.0
 70
     32
  0
VERTEX
  8
MY3DLAYER
10
40.7292252604878
20
18.4600269426517
30
0.0
 70
     32
  0
VERTEX
  8
MY3DLAYER
10
41.1821488021832
20
17.9639364255591
30
0.0
 70
     32
  0
VERTEX
  8
MY3DLAYER
10
41.6056740081845
20
17.4425230236863
30
0.0
 70
     32
  0
VERTEX
  8
MY3DLAYER
10
41.998387852431
20
16.8975263518541
30
0.0
 70
     32
  0
VERTEX
  8
MY3DLAYER
10
42.358980106184
20
16.3307647068
30
0.0
 70
     32
  0
VERTEX
  8
MY3DLAYER
10
42.6862477094022
20
15.7441290007141
30
0.0
 70
     32
  0
VERTEX
  8
MY3DLAYER
10
42.9790987845637
20
15.1395764525037
30
0.0
 70
     32
  0
VERTEX
  8
MY3DLAYER
10
43.2365562795472
20
14.5191240578368
30
0.0
 70
     32
  0
VERTEX
  8
MY3DLAYER
10
43.4577612274129
20
13.8848418597492
30
0.0
 70
     32
  0
VERTEX
  8
MY3DLAYER
10
43.6419756122137
20
13.2388460422678
30
0.0
 70
     32
  0
VERTEX
  8
MY3DLAYER
10
43.7885848312696
20
12.5832918700907
30
0.0
 70
     32
  0
VERTEX
  8
MY3DLAYER
10
43.8970997456953
20
11.9203664978818
30
0.0
 70
     32
  0
VERTEX
  8
MY3DLAYER
10
43.9671583123351
20
11.2522816731691
30
0.0
 70
     32
  0
VERTEX
  8
MY3DLAYER
10
43.9985267916641
20
10.5812663571921
30
0.0
 70
     32
  0
VERTEX
  8
MY3DLAYER
10
43.9911005276234
20
9.90955928831951
30
0.0
 70
     32
  0
VERTEX
  8
MY3DLAYER
10
43.9449042967898
20
9.23940151284585
30
0.0
 70
     32
  0
VERTEX
  8
MY3DLAYER
10
43.8600922257111
20
8.57302890808902
30
0.0
 70
     32
  0
VERTEX
  8
MY3DLAYER
10
43.7369472766884
20
7.91266472273273
30
0.0
 70
     32
  0
VERTEX
  8
MY3DLAYER
10
43.5758803037152
20
7.26051215930278
30
0.0
 70
     32
  0
VERTEX
  8
MY3DLAYER
10
43.3774286817268
20
6.61874702352394
30
0.0
 70
     32
  0
VERTEX
  8
MY3DLAYER
10
43.1422545137337
20
5.98951046508206
30
0.0
 70
     32
  0
VERTEX
  8
MY3DLAYER
10
42.871142421816
20
5.374901834011
30
0.0
 70
     32
  0
VERTEX
  8
MY3DLAYER
10
42.5649969293548
20
4.77697167653715
30
0.0
 70
     32
  0
VERTEX
  8
MY3DLAYER
10
42.22483944323
20
4.19771489375048
30
0.0
 70
     32
  0
VERTEX
  8
MY3DLAYER
10
41.8518048460554
20
3.63906408592704
30
0.0
 70
     32
  0
VERTEX
  8
MY3DLAYER
10
41.4471377098184
20
3.10288310470821
30
0.0
 70
     32
  0
VERTEX
  8
MY3DLAYER
10
41.0121881435595
20
2.59096083464928
30
0.0
 70
     32
  0
VERTEX
  8
MY3DLAYER
10
40.5484072889429
20
2.1050052248842
30
0.0
 70
     32
  0
VERTEX
  8
MY3DLAYER
10
40.0573424787481
20
1.64663759081815
30
0.0
 70
     32
  0
VERTEX
  8
MY3DLAYER
10
39.5406320744337
20
1.21738720486097
30
0.0
 70
     32
  0
VERTEX
  8
MY3DLAYER
10
38.9999999999999
20
0.818686194247161
30
0.0
 70
     32
  0
VERTEX
  8
MY3DLAYER
10
38.8982398569649
20
0.765108819016616
30
0.0
 70
     32
  0
VERTEX
  8
MY3DLAYER
10
38.7865545834781
20
0.737685078694062
30
0.0
 70
     32
  0
VERTEX
  8
MY3DLAYER
10
38.6715522460617
20
0.738037549781131
30
0.0
 70
     32
  0
VERTEX
  8
MY3DLAYER
10
38.5600371714826
20
0.766145377671667
30
0.0
 70
     32
  0
VERTEX
  8
MY3DLAYER
10
38.4586073561288
20
0.820345510553238
30
0.0
 70
     32
  0
VERTEX
  8
MY3DLAYER
10
38.3732640833051
20
0.897431096954639
30
0.0
 70
     32
  0
VERTEX
  8
MY3DLAYER
10
38.3090568461671
20
0.99284122506594
30
0.0
 70
     32
  0
VERTEX
  8
MY3DLAYER
10
38.269784585085
20
1.10093077755188
30
0.0
 70
     32
  0
VERTEX
  8
MY3DLAYER
10
38.2577709162854
20
1.21530443539788
30
0.0
 70
     32
  0
VERTEX
  8
MY3DLAYER
10
38.2737266507828
20
1.32919506883079
30
0.0
 70
     32
  0
VERTEX
  8
MY3DLAYER
10
38.316707737928
20
1.43586412711351
30
0.0
 70
     32
  0
VERTEX
  8
MY3DLAYER
10
38.3841711219162
20
1.52900033740776
30
0.0
 70
     32
  0
VERTEX
  8
MY3DLAYER
10
38.4064724572141
20
1.62349987203518
30
0.0
 70
     32
  0
VERTEX
  8
MY3DLAYER
10
38.5118571589549
20
1.9841256214921
30
0.0
 70
     32
  0
VERTEX
  8
MY3DLAYER
10
38.5981517021506
20
2.34978956331166
30
0.0
 70
     32
  0
VERTEX
  8
MY3DLAYER
10
38.6651177765653
20
2.71948188323436
30
0.0
 70
     32
  0
VERTEX
  8
MY3DLAYER
10
38.7125704492892
20
3.09218164226801
30
0.0
 70
     32
  0
VERTEX
  8
MY3DLAYER
10
38.740378675447
20
3.46685959610345
30
0.0
 70
     32
  0
VERTEX
  8
MY3DLAYER
10
38.748465660091
20
3.84248103746664
30
0.0
 70
     32
  0
VERTEX
  8
MY3DLAYER
10
38.736809070277
20
4.21800865355664
30
0.0
 70
     32
  0
VERTEX
  8
MY3DLAYER
10
38.705441096739
20
4.59240539067983
30
0.0
 70
     32
  0
VERTEX
  8
MY3DLAYER
10
38.6544483649909
20
4.96463731816758
30
0.0
 70
     32
  0
VERTEX
  8
MY3DLAYER
10
38.583971696103
20
5.33367648367017
30
0.0
 70
     32
  0
VERTEX
  8
MY3DLAYER
10
38.4942057178116
20
5.69850375194075
30
0.0
 70
     32
  0
VERTEX
  8
MY3DLAYER
10
38.3853983270367
20
6.05811161927001
30
0.0
 70
     32
  0
VERTEX
  8
MY3DLAYER
10
38.2578500052916
20
6.41150699579947
30
0.0
 70
     32
  0
VERTEX
  8
MY3DLAYER
10
38.1119129888771
20
6.75771394802949
30
0.0
 70
     32
  0
VERTEX
  8
MY3DLAYER
10
37.9479902961475
20
7.09577639394836
30
0.0
 70
     32
  0
VERTEX
  8
MY3DLAYER
10
37.7665346145399
20
7.42476074334008
30
0.0
 70
     32
  0
VERTEX
  8
MY3DLAYER
10
37.5680470504356
20
7.74375847597824
30
0.0
 70
     32
  0
VERTEX
  8
MY3DLAYER
10
37.35307574531
20
8.05188865058793
30
0.0
 70
     32
  0
VERTEX
  8
MY3DLAYER
10
37.1222143619899
20
8.34830033764476
30
0.0
 70
     32
  0
VERTEX
  8
MY3DLAYER
10
36.8761004451989
20
8.6321749692944
30
0.0
 70
     32
  0
VERTEX
  8
MY3DLAYER
10
36.6154136609207
20
8.90272859990219
30
0.0
 70
     32
  0
VERTEX
  8
MY3DLAYER
10
36.3408739194387
20
9.1592140709904
30
0.0
 70
     32
  0
VERTEX
  8
MY3DLAYER
10
36.0532393872386
20
9.40092307458441
30
0.0
 70
     32
  0
VERTEX
  8
MY3DLAYER
10
35.7533043932627
20
9.62718810926944
30
0.0
 70
     32
  0
VERTEX
  8
MY3DLAYER
10
35.441897235298
20
9.83738432355677
30
0.0
 70
     32
  0
VERTEX
  8
MY3DLAYER
10
35.1198778925567
20
10.0309312414678
30
0.0
 70
     32
  0
VERTEX
  8
MY3DLAYER
10
34.7881356507653
20
10.2072943655713
30
0.0
 70
     32
  0
VERTEX
  8
MY3DLAYER
10
34.4475866463208
20
10.3659866530468
30
0.0
 70
     32
  0
VERTEX
  8
MY3DLAYER
10
34.099171336297
20
10.5065698606978
30
0.0
 70
     32
  0
VERTEX
  8
MY3DLAYER
10
33.7438519012869
20
10.6286557551999
30
0.0
 70
     32
  0
VERTEX
  8
MY3DLAYER
10
33.3826095882524
20
10.7319071852427
30
0.0
 70
     32
  0
VERTEX
  8
MY3DLAYER
10
33.0164420007227
20
10.8160390126037
30
0.0
 70
     32
  0
VERTEX
  8
MY3DLAYER
10
32.6463603438209
20
10.8808188995838
30
0.0
 70
     32
  0
VERTEX
  8
MY3DLAYER
10
32.2733866317286
20
10.9260679506285
30
0.0
 70
     32
  0
VERTEX
  8
MY3DLAYER
10
31.8985508653012
20
10.9516612063647
30
0.0
 70
     32
  0
VERTEX
  8
MY3DLAYER
10
31.5228881876268
20
10.957527988687
30
0.0
 70
     32
  0
VERTEX
  8
MY3DLAYER
10
31.1616227115661
20
10.5760849843213
30
0.0
 70
     32
  0
VERTEX
  8
MY3DLAYER
10
30.6087966741628
20
10.024399158457
30
0.0
 70
     32
  0
VERTEX
  8
MY3DLAYER
10
30.0406386375607
20
9.48851640678929
30
0.0
 70
     32
  0
VERTEX
  8
MY3DLAYER
10
29.4576001738745
20
8.96886264903042
30
0.0
 70
     32
  0
VERTEX
  8
MY3DLAYER
10
28.8601446821851
20
8.46585090608523
30
0.0
 70
     32
  0
VERTEX
  8
MY3DLAYER
10
28.2487470202304
20
7.97988097178193
30
0.0
 70
     32
  0
VERTEX
  8
MY3DLAYER
10
28.1192954940842
20
7.88281274246675
30
0.0
 70
     32
  0
VERTEX
  8
MY3DLAYER
10
28.0865092852018
20
7.86119647544357
30
0.0
 70
     32
  0
VERTEX
  8
MY3DLAYER
10
28.0513533200378
20
7.8436962866938
30
0.0
 70
     32
  0
VERTEX
  8
MY3DLAYER
10
28.0143418273527
20
7.83056815270188
30
0.0
 70
     32
  0
VERTEX
  8
MY3DLAYER
10
27.9760161768378
20
7.82200409960163
30
0.0
 70
     32
  0
VERTEX
  8
MY3DLAYER
10
27.936936960463
20
7.81812939439659
30
0.0
 70
     32
  0
VERTEX
  8
MY3DLAYER
10
27.8976757926587
20
7.8190007126707
30
0.0
 70
     32
  0
VERTEX
  8
MY3DLAYER
10
27.8588069492715
20
7.82460530959063
30
0.0
 70
     32
  0
VERTEX
  8
MY3DLAYER
10
27.8208989675914
20
7.83486120632538
30
0.0
 70
     32
  0
VERTEX
  8
MY3DLAYER
10
27.784506330317
20
7.84961838915628
30
0.0
 70
     32
  0
VERTEX
  8
MY3DLAYER
10
27.7501613550982
20
7.86866100373826
30
0.0
 70
     32
  0
VERTEX
  8
MY3DLAYER
10
27.7183664082892
20
7.89171051241634
30
0.0
 70
     32
  0
VERTEX
  8
MY3DLAYER
10
27.6895865567998
20
7.91842976841541
30
0.0
 70
     32
  0
VERTEX
  8
MY3DLAYER
10
27.6642427655303
20
7.94842794730979
30
0.0
 70
     32
  0
VERTEX
  8
MY3DLAYER
10
27.6427057398875
20
7.98126626363927
30
0.0
 70
     32
  0
VERTEX
  8
MY3DLAYER
10
27.6252905034515
20
8.01646438905484
30
0.0
 70
     32
  0
VERTEX
  8
MY3DLAYER
10
27.6122517901032
20
8.05350747811492
30
0.0
 70
     32
  0
VERTEX
  8
MY3DLAYER
10
27.6037803180145
20
8.09185369896577
30
0.0
 70
     32
  0
VERTEX
  8
MY3DLAYER
10
27.6
20
8.13094215875383
30
0.0
 70
     32
  0
VERTEX
  8
MY3DLAYER
10
27.6
20
8.28274345112798
30
0.0
 70
     32
  0
SEQEND
 0
ENDSEC
 0
EOF
