 0
SECTION
 2
ENTITIES
  0
POLYLINE
 8
Layer0
 66
     1
70
    8
 10
0.0
 20
 0.0
 30
0.0
  0
VERTEX
  8
MY3DLAYER
10
83.5
20
0.0
30
0.0
 70
     32
  0
VERTEX
  8
MY3DLAYER
10
66.5
20
0.0
30
0.0
 70
     32
  0
VERTEX
  8
MY3DLAYER
10
66.1115261667336
20
0.0520738954413826
30
0.0
 70
     32
  0
VERTEX
  8
MY3DLAYER
10
65.9256840655498
20
0.115580313340258
30
0.0
 70
     32
  0
VERTEX
  8
MY3DLAYER
10
65.7497024643421
20
0.202763039399561
30
0.0
 70
     32
  0
VERTEX
  8
MY3DLAYER
10
65.5865826366062
20
0.312135218157082
30
0.0
 70
     32
  0
VERTEX
  8
MY3DLAYER
10
65.4391065050673
20
0.441831564724976
30
0.0
 70
     32
  0
VERTEX
  8
MY3DLAYER
10
65.3097891974533
20
0.589640176240833
30
0.0
 70
     32
  0
VERTEX
  8
MY3DLAYER
10
65.2008361523172
20
0.753040254705696
30
0.0
 70
     32
  0
VERTEX
  8
MY3DLAYER
10
65.1141055064436
20
0.929245097865887
30
0.0
 70
     32
  0
VERTEX
  8
MY3DLAYER
10
65.0510764053054
20
1.11524962495182
30
0.0
 70
     32
  0
VERTEX
  8
MY3DLAYER
10
65.0
20
1.50385586594677
30
0.0
 70
     32
  0
VERTEX
  8
MY3DLAYER
10
65.0
20
10.9945965434476
30
0.0
 70
     32
  0
VERTEX
  8
MY3DLAYER
10
59.8978667150661
20
28.7155350087173
30
0.0
 70
     32
  0
VERTEX
  8
MY3DLAYER
10
59.4011534050908
20
30.439665056699
30
0.0
 70
     32
  0
VERTEX
  8
MY3DLAYER
10
59.1006046417081
20
32.2085683823471
30
0.0
 70
     32
  0
VERTEX
  8
MY3DLAYER
10
59.0
20
34.0
30
0.0
 70
     32
  0
VERTEX
  8
MY3DLAYER
10
59.1006046417081
20
35.7914316176529
30
0.0
 70
     32
  0
VERTEX
  8
MY3DLAYER
10
59.4011534050908
20
37.560334943301
30
0.0
 70
     32
  0
VERTEX
  8
MY3DLAYER
10
59.8978667150661
20
39.2844649912827
30
0.0
 70
     32
  0
VERTEX
  8
MY3DLAYER
10
60.5844981135613
20
40.9421398258809
30
0.0
 70
     32
  0
VERTEX
  8
MY3DLAYER
10
61.4524128123474
20
42.5125132242454
30
0.0
 70
     32
  0
VERTEX
  8
MY3DLAYER
10
62.4906962805115
20
43.9758368297397
30
0.0
 70
     32
  0
VERTEX
  8
MY3DLAYER
10
63.6862915010152
20
45.3137084989848
30
0.0
 70
     32
  0
VERTEX
  8
MY3DLAYER
10
65.0241631702603
20
46.5093037194885
30
0.0
 70
     32
  0
VERTEX
  8
MY3DLAYER
10
66.4874867757546
20
47.5475871876525
30
0.0
 70
     32
  0
VERTEX
  8
MY3DLAYER
10
68.0578601741191
20
48.4155018864387
30
0.0
 70
     32
  0
VERTEX
  8
MY3DLAYER
10
69.7155350087173
20
49.1021332849339
30
0.0
 70
     32
  0
VERTEX
  8
MY3DLAYER
10
71.439665056699
20
49.5988465949092
30
0.0
 70
     32
  0
VERTEX
  8
MY3DLAYER
10
73.2085683823471
20
49.8993953582919
30
0.0
 70
     32
  0
VERTEX
  8
MY3DLAYER
10
75.0
20
50.0
30
0.0
 70
     32
  0
VERTEX
  8
MY3DLAYER
10
76.7914316176529
20
49.8993953582919
30
0.0
 70
     32
  0
VERTEX
  8
MY3DLAYER
10
78.560334943301
20
49.5988465949092
30
0.0
 70
     32
  0
VERTEX
  8
MY3DLAYER
10
80.2844649912827
20
49.1021332849339
30
0.0
 70
     32
  0
VERTEX
  8
MY3DLAYER
10
81.9421398258809
20
48.4155018864387
30
0.0
 70
     32
  0
VERTEX
  8
MY3DLAYER
10
83.5125132242454
20
47.5475871876525
30
0.0
 70
     32
  0
VERTEX
  8
MY3DLAYER
10
84.9758368297397
20
46.5093037194885
30
0.0
 70
     32
  0
VERTEX
  8
MY3DLAYER
10
86.3137084989848
20
45.3137084989848
30
0.0
 70
     32
  0
VERTEX
  8
MY3DLAYER
10
87.5093037194885
20
43.9758368297397
30
0.0
 70
     32
  0
VERTEX
  8
MY3DLAYER
10
88.5475871876525
20
42.5125132242454
30
0.0
 70
     32
  0
VERTEX
  8
MY3DLAYER
10
89.4155018864387
20
40.9421398258809
30
0.0
 70
     32
  0
VERTEX
  8
MY3DLAYER
10
90.1021332849339
20
39.2844649912827
30
0.0
 70
     32
  0
VERTEX
  8
MY3DLAYER
10
90.5988465949092
20
37.560334943301
30
0.0
 70
     32
  0
VERTEX
  8
MY3DLAYER
10
90.8993953582919
20
35.7914316176529
30
0.0
 70
     32
  0
VERTEX
  8
MY3DLAYER
10
91.0
20
34.0
30
0.0
 70
     32
  0
VERTEX
  8
MY3DLAYER
10
90.8993953582919
20
32.2085683823471
30
0.0
 70
     32
  0
VERTEX
  8
MY3DLAYER
10
90.5988465949092
20
30.439665056699
30
0.0
 70
     32
  0
VERTEX
  8
MY3DLAYER
10
90.1021332849339
20
28.7155350087173
30
0.0
 70
     32
  0
VERTEX
  8
MY3DLAYER
10
85.0
20
10.9945965434476
30
0.0
 70
     32
  0
VERTEX
  8
MY3DLAYER
10
85.0
20
1.50385586594677
30
0.0
 70
     32
  0
VERTEX
  8
MY3DLAYER
10
84.9489235946946
20
1.11524962495182
30
0.0
 70
     32
  0
VERTEX
  8
MY3DLAYER
10
84.8858944935564
20
0.929245097865887
30
0.0
 70
     32
  0
VERTEX
  8
MY3DLAYER
10
84.7991638476828
20
0.753040254705696
30
0.0
 70
     32
  0
VERTEX
  8
MY3DLAYER
10
84.6902108025467
20
0.589640176240833
30
0.0
 70
     32
  0
VERTEX
  8
MY3DLAYER
10
84.5608934949327
20
0.441831564724976
30
0.0
 70
     32
  0
VERTEX
  8
MY3DLAYER
10
84.4134173633938
20
0.312135218157082
30
0.0
 70
     32
  0
VERTEX
  8
MY3DLAYER
10
84.2502975356579
20
0.202763039399561
30
0.0
 70
     32
  0
VERTEX
  8
MY3DLAYER
10
84.0743159344502
20
0.115580313340258
30
0.0
 70
     32
  0
VERTEX
  8
MY3DLAYER
10
83.8884738332664
20
0.0520738954413826
30
0.0
 70
     32
  0
VERTEX
  8
MY3DLAYER
10
83.5
20
0.0
30
0.0
 70
     32
  0
SEQEND
  0
POLYLINE
 8
Layer0
 66
     1
70
    8
 10
0.0
 20
 0.0
 30
0.0
  0
VERTEX
  8
MY3DLAYER
10
68.5768036606407
20
11.0504572355979
30
0.0
 70
     32
  0
VERTEX
  8
MY3DLAYER
10
69.0
20
10.9945965434476
30
0.0
 70
     32
  0
VERTEX
  8
MY3DLAYER
10
81.0
20
10.9945965434476
30
0.0
 70
     32
  0
VERTEX
  8
MY3DLAYER
10
81.4231963393593
20
11.0504572355979
30
0.0
 70
     32
  0
VERTEX
  8
MY3DLAYER
10
81.6276588821065
20
11.1127995145858
30
0.0
 70
     32
  0
VERTEX
  8
MY3DLAYER
10
81.8240578733833
20
11.1971732507927
30
0.0
 70
     32
  0
VERTEX
  8
MY3DLAYER
10
82.0100274640015
20
11.3025620666193
30
0.0
 70
     32
  0
VERTEX
  8
MY3DLAYER
10
82.1833274387641
20
11.4276964339344
30
0.0
 70
     32
  0
VERTEX
  8
MY3DLAYER
10
82.3418702024042
20
11.5710689669852
30
0.0
 70
     32
  0
VERTEX
  8
MY3DLAYER
10
82.4837459270445
20
11.7309525805728
30
0.0
 70
     32
  0
VERTEX
  8
MY3DLAYER
10
82.6072455582456
20
11.9054212947574
30
0.0
 70
     32
  0
VERTEX
  8
MY3DLAYER
10
82.71088140251
20
12.092373435477
30
0.0
 70
     32
  0
VERTEX
  8
MY3DLAYER
10
82.8538224042875
20
12.4945965434476
30
0.0
 70
     32
  0
VERTEX
  8
MY3DLAYER
10
84.9758368297397
20
21.4906962805115
30
0.0
 70
     32
  0
VERTEX
  8
MY3DLAYER
10
83.5125132242454
20
20.4524128123474
30
0.0
 70
     32
  0
VERTEX
  8
MY3DLAYER
10
81.9421398258809
20
19.5844981135613
30
0.0
 70
     32
  0
VERTEX
  8
MY3DLAYER
10
80.2844649912827
20
18.8978667150661
30
0.0
 70
     32
  0
VERTEX
  8
MY3DLAYER
10
78.560334943301
20
18.4011534050908
30
0.0
 70
     32
  0
VERTEX
  8
MY3DLAYER
10
76.7914316176529
20
18.1006046417081
30
0.0
 70
     32
  0
VERTEX
  8
MY3DLAYER
10
75.0
20
18.0
30
0.0
 70
     32
  0
VERTEX
  8
MY3DLAYER
10
73.2085683823471
20
18.1006046417081
30
0.0
 70
     32
  0
VERTEX
  8
MY3DLAYER
10
71.439665056699
20
18.4011534050908
30
0.0
 70
     32
  0
VERTEX
  8
MY3DLAYER
10
69.7155350087173
20
18.8978667150661
30
0.0
 70
     32
  0
VERTEX
  8
MY3DLAYER
10
68.0578601741191
20
19.5844981135613
30
0.0
 70
     32
  0
VERTEX
  8
MY3DLAYER
10
66.4874867757546
20
20.4524128123474
30
0.0
 70
     32
  0
VERTEX
  8
MY3DLAYER
10
65.0241631702603
20
21.4906962805115
30
0.0
 70
     32
  0
VERTEX
  8
MY3DLAYER
10
67.1461775957125
20
12.4945965434476
30
0.0
 70
     32
  0
VERTEX
  8
MY3DLAYER
10
67.28911859749
20
12.092373435477
30
0.0
 70
     32
  0
VERTEX
  8
MY3DLAYER
10
67.3927544417544
20
11.9054212947574
30
0.0
 70
     32
  0
VERTEX
  8
MY3DLAYER
10
67.5162540729555
20
11.7309525805728
30
0.0
 70
     32
  0
VERTEX
  8
MY3DLAYER
10
67.6581297975958
20
11.5710689669852
30
0.0
 70
     32
  0
VERTEX
  8
MY3DLAYER
10
67.8166725612359
20
11.4276964339344
30
0.0
 70
     32
  0
VERTEX
  8
MY3DLAYER
10
67.9899725359985
20
11.3025620666193
30
0.0
 70
     32
  0
VERTEX
  8
MY3DLAYER
10
68.1759421266167
20
11.1971732507927
30
0.0
 70
     32
  0
VERTEX
  8
MY3DLAYER
10
68.3723411178935
20
11.1127995145858
30
0.0
 70
     32
  0
VERTEX
  8
MY3DLAYER
10
68.5768036606407
20
11.0504572355979
30
0.0
 70
     32
  0
SEQEND
 0
ENDSEC
 0
EOF
