  0
SECTION
  2
HEADER
  9
$ACADVER
  1
AC1009
  9
$EXTMAX
 10
47.4302177429199
 20
50.5267181396484
 30
0.0
  9
$EXTMIN
 10
-0.4743021726608
 20
-0.5075142979622
 30
0.0
  9
$INSUNITS
 70
     4
  9
$LUNITS
 70
     2
  9
$LUPREC
 70
     4
  9
$MEASUREMENT
 70
     1
  0
ENDSEC
  0
SECTION
  2
TABLES
  0
TABLE
  2
LAYER
 70
     1
  0
LAYER
  2
0
 70
     0
 62
     7
  6
Continuous
  0
LAYER
  2
Group1
 70
     0
 62
    70
  6
Continuous
  0
ENDTAB
  0
TABLE
  2
APPID
 70
     1
  0
APPID
  2
ACAD
 70
     0
  0
ENDTAB
  0
ENDSEC
  0
SECTION
  2
ENTITIES
  0
POLYLINE
  8
Group1
 66
     1
 10
0.0
 20
0.0
 30
0.0
 70
     9
  0
VERTEX
  8
Group1
 10
35.4768044494927
 20
36.81317291198
 30
0.0
 42
0.0
  0
VERTEX
  8
Group1
 10
35.4862319198839
 20
36.0783984390885
 30
0.0
 42
0.0
  0
VERTEX
  8
Group1
 10
35.7851707398035
 20
36.1076411930932
 30
0.0
 42
0.0
  0
VERTEX
  8
Group1
 10
35.9532321515746
 20
36.1267908960969
 30
0.0
 42
0.0
  0
VERTEX
  8
Group1
 10
36.5871066536008
 20
36.1688237104923
 30
0.0
 42
0.0
  0
VERTEX
  8
Group1
 10
37.2222522859499
 20
36.1808745807942
 30
0.0
 42
0.0
  0
VERTEX
  8
Group1
 10
37.8572590869677
 20
36.1629167552403
 30
0.0
 42
0.0
  0
VERTEX
  8
Group1
 10
38.4907174031929
 20
36.1149900984601
 30
0.0
 42
0.0
  0
VERTEX
  8
Group1
 10
39.1212210186483
 20
36.0372010029798
 30
0.0
 42
0.0
  0
VERTEX
  8
Group1
 10
39.7473702765076
 20
35.9297221530409
 30
0.0
 42
0.0
  0
VERTEX
  8
Group1
 10
40.3677751861942
 20
35.7927921412578
 30
0.0
 42
0.0
  0
VERTEX
  8
Group1
 10
40.9810585090281
 20
35.6267149389659
 30
0.0
 42
0.0
  0
VERTEX
  8
Group1
 10
41.5858588155598
 20
35.431859221434
 30
0.0
 42
0.0
  0
VERTEX
  8
Group1
 10
42.1808335078131
 20
35.2086575494418
 30
0.0
 42
0.0
  0
VERTEX
  8
Group1
 10
42.7704183100739
 20
34.9551300506728
 30
0.0
 42
0.0
  0
VERTEX
  8
Group1
 10
43.1504904885937
 20
34.7574501242816
 30
0.0
 42
0.0
  0
VERTEX
  8
Group1
 10
43.5143156231987
 20
34.5194095421814
 30
0.0
 42
0.0
  0
VERTEX
  8
Group1
 10
43.8527193731658
 20
34.2462641647965
 30
0.0
 42
0.0
  0
VERTEX
  8
Group1
 10
44.1623449431407
 20
33.9407234571784
 30
0.0
 42
0.0
  0
VERTEX
  8
Group1
 10
44.440121002871
 20
33.6058182297951
 30
0.0
 42
0.0
  0
VERTEX
  8
Group1
 10
44.6832921532607
 20
33.2448705744128
 30
0.0
 42
0.0
  0
VERTEX
  8
Group1
 10
44.8894462585457
 20
32.8614609106124
 30
0.0
 42
0.0
  0
VERTEX
  8
Group1
 10
45.0565383734709
 20
32.4593924698247
 30
0.0
 42
0.0
  0
VERTEX
  8
Group1
 10
45.1829110281202
 20
32.0426535691834
 30
0.0
 42
0.0
  0
VERTEX
  8
Group1
 10
45.2673106691861
 20
31.6153780494207
 30
0.0
 42
0.0
  0
VERTEX
  8
Group1
 10
45.3089000945896
 20
31.1818042692422
 30
0.0
 42
0.0
  0
VERTEX
  8
Group1
 10
45.30728502941
 20
30.7511055767697
 30
0.0
 42
0.0
  0
VERTEX
  8
Group1
 10
45.2661750551985
 20
30.2559257891573
 30
0.0
 42
0.0
  0
VERTEX
  8
Group1
 10
45.1967333247648
 20
29.7688530529828
 30
0.0
 42
0.0
  0
VERTEX
  8
Group1
 10
45.0987981578406
 20
29.2867267808193
 30
0.0
 42
0.0
  0
VERTEX
  8
Group1
 10
44.9727096122008
 20
28.8112210473885
 30
0.0
 42
0.0
  0
VERTEX
  8
Group1
 10
44.8189055018769
 20
28.343986939084
 30
0.0
 42
0.0
  0
VERTEX
  8
Group1
 10
44.6379198769463
 20
27.8866468209475
 30
0.0
 42
0.0
  0
VERTEX
  8
Group1
 10
44.4303811691647
 20
27.4407887033714
 30
0.0
 42
0.0
  0
VERTEX
  8
Group1
 10
44.1970100098779
 20
27.0079607280916
 30
0.0
 42
0.0
  0
VERTEX
  8
Group1
 10
43.9386167277922
 20
26.5896657926142
 30
0.0
 42
0.0
  0
VERTEX
  8
Group1
 10
43.6560985352908
 20
26.1873563317429
 30
0.0
 42
0.0
  0
VERTEX
  8
Group1
 10
43.3504364130661
 20
25.8024292743266
 30
0.0
 42
0.0
  0
VERTEX
  8
Group1
 10
43.0277749884663
 20
25.4419010400181
 30
0.0
 42
0.0
  0
VERTEX
  8
Group1
 10
42.7229576457336
 20
25.1192823364163
 30
0.0
 42
0.0
  0
VERTEX
  8
Group1
 10
42.4249292785869
 20
24.800730027459
 30
0.0
 42
0.0
  0
VERTEX
  8
Group1
 10
42.1284648983218
 20
24.4807140598524
 30
0.0
 42
0.0
  0
VERTEX
  8
Group1
 10
41.833571655663
 20
24.1592421523855
 30
0.0
 42
0.0
  0
VERTEX
  8
Group1
 10
41.5402566634111
 20
23.8363220589341
 30
0.0
 42
0.0
  0
VERTEX
  8
Group1
 10
41.2485269963006
 20
23.5119615683057
 30
0.0
 42
0.0
  0
VERTEX
  8
Group1
 10
40.9583896908442
 20
23.1861685040673
 30
0.0
 42
0.0
  0
VERTEX
  8
Group1
 10
40.6698517451419
 20
22.8589507243344
 30
0.0
 42
0.0
  0
VERTEX
  8
Group1
 10
40.382920118714
 20
22.5303161215831
 30
0.0
 42
0.0
  0
VERTEX
  8
Group1
 10
40.0976017323308
 20
22.2002726224563
 30
0.0
 42
0.0
  0
VERTEX
  8
Group1
 10
39.8139034678599
 20
21.8688281875897
 30
0.0
 42
0.0
  0
VERTEX
  8
Group1
 10
39.6615817916465
 20
21.6890922588087
 30
0.0
 42
0.0
  0
VERTEX
  8
Group1
 10
39.8620728811506
 20
21.4521365241295
 30
0.0
 42
0.0
  0
VERTEX
  8
Group1
 10
40.1936060122815
 20
21.0629344922003
 30
0.0
 42
0.0
  0
VERTEX
  8
Group1
 10
40.5264273053571
 20
20.6748392129866
 30
0.0
 42
0.0
  0
VERTEX
  8
Group1
 10
40.8605330849762
 20
20.2878549722897
 30
0.0
 42
0.0
  0
VERTEX
  8
Group1
 10
41.1959196615595
 20
19.9019860436332
 30
0.0
 42
0.0
  0
VERTEX
  8
Group1
 10
41.5325833313702
 20
19.5172366882399
 30
0.0
 42
0.0
  0
VERTEX
  8
Group1
 10
41.8705203765886
 20
19.1336111549459
 30
0.0
 42
0.0
  0
VERTEX
  8
Group1
 10
42.2097270653464
 20
18.7511136801613
 30
0.0
 42
0.0
  0
VERTEX
  8
Group1
 10
42.5501996517275
 20
18.3697484878697
 30
0.0
 42
0.0
  0
VERTEX
  8
Group1
 10
42.8919343758295
 20
17.9895197895585
 30
0.0
 42
0.0
  0
VERTEX
  8
Group1
 10
43.2349274638325
 20
17.6104317841412
 30
0.0
 42
0.0
  0
VERTEX
  8
Group1
 10
43.584145549379
 20
17.2270317245047
 30
0.0
 42
0.0
  0
VERTEX
  8
Group1
 10
44.1417457466014
 20
16.5798494588047
 30
0.0
 42
0.0
  0
VERTEX
  8
Group1
 10
44.6651168757339
 20
15.8952040189472
 30
0.0
 42
0.0
  0
VERTEX
  8
Group1
 10
45.1476460797432
 20
15.1810350326557
 30
0.0
 42
0.0
  0
VERTEX
  8
Group1
 10
45.5876807452799
 20
14.4397884559273
 30
0.0
 42
0.0
  0
VERTEX
  8
Group1
 10
45.9837137984581
 20
13.6740029827475
 30
0.0
 42
0.0
  0
VERTEX
  8
Group1
 10
46.3343888664304
 20
12.8863013503208
 30
0.0
 42
0.0
  0
VERTEX
  8
Group1
 10
46.6385049228259
 20
12.0793813564641
 30
0.0
 42
0.0
  0
VERTEX
  8
Group1
 10
46.8950204011441
 20
11.2560066199233
 30
0.0
 42
0.0
  0
VERTEX
  8
Group1
 10
47.1030567620129
 20
10.4189971152617
 30
0.0
 42
0.0
  0
VERTEX
  8
Group1
 10
47.2619015020975
 20
9.5712195147329
 30
0.0
 42
0.0
  0
VERTEX
  8
Group1
 10
47.3710105943505
 20
8.7155773702226
 30
0.0
 42
0.0
  0
VERTEX
  8
Group1
 10
47.4302169541979
 20
7.8519876381617
 30
0.0
 42
0.0
  0
VERTEX
  8
Group1
 10
47.4293329773354
 20
7.5016745005679
 30
0.0
 42
0.0
  0
VERTEX
  8
Group1
 10
47.3989508562424
 20
7.1496537536464
 30
0.0
 42
0.0
  0
VERTEX
  8
Group1
 10
47.3392913891557
 20
6.8014172995886
 30
0.0
 42
0.0
  0
VERTEX
  8
Group1
 10
47.2507731697022
 20
6.4594084984754
 30
0.0
 42
0.0
  0
VERTEX
  8
Group1
 10
47.1340172755471
 20
6.1260270147936
 30
0.0
 42
0.0
  0
VERTEX
  8
Group1
 10
46.9898429106755
 20
5.8036119804732
 30
0.0
 42
0.0
  0
VERTEX
  8
Group1
 10
46.8192616575446
 20
5.4944255826433
 30
0.0
 42
0.0
  0
VERTEX
  8
Group1
 10
46.6234703794334
 20
5.2006371912625
 30
0.0
 42
0.0
  0
VERTEX
  8
Group1
 10
46.4038428227937
 20
4.9243081379901
 30
0.0
 42
0.0
  0
VERTEX
  8
Group1
 10
46.1619199785191
 20
4.6673772530952
 30
0.0
 42
0.0
  0
VERTEX
  8
Group1
 10
45.8993992697637
 20
4.4316472618819
 30
0.0
 42
0.0
  0
VERTEX
  8
Group1
 10
45.6216693877527
 20
4.2214563758549
 30
0.0
 42
0.0
  0
VERTEX
  8
Group1
 10
45.3945838842819
 20
4.0718234978117
 30
0.0
 42
0.0
  0
VERTEX
  8
Group1
 10
45.1646208352101
 20
3.9352163255428
 30
0.0
 42
0.0
  0
VERTEX
  8
Group1
 10
44.9285670829409
 20
3.8094852972095
 30
0.0
 42
0.0
  0
VERTEX
  8
Group1
 10
44.6869339735348
 20
3.6949027747857
 30
0.0
 42
0.0
  0
VERTEX
  8
Group1
 10
44.4402449392065
 20
3.5917169700487
 30
0.0
 42
0.0
  0
VERTEX
  8
Group1
 10
44.1890343644533
 20
3.5001514068959
 30
0.0
 42
0.0
  0
VERTEX
  8
Group1
 10
43.9338464284561
 20
3.420404437141
 30
0.0
 42
0.0
  0
VERTEX
  8
Group1
 10
43.6752339262641
 20
3.3526488108395
 30
0.0
 42
0.0
  0
VERTEX
  8
Group1
 10
43.4137570713151
 20
3.2970313020722
 30
0.0
 42
0.0
  0
VERTEX
  8
Group1
 10
43.1499822818854
 20
3.2536723909998
 30
0.0
 42
0.0
  0
VERTEX
  8
Group1
 10
42.8844809540997
 20
3.2226660028749
 30
0.0
 42
0.0
  0
VERTEX
  8
Group1
 10
42.6200150348914
 20
3.2042317335128
 30
0.0
 42
0.0
  0
VERTEX
  8
Group1
 10
42.1656552879863
 20
3.1896229392781
 30
0.0
 42
0.0
  0
VERTEX
  8
Group1
 10
41.7132571215081
 20
3.1878543015926
 30
0.0
 42
0.0
  0
VERTEX
  8
Group1
 10
41.2609886299469
 20
3.1988567899105
 30
0.0
 42
0.0
  0
VERTEX
  8
Group1
 10
40.8092083915783
 20
3.2226216809769
 30
0.0
 42
0.0
  0
VERTEX
  8
Group1
 10
40.3582745975684
 20
3.2591301329451
 30
0.0
 42
0.0
  0
VERTEX
  8
Group1
 10
39.9085447679854
 20
3.3083532003149
 30
0.0
 42
0.0
  0
VERTEX
  8
Group1
 10
39.4603754683415
 20
3.3702518568818
 30
0.0
 42
0.0
  0
VERTEX
  8
Group1
 10
39.0141220268931
 20
3.4447770266791
 30
0.0
 42
0.0
  0
VERTEX
  8
Group1
 10
38.5701382529201
 20
3.5318696228869
 30
0.0
 42
0.0
  0
VERTEX
  8
Group1
 10
38.1287761562099
 20
3.6314605946793
 30
0.0
 42
0.0
  0
VERTEX
  8
Group1
 10
37.6903856679694
 20
3.7434709819708
 30
0.0
 42
0.0
  0
VERTEX
  8
Group1
 10
37.2575580204359
 20
3.8671707531216
 30
0.0
 42
0.0
  0
VERTEX
  8
Group1
 10
36.7322929782706
 20
4.0278053015818
 30
0.0
 42
0.0
  0
VERTEX
  8
Group1
 10
36.2106475800603
 20
4.1922517426969
 30
0.0
 42
0.0
  0
VERTEX
  8
Group1
 10
35.6904289118941
 20
4.3611803427787
 30
0.0
 42
0.0
  0
VERTEX
  8
Group1
 10
35.1716752847185
 20
4.5345786612616
 30
0.0
 42
0.0
  0
VERTEX
  8
Group1
 10
34.6544249015913
 20
4.7124339284111
 30
0.0
 42
0.0
  0
VERTEX
  8
Group1
 10
34.1387158548487
 20
4.8947330462715
 30
0.0
 42
0.0
  0
VERTEX
  8
Group1
 10
33.6245861233324
 20
5.0814625896191
 30
0.0
 42
0.0
  0
VERTEX
  8
Group1
 10
33.11207356958
 20
5.2726088069551
 30
0.0
 42
0.0
  0
VERTEX
  8
Group1
 10
32.601215937018
 20
5.4681576215254
 30
0.0
 42
0.0
  0
VERTEX
  8
Group1
 10
32.0920508472096
 20
5.668094632347
 30
0.0
 42
0.0
  0
VERTEX
  8
Group1
 10
31.5846157970682
 20
5.8724051152746
 30
0.0
 42
0.0
  0
VERTEX
  8
Group1
 10
31.2379053521615
 20
6.0154787160943
 30
0.0
 42
0.0
  0
VERTEX
  8
Group1
 10
31.1204399291621
 20
5.7571511470829
 30
0.0
 42
0.0
  0
VERTEX
  8
Group1
 10
30.8348465169579
 20
5.1927161727589
 30
0.0
 42
0.0
  0
VERTEX
  8
Group1
 10
30.5260210689281
 20
4.6407152750087
 30
0.0
 42
0.0
  0
VERTEX
  8
Group1
 10
30.1945010603766
 20
4.102109148141
 30
0.0
 42
0.0
  0
VERTEX
  8
Group1
 10
29.8408634638891
 20
3.5778351744001
 30
0.0
 42
0.0
  0
VERTEX
  8
Group1
 10
29.4657237451786
 20
3.0688057925603
 30
0.0
 42
0.0
  0
VERTEX
  8
Group1
 10
29.0697347919382
 20
2.5759069099307
 30
0.0
 42
0.0
  0
VERTEX
  8
Group1
 10
28.6535857775639
 20
2.0999963605347
 30
0.0
 42
0.0
  0
VERTEX
  8
Group1
 10
28.2180009617286
 20
1.6419024121486
 30
0.0
 42
0.0
  0
VERTEX
  8
Group1
 10
27.7637384298901
 20
1.2024223247961
 30
0.0
 42
0.0
  0
VERTEX
  8
Group1
 10
27.2915887739307
 20
0.7823209632088
 30
0.0
 42
0.0
  0
VERTEX
  8
Group1
 10
26.7983936829729
 20
0.3790753150948
 30
0.0
 42
0.0
  0
VERTEX
  8
Group1
 10
26.5138709799354
 20
0.1750515535916
 30
0.0000000000001
 42
0.0
  0
VERTEX
  8
Group1
 10
26.208718609889
 20
-0.0067119564802
 30
0.0000000000001
 42
0.0
  0
VERTEX
  8
Group1
 10
25.8893092389051
 20
-0.1619117778292
 30
0.0000000000001
 42
0.0
  0
VERTEX
  8
Group1
 10
25.5579378811079
 20
-0.2894327716574
 30
0.0000000000001
 42
0.0
  0
VERTEX
  8
Group1
 10
25.2169854996612
 20
-0.3883586765505
 30
0.0000000000001
 42
0.0
  0
VERTEX
  8
Group1
 10
24.8689018991174
 20
-0.4579786919822
 30
0.0000000000001
 42
0.0
  0
VERTEX
  8
Group1
 10
24.5161881231283
 20
-0.4977925855448
 30
0.0
 42
0.0
  0
VERTEX
  8
Group1
 10
24.1613784839941
 20
-0.5075142872091
 30
0.0
 42
0.0
  0
VERTEX
  8
Group1
 10
23.8070223531708
 20
-0.4870739447896
 30
0.0
 42
0.0
  0
VERTEX
  8
Group1
 10
23.4556658435753
 20
-0.4366184258451
 30
0.0
 42
0.0
  0
VERTEX
  8
Group1
 10
23.1098335153032
 20
-0.3565102624085
 30
0.0
 42
0.0
  0
VERTEX
  8
Group1
 10
22.7750936216038
 20
-0.2483216029743
 30
0.0
 42
0.0
  0
VERTEX
  8
Group1
 10
22.4951264987555
 20
-0.1352098738651
 30
0.0
 42
0.0
  0
VERTEX
  8
Group1
 10
22.2250527187201
 20
-0.0074991698814
 30
0.0
 42
0.0
  0
VERTEX
  8
Group1
 10
21.9627660635896
 20
0.1355996835449
 30
0.0
 42
0.0
  0
VERTEX
  8
Group1
 10
21.7091378362197
 20
0.2936113193402
 30
0.0
 42
0.0
  0
VERTEX
  8
Group1
 10
21.4650105766119
 20
0.4660108309308
 30
0.0
 42
0.0
  0
VERTEX
  8
Group1
 10
21.2311952630388
 20
0.6522255159552
 30
0.0
 42
0.0
  0
VERTEX
  8
Group1
 10
21.0084686180154
 20
0.8516367787521
 30
0.0
 42
0.0
  0
VERTEX
  8
Group1
 10
20.7975705280669
 20
1.0635821853038
 30
0.0
 42
0.0
  0
VERTEX
  8
Group1
 10
20.5992015858635
 20
1.287357663808
 30
0.0
 42
0.0
  0
VERTEX
  8
Group1
 10
20.4140207628872
 20
1.5222198435682
 30
0.0
 42
0.0
  0
VERTEX
  8
Group1
 10
20.2426432203622
 20
1.7673885244336
 30
0.0
 42
0.0
  0
VERTEX
  8
Group1
 10
20.0875132281815
 20
2.0190080949053
 30
0.0
 42
0.0
  0
VERTEX
  8
Group1
 10
19.7404386640672
 20
2.6397190554216
 30
0.0
 42
0.0
  0
VERTEX
  8
Group1
 10
19.4123233354973
 20
3.2666769941759
 30
0.0
 42
0.0
  0
VERTEX
  8
Group1
 10
19.1016764077323
 20
3.9025172427
 30
0.0000000000001
 42
0.0
  0
VERTEX
  8
Group1
 10
18.808736854077
 20
4.546750664189
 30
0.0000000000001
 42
0.0
  0
VERTEX
  8
Group1
 10
18.5337300259741
 20
5.1988816651697
 30
0.0000000000001
 42
0.0
  0
VERTEX
  8
Group1
 10
18.2768674796465
 20
5.8584085767476
 30
0.0000000000001
 42
0.0
  0
VERTEX
  8
Group1
 10
18.0383468133517
 20
6.5248240405307
 30
0.0000000000001
 42
0.0
  0
VERTEX
  8
Group1
 10
17.8183515153744
 20
7.197615398927
 30
0.0000000000001
 42
0.0
  0
VERTEX
  8
Group1
 10
17.6170508228737
 20
7.8762650895196
 30
0.0000000000001
 42
0.0
  0
VERTEX
  8
Group1
 10
17.4345995916923
 20
8.5602510432168
 30
0.0
 42
0.0
  0
VERTEX
  8
Group1
 10
17.2711381772298
 20
9.2490470858661
 30
0.0
 42
0.0
  0
VERTEX
  8
Group1
 10
17.1714429097609
 20
9.7277336741605
 30
0.0
 42
0.0
  0
VERTEX
  8
Group1
 10
16.8807967065863
 20
9.651459628171
 30
0.0
 42
0.0
  0
VERTEX
  8
Group1
 10
16.5086981240718
 20
9.556007034831
 30
0.0
 42
0.0
  0
VERTEX
  8
Group1
 10
16.1360797714901
 20
9.4626149058472
 30
0.0
 42
0.0
  0
VERTEX
  8
Group1
 10
15.7629529989932
 20
9.3712860859935
 30
0.0
 42
0.0
  0
VERTEX
  8
Group1
 10
15.3893291722077
 20
9.2820233571908
 30
0.0
 42
0.0
  0
VERTEX
  8
Group1
 10
15.0152196718881
 20
9.1948294384231
 30
0.0
 42
0.0
  0
VERTEX
  8
Group1
 10
14.6406358936112
 20
9.1097069856643
 30
0.0
 42
0.0
  0
VERTEX
  8
Group1
 10
14.2655892473756
 20
9.0266585917844
 30
0.0
 42
0.0
  0
VERTEX
  8
Group1
 10
13.8900911572901
 20
8.945686786479
 30
0.0
 42
0.0
  0
VERTEX
  8
Group1
 10
13.5141530612089
 20
8.8667940361887
 30
0.0
 42
0.0
  0
VERTEX
  8
Group1
 10
13.1377864104071
 20
8.7899827440288
 30
0.0
 42
0.0
  0
VERTEX
  8
Group1
 10
12.7578967756903
 20
8.7146392580561
 30
0.0
 42
0.0
  0
VERTEX
  8
Group1
 10
12.0397504283792
 20
8.5862278873036
 30
0.0
 42
0.0
  0
VERTEX
  8
Group1
 10
11.3147311594852
 20
8.4805264261975
 30
0.0
 42
0.0
  0
VERTEX
  8
Group1
 10
10.5867027313794
 20
8.3982011047244
 30
0.0
 42
0.0
  0
VERTEX
  8
Group1
 10
9.8564147187317
 20
8.339336684651
 30
0.0
 42
0.0
  0
VERTEX
  8
Group1
 10
9.1246190226699
 20
8.3039937725093
 30
0.0
 42
0.0
  0
VERTEX
  8
Group1
 10
8.3920690966248
 20
8.2922087571964
 30
0.0
 42
0.0
  0
VERTEX
  8
Group1
 10
7.6595191705793
 20
8.3039937725093
 30
0.0
 42
0.0
  0
VERTEX
  8
Group1
 10
6.9277234745175
 20
8.339336684651
 30
0.0
 42
0.0
  0
VERTEX
  8
Group1
 10
6.1974354618694
 20
8.3982011047244
 30
0.0
 42
0.0
  0
VERTEX
  8
Group1
 10
5.4694070337639
 20
8.4805264261974
 30
0.0
 42
0.0
  0
VERTEX
  8
Group1
 10
4.74438776487
 20
8.5862278873035
 30
0.0
 42
0.0
  0
VERTEX
  8
Group1
 10
4.0174419844245
 20
8.716212680068
 30
0.0
 42
0.0
  0
VERTEX
  8
Group1
 10
3.5725063968584
 20
8.8219744404944
 30
0.0
 42
0.0
  0
VERTEX
  8
Group1
 10
3.1319999664933
 20
8.9650518982833
 30
0.0
 42
0.0
  0
VERTEX
  8
Group1
 10
2.704395922054
 20
9.1431824334369
 30
0.0
 42
0.0
  0
VERTEX
  8
Group1
 10
2.2924639640169
 20
9.3552122490386
 30
0.0
 42
0.0
  0
VERTEX
  8
Group1
 10
1.8988722807565
 20
9.5997679738844
 30
0.0
 42
0.0
  0
VERTEX
  8
Group1
 10
1.5261702660093
 20
9.8752655581594
 30
0.0
 42
0.0
  0
VERTEX
  8
Group1
 10
1.1767720057997
 20
10.1799205337316
 30
0.0
 42
0.0
  0
VERTEX
  8
Group1
 10
0.8529406417895
 20
10.5117595726079
 30
0.0
 42
0.0
  0
VERTEX
  8
Group1
 10
0.5567737123316
 20
10.8686332686823
 30
0.0
 42
0.0
  0
VERTEX
  8
Group1
 10
0.2901895661793
 20
11.2482300599883
 30
0.0
 42
0.0
  0
VERTEX
  8
Group1
 10
0.054914936852
 20
11.6480912012745
 30
0.0
 42
0.0
  0
VERTEX
  8
Group1
 10
-0.1469106646313
 20
12.0643570601993
 30
0.0
 42
0.0
  0
VERTEX
  8
Group1
 10
-0.2463209332827
 20
12.3154468448434
 30
0.0
 42
0.0
  0
VERTEX
  8
Group1
 10
-0.3278758778231
 20
12.5714421825608
 30
0.0
 42
0.0
  0
VERTEX
  8
Group1
 10
-0.3917100518381
 20
12.8324469849142
 30
0.0
 42
0.0
  0
VERTEX
  8
Group1
 10
-0.4375222573956
 20
13.0972297155362
 30
0.0
 42
0.0
  0
VERTEX
  8
Group1
 10
-0.4650963321999
 20
13.364541012119
 30
0.0
 42
0.0
  0
VERTEX
  8
Group1
 10
-0.474302169542
 20
13.6331195814596
 30
0.0
 42
0.0
  0
VERTEX
  8
Group1
 10
-0.4650963321999
 20
13.9016981508001
 30
0.0
 42
0.0
  0
VERTEX
  8
Group1
 10
-0.4375222573956
 20
14.1690094473829
 30
0.0
 42
0.0
  0
VERTEX
  8
Group1
 10
-0.3917100518381
 20
14.433792178005
 30
0.0
 42
0.0
  0
VERTEX
  8
Group1
 10
-0.3278758778231
 20
14.6947969803584
 30
0.0
 42
0.0
  0
VERTEX
  8
Group1
 10
-0.2463209332827
 20
14.9507923180758
 30
0.0
 42
0.0
  0
VERTEX
  8
Group1
 10
-0.1487945963992
 20
15.1971236805941
 30
0.0
 42
0.0
  0
VERTEX
  8
Group1
 10
0.1929213940429
 20
15.9420540228532
 30
0.0
 42
0.0
  0
VERTEX
  8
Group1
 10
0.5607239824263
 20
16.670237107545
 30
0.0
 42
0.0
  0
VERTEX
  8
Group1
 10
0.9556354322182
 20
17.3840060207499
 30
0.0
 42
0.0
  0
VERTEX
  8
Group1
 10
1.3770947033737
 20
18.0823467302246
 30
0.0
 42
0.0
  0
VERTEX
  8
Group1
 10
1.8245030400737
 20
18.7642671221591
 30
0.0
 42
0.0
  0
VERTEX
  8
Group1
 10
2.2972248213622
 20
19.4287984106455
 30
0.0
 42
0.0
  0
VERTEX
  8
Group1
 10
2.7945884641548
 20
20.0749965140064
 30
0.0
 42
0.0
  0
VERTEX
  8
Group1
 10
3.3158873773389
 20
20.7019433960251
 30
0.0
 42
0.0
  0
VERTEX
  8
Group1
 10
3.8603809656097
 20
21.3087483701773
 30
0.0
 42
0.0
  0
VERTEX
  8
Group1
 10
4.4272956816122
 20
21.8945493650026
 30
0.0
 42
0.0
  0
VERTEX
  8
Group1
 10
5.0158261249006
 20
22.4585141488284
 30
0.0
 42
0.0
  0
VERTEX
  8
Group1
 10
5.6224139040104
 20
22.9974229637996
 30
0.0
 42
0.0
  0
VERTEX
  8
Group1
 10
5.8615163551562
 20
23.2004322919913
 30
0.0
 42
0.0
  0
VERTEX
  8
Group1
 10
6.0992736140513
 20
23.3993798334741
 30
0.0
 42
0.0
  0
VERTEX
  8
Group1
 10
6.3384486734865
 20
23.5966116506009
 30
0.0
 42
0.0
  0
VERTEX
  8
Group1
 10
6.5790292170437
 20
23.792117586838
 30
0.0
 42
0.0
  0
VERTEX
  8
Group1
 10
6.8210028559382
 20
23.9858875745346
 30
0.0
 42
0.0
  0
VERTEX
  8
Group1
 10
7.0643571296328
 20
24.1779116354211
 30
0.0
 42
0.0
  0
VERTEX
  8
Group1
 10
7.3090795065053
 20
24.3681798811445
 30
0.0
 42
0.0
  0
VERTEX
  8
Group1
 10
7.5551573844782
 20
24.5566825137649
 30
0.0
 42
0.0
  0
VERTEX
  8
Group1
 10
7.8025780916734
 20
24.7434098262642
 30
0.0
 42
0.0
  0
VERTEX
  8
Group1
 10
8.0513288870583
 20
24.9283522030413
 30
0.0
 42
0.0
  0
VERTEX
  8
Group1
 10
8.3013969611114
 20
25.111500120415
 30
0.0
 42
0.0
  0
VERTEX
  8
Group1
 10
8.4151824467446
 20
25.1935867455085
 30
0.0
 42
0.0
  0
VERTEX
  8
Group1
 10
8.2529427878815
 20
25.4346059676641
 30
0.0
 42
0.0
  0
VERTEX
  8
Group1
 10
7.9789709889209
 20
25.8714609832513
 30
0.0
 42
0.0
  0
VERTEX
  8
Group1
 10
7.719241717017
 20
26.3169756820421
 30
0.0
 42
0.0
  0
VERTEX
  8
Group1
 10
7.4740269963761
 20
26.7706834597854
 30
0.0
 42
0.0
  0
VERTEX
  8
Group1
 10
7.2435836495701
 20
27.2321091313126
 30
0.0
 42
0.0
  0
VERTEX
  8
Group1
 10
7.0281530285575
 20
27.7007694282149
 30
0.0
 42
0.0
  0
VERTEX
  8
Group1
 10
6.8279607619065
 20
28.1761735049885
 30
0.0
 42
0.0
  0
VERTEX
  8
Group1
 10
6.6432165184846
 20
28.6578234531172
 30
0.0
 42
0.0
  0
VERTEX
  8
Group1
 10
6.4741137878658
 20
29.1452148225487
 30
0.0
 42
0.0
  0
VERTEX
  8
Group1
 10
6.320829677681
 20
29.6378371500255
 30
0.0
 42
0.0
  0
VERTEX
  8
Group1
 10
6.1835247281269
 20
30.1351744937104
 30
0.0
 42
0.0
  0
VERTEX
  8
Group1
 10
6.061681244109
 20
30.6394436984218
 30
0.0
 42
0.0
  0
VERTEX
  8
Group1
 10
5.9924933631678
 20
30.9934013979618
 30
0.0
 42
0.0
  0
VERTEX
  8
Group1
 10
5.9427646055858
 20
31.3534746128186
 30
0.0
 42
0.0
  0
VERTEX
  8
Group1
 10
5.913190995278
 20
31.7157720567017
 30
0.0
 42
0.0
  0
VERTEX
  8
Group1
 10
5.903865032692
 20
32.0791605343265
 30
0.0
 42
0.0
  0
VERTEX
  8
Group1
 10
5.9148158876081
 20
32.4425034378684
 30
0.0
 42
0.0
  0
VERTEX
  8
Group1
 10
5.9460093079017
 20
32.8046643020498
 30
0.0
 42
0.0
  0
VERTEX
  8
Group1
 10
5.9973477266774
 20
33.1645103587802
 30
0.0
 42
0.0
  0
VERTEX
  8
Group1
 10
6.0686705674393
 20
33.5209160802325
 30
0.0
 42
0.0
  0
VERTEX
  8
Group1
 10
6.1597547463421
 20
33.8727666992728
 30
0.0
 42
0.0
  0
VERTEX
  8
Group1
 10
6.2703153699541
 20
34.2189616962335
 30
0.0
 42
0.0
  0
VERTEX
  8
Group1
 10
6.4000066263479
 20
34.5584182411226
 30
0.0
 42
0.0
  0
VERTEX
  8
Group1
 10
6.5492895423977
 20
34.8920112855296
 30
0.0
 42
0.0
  0
VERTEX
  8
Group1
 10
6.665793306422
 20
35.1128318365457
 30
0.0
 42
0.0
  0
VERTEX
  8
Group1
 10
6.7993205348105
 20
35.3262525688055
 30
0.0
 42
0.0
  0
VERTEX
  8
Group1
 10
6.9481563128525
 20
35.5292383158883
 30
0.0
 42
0.0
  0
VERTEX
  8
Group1
 10
7.1114928880736
 20
35.7206874459044
 30
0.0
 42
0.0
  0
VERTEX
  8
Group1
 10
7.2884438101562
 20
35.89956093779
 30
0.0
 42
0.0
  0
VERTEX
  8
Group1
 10
7.4780487418281
 20
36.0648880202191
 30
0.0
 42
0.0
  0
VERTEX
  8
Group1
 10
7.6792786707463
 20
36.2157714401142
 30
0.0
 42
0.0
  0
VERTEX
  8
Group1
 10
7.8910414940909
 20
36.3513923321641
 30
0.0
 42
0.0
  0
VERTEX
  8
Group1
 10
8.1121879455578
 20
36.4710146629196
 30
0.0
 42
0.0
  0
VERTEX
  8
Group1
 10
8.3415178325887
 20
36.5739892253493
 30
0.0
 42
0.0
  0
VERTEX
  8
Group1
 10
8.5777865499809
 20
36.6597571621765
 30
0.0
 42
0.0
  0
VERTEX
  8
Group1
 10
8.8157829750752
 20
36.7267471245036
 30
0.0
 42
0.0
  0
VERTEX
  8
Group1
 10
9.3780714372191
 20
36.8511076921434
 30
0.0
 42
0.0
  0
VERTEX
  8
Group1
 10
9.9408023735313
 20
36.9523999199312
 30
0.0
 42
0.0
  0
VERTEX
  8
Group1
 10
10.5070820068908
 20
37.0313469023627
 30
0.0
 42
0.0
  0
VERTEX
  8
Group1
 10
11.0760280124684
 20
37.0878256315126
 30
0.0
 42
0.0
  0
VERTEX
  8
Group1
 10
11.6467539109396
 20
37.121748107421
 30
0.0
 42
0.0
  0
VERTEX
  8
Group1
 10
12.2183704497144
 20
37.1330614752068
 30
0.0
 42
0.0
  0
VERTEX
  8
Group1
 10
12.7899869884894
 20
37.121748107421
 30
0.0
 42
0.0
  0
VERTEX
  8
Group1
 10
13.3607128869605
 20
37.0878256315126
 30
0.0
 42
0.0
  0
VERTEX
  8
Group1
 10
13.929658892538
 20
37.0313469023627
 30
0.0
 42
0.0
  0
VERTEX
  8
Group1
 10
14.4959385258977
 20
36.9523999199312
 30
0.0
 42
0.0
  0
VERTEX
  8
Group1
 10
15.0586694622099
 20
36.8511076921434
 30
0.0
 42
0.0
  0
VERTEX
  8
Group1
 10
15.6135724051885
 20
36.7283805696435
 30
0.0
 42
0.0
  0
VERTEX
  8
Group1
 10
15.8667147196616
 20
36.6657393370033
 30
0.0
 42
0.0
  0
VERTEX
  8
Group1
 10
16.1158304274501
 20
36.601373635659
 30
0.0
 42
0.0
  0
VERTEX
  8
Group1
 10
16.364275576521
 20
36.5344532814752
 30
0.0
 42
0.0
  0
VERTEX
  8
Group1
 10
16.6120241063584
 20
36.464985294025
 30
0.0
 42
0.0
  0
VERTEX
  8
Group1
 10
16.859050029514
 20
36.3929769601156
 30
0.0
 42
0.0
  0
VERTEX
  8
Group1
 10
17.1053274343419
 20
36.3184358330208
 30
0.0
 42
0.0
  0
VERTEX
  8
Group1
 10
17.3508304877102
 20
36.2413697316908
 30
0.0
 42
0.0
  0
VERTEX
  8
Group1
 10
17.5955334377113
 20
36.161786739932
 30
0.0
 42
0.0
  0
VERTEX
  8
Group1
 10
17.8394106163658
 20
36.0796952055578
 30
0.0
 42
0.0
  0
VERTEX
  8
Group1
 10
18.08243644231
 20
35.9951037395149
 30
0.0
 42
0.0
  0
VERTEX
  8
Group1
 10
18.3245854234836
 20
35.9080212149787
 30
0.0
 42
0.0
  0
VERTEX
  8
Group1
 10
18.4336338763787
 20
35.8675362546494
 30
0.0
 42
0.0
  0
VERTEX
  8
Group1
 10
18.4389645760662
 20
35.8991720871481
 30
0.0
 42
0.0
  0
VERTEX
  8
Group1
 10
18.4602396334393
 20
36.0800001286163
 30
0.0
 42
0.0
  0
VERTEX
  8
Group1
 10
18.4831665949664
 20
36.2462061909811
 30
0.0
 42
0.0
  0
VERTEX
  8
Group1
 10
18.5094753481736
 20
36.4119079671736
 30
0.0
 42
0.0
  0
VERTEX
  8
Group1
 10
18.539154912081
 20
36.5770362951232
 30
0.0
 42
0.0
  0
VERTEX
  8
Group1
 10
18.5721928987701
 20
36.7415222521096
 30
0.0
 42
0.0
  0
VERTEX
  8
Group1
 10
18.6085755185539
 20
36.9052971835304
 30
0.0
 42
0.0
  0
VERTEX
  8
Group1
 10
18.6482875857337
 20
37.068292731559
 30
0.0
 42
0.0
  0
VERTEX
  8
Group1
 10
18.6913125249354
 20
37.2304408636725
 30
0.0
 42
0.0
  0
VERTEX
  8
Group1
 10
18.7376323780304
 20
37.3916739010523
 30
0.0
 42
0.0
  0
VERTEX
  8
Group1
 10
18.7872278116289
 20
37.5519245468281
 30
0.0
 42
0.0
  0
VERTEX
  8
Group1
 10
18.8400781251507
 20
37.7111259141698
 30
0.0
 42
0.0
  0
VERTEX
  8
Group1
 10
18.890757003148
 20
37.8539781809408
 30
0.0
 42
0.0
  0
VERTEX
  8
Group1
 10
19.1220256011282
 20
38.6184051603977
 30
0.0
 42
0.0
  0
VERTEX
  8
Group1
 10
19.3777590859459
 20
39.3931813243891
 30
0.0
 42
0.0
  0
VERTEX
  8
Group1
 10
19.6527936936806
 20
40.1612829177063
 30
0.0
 42
0.0
  0
VERTEX
  8
Group1
 10
19.9469563834949
 20
40.9222266813738
 30
0.0
 42
0.0
  0
VERTEX
  8
Group1
 10
20.260062079923
 20
41.6755338598375
 30
0.0
 42
0.0
  0
VERTEX
  8
Group1
 10
20.5919137893125
 20
42.420730502179
 30
0.0
 42
0.0
  0
VERTEX
  8
Group1
 10
20.9423027237658
 20
43.1573477603075
 30
0.0
 42
0.0
  0
VERTEX
  8
Group1
 10
21.3110084324996
 20
43.884922183938
 30
0.0
 42
0.0
  0
VERTEX
  8
Group1
 10
21.6977989405455
 20
44.6029960121792
 30
0.0
 42
0.0
  0
VERTEX
  8
Group1
 10
22.1024308946986
 20
45.3111174615363
 30
0.0
 42
0.0
  0
VERTEX
  8
Group1
 10
22.5246497166242
 20
46.0088410101529
 30
0.0
 42
0.0
  0
VERTEX
  8
Group1
 10
22.9657851313577
 20
46.698220823496
 30
0.0
 42
0.0
  0
VERTEX
  8
Group1
 10
23.2378619138109
 20
47.0902655291292
 30
0.0
 42
0.0
  0
VERTEX
  8
Group1
 10
23.5309000270662
 20
47.4705685980829
 30
0.0
 42
0.0
  0
VERTEX
  8
Group1
 10
23.8424829618848
 20
47.8357523056799
 30
0.0
 42
0.0
  0
VERTEX
  8
Group1
 10
24.1718359060122
 20
48.184908550801
 30
0.0
 42
0.0
  0
VERTEX
  8
Group1
 10
24.5181398585699
 20
48.5171690877649
 30
0.0
 42
0.0
  0
VERTEX
  8
Group1
 10
24.8805336666633
 20
48.8317076853918
 30
0.0
 42
0.0
  0
VERTEX
  8
Group1
 10
25.2581161668067
 20
49.12774218159
 30
0.0
 42
0.0
  0
VERTEX
  8
Group1
 10
25.6499484258445
 20
49.4045364283558
 30
0.0
 42
0.0
  0
VERTEX
  8
Group1
 10
26.0550560757919
 20
49.6614021223496
 30
0.0
 42
0.0
  0
VERTEX
  8
Group1
 10
26.4724317367947
 20
49.8977005164994
 30
0.0
 42
0.0
  0
VERTEX
  8
Group1
 10
26.9010375221748
 20
50.1128440083684
 30
0.0
 42
0.0
  0
VERTEX
  8
Group1
 10
27.3452392111658
 20
50.3086923884131
 30
0.0
 42
0.0
  0
VERTEX
  8
Group1
 10
27.615062180566
 20
50.4042518511912
 30
0.0
 42
0.0
  0
VERTEX
  8
Group1
 10
27.8987954143763
 20
50.4738472880186
 30
0.0
 42
0.0
  0
VERTEX
  8
Group1
 10
28.1880254699282
 20
50.51480532999
 30
0.0
 42
0.0
  0
VERTEX
  8
Group1
 10
28.4798843981719
 20
50.5267198451168
 30
0.0
 42
0.0
  0
VERTEX
  8
Group1
 10
28.7714781826666
 20
50.5094726913813
 30
0.0
 42
0.0
  0
VERTEX
  8
Group1
 10
29.0599154360851
 20
50.4632348882099
 30
0.0
 42
0.0
  0
VERTEX
  8
Group1
 10
29.3423360706497
 20
50.3884649206775
 30
0.0
 42
0.0
  0
VERTEX
  8
Group1
 10
29.6159396582061
 20
50.2859041932584
 30
0.0
 42
0.0
  0
VERTEX
  8
Group1
 10
29.878013198726
 20
50.1565696782043
 30
0.0
 42
0.0
  0
VERTEX
  8
Group1
 10
30.1259580218872
 20
50.0017438314438
 30
0.0
 42
0.0
  0
VERTEX
  8
Group1
 10
30.3573155549851
 20
49.8229618759998
 30
0.0
 42
0.0
  0
VERTEX
  8
Group1
 10
30.5627142658285
 20
49.628690596279
 30
0.0
 42
0.0
  0
VERTEX
  8
Group1
 10
30.9190895022635
 20
49.2789622961221
 30
0.0
 42
0.0
  0
VERTEX
  8
Group1
 10
31.2623447281365
 20
48.9163411824602
 30
0.0
 42
0.0
  0
VERTEX
  8
Group1
 10
31.5920140893978
 20
48.541319392052
 30
0.0
 42
0.0
  0
VERTEX
  8
Group1
 10
31.9076501702605
 20
48.1544058914233
 30
0.0
 42
0.0
  0
VERTEX
  8
Group1
 10
32.2088246004174
 20
47.7561257861155
 30
0.0
 42
0.0
  0
VERTEX
  8
Group1
 10
32.4951286364107
 20
47.3470196080301
 30
0.0
 42
0.0
  0
VERTEX
  8
Group1
 10
32.7661737163641
 20
46.9276425818381
 30
0.0
 42
0.0
  0
VERTEX
  8
Group1
 10
33.0215919873255
 20
46.498563871448
 30
0.0
 42
0.0
  0
VERTEX
  8
Group1
 10
33.2610368045043
 20
46.0603658075568
 30
0.0
 42
0.0
  0
VERTEX
  8
Group1
 10
33.4841832017255
 20
45.6136430973306
 30
0.0
 42
0.0
  0
VERTEX
  8
Group1
 10
33.6907283324628
 20
45.159002017289
 30
0.0
 42
0.0
  0
VERTEX
  8
Group1
 10
33.880391880851
 20
44.6970595904875
 30
0.0
 42
0.0
  0
VERTEX
  8
Group1
 10
34.1362142238258
 20
44.0082188798574
 30
0.0
 42
0.0
  0
VERTEX
  8
Group1
 10
34.3704517444554
 20
43.3117383165085
 30
0.0
 42
0.0
  0
VERTEX
  8
Group1
 10
34.5828769095257
 20
42.6082944464552
 30
0.0
 42
0.0
  0
VERTEX
  8
Group1
 10
34.773283373869
 20
41.8985705797163
 30
0.0
 42
0.0
  0
VERTEX
  8
Group1
 10
34.9414861808023
 20
41.1832561265621
 30
0.0
 42
0.0
  0
VERTEX
  8
Group1
 10
35.0873219417911
 20
40.4630459278364
 30
0.0
 42
0.0
  0
VERTEX
  8
Group1
 10
35.2106489951608
 20
39.7386395800037
 30
0.0
 42
0.0
  0
VERTEX
  8
Group1
 10
35.3113475437041
 20
39.0107407555758
 30
0.0
 42
0.0
  0
VERTEX
  8
Group1
 10
35.3893197710494
 20
38.2800565195803
 30
0.0
 42
0.0
  0
VERTEX
  8
Group1
 10
35.444489936677
 20
37.5472966427324
 30
0.0
 42
0.0
  0
SEQEND
  0
POLYLINE
  8
Group1
 66
     1
 10
0.0
 20
0.0
 30
0.0
 70
     1
  0
VERTEX
  8
Group1
 10
15.8270974780195
 20
34.4996844500111
 42
0.0
  0
VERTEX
  8
Group1
 10
15.3288033741005
 20
34.5929443730347
 42
0.0
  0
VERTEX
  8
Group1
 10
14.8283094172333
 20
34.6734969941828
 42
0.0
  0
VERTEX
  8
Group1
 10
14.3259379231036
 20
34.741290437957
 42
0.0
  0
VERTEX
  8
Group1
 10
13.8220124165228
 20
34.7962810457077
 42
0.0
  0
VERTEX
  8
Group1
 10
13.3168574230792
 20
34.8384334037495
 42
0.0
  0
VERTEX
  8
Group1
 10
12.8107982601431
 20
34.867720366168
 42
0.0
  0
VERTEX
  8
Group1
 10
12.3085110576419
 20
34.8839822308546
 42
0.0
  0
VERTEX
  8
Group1
 10
12.1165919048646
 20
34.8817970263331
 42
0.0
  0
VERTEX
  8
Group1
 10
11.9295176123594
 20
34.8680333978956
 42
0.0
  0
VERTEX
  8
Group1
 10
11.743650658101
 20
34.8426944810634
 42
0.0
  0
VERTEX
  8
Group1
 10
11.5597028478663
 20
34.8058773150731
 42
0.0
  0
VERTEX
  8
Group1
 10
11.3783786377785
 20
34.7577228968629
 42
0.0
  0
VERTEX
  8
Group1
 10
11.2003724364844
 20
34.698415641103
 42
0.0
  0
VERTEX
  8
Group1
 10
11.0263659458113
 20
34.6281826739515
 42
0.0
  0
VERTEX
  8
Group1
 10
10.8570255500869
 20
34.5472929632406
 42
0.0
  0
VERTEX
  8
Group1
 10
10.6929997641178
 20
34.456056288423
 42
0.0
  0
VERTEX
  8
Group1
 10
10.5349167496043
 20
34.3548220542246
 42
0.0
  0
VERTEX
  8
Group1
 10
10.3833819094994
 20
34.2439779525458
 42
0.0
  0
VERTEX
  8
Group1
 10
10.240484761452
 20
34.1252029068308
 42
0.0
  0
VERTEX
  8
Group1
 10
10.1135822373204
 20
34.0037143113408
 42
0.0
  0
VERTEX
  8
Group1
 10
9.9978582045683
 20
33.8741072162981
 42
0.0
  0
VERTEX
  8
Group1
 10
9.892604057247
 20
33.7358186542474
 42
0.0
  0
VERTEX
  8
Group1
 10
9.7984652309174
 20
33.5896966331567
 42
0.0
  0
VERTEX
  8
Group1
 10
9.7160190001827
 20
33.4366371970394
 42
0.0
  0
VERTEX
  8
Group1
 10
9.6457709387472
 20
33.2775789312669
 42
0.0
  0
VERTEX
  8
Group1
 10
9.588151819156
 20
33.1134972070104
 42
0.0
  0
VERTEX
  8
Group1
 10
9.5435149712274
 20
32.9453982001059
 42
0.0
  0
VERTEX
  8
Group1
 10
9.5121341153772
 20
32.7743127210205
 42
0.0
  0
VERTEX
  8
Group1
 10
9.4942016841205
 20
32.6012898937548
 42
0.0
  0
VERTEX
  8
Group1
 10
9.4898276420441
 20
32.4273907224435
 42
0.0
  0
VERTEX
  8
Group1
 10
9.4991864987749
 20
32.2508964195784
 42
0.0
  0
VERTEX
  8
Group1
 10
9.5552071579952
 20
31.7842441756935
 42
0.0
  0
VERTEX
  8
Group1
 10
9.6372187449966
 20
31.3186407278097
 42
0.0
  0
VERTEX
  8
Group1
 10
9.7446408231618
 20
30.8582628716362
 42
0.0
  0
VERTEX
  8
Group1
 10
9.8771483695141
 20
30.4045035552872
 42
0.0
  0
VERTEX
  8
Group1
 10
10.0343404609113
 20
29.958735701407
 42
0.0
  0
VERTEX
  8
Group1
 10
10.2157414871035
 20
29.5223080531705
 42
0.0
  0
VERTEX
  8
Group1
 10
10.4208025897694
 20
29.0965410934402
 42
0.0
  0
VERTEX
  8
Group1
 10
10.6489033231766
 20
28.6827230494311
 42
0.0
  0
VERTEX
  8
Group1
 10
10.8993535314408
 20
28.2821059949696
 42
0.0
  0
VERTEX
  8
Group1
 10
11.1713954367052
 20
27.89590206214
 42
0.0
  0
VERTEX
  8
Group1
 10
11.4642059319204
 20
27.5252797737817
 42
0.0
  0
VERTEX
  8
Group1
 10
11.5322843088483
 20
27.448225799297
 42
0.0
  0
VERTEX
  8
Group1
 10
17.2901643051167
 20
30.642952993052
 42
0.0
  0
VERTEX
  8
Group1
 10
17.8837174624294
 20
33.9712550442553
 42
0.0
  0
VERTEX
  8
Group1
 10
17.7918829671505
 20
34.0008948206385
 42
0.0
  0
VERTEX
  8
Group1
 10
17.3055800045399
 20
34.1443021389717
 42
0.0
  0
VERTEX
  8
Group1
 10
16.8158041543964
 20
34.2752910788571
 42
0.0
  0
VERTEX
  8
Group1
 10
16.3228708299984
 20
34.393777284051
 42
0.0
  0
SEQEND
  0
POLYLINE
  8
Group1
 66
     1
 10
0.0
 20
0.0
 30
0.0
 70
     9
  0
VERTEX
  8
Group1
 10
16.4857593117365
 20
12.6506609514199
 30
0.0
 42
0.0
  0
VERTEX
  8
Group1
 10
16.7286131564186
 20
12.6965530377999
 30
0.0
 42
0.0
  0
VERTEX
  8
Group1
 10
16.7379937966588
 20
12.9508521176591
 30
0.0
 42
0.0
  0
VERTEX
  8
Group1
 10
16.7417169498534
 20
13.2608611469452
 30
0.0
 42
0.0
  0
VERTEX
  8
Group1
 10
16.7377322466306
 20
13.5708669076914
 30
0.0
 42
0.0
  0
VERTEX
  8
Group1
 10
16.7260421628108
 20
13.8806767836606
 30
0.0
 42
0.0
  0
VERTEX
  8
Group1
 10
16.7066539618072
 20
14.1900982803252
 30
0.0
 42
0.0
  0
VERTEX
  8
Group1
 10
16.6795796901131
 20
14.4989391444701
 30
0.0
 42
0.0
  0
VERTEX
  8
Group1
 10
16.6448361698169
 20
14.8070074836449
 30
0.0
 42
0.0
  0
VERTEX
  8
Group1
 10
16.6024449881503
 20
15.1141118853929
 30
0.0
 42
0.0
  0
VERTEX
  8
Group1
 10
16.5524324840749
 20
15.420061536182
 30
0.0
 42
0.0
  0
VERTEX
  8
Group1
 10
16.4948297319176
 20
15.7246663399632
 30
0.0
 42
0.0
  0
VERTEX
  8
Group1
 10
16.4539552978562
 20
15.9147887104615
 30
0.0
 42
0.0
  0
VERTEX
  8
Group1
 10
16.1060982668756
 20
16.3203473476747
 30
0.0
 42
0.0
  0
VERTEX
  8
Group1
 10
15.6742803281072
 20
16.8090150958011
 30
0.0
 42
0.0
  0
VERTEX
  8
Group1
 10
15.2353155622539
 20
17.2912393769955
 30
0.0
 42
0.0
  0
VERTEX
  8
Group1
 10
14.7892996045999
 20
17.7669151312176
 30
0.0
 42
0.0
  0
VERTEX
  8
Group1
 10
14.336329626637
 20
18.2359387251289
 30
0.0
 42
0.0
  0
VERTEX
  8
Group1
 10
13.8765043149013
 20
18.6982079746641
 30
0.0
 42
0.0
  0
VERTEX
  8
Group1
 10
13.4099238494712
 20
19.1536221672948
 30
0.0
 42
0.0
  0
VERTEX
  8
Group1
 10
12.936689882136
 20
19.6020820839775
 30
0.0
 42
0.0
  0
VERTEX
  8
Group1
 10
12.4569055142565
 20
20.0434900207628
 30
0.0
 42
0.0
  0
VERTEX
  8
Group1
 10
11.9706752742994
 20
20.4777498100846
 30
0.0
 42
0.0
  0
VERTEX
  8
Group1
 10
11.4781050950631
 20
20.9047668417132
 30
0.0
 42
0.0
  0
VERTEX
  8
Group1
 10
11.3053879244847
 20
21.0500871084689
 30
0.0
 42
0.0
  0
VERTEX
  8
Group1
 10
11.2622449604678
 20
21.0083094985124
 30
0.0
 42
0.0
  0
VERTEX
  8
Group1
 10
10.9224633872151
 20
20.6633521582109
 30
0.0
 42
0.0
  0
VERTEX
  8
Group1
 10
10.5909076336777
 20
20.3104403080073
 30
0.0
 42
0.0
  0
VERTEX
  8
Group1
 10
10.2677628967515
 20
19.9497710736598
 30
0.0
 42
0.0
  0
VERTEX
  8
Group1
 10
9.9532096751963
 20
19.5815459139637
 30
0.0
 42
0.0
  0
VERTEX
  8
Group1
 10
9.6474236688136
 20
19.2059705082224
 30
0.0
 42
0.0
  0
VERTEX
  8
Group1
 10
9.3505756803072
 20
18.8232546413621
 30
0.0
 42
0.0
  0
VERTEX
  8
Group1
 10
9.0628315198782
 20
18.4336120867526
 30
0.0
 42
0.0
  0
VERTEX
  8
Group1
 10
8.7843519126072
 20
18.0372604867986
 30
0.0
 42
0.0
  0
VERTEX
  8
Group1
 10
8.5152924086793
 20
17.6344212313727
 30
0.0
 42
0.0
  0
VERTEX
  8
Group1
 10
8.2558032964982
 20
17.225319334153
 30
0.0
 42
0.0
  0
VERTEX
  8
Group1
 10
8.0143201833178
 20
16.8239627900636
 30
0.0
 42
0.0
  0
VERTEX
  8
Group1
 10
7.8199527776592
 20
16.4224636428088
 30
0.0
 42
0.0
  0
VERTEX
  8
Group1
 10
7.6957657554777
 20
16.0107265965133
 30
0.0
 42
0.0
  0
VERTEX
  8
Group1
 10
7.6378311658418
 20
15.5845147278962
 30
0.0
 42
0.0
  0
VERTEX
  8
Group1
 10
7.6475961582608
 20
15.1544743934859
 30
0.0
 42
0.0
  0
VERTEX
  8
Group1
 10
7.724816812754
 20
14.7313475811505
 30
0.0
 42
0.0
  0
VERTEX
  8
Group1
 10
7.8675642327336
 20
14.3257035857232
 30
0.0
 42
0.0
  0
VERTEX
  8
Group1
 10
8.0722727269587
 20
13.9476749983331
 30
0.0
 42
0.0
  0
VERTEX
  8
Group1
 10
8.333828877023
 20
13.6067046041668
 30
0.0
 42
0.0
  0
VERTEX
  8
Group1
 10
8.6456992655564
 20
13.31130951091
 30
0.0
 42
0.0
  0
VERTEX
  8
Group1
 10
9.0000936746144
 20
13.06886839971
 30
0.0
 42
0.0
  0
VERTEX
  8
Group1
 10
9.3881596777199
 20
12.8854372129207
 30
0.0
 42
0.0
  0
VERTEX
  8
Group1
 10
9.8144920926409
 20
12.7614422504722
 30
0.0
 42
0.0
  0
VERTEX
  8
Group1
 10
10.4007296450361
 20
12.6506609514199
 30
0.0
 42
0.0
  0
VERTEX
  8
Group1
 10
11.0050337378792
 20
12.5575899013523
 30
0.0
 42
0.0
  0
VERTEX
  8
Group1
 10
11.6121348296904
 20
12.4850903524617
 30
0.0
 42
0.0
  0
VERTEX
  8
Group1
 10
12.2213364830793
 20
12.4332454727695
 30
0.0
 42
0.0
  0
VERTEX
  8
Group1
 10
12.8319398509893
 20
12.4021147362469
 30
0.0
 42
0.0
  0
VERTEX
  8
Group1
 10
13.443244478386
 20
12.3917338545888
 30
0.0
 42
0.0
  0
VERTEX
  8
Group1
 10
14.0545491057832
 20
12.402114736247
 30
0.0
 42
0.0
  0
VERTEX
  8
Group1
 10
14.6651524736935
 20
12.4332454727695
 30
0.0
 42
0.0
  0
VERTEX
  8
Group1
 10
15.274354127082
 20
12.4850903524617
 30
0.0
 42
0.0
  0
VERTEX
  8
Group1
 10
15.8814552188932
 20
12.5575899013523
 30
0.0
 42
0.0
  0
SEQEND
  0
POLYLINE
  8
Group1
 66
     1
 10
0.0
 20
0.0
 30
0.0
 70
     1
  0
VERTEX
  8
Group1
 10
21.302015036566
 20
34.6469829488076
 42
0.0
  0
VERTEX
  8
Group1
 10
21.4517685092727
 20
34.5916386316673
 42
0.0
  0
VERTEX
  8
Group1
 10
21.7299701412981
 20
34.4884860179562
 42
0.0
  0
VERTEX
  8
Group1
 10
22.0073890036088
 20
34.3832355485885
 42
0.0
  0
VERTEX
  8
Group1
 10
22.2840093593778
 20
34.2758931939888
 42
0.0
  0
VERTEX
  8
Group1
 10
22.5598155170852
 20
34.1664650432415
 42
0.0
  0
VERTEX
  8
Group1
 10
22.8347918313845
 20
34.0549573037545
 42
0.0
  0
VERTEX
  8
Group1
 10
23.1089227040115
 20
33.9413763008988
 42
0.0
  0
VERTEX
  8
Group1
 10
23.3821925846616
 20
33.8257284776524
 42
0.0
  0
VERTEX
  8
Group1
 10
23.6545859718591
 20
33.7080203942404
 42
0.0
  0
VERTEX
  8
Group1
 10
23.926087413863
 20
33.5882587277515
 42
0.0
  0
VERTEX
  8
Group1
 10
24.0229268912693
 20
33.5446662495331
 42
0.0
  0
VERTEX
  8
Group1
 10
24.4584187009596
 20
33.6951158555613
 42
0.0
  0
VERTEX
  8
Group1
 10
25.0771420312482
 20
33.9011376501047
 42
0.0
  0
VERTEX
  8
Group1
 10
25.6981238281699
 20
34.1002117340235
 42
0.0
  0
VERTEX
  8
Group1
 10
26.3212864840852
 20
34.2923132278933
 42
0.0
  0
VERTEX
  8
Group1
 10
26.9465521187977
 20
34.4774181236931
 42
0.0
  0
VERTEX
  8
Group1
 10
27.5738425892945
 20
34.6555032878084
 42
0.0
  0
VERTEX
  8
Group1
 10
28.2030794995079
 20
34.8265464639205
 42
0.0
  0
VERTEX
  8
Group1
 10
28.8341842101114
 20
34.9905262757878
 42
0.0
  0
VERTEX
  8
Group1
 10
29.4670778483445
 20
35.1474222299167
 42
0.0
  0
VERTEX
  8
Group1
 10
30.1016813178795
 20
35.2972147181248
 42
0.0
  0
VERTEX
  8
Group1
 10
30.7379153087022
 20
35.4398850199908
 42
0.0
  0
VERTEX
  8
Group1
 10
30.9032223998151
 20
35.475013029059
 42
0.0
  0
VERTEX
  8
Group1
 10
30.8174836509981
 20
35.832918936713
 42
0.0
  0
VERTEX
  8
Group1
 10
30.7131796377523
 20
36.2426095604549
 42
0.0
  0
VERTEX
  8
Group1
 10
30.6020727311351
 20
36.6504984162073
 42
0.0
  0
VERTEX
  8
Group1
 10
30.4841938601315
 20
37.0564719593794
 42
0.0
  0
VERTEX
  8
Group1
 10
30.3595758388458
 20
37.4604171785543
 42
0.0
  0
VERTEX
  8
Group1
 10
30.2282533573704
 20
37.8622216269381
 42
0.0
  0
VERTEX
  8
Group1
 10
30.0902629721275
 20
38.2617734536664
 42
0.0
  0
VERTEX
  8
Group1
 10
29.9456430956921
 20
38.6589614349428
 42
0.0
  0
VERTEX
  8
Group1
 10
29.7944339861003
 20
39.0536750049966
 42
0.0
  0
VERTEX
  8
Group1
 10
29.6366777356428
 20
39.4458042868612
 42
0.0
  0
VERTEX
  8
Group1
 10
29.4748359646564
 20
39.8295080873639
 42
0.0
  0
VERTEX
  8
Group1
 10
29.3549147837879
 20
40.0830524185864
 42
0.0
  0
VERTEX
  8
Group1
 10
29.2209414700863
 20
40.3223062222888
 42
0.0
  0
VERTEX
  8
Group1
 10
29.0708881296464
 20
40.5517649739482
 42
0.0
  0
VERTEX
  8
Group1
 10
28.9054640461545
 20
40.7703440502647
 42
0.0
  0
VERTEX
  8
Group1
 10
28.7254511589093
 20
40.9770102548257
 42
0.0
  0
VERTEX
  8
Group1
 10
28.5317003666907
 20
41.1707867018982
 42
0.0
  0
VERTEX
  8
Group1
 10
28.3251275056656
 20
41.3507574340479
 42
0.0
  0
VERTEX
  8
Group1
 10
28.1067090203435
 20
41.5160717517569
 42
0.0
  0
VERTEX
  8
Group1
 10
27.8774773480431
 20
41.6659482345761
 42
0.0
  0
VERTEX
  8
Group1
 10
27.6385160386883
 20
41.799678434803
 42
0.0
  0
VERTEX
  8
Group1
 10
27.3909546330004
 20
41.9166302262277
 42
0.0
  0
VERTEX
  8
Group1
 10
27.1345663394639
 20
42.016796568833
 42
0.0
  0
VERTEX
  8
Group1
 10
27.0815082514383
 20
42.0337831739042
 42
0.0
  0
VERTEX
  8
Group1
 10
27.0261309945097
 20
42.0481310735643
 42
0.0
  0
VERTEX
  8
Group1
 10
26.9700373760971
 20
42.0593378025432
 42
0.0
  0
VERTEX
  8
Group1
 10
26.9134044981309
 20
42.0673679783254
 42
0.0
  0
VERTEX
  8
Group1
 10
26.8564111651214
 20
42.0721962475877
 42
0.0
  0
VERTEX
  8
Group1
 10
26.7992373196281
 20
42.0738073662467
 42
0.0
  0
VERTEX
  8
Group1
 10
26.7420634741348
 20
42.0721962475877
 42
0.0
  0
VERTEX
  8
Group1
 10
26.6850701411253
 20
42.0673679783254
 42
0.0
  0
VERTEX
  8
Group1
 10
26.6284372631591
 20
42.0593378025432
 42
0.0
  0
VERTEX
  8
Group1
 10
26.5723436447467
 20
42.0481310735643
 42
0.0
  0
VERTEX
  8
Group1
 10
26.5169663878179
 20
42.0337831739042
 42
0.0
  0
VERTEX
  8
Group1
 10
26.4605465082564
 20
42.0157202875858
 42
0.0
  0
VERTEX
  8
Group1
 10
26.3030985437808
 20
41.9568834571449
 42
0.0
  0
VERTEX
  8
Group1
 10
26.146196922977
 20
41.8911248800204
 42
0.0
  0
VERTEX
  8
Group1
 10
25.9919841761404
 20
41.8192561325612
 42
0.0
  0
VERTEX
  8
Group1
 10
25.8406969021499
 20
41.7413874784481
 42
0.0
  0
VERTEX
  8
Group1
 10
25.6925672115169
 20
41.6576383866401
 42
0.0
  0
VERTEX
  8
Group1
 10
25.5478223702717
 20
41.5681373480801
 42
0.0
  0
VERTEX
  8
Group1
 10
25.4066844512834
 20
41.4730216785596
 42
0.0
  0
VERTEX
  8
Group1
 10
25.2693699935491
 20
41.3724373080442
 42
0.0
  0
VERTEX
  8
Group1
 10
25.13608966997
 20
41.2665385567819
 42
0.0
  0
VERTEX
  8
Group1
 10
25.0070479641302
 20
41.1554878985393
 42
0.0
  0
VERTEX
  8
Group1
 10
24.8824428565702
 20
41.0394557113289
 42
0.0
  0
VERTEX
  8
Group1
 10
24.7629952696314
 20
40.9191535546083
 42
0.0
  0
VERTEX
  8
Group1
 10
24.3322624131547
 20
40.446965208876
 42
0.0
  0
VERTEX
  8
Group1
 10
23.9238632766501
 20
39.9562128219482
 42
0.0
  0
VERTEX
  8
Group1
 10
23.5381353243943
 20
39.4473553259121
 42
0.0
  0
VERTEX
  8
Group1
 10
23.1758759475141
 20
38.9214446498536
 42
0.0
  0
VERTEX
  8
Group1
 10
22.8378340220266
 20
38.379567975824
 42
0.0
  0
VERTEX
  8
Group1
 10
22.5247083607354
 20
37.8228454913776
 42
0.0
  0
VERTEX
  8
Group1
 10
22.2371462686193
 20
37.2524280738795
 42
0.0
  0
VERTEX
  8
Group1
 10
21.9757422046985
 20
36.6694949113672
 42
0.0
  0
VERTEX
  8
Group1
 10
21.7410365531474
 20
36.0752510648907
 42
0.0
  0
VERTEX
  8
Group1
 10
21.5335145061923
 20
35.4709249773658
 42
0.0
  0
VERTEX
  8
Group1
 10
21.3536050611041
 20
34.8577659340901
 42
0.0
  0
SEQEND
  0
POLYLINE
  8
Group1
 66
     1
 10
0.0
 20
0.0
 30
0.0
 70
     9
  0
VERTEX
  8
Group1
 10
36.3657464909904
 20
32.4752161191104
 30
0.0
 42
0.0
  0
VERTEX
  8
Group1
 10
36.368113714156
 20
32.4382556646831
 30
0.0
 42
0.0
  0
VERTEX
  8
Group1
 10
36.3700509700436
 20
32.4012701676521
 30
0.0
 42
0.0
  0
VERTEX
  8
Group1
 10
36.371557996526
 20
32.3642646324708
 30
0.0
 42
0.0
  0
VERTEX
  8
Group1
 10
36.3726345896895
 20
32.3272440663039
 30
0.0
 42
0.0
  0
VERTEX
  8
Group1
 10
36.3732806038621
 20
32.2902134783499
 30
0.0
 42
0.0
  0
VERTEX
  8
Group1
 10
36.3734959516324
 20
32.2531778791633
 30
0.0
 42
0.0
  0
VERTEX
  8
Group1
 10
36.3732806038621
 20
32.2161422799767
 30
0.0
 42
0.0
  0
VERTEX
  8
Group1
 10
36.3726345896895
 20
32.1791116920227
 30
0.0
 42
0.0
  0
VERTEX
  8
Group1
 10
36.3715579965259
 20
32.1420911258558
 30
0.0
 42
0.0
  0
VERTEX
  8
Group1
 10
36.3700509700436
 20
32.1050855906745
 30
0.0
 42
0.0
  0
VERTEX
  8
Group1
 10
36.368113714156
 20
32.0681000936435
 30
0.0
 42
0.0
  0
VERTEX
  8
Group1
 10
36.3657464909904
 20
32.0311396392162
 30
0.0
 42
0.0
  0
VERTEX
  8
Group1
 10
36.3528198293804
 20
31.846177409806
 30
0.0
 42
0.0
  0
VERTEX
  8
Group1
 10
36.3131746190114
 20
31.2034086702406
 30
0.0
 42
0.0
  0
VERTEX
  8
Group1
 10
36.2787844826955
 20
30.5603357735827
 30
0.0
 42
0.0
  0
VERTEX
  8
Group1
 10
36.2496517300334
 20
29.9170019078384
 30
0.0
 42
0.0
  0
VERTEX
  8
Group1
 10
36.2257783175453
 20
29.273450278537
 30
0.0
 42
0.0
  0
VERTEX
  8
Group1
 10
36.2071658485406
 20
28.6297241058192
 30
0.0
 42
0.0
  0
VERTEX
  8
Group1
 10
36.1938155730106
 20
27.9858666215677
 30
0.0
 42
0.0
  0
VERTEX
  8
Group1
 10
36.1857283875434
 20
27.341921066464
 30
0.0
 42
0.0
  0
VERTEX
  8
Group1
 10
36.1829048352648
 20
26.6979306871195
 30
0.0
 42
0.0
  0
VERTEX
  8
Group1
 10
36.185345105801
 20
26.0539387331573
 30
0.0
 42
0.0
  0
VERTEX
  8
Group1
 10
36.1930490352664
 20
25.409988454288
 30
0.0
 42
0.0
  0
VERTEX
  8
Group1
 10
36.2024988671443
 20
24.9407676587537
 30
0.0
 42
0.0
  0
VERTEX
  8
Group1
 10
36.278925495168
 20
24.8511621338095
 30
0.0
 42
0.0
  0
VERTEX
  8
Group1
 10
36.4714093537277
 20
24.6375446948134
 30
0.0
 42
0.0
  0
VERTEX
  8
Group1
 10
36.6696218280558
 20
24.429259925719
 30
0.0
 42
0.0
  0
VERTEX
  8
Group1
 10
36.8734160073414
 20
24.2264622027051
 30
0.0
 42
0.0
  0
VERTEX
  8
Group1
 10
37.0826408437339
 20
24.0293018350703
 30
0.0
 42
0.0
  0
VERTEX
  8
Group1
 10
37.297141264297
 20
23.8379249538267
 30
0.0
 42
0.0
  0
VERTEX
  8
Group1
 10
37.5167582859451
 20
23.6524734033914
 30
0.0
 42
0.0
  0
VERTEX
  8
Group1
 10
37.7413291332785
 20
23.4730846364537
 30
0.0
 42
0.0
  0
VERTEX
  8
Group1
 10
37.9706873592283
 20
23.2998916120991
 30
0.0
 42
0.0
  0
VERTEX
  8
Group1
 10
38.2046629684243
 20
23.1330226972615
 30
0.0
 42
0.0
  0
VERTEX
  8
Group1
 10
38.3915454393446
 20
23.0072784231843
 30
0.0
 42
0.0
  0
VERTEX
  8
Group1
 10
38.632067422632
 20
23.205936758769
 30
0.0
 42
0.0
  0
VERTEX
  8
Group1
 10
39.1188586105213
 20
23.6495870157477
 30
0.0
 42
0.0
  0
VERTEX
  8
Group1
 10
39.5835391295316
 20
24.1164631794574
 30
0.0
 42
0.0
  0
VERTEX
  8
Group1
 10
40.0250078379253
 20
24.6054589051965
 30
0.0
 42
0.0
  0
VERTEX
  8
Group1
 10
40.4422185984087
 20
25.1154154320936
 30
0.0
 42
0.0
  0
VERTEX
  8
Group1
 10
40.8341827571371
 20
25.6451243289946
 30
0.0
 42
0.0
  0
VERTEX
  8
Group1
 10
41.1999714865028
 20
26.1933303580502
 30
0.0
 42
0.0
  0
VERTEX
  8
Group1
 10
41.5387179861547
 20
26.7587344492228
 30
0.0
 42
0.0
  0
VERTEX
  8
Group1
 10
41.8496195370332
 20
27.3399967786595
 30
0.0
 42
0.0
  0
VERTEX
  8
Group1
 10
42.1319394035537
 20
27.9357399436391
 30
0.0
 42
0.0
  0
VERTEX
  8
Group1
 10
42.3850085794296
 20
28.5445522265685
 30
0.0
 42
0.0
  0
VERTEX
  8
Group1
 10
42.6068246178523
 20
29.1610919693075
 30
0.0
 42
0.0
  0
VERTEX
  8
Group1
 10
42.6599767176008
 20
29.3367847480244
 30
0.0
 42
0.0
  0
VERTEX
  8
Group1
 10
42.6947540621041
 20
29.5170193720897
 30
0.0
 42
0.0
  0
VERTEX
  8
Group1
 10
42.7107866886017
 20
29.6998784984749
 30
0.0
 42
0.0
  0
VERTEX
  8
Group1
 10
42.7079040413816
 20
29.8834168645928
 30
0.0
 42
0.0
  0
VERTEX
  8
Group1
 10
42.6861367861586
 20
30.0656819820772
 30
0.0
 42
0.0
  0
VERTEX
  8
Group1
 10
42.6457164838507
 20
30.2447349074307
 30
0.0
 42
0.0
  0
VERTEX
  8
Group1
 10
42.5870731272258
 20
30.4186708685826
 30
0.0
 42
0.0
  0
VERTEX
  8
Group1
 10
42.5108305666208
 20
30.5856395279287
 30
0.0
 42
0.0
  0
VERTEX
  8
Group1
 10
42.4177998733978
 20
30.7438646662959
 30
0.0
 42
0.0
  0
VERTEX
  8
Group1
 10
42.3089707117349
 20
30.8916630784313
 30
0.0
 42
0.0
  0
VERTEX
  8
Group1
 10
42.1855008105393
 20
31.0274624790067
 30
0.0
 42
0.0
  0
VERTEX
  8
Group1
 10
42.048703647482
 20
31.149818228651
 30
0.0
 42
0.0
  0
VERTEX
  8
Group1
 10
41.7668324214443
 20
31.3636696926198
 30
0.0
 42
0.0
  0
VERTEX
  8
Group1
 10
41.4730041433428
 20
31.5607610629668
 30
0.0
 42
0.0
  0
VERTEX
  8
Group1
 10
41.1682135521859
 20
31.7404250980106
 30
0.0
 42
0.0
  0
VERTEX
  8
Group1
 10
40.8534924992729
 20
31.9020535553271
 30
0.0
 42
0.0
  0
VERTEX
  8
Group1
 10
40.5299064549191
 20
32.0450992509203
 30
0.0
 42
0.0
  0
VERTEX
  8
Group1
 10
40.1985509013668
 20
32.1690779116824
 30
0.0
 42
0.0
  0
VERTEX
  8
Group1
 10
39.8605476240921
 20
32.2735698148728
 30
0.0
 42
0.0
  0
VERTEX
  8
Group1
 10
39.5170409140635
 20
32.3582212090663
 30
0.0
 42
0.0
  0
VERTEX
  8
Group1
 10
39.1691936938097
 20
32.422745511758
 30
0.0
 42
0.0
  0
VERTEX
  8
Group1
 10
38.8181835804112
 20
32.4669242795725
 30
0.0
 42
0.0
  0
VERTEX
  8
Group1
 10
38.4651988987441
 20
32.4906079477912
 30
0.0
 42
0.0
  0
VERTEX
  8
Group1
 10
38.1114346584738
 20
32.4937163366956
 30
0.0
 42
0.0
  0
VERTEX
  8
Group1
 10
37.9659759283346
 20
32.4910068828081
 30
0.0
 42
0.0
  0
VERTEX
  8
Group1
 10
37.8205088616821
 20
32.488790014554
 30
0.0
 42
0.0
  0
VERTEX
  8
Group1
 10
37.6750351257045
 20
32.4870657573408
 30
0.0
 42
0.0
  0
VERTEX
  8
Group1
 10
37.5295563876661
 20
32.4858341309301
 30
0.0
 42
0.0
  0
VERTEX
  8
Group1
 10
37.3840743148887
 20
32.4850951494373
 30
0.0
 42
0.0
  0
VERTEX
  8
Group1
 10
37.2385905747322
 20
32.484848821332
 30
0.0
 42
0.0
  0
VERTEX
  8
Group1
 10
37.0931068345757
 20
32.4850951494373
 30
0.0
 42
0.0
  0
VERTEX
  8
Group1
 10
36.9476247617983
 20
32.4858341309301
 30
0.0
 42
0.0
  0
VERTEX
  8
Group1
 10
36.8021460237599
 20
32.4870657573408
 30
0.0
 42
0.0
  0
VERTEX
  8
Group1
 10
36.6566722877823
 20
32.488790014554
 30
0.0
 42
0.0
  0
VERTEX
  8
Group1
 10
36.5112052211299
 20
32.4910068828081
 30
0.0
 42
0.0
  0
SEQEND
  0
POLYLINE
  8
Group1
 66
     1
 10
0.0
 20
0.0
 30
0.0
 70
     9
  0
VERTEX
  8
Group1
 10
33.2731727600381
 20
10.6717784609903
 30
0.0
 42
0.0
  0
VERTEX
  8
Group1
 10
33.5924665775508
 20
10.5411594177804
 30
0.0
 42
0.0
  0
VERTEX
  8
Group1
 10
33.9165518197842
 20
10.4229352951867
 30
0.0
 42
0.0
  0
VERTEX
  8
Group1
 10
34.2449477869244
 20
10.3172814492772
 30
0.0
 42
0.0
  0
VERTEX
  8
Group1
 10
34.5771673852696
 20
10.224354591242
 30
0.0
 42
0.0
  0
VERTEX
  8
Group1
 10
34.9127178497127
 20
10.1442925549519
 30
0.0
 42
0.0
  0
VERTEX
  8
Group1
 10
35.2511014746356
 20
10.0772140925157
 30
0.0
 42
0.0
  0
VERTEX
  8
Group1
 10
35.5918163521315
 20
10.0232186981412
 30
0.0
 42
0.0
  0
VERTEX
  8
Group1
 10
35.9343571164605
 20
9.98238646056
 30
0.0
 42
0.0
  0
VERTEX
  8
Group1
 10
36.278215693634
 20
9.9547779442363
 30
0.0
 42
0.0
  0
VERTEX
  8
Group1
 10
36.6228820550159
 20
9.940434099534
 30
0.0
 42
0.0
  0
VERTEX
  8
Group1
 10
36.9678449738234
 20
9.9393762019777
 30
0.0
 42
0.0
  0
VERTEX
  8
Group1
 10
37.3125927834042
 20
9.951605820695
 30
0.0
 42
0.0
  0
VERTEX
  8
Group1
 10
37.5374884910159
 20
9.9673135508892
 30
0.0
 42
0.0
  0
VERTEX
  8
Group1
 10
37.7618117459084
 20
9.9897641699392
 30
0.0
 42
0.0
  0
VERTEX
  8
Group1
 10
37.9853605373374
 20
10.0189374602964
 30
0.0
 42
0.0
  0
VERTEX
  8
Group1
 10
38.2079335519893
 20
10.0548071504178
 30
0.0
 42
0.0
  0
VERTEX
  8
Group1
 10
38.429330355271
 20
10.0973409384234
 30
0.0
 42
0.0
  0
VERTEX
  8
Group1
 10
38.6493515718077
 20
10.1465005211862
 30
0.0
 42
0.0
  0
VERTEX
  8
Group1
 10
38.8677990649873
 20
10.2022416288246
 30
0.0
 42
0.0
  0
VERTEX
  8
Group1
 10
39.0844761153896
 20
10.2645140645696
 30
0.0
 42
0.0
  0
VERTEX
  8
Group1
 10
39.2991875979382
 20
10.333261749968
 30
0.0
 42
0.0
  0
VERTEX
  8
Group1
 10
39.5117401576178
 20
10.4084227753839
 30
0.0
 42
0.0
  0
VERTEX
  8
Group1
 10
39.7219423835967
 20
10.4899294557495
 30
0.0
 42
0.0
  0
VERTEX
  8
Group1
 10
39.9296049815989
 20
10.5777083915184
 30
0.0
 42
0.0
  0
VERTEX
  8
Group1
 10
39.9954627145602
 20
10.6092213782246
 30
0.0
 42
0.0
  0
VERTEX
  8
Group1
 10
40.0592158167076
 20
10.6448022823891
 30
0.0
 42
0.0
  0
VERTEX
  8
Group1
 10
40.1206134706058
 20
10.6843111216295
 30
0.0
 42
0.0
  0
VERTEX
  8
Group1
 10
40.1794141256234
 20
10.7275924602823
 30
0.0
 42
0.0
  0
VERTEX
  8
Group1
 10
40.2353864482413
 20
10.7744760209182
 30
0.0
 42
0.0
  0
VERTEX
  8
Group1
 10
40.2883102321646
 20
10.8247773542469
 30
0.0
 42
0.0
  0
VERTEX
  8
Group1
 10
40.3379772646587
 20
10.8782985647782
 30
0.0
 42
0.0
  0
VERTEX
  8
Group1
 10
40.3841921456993
 20
10.9348290893816
 30
0.0
 42
0.0
  0
VERTEX
  8
Group1
 10
40.4267730567154
 20
10.9941465256845
 30
0.0
 42
0.0
  0
VERTEX
  8
Group1
 10
40.4655524758997
 20
11.0560175070467
 30
0.0
 42
0.0
  0
VERTEX
  8
Group1
 10
40.500377837273
 20
11.1201986206722
 30
0.0
 42
0.0
  0
VERTEX
  8
Group1
 10
40.5311121309091
 20
11.186437365243
 30
0.0
 42
0.0
  0
VERTEX
  8
Group1
 10
40.6330950162807
 20
11.4497806447637
 30
0.0
 42
0.0
  0
VERTEX
  8
Group1
 10
40.7171706933515
 20
11.7193790455881
 30
0.0
 42
0.0
  0
VERTEX
  8
Group1
 10
40.782959694849
 20
11.9940157619368
 30
0.0
 42
0.0
  0
VERTEX
  8
Group1
 10
40.8301650886067
 20
12.2724512480905
 30
0.0
 42
0.0
  0
VERTEX
  8
Group1
 10
40.8585738177381
 20
12.553428812957
 30
0.0
 42
0.0
  0
VERTEX
  8
Group1
 10
40.8680576622473
 20
12.8356802920231
 30
0.0
 42
0.0
  0
VERTEX
  8
Group1
 10
40.8585738177381
 20
13.1179317710891
 30
0.0
 42
0.0
  0
VERTEX
  8
Group1
 10
40.8301650886067
 20
13.3989093359557
 30
0.0
 42
0.0
  0
VERTEX
  8
Group1
 10
40.782959694849
 20
13.6773448221093
 30
0.0
 42
0.0
  0
VERTEX
  8
Group1
 10
40.7171706933515
 20
13.9519815384581
 30
0.0
 42
0.0
  0
VERTEX
  8
Group1
 10
40.6330950162807
 20
14.2215799392825
 30
0.0
 42
0.0
  0
VERTEX
  8
Group1
 10
40.5311121309091
 20
14.4849232188032
 30
0.0
 42
0.0
  0
VERTEX
  8
Group1
 10
40.3188778398841
 20
14.98264149049
 30
0.0
 42
0.0
  0
VERTEX
  8
Group1
 10
40.0917757535422
 20
15.4788457600746
 30
0.0
 42
0.0
  0
VERTEX
  8
Group1
 10
39.8517869708126
 20
15.9689150510367
 30
0.0
 42
0.0
  0
VERTEX
  8
Group1
 10
39.5990762063688
 20
16.452513007642
 30
0.0
 42
0.0
  0
VERTEX
  8
Group1
 10
39.3338169065314
 20
16.9293077157104
 30
0.0
 42
0.0
  0
VERTEX
  8
Group1
 10
39.056191130222
 20
17.3989719304273
 30
0.0
 42
0.0
  0
VERTEX
  8
Group1
 10
38.7663894240102
 20
17.8611833009428
 30
0.0
 42
0.0
  0
VERTEX
  8
Group1
 10
38.4646106913313
 20
18.3156245916177
 30
0.0
 42
0.0
  0
VERTEX
  8
Group1
 10
38.1510620559738
 20
18.7619838997514
 30
0.0
 42
0.0
  0
VERTEX
  8
Group1
 10
37.8259587199168
 20
19.1999548696604
 30
0.0
 42
0.0
  0
VERTEX
  8
Group1
 10
37.4895238156314
 20
19.629236902938
 30
0.0
 42
0.0
  0
VERTEX
  8
Group1
 10
37.3957975007725
 20
19.7425865286933
 30
0.0
 42
0.0
  0
VERTEX
  8
Group1
 10
37.238504771167
 20
19.6487663308684
 30
0.0
 42
0.0
  0
VERTEX
  8
Group1
 10
36.9901752204501
 20
19.4963559648804
 30
0.0
 42
0.0
  0
VERTEX
  8
Group1
 10
36.7437851417031
 20
19.3408135681521
 30
0.0
 42
0.0
  0
VERTEX
  8
Group1
 10
36.4993738294624
 20
19.182163946741
 30
0.0
 42
0.0
  0
VERTEX
  8
Group1
 10
36.2569802626885
 20
19.020432402247
 30
0.0
 42
0.0
  0
VERTEX
  8
Group1
 10
36.0166430985493
 20
18.8556447277785
 30
0.0
 42
0.0
  0
VERTEX
  8
Group1
 10
35.778400666257
 20
18.687827203839
 30
0.0
 42
0.0
  0
VERTEX
  8
Group1
 10
35.542290960953
 20
18.5170065941352
 30
0.0
 42
0.0
  0
VERTEX
  8
Group1
 10
35.3083516376488
 20
18.3432101413086
 30
0.0
 42
0.0
  0
VERTEX
  8
Group1
 10
35.0766200052224
 20
18.1664655625916
 30
0.0
 42
0.0
  0
VERTEX
  8
Group1
 10
34.988900672792
 20
18.0977904195224
 30
0.0
 42
0.0
  0
VERTEX
  8
Group1
 10
34.9007532932032
 20
17.5982365745128
 30
0.0
 42
0.0
  0
VERTEX
  8
Group1
 10
34.7735548809219
 20
16.9170227413471
 30
0.0
 42
0.0
  0
VERTEX
  8
Group1
 10
34.6395907009246
 20
16.2371138713212
 30
0.0
 42
0.0
  0
VERTEX
  8
Group1
 10
34.4988740621999
 20
15.5585775115897
 30
0.0
 42
0.0
  0
VERTEX
  8
Group1
 10
34.3514189445713
 20
14.8814810729347
 30
0.0
 42
0.0
  0
VERTEX
  8
Group1
 10
34.1972399973147
 20
14.2058918230965
 30
0.0
 42
0.0
  0
VERTEX
  8
Group1
 10
34.0363525376999
 20
13.5318768800763
 30
0.0
 42
0.0
  0
VERTEX
  8
Group1
 10
33.8687725494691
 20
12.8595032054702
 30
0.0
 42
0.0
  0
VERTEX
  8
Group1
 10
33.69451668125
 20
12.188837597821
 30
0.0
 42
0.0
  0
VERTEX
  8
Group1
 10
33.5136022449022
 20
11.5199466859823
 30
0.0
 42
0.0
  0
VERTEX
  8
Group1
 10
33.3260472137943
 20
10.8528969224894
 30
0.0
 42
0.0
  0
SEQEND
  0
POLYLINE
  8
Group1
 66
     1
 10
0.0
 20
0.0
 30
0.0
 70
     9
  0
VERTEX
  8
Group1
 10
27.7649389761895
 20
7.254045026557
 30
0.0
 42
0.0
  0
VERTEX
  8
Group1
 10
27.8937991540669
 20
7.5273832778693
 30
0.0
 42
0.0
  0
VERTEX
  8
Group1
 10
27.7598491473477
 20
7.5989329296791
 30
0.0
 42
0.0
  0
VERTEX
  8
Group1
 10
27.231947175543
 20
7.8908078952677
 30
0.0
 42
0.0
  0
VERTEX
  8
Group1
 10
26.7083064821305
 20
8.1902997445958
 30
0.0
 42
0.0
  0
VERTEX
  8
Group1
 10
26.1890363882359
 20
8.4973459523734
 30
0.0
 42
0.0
  0
VERTEX
  8
Group1
 10
25.6742453025332
 20
8.8118824161756
 30
0.0
 42
0.0
  0
VERTEX
  8
Group1
 10
25.1640406986022
 20
9.1338434698309
 30
0.0
 42
0.0
  0
VERTEX
  8
Group1
 10
24.6585290925021
 20
9.4631618971236
 30
0.0
 42
0.0
  0
VERTEX
  8
Group1
 10
24.1578160205268
 20
9.7997689458315
 30
0.0
 42
0.0
  0
VERTEX
  8
Group1
 10
23.6620060171746
 20
10.1435943420771
 30
0.0
 42
0.0
  0
VERTEX
  8
Group1
 10
23.1712025933242
 20
10.4945663049999
 30
0.0
 42
0.0
  0
VERTEX
  8
Group1
 10
22.6855082146245
 20
10.8526115617408
 30
0.0
 42
0.0
  0
VERTEX
  8
Group1
 10
22.3432010477318
 20
11.1126766759603
 30
0.0
 42
0.0
  0
VERTEX
  8
Group1
 10
22.1951811627692
 20
11.1072607851661
 30
0.0
 42
0.0
  0
VERTEX
  8
Group1
 10
21.8884255451483
 20
11.0826883540017
 30
0.0
 42
0.0
  0
VERTEX
  8
Group1
 10
21.5830163931944
 20
11.0448415844744
 30
0.0
 42
0.0
  0
VERTEX
  8
Group1
 10
21.2795248705751
 20
10.9937912560598
 30
0.0
 42
0.0
  0
VERTEX
  8
Group1
 10
20.9785185546858
 20
10.929632840988
 30
0.0
 42
0.0
  0
VERTEX
  8
Group1
 10
20.6805603751909
 20
10.8524863256949
 30
0.0
 42
0.0
  0
VERTEX
  8
Group1
 10
20.3862075612544
 20
10.7624959864287
 30
0.0
 42
0.0
  0
VERTEX
  8
Group1
 10
20.0960105994342
 20
10.6598301194303
 30
0.0
 42
0.0
  0
VERTEX
  8
Group1
 10
19.8105122041835
 20
10.5446807261925
 30
0.0
 42
0.0
  0
VERTEX
  8
Group1
 10
19.5302463028895
 20
10.4172631543869
 30
0.0
 42
0.0
  0
VERTEX
  8
Group1
 10
19.2695589443881
 20
10.2856076240717
 30
0.0
 42
0.0
  0
VERTEX
  8
Group1
 10
19.2769809767551
 20
10.2405281228651
 30
0.0
 42
0.0
  0
VERTEX
  8
Group1
 10
19.3439449155999
 20
9.869818059161
 30
0.0
 42
0.0
  0
VERTEX
  8
Group1
 10
19.4166569854052
 20
9.5001981563839
 30
0.0
 42
0.0
  0
VERTEX
  8
Group1
 10
19.4950995619349
 20
9.1317580044532
 30
0.0
 42
0.0
  0
VERTEX
  8
Group1
 10
19.57925363197
 20
8.7645869073354
 30
0.0
 42
0.0
  0
VERTEX
  8
Group1
 10
19.6690987979182
 20
8.3987738613959
 30
0.0
 42
0.0
  0
VERTEX
  8
Group1
 10
19.7646132827557
 20
8.0344075338361
 30
0.0
 42
0.0
  0
VERTEX
  8
Group1
 10
19.8657739353085
 20
7.6715762411903
 30
0.0
 42
0.0
  0
VERTEX
  8
Group1
 10
19.9725562358607
 20
7.3103679279302
 30
0.0
 42
0.0
  0
VERTEX
  8
Group1
 10
20.0849343021016
 20
6.9508701451371
 30
0.0
 42
0.0
  0
VERTEX
  8
Group1
 10
20.2028808953943
 20
6.5931700292945
 30
0.0
 42
0.0
  0
VERTEX
  8
Group1
 10
20.3250668293933
 20
6.2411018416305
 30
0.0
 42
0.0
  0
VERTEX
  8
Group1
 10
20.4384698567333
 20
5.9422604068993
 30
0.0
 42
0.0
  0
VERTEX
  8
Group1
 10
20.5687955433134
 20
5.6504052966425
 30
0.0
 42
0.0
  0
VERTEX
  8
Group1
 10
20.7156161492441
 20
5.3664944039347
 30
0.0
 42
0.0
  0
VERTEX
  8
Group1
 10
20.8784497969198
 20
5.0914595482591
 30
0.0
 42
0.0
  0
VERTEX
  8
Group1
 10
21.0567620525823
 20
4.8262034171969
 30
0.0
 42
0.0
  0
VERTEX
  8
Group1
 10
21.2499676803772
 20
4.5715966037309
 30
0.0
 42
0.0
  0
VERTEX
  8
Group1
 10
21.4574325631471
 20
4.3284747488858
 30
0.0
 42
0.0
  0
VERTEX
  8
Group1
 10
21.6784757836578
 20
4.097635799084
 30
0.0
 42
0.0
  0
VERTEX
  8
Group1
 10
21.912371859426
 20
3.879837387218
 30
0.0
 42
0.0
  0
VERTEX
  8
Group1
 10
22.1583531238142
 20
3.6757943460356
 30
0.0
 42
0.0
  0
VERTEX
  8
Group1
 10
22.4156122455766
 20
3.4861763619985
 30
0.0
 42
0.0
  0
VERTEX
  8
Group1
 10
22.6833048785893
 20
3.3116057773147
 30
0.0
 42
0.0
  0
VERTEX
  8
Group1
 10
22.749576494483
 20
3.2736238526981
 30
0.0
 42
0.0
  0
VERTEX
  8
Group1
 10
22.8179235904066
 20
3.2395199662269
 30
0.0
 42
0.0
  0
VERTEX
  8
Group1
 10
22.8881196000093
 20
3.209407170153
 30
0.0
 42
0.0
  0
VERTEX
  8
Group1
 10
22.9599318279076
 20
3.1833852865129
 30
0.0
 42
0.0
  0
VERTEX
  8
Group1
 10
23.0331222210549
 20
3.1615405762242
 30
0.0
 42
0.0
  0
VERTEX
  8
Group1
 10
23.1074481578733
 20
3.1439454531359
 30
0.0
 42
0.0
  0
VERTEX
  8
Group1
 10
23.1826632525284
 20
3.1306582439813
 30
0.0
 42
0.0
  0
VERTEX
  8
Group1
 10
23.2585181716831
 20
3.121722995028
 30
0.0
 42
0.0
  0
VERTEX
  8
Group1
 10
23.3347614610224
 20
3.1171693260678
 30
0.0
 42
0.0
  0
VERTEX
  8
Group1
 10
23.4111403788081
 20
3.1170123322286
 30
0.0
 42
0.0
  0
VERTEX
  8
Group1
 10
23.4874017337023
 20
3.1212525339353
 30
0.0
 42
0.0
  0
VERTEX
  8
Group1
 10
23.5632927240808
 20
3.1298758751841
 30
0.0
 42
0.0
  0
VERTEX
  8
Group1
 10
23.6668166105263
 20
3.1462379886219
 30
0.0
 42
0.0
  0
VERTEX
  8
Group1
 10
23.7698106859719
 20
3.1656594764832
 30
0.0
 42
0.0
  0
VERTEX
  8
Group1
 10
23.8721846086225
 20
3.1881233031079
 30
0.0
 42
0.0
  0
VERTEX
  8
Group1
 10
23.9738485806539
 20
3.2136097642323
 30
0.0
 42
0.0
  0
VERTEX
  8
Group1
 10
24.0747134269783
 20
3.242096504273
 30
0.0
 42
0.0
  0
VERTEX
  8
Group1
 10
24.1746906734654
 20
3.2735585359362
 30
0.0
 42
0.0
  0
VERTEX
  8
Group1
 10
24.273692624548
 20
3.3079682621355
 30
0.0
 42
0.0
  0
VERTEX
  8
Group1
 10
24.371632440144
 20
3.3452955001985
 30
0.0
 42
0.0
  0
VERTEX
  8
Group1
 10
24.4684242118293
 20
3.3855075083422
 30
0.0
 42
0.0
  0
VERTEX
  8
Group1
 10
24.5639830381925
 20
3.4285690143922
 30
0.0
 42
0.0
  0
VERTEX
  8
Group1
 10
24.6582250993064
 20
3.474442246722
 30
0.0
 42
0.0
  0
VERTEX
  8
Group1
 10
24.7510677302519
 20
3.5230869673847
 30
0.0
 42
0.0
  0
VERTEX
  8
Group1
 10
24.8629158505794
 20
3.5860215698204
 30
0.0
 42
0.0
  0
VERTEX
  8
Group1
 10
24.9728144682463
 20
3.6523035197478
 30
0.0
 42
0.0
  0
VERTEX
  8
Group1
 10
25.0806634905153
 20
3.7218724493302
 30
0.0
 42
0.0
  0
VERTEX
  8
Group1
 10
25.1863646913662
 20
3.7946649970375
 30
0.0
 42
0.0
  0
VERTEX
  8
Group1
 10
25.2898218009572
 20
3.8706148653537
 30
0.0
 42
0.0
  0
VERTEX
  8
Group1
 10
25.3909405933052
 20
3.9496528811592
 30
0.0
 42
0.0
  0
VERTEX
  8
Group1
 10
25.4896289721045
 20
4.0317070587321
 30
0.0
 42
0.0
  0
VERTEX
  8
Group1
 10
25.585797054605
 20
4.1167026653104
 30
0.0
 42
0.0
  0
VERTEX
  8
Group1
 10
25.6793572534756
 20
4.2045622891567
 30
0.0
 42
0.0
  0
VERTEX
  8
Group1
 10
25.7702243565763
 20
4.295205910063
 30
0.0
 42
0.0
  0
VERTEX
  8
Group1
 10
25.8583156045669
 20
4.388550972231
 30
0.0
 42
0.0
  0
VERTEX
  8
Group1
 10
25.9435507662824
 20
4.4845124594614
 30
0.0
 42
0.0
  0
VERTEX
  8
Group1
 10
26.1380786157654
 20
4.7157396766509
 30
0.0
 42
0.0
  0
VERTEX
  8
Group1
 10
26.3271121352999
 20
4.9514823187368
 30
0.0
 42
0.0
  0
VERTEX
  8
Group1
 10
26.5105466052053
 20
5.1916097903924
 30
0.0
 42
0.0
  0
VERTEX
  8
Group1
 10
26.6882804075291
 20
5.4359890672086
 30
0.0
 42
0.0
  0
VERTEX
  8
Group1
 10
26.8602150823416
 20
5.6844847693865
 30
0.0
 42
0.0
  0
VERTEX
  8
Group1
 10
27.0262553822796
 20
5.9369592367337
 30
0.0
 42
0.0
  0
VERTEX
  8
Group1
 10
27.1863093253113
 20
6.1932726049249
 30
0.0
 42
0.0
  0
VERTEX
  8
Group1
 10
27.3402882456915
 20
6.4532828829833
 30
0.0
 42
0.0
  0
VERTEX
  8
Group1
 10
27.4881068430807
 20
6.7168460319392
 30
0.0
 42
0.0
  0
VERTEX
  8
Group1
 10
27.629683229799
 20
6.9838160446246
 30
0.0
 42
0.0
  0
SEQEND
  0
ENDSEC
  0
EOF
