  0
SECTION
  2
HEADER
  9
$ANGBASE
  50
0.0
  9
$ANGDIR
  70
  1
  9
$MEASUREMENT
  70
0
  0
ENDSEC
  0
SECTION
  2
TABLES
  0
TABLE
  2
LTYPE
  70
1
  0
LTYPE
  2
CONTINUOUS
  70
0
  3
Solid line
  72
65
  73
0
  40
0.0
  0
ENDTAB
  0
TABLE
  2
STYLE
  70
4
  0
STYLE
  2
KICAD
  70
0
  40
0
  41
1
  42
1
  50
0
  71
0
  3
isocp.shx
  0
STYLE
  2
KICADB
  70
0
  40
0
  41
1
  42
1
  50
0
  71
0
  3
isocp.shx
  0
STYLE
  2
KICADI
  70
0
  40
0
  41
1
  42
1
  50
15
  71
0
  3
isocp.shx
  0
STYLE
  2
KICADBI
  70
0
  40
0
  41
1
  42
1
  50
15
  71
0
  3
isocp.shx
  0
ENDTAB
  0
TABLE
  2
LAYER
  70
30
  0
LAYER
  2
BLACK
  70
0
  62
7
  6
CONTINUOUS
  0
LAYER
  2
GRAY1
  70
0
  62
251
  6
CONTINUOUS
  0
LAYER
  2
GRAY2
  70
0
  62
8
  6
CONTINUOUS
  0
LAYER
  2
GRAY3
  70
0
  62
9
  6
CONTINUOUS
  0
LAYER
  2
WHITE
  70
0
  62
7
  6
CONTINUOUS
  0
LAYER
  2
LYELLOW
  70
0
  62
51
  6
CONTINUOUS
  0
LAYER
  2
BLUE1
  70
0
  62
178
  6
CONTINUOUS
  0
LAYER
  2
GREEN1
  70
0
  62
98
  6
CONTINUOUS
  0
LAYER
  2
CYAN1
  70
0
  62
138
  6
CONTINUOUS
  0
LAYER
  2
RED1
  70
0
  62
18
  6
CONTINUOUS
  0
LAYER
  2
MAGENTA1
  70
0
  62
228
  6
CONTINUOUS
  0
LAYER
  2
BROWN1
  70
0
  62
58
  6
CONTINUOUS
  0
LAYER
  2
BLUE2
  70
0
  62
5
  6
CONTINUOUS
  0
LAYER
  2
GREEN2
  70
0
  62
3
  6
CONTINUOUS
  0
LAYER
  2
CYAN2
  70
0
  62
4
  6
CONTINUOUS
  0
LAYER
  2
RED2
  70
0
  62
1
  6
CONTINUOUS
  0
LAYER
  2
MAGENTA2
  70
0
  62
6
  6
CONTINUOUS
  0
LAYER
  2
BROWN2
  70
0
  62
54
  6
CONTINUOUS
  0
LAYER
  2
BLUE3
  70
0
  62
171
  6
CONTINUOUS
  0
LAYER
  2
GREEN3
  70
0
  62
91
  6
CONTINUOUS
  0
LAYER
  2
CYAN3
  70
0
  62
131
  6
CONTINUOUS
  0
LAYER
  2
RED3
  70
0
  62
11
  6
CONTINUOUS
  0
LAYER
  2
MAGENTA3
  70
0
  62
221
  6
CONTINUOUS
  0
LAYER
  2
YELLOW3
  70
0
  62
2
  6
CONTINUOUS
  0
LAYER
  2
BLUE4
  70
0
  62
5
  6
CONTINUOUS
  0
LAYER
  2
GREEN4
  70
0
  62
3
  6
CONTINUOUS
  0
LAYER
  2
CYAN4
  70
0
  62
4
  6
CONTINUOUS
  0
LAYER
  2
RED4
  70
0
  62
1
  6
CONTINUOUS
  0
LAYER
  2
MAGENTA4
  70
0
  62
6
  6
CONTINUOUS
  0
LAYER
  2
YELLOW4
  70
0
  62
2
  6
CONTINUOUS
  0
ENDTAB
  0
ENDSEC
  0
SECTION
  2
ENTITIES
0
LINE
8
Black
10
247.486
20
-111.75
11
247.497
21
-111.75
0
LINE
8
Black
10
247.497
20
-111.75
11
247.507
21
-111.754
0
LINE
8
Black
10
247.507
20
-111.754
11
247.518
21
-111.756
0
LINE
8
Black
10
247.518
20
-111.756
11
247.528
21
-111.761
0
LINE
8
Black
10
247.528
20
-111.761
11
247.538
21
-111.765
0
LINE
8
Black
10
247.538
20
-111.765
11
247.547
21
-111.772
0
LINE
8
Black
10
247.547
20
-111.772
11
247.557
21
-111.778
0
LINE
8
Black
10
247.557
20
-111.778
11
247.564
21
-111.786
0
LINE
8
Black
10
247.564
20
-111.786
11
247.572
21
-111.793
0
LINE
8
Black
10
247.572
20
-111.793
11
247.578
21
-111.803
0
LINE
8
Black
10
247.578
20
-111.803
11
247.585
21
-111.811
0
LINE
8
Black
10
247.585
20
-111.811
11
247.589
21
-111.822
0
LINE
8
Black
10
247.589
20
-111.822
11
247.594
21
-111.832
0
LINE
8
Black
10
247.594
20
-111.832
11
247.596
21
-111.843
0
LINE
8
Black
10
247.596
20
-111.843
11
247.6
21
-111.853
0
LINE
8
Black
10
247.6
20
-111.853
11
247.6
21
-111.864
0
LINE
8
Black
10
247.6
20
-111.864
11
247.602
21
-111.875
0
LINE
8
Black
10
247.602
20
-111.875
11
247.602
21
-123.67
0
LINE
8
Black
10
247.602
20
-123.67
11
247.599
21
-123.686
0
LINE
8
Black
10
247.599
20
-123.686
11
247.598
21
-123.703
0
LINE
8
Black
10
247.598
20
-123.703
11
247.595
21
-123.708
0
LINE
8
Black
10
247.595
20
-123.708
11
247.594
21
-123.714
0
LINE
8
Black
10
247.594
20
-123.714
11
247.586
21
-123.728
0
LINE
8
Black
10
247.586
20
-123.728
11
247.579
21
-123.743
0
LINE
8
Black
10
247.579
20
-123.743
11
247.575
21
-123.747
0
LINE
8
Black
10
247.575
20
-123.747
11
247.572
21
-123.752
0
LINE
8
Black
10
247.572
20
-123.752
11
247.56
21
-123.762
0
LINE
8
Black
10
247.56
20
-123.762
11
247.548
21
-123.774
0
LINE
8
Black
10
247.548
20
-123.774
11
247.543
21
-123.777
0
LINE
8
Black
10
247.543
20
-123.777
11
247.538
21
-123.78
0
LINE
8
Black
10
247.538
20
-123.78
11
247.523
21
-123.786
0
LINE
8
Black
10
247.523
20
-123.786
11
247.508
21
-123.793
0
LINE
8
Black
10
247.508
20
-123.793
11
247.502
21
-123.793
0
LINE
8
Black
10
247.502
20
-123.793
11
247.497
21
-123.795
0
LINE
8
Black
10
247.497
20
-123.795
11
247.48
21
-123.795
0
LINE
8
Black
10
247.48
20
-123.795
11
247.464
21
-123.797
0
LINE
8
Black
10
247.464
20
-123.797
11
247.458
21
-123.795
0
LINE
8
Black
10
247.458
20
-123.795
11
247.453
21
-123.795
0
LINE
8
Black
10
247.453
20
-123.795
11
247.437
21
-123.789
0
LINE
8
Black
10
247.437
20
-123.789
11
247.421
21
-123.785
0
LINE
8
Black
10
247.421
20
-123.785
11
247.417
21
-123.782
0
LINE
8
Black
10
247.417
20
-123.782
11
247.411
21
-123.78
0
LINE
8
Black
10
247.411
20
-123.78
11
247.399
21
-123.769
0
LINE
8
Black
10
247.399
20
-123.769
11
247.385
21
-123.76
0
LINE
8
Black
10
247.385
20
-123.76
11
246.491
21
-122.864
0
LINE
8
Black
10
246.491
20
-122.864
11
245.331
21
-122.383
0
LINE
8
Black
10
245.331
20
-122.383
11
244.075
21
-122.381
0
LINE
8
Black
10
244.075
20
-122.381
11
242.913
21
-122.861
0
LINE
8
Black
10
242.913
20
-122.861
11
242.024
21
-123.749
0
LINE
8
Black
10
242.024
20
-123.749
11
241.543
21
-124.909
0
LINE
8
Black
10
241.543
20
-124.909
11
241.541
21
-126.165
0
LINE
8
Black
10
241.541
20
-126.165
11
242.021
21
-127.327
0
LINE
8
Black
10
242.021
20
-127.327
11
242.909
21
-128.216
0
LINE
8
Black
10
242.909
20
-128.216
11
244.069
21
-128.697
0
LINE
8
Black
10
244.069
20
-128.697
11
245.325
21
-128.699
0
LINE
8
Black
10
245.325
20
-128.699
11
246.487
21
-128.219
0
LINE
8
Black
10
246.487
20
-128.219
11
247.385
21
-127.322
0
LINE
8
Black
10
247.385
20
-127.322
11
247.399
21
-127.312
0
LINE
8
Black
10
247.399
20
-127.312
11
247.411
21
-127.301
0
LINE
8
Black
10
247.411
20
-127.301
11
247.417
21
-127.3
0
LINE
8
Black
10
247.417
20
-127.3
11
247.421
21
-127.296
0
LINE
8
Black
10
247.421
20
-127.296
11
247.437
21
-127.292
0
LINE
8
Black
10
247.437
20
-127.292
11
247.453
21
-127.286
0
LINE
8
Black
10
247.453
20
-127.286
11
247.459
21
-127.286
0
LINE
8
Black
10
247.459
20
-127.286
11
247.464
21
-127.285
0
LINE
8
Black
10
247.464
20
-127.285
11
247.481
21
-127.286
0
LINE
8
Black
10
247.481
20
-127.286
11
247.497
21
-127.286
0
LINE
8
Black
10
247.497
20
-127.286
11
247.502
21
-127.288
0
LINE
8
Black
10
247.502
20
-127.288
11
247.508
21
-127.289
0
LINE
8
Black
10
247.508
20
-127.289
11
247.523
21
-127.296
0
LINE
8
Black
10
247.523
20
-127.296
11
247.538
21
-127.301
0
LINE
8
Black
10
247.538
20
-127.301
11
247.543
21
-127.305
0
LINE
8
Black
10
247.543
20
-127.305
11
247.548
21
-127.308
0
LINE
8
Black
10
247.548
20
-127.308
11
247.56
21
-127.319
0
LINE
8
Black
10
247.56
20
-127.319
11
247.572
21
-127.33
0
LINE
8
Black
10
247.572
20
-127.33
11
247.575
21
-127.335
0
LINE
8
Black
10
247.575
20
-127.335
11
247.579
21
-127.339
0
LINE
8
Black
10
247.579
20
-127.339
11
247.586
21
-127.354
0
LINE
8
Black
10
247.586
20
-127.354
11
247.594
21
-127.368
0
LINE
8
Black
10
247.594
20
-127.368
11
247.595
21
-127.374
0
LINE
8
Black
10
247.595
20
-127.374
11
247.598
21
-127.379
0
LINE
8
Black
10
247.598
20
-127.379
11
247.599
21
-127.395
0
LINE
8
Black
10
247.599
20
-127.395
11
247.602
21
-127.411
0
LINE
8
Black
10
247.602
20
-127.411
11
247.602
21
-140.505
0
LINE
8
Black
10
247.602
20
-140.505
11
247.6
21
-140.516
0
LINE
8
Black
10
247.6
20
-140.516
11
247.6
21
-140.527
0
LINE
8
Black
10
247.6
20
-140.527
11
247.596
21
-140.537
0
LINE
8
Black
10
247.596
20
-140.537
11
247.594
21
-140.548
0
LINE
8
Black
10
247.594
20
-140.548
11
247.589
21
-140.558
0
LINE
8
Black
10
247.589
20
-140.558
11
247.585
21
-140.569
0
LINE
8
Black
10
247.585
20
-140.569
11
247.578
21
-140.577
0
LINE
8
Black
10
247.578
20
-140.577
11
247.572
21
-140.587
0
LINE
8
Black
10
247.572
20
-140.587
11
247.564
21
-140.594
0
LINE
8
Black
10
247.564
20
-140.594
11
247.557
21
-140.602
0
LINE
8
Black
10
247.557
20
-140.602
11
247.547
21
-140.608
0
LINE
8
Black
10
247.547
20
-140.608
11
247.538
21
-140.615
0
LINE
8
Black
10
247.538
20
-140.615
11
247.528
21
-140.619
0
LINE
8
Black
10
247.528
20
-140.619
11
247.518
21
-140.624
0
LINE
8
Black
10
247.518
20
-140.624
11
247.507
21
-140.626
0
LINE
8
Black
10
247.507
20
-140.626
11
247.497
21
-140.63
0
LINE
8
Black
10
247.497
20
-140.63
11
247.486
21
-140.63
0
LINE
8
Black
10
247.486
20
-140.63
11
247.475
21
-140.632
0
LINE
8
Black
10
247.475
20
-140.632
11
200.157
21
-140.632
0
LINE
8
Black
10
200.157
20
-140.632
11
200.14
21
-140.629
0
LINE
8
Black
10
200.14
20
-140.629
11
200.124
21
-140.628
0
LINE
8
Black
10
200.124
20
-140.628
11
200.119
21
-140.625
0
LINE
8
Black
10
200.119
20
-140.625
11
200.113
21
-140.624
0
LINE
8
Black
10
200.113
20
-140.624
11
200.099
21
-140.616
0
LINE
8
Black
10
200.099
20
-140.616
11
200.084
21
-140.609
0
LINE
8
Black
10
200.084
20
-140.609
11
200.08
21
-140.605
0
LINE
8
Black
10
200.08
20
-140.605
11
200.075
21
-140.602
0
LINE
8
Black
10
200.075
20
-140.602
11
200.064
21
-140.59
0
LINE
8
Black
10
200.064
20
-140.59
11
200.053
21
-140.578
0
LINE
8
Black
10
200.053
20
-140.578
11
200.05
21
-140.573
0
LINE
8
Black
10
200.05
20
-140.573
11
200.047
21
-140.569
0
LINE
8
Black
10
200.047
20
-140.569
11
200.041
21
-140.553
0
LINE
8
Black
10
200.041
20
-140.553
11
200.034
21
-140.538
0
LINE
8
Black
10
200.034
20
-140.538
11
200.033
21
-140.532
0
LINE
8
Black
10
200.033
20
-140.532
11
200.032
21
-140.527
0
LINE
8
Black
10
200.032
20
-140.527
11
200.032
21
-140.51
0
LINE
8
Black
10
200.032
20
-140.51
11
200.03
21
-140.494
0
LINE
8
Black
10
200.03
20
-140.494
11
200.032
21
-140.489
0
LINE
8
Black
10
200.032
20
-140.489
11
200.032
21
-140.483
0
LINE
8
Black
10
200.032
20
-140.483
11
200.037
21
-140.467
0
LINE
8
Black
10
200.037
20
-140.467
11
200.041
21
-140.451
0
LINE
8
Black
10
200.041
20
-140.451
11
200.045
21
-140.447
0
LINE
8
Black
10
200.045
20
-140.447
11
200.047
21
-140.441
0
LINE
8
Black
10
200.047
20
-140.441
11
200.057
21
-140.429
0
LINE
8
Black
10
200.057
20
-140.429
11
200.067
21
-140.415
0
LINE
8
Black
10
200.067
20
-140.415
11
200.737
21
-139.745
0
LINE
8
Black
10
200.737
20
-139.745
11
200.908
21
-139.489
0
LINE
8
Black
10
200.908
20
-139.489
11
200.928
21
-139.39
0
LINE
8
Black
10
200.928
20
-139.39
11
200.97
21
-139.175
0
LINE
8
Black
10
200.97
20
-139.175
11
200.972
21
-139.171
0
LINE
8
Black
10
200.972
20
-139.171
11
200.974
21
-139.159
0
LINE
8
Black
10
200.974
20
-139.159
11
200.975
21
-139.156
0
LINE
8
Black
10
200.975
20
-139.156
11
200.976
21
-139.153
0
LINE
8
Black
10
200.976
20
-139.153
11
200.983
21
-139.141
0
LINE
8
Black
10
200.983
20
-139.141
11
200.984
21
-139.139
0
LINE
8
Black
10
200.984
20
-139.139
11
200.985
21
-139.137
0
LINE
8
Black
10
200.985
20
-139.137
11
200.985
21
-139.137
0
LINE
8
Black
10
200.985
20
-139.137
11
200.986
21
-139.136
0
LINE
8
Black
10
200.986
20
-139.136
11
200.986
21
-139.134
0
LINE
8
Black
10
200.986
20
-139.134
11
200.987
21
-139.134
0
LINE
8
Black
10
200.987
20
-139.134
11
200.994
21
-139.12
0
LINE
8
Black
10
200.994
20
-139.12
11
200.996
21
-139.118
0
LINE
8
Black
10
200.996
20
-139.118
11
200.998
21
-139.115
0
LINE
8
Black
10
200.998
20
-139.115
11
201.012
21
-139.103
0
LINE
8
Black
10
201.012
20
-139.103
11
201.026
21
-139.09
0
LINE
8
Black
10
201.026
20
-139.09
11
201.071
21
-139.061
0
LINE
8
Black
10
201.071
20
-139.061
11
201.187
21
-138.891
0
LINE
8
Black
10
201.187
20
-138.891
11
201.23
21
-138.677
0
LINE
8
Black
10
201.23
20
-138.677
11
201.23
21
-137.565
0
LINE
8
Black
10
201.23
20
-137.565
11
201.23
21
-135.702
0
LINE
8
Black
10
201.23
20
-135.702
11
201.193
21
-135.503
0
LINE
8
Black
10
201.193
20
-135.503
11
201.081
21
-135.329
0
LINE
8
Black
10
201.081
20
-135.329
11
200.911
21
-135.213
0
LINE
8
Black
10
200.911
20
-135.213
11
200.91
21
-135.213
0
LINE
8
Black
10
200.91
20
-135.213
11
200.697
21
-135.17
0
LINE
8
Black
10
200.697
20
-135.17
11
199.722
21
-135.17
0
LINE
8
Black
10
199.722
20
-135.17
11
199.618
21
-135.189
0
LINE
8
Black
10
199.618
20
-135.189
11
199.618
21
-135.189
0
LINE
8
Black
10
199.618
20
-135.189
11
199.617
21
-135.189
0
LINE
8
Black
10
199.617
20
-135.189
11
199.596
21
-135.189
0
LINE
8
Black
10
199.596
20
-135.189
11
199.574
21
-135.19
0
LINE
8
Black
10
199.574
20
-135.19
11
199.574
21
-135.189
0
LINE
8
Black
10
199.574
20
-135.189
11
199.573
21
-135.189
0
LINE
8
Black
10
199.573
20
-135.189
11
199.553
21
-135.182
0
LINE
8
Black
10
199.553
20
-135.182
11
199.533
21
-135.175
0
LINE
8
Black
10
199.533
20
-135.175
11
199.532
21
-135.174
0
LINE
8
Black
10
199.532
20
-135.174
11
199.531
21
-135.174
0
LINE
8
Black
10
199.531
20
-135.174
11
199.515
21
-135.16
0
LINE
8
Black
10
199.515
20
-135.16
11
199.499
21
-135.147
0
LINE
8
Black
10
199.499
20
-135.147
11
199.498
21
-135.146
0
LINE
8
Black
10
199.498
20
-135.146
11
199.498
21
-135.146
0
LINE
8
Black
10
199.498
20
-135.146
11
199.487
21
-135.127
0
LINE
8
Black
10
199.487
20
-135.127
11
199.476
21
-135.109
0
LINE
8
Black
10
199.476
20
-135.109
11
199.476
21
-135.108
0
LINE
8
Black
10
199.476
20
-135.108
11
199.476
21
-135.108
0
LINE
8
Black
10
199.476
20
-135.108
11
199.472
21
-135.087
0
LINE
8
Black
10
199.472
20
-135.087
11
199.468
21
-135.066
0
LINE
8
Black
10
199.468
20
-135.066
11
199.468
21
-135.065
0
LINE
8
Black
10
199.468
20
-135.065
11
199.468
21
-135.064
0
LINE
8
Black
10
199.468
20
-135.064
11
199.468
21
-130.233
0
LINE
8
Black
10
199.468
20
-130.233
11
199.408
21
-129.931
0
LINE
8
Black
10
199.408
20
-129.931
11
199.237
21
-129.675
0
LINE
8
Black
10
199.237
20
-129.675
11
196.645
21
-127.083
0
LINE
8
Black
10
196.645
20
-127.083
11
196.389
21
-126.912
0
LINE
8
Black
10
196.389
20
-126.912
11
196.358
21
-126.906
0
LINE
8
Black
10
196.358
20
-126.906
11
196.358
21
-126.906
0
LINE
8
Black
10
196.358
20
-126.906
11
196.087
21
-126.852
0
LINE
8
Black
10
196.087
20
-126.852
11
171.807
21
-126.852
0
LINE
8
Black
10
171.807
20
-126.852
11
171.801
21
-126.851
0
LINE
8
Black
10
171.801
20
-126.851
11
171.796
21
-126.852
0
LINE
8
Black
10
171.796
20
-126.852
11
171.779
21
-126.847
0
LINE
8
Black
10
171.779
20
-126.847
11
171.763
21
-126.844
0
LINE
8
Black
10
171.763
20
-126.844
11
171.758
21
-126.842
0
LINE
8
Black
10
171.758
20
-126.842
11
171.753
21
-126.84
0
LINE
8
Black
10
171.753
20
-126.84
11
171.739
21
-126.831
0
LINE
8
Black
10
171.739
20
-126.831
11
171.725
21
-126.822
0
LINE
8
Black
10
171.725
20
-126.822
11
171.721
21
-126.818
0
LINE
8
Black
10
171.721
20
-126.818
11
171.717
21
-126.815
0
LINE
8
Black
10
171.717
20
-126.815
11
166.602
21
-121.7
0
LINE
8
Black
10
166.602
20
-121.7
11
166.602
21
-121.7
0
LINE
8
Black
10
166.602
20
-121.7
11
164.265
21
-119.363
0
LINE
8
Black
10
164.265
20
-119.363
11
164.104
21
-119.256
0
LINE
8
Black
10
164.104
20
-119.256
11
164.009
21
-119.192
0
LINE
8
Black
10
164.009
20
-119.192
11
163.978
21
-119.186
0
LINE
8
Black
10
163.978
20
-119.186
11
163.978
21
-119.186
0
LINE
8
Black
10
163.978
20
-119.186
11
163.707
21
-119.132
0
LINE
8
Black
10
163.707
20
-119.132
11
162.184
21
-119.132
0
LINE
8
Black
10
162.184
20
-119.132
11
162.163
21
-119.128
0
LINE
8
Black
10
162.163
20
-119.128
11
162.143
21
-119.125
0
LINE
8
Black
10
162.143
20
-119.125
11
162.142
21
-119.125
0
LINE
8
Black
10
162.142
20
-119.125
11
162.14
21
-119.124
0
LINE
8
Black
10
162.14
20
-119.124
11
162.122
21
-119.114
0
LINE
8
Black
10
162.122
20
-119.114
11
162.104
21
-119.104
0
LINE
8
Black
10
162.104
20
-119.104
11
162.103
21
-119.103
0
LINE
8
Black
10
162.103
20
-119.103
11
162.102
21
-119.102
0
LINE
8
Black
10
162.102
20
-119.102
11
162.089
21
-119.086
0
LINE
8
Black
10
162.089
20
-119.086
11
162.075
21
-119.071
0
LINE
8
Black
10
162.075
20
-119.071
11
162.075
21
-119.07
0
LINE
8
Black
10
162.075
20
-119.07
11
162.074
21
-119.068
0
LINE
8
Black
10
162.074
20
-119.068
11
162.067
21
-119.049
0
LINE
8
Black
10
162.067
20
-119.049
11
162.059
21
-119.03
0
LINE
8
Black
10
162.059
20
-119.03
11
161.952
21
-118.492
0
LINE
8
Black
10
161.952
20
-118.492
11
161.658
21
-118.052
0
LINE
8
Black
10
161.658
20
-118.052
11
161.396
21
-117.877
0
LINE
8
Black
10
161.396
20
-117.877
11
161.393
21
-117.874
0
LINE
8
Black
10
161.393
20
-117.874
11
161.389
21
-117.872
0
LINE
8
Black
10
161.389
20
-117.872
11
161.389
21
-117.872
0
LINE
8
Black
10
161.389
20
-117.872
11
161.388
21
-117.871
0
LINE
8
Black
10
161.388
20
-117.871
11
161.377
21
-117.859
0
LINE
8
Black
10
161.377
20
-117.859
11
161.364
21
-117.847
0
LINE
8
Black
10
161.364
20
-117.847
11
161.363
21
-117.843
0
LINE
8
Black
10
161.363
20
-117.843
11
161.36
21
-117.84
0
LINE
8
Black
10
161.36
20
-117.84
11
161.359
21
-117.839
0
LINE
8
Black
10
161.359
20
-117.839
11
161.359
21
-117.839
0
LINE
8
Black
10
161.359
20
-117.839
11
161.353
21
-117.823
0
LINE
8
Black
10
161.353
20
-117.823
11
161.345
21
-117.807
0
LINE
8
Black
10
161.345
20
-117.807
11
161.344
21
-117.803
0
LINE
8
Black
10
161.344
20
-117.803
11
161.343
21
-117.799
0
LINE
8
Black
10
161.343
20
-117.799
11
161.343
21
-117.798
0
LINE
8
Black
10
161.343
20
-117.798
11
161.343
21
-117.798
0
LINE
8
Black
10
161.343
20
-117.798
11
161.342
21
-117.78
0
LINE
8
Black
10
161.342
20
-117.78
11
161.34
21
-117.763
0
LINE
8
Black
10
161.34
20
-117.763
11
161.341
21
-117.759
0
LINE
8
Black
10
161.341
20
-117.759
11
161.341
21
-117.755
0
LINE
8
Black
10
161.341
20
-117.755
11
161.341
21
-117.754
0
LINE
8
Black
10
161.341
20
-117.754
11
161.341
21
-117.754
0
LINE
8
Black
10
161.341
20
-117.754
11
161.347
21
-117.737
0
LINE
8
Black
10
161.347
20
-117.737
11
161.351
21
-117.721
0
LINE
8
Black
10
161.351
20
-117.721
11
161.353
21
-117.717
0
LINE
8
Black
10
161.353
20
-117.717
11
161.354
21
-117.713
0
LINE
8
Black
10
161.354
20
-117.713
11
161.355
21
-117.712
0
LINE
8
Black
10
161.355
20
-117.712
11
161.355
21
-117.712
0
LINE
8
Black
10
161.355
20
-117.712
11
161.366
21
-117.698
0
LINE
8
Black
10
161.366
20
-117.698
11
161.375
21
-117.684
0
LINE
8
Black
10
161.375
20
-117.684
11
161.379
21
-117.681
0
LINE
8
Black
10
161.379
20
-117.681
11
161.381
21
-117.678
0
LINE
8
Black
10
161.381
20
-117.678
11
161.382
21
-117.677
0
LINE
8
Black
10
161.382
20
-117.677
11
161.382
21
-117.677
0
LINE
8
Black
10
161.382
20
-117.677
11
161.382
21
-117.677
0
LINE
8
Black
10
161.382
20
-117.677
11
161.791
21
-117.305
0
LINE
8
Black
10
161.791
20
-117.305
11
161.934
21
-117
0
LINE
8
Black
10
161.934
20
-117
11
161.38
21
-117
0
LINE
8
Black
10
161.38
20
-117
11
161.351
21
-117.05
0
LINE
8
Black
10
161.351
20
-117.05
11
161.125
21
-117.239
0
LINE
8
Black
10
161.125
20
-117.239
11
160.848
21
-117.34
0
LINE
8
Black
10
160.848
20
-117.34
11
160.552
21
-117.34
0
LINE
8
Black
10
160.552
20
-117.34
11
160.275
21
-117.239
0
LINE
8
Black
10
160.275
20
-117.239
11
160.049
21
-117.05
0
LINE
8
Black
10
160.049
20
-117.05
11
159.901
21
-116.794
0
LINE
8
Black
10
159.901
20
-116.794
11
159.85
21
-116.503
0
LINE
8
Black
10
159.85
20
-116.503
11
159.85
21
-116.497
0
LINE
8
Black
10
159.85
20
-116.497
11
159.901
21
-116.206
0
LINE
8
Black
10
159.901
20
-116.206
11
160.049
21
-115.95
0
LINE
8
Black
10
160.049
20
-115.95
11
160.275
21
-115.761
0
LINE
8
Black
10
160.275
20
-115.761
11
160.446
21
-115.698
0
LINE
8
Black
10
160.446
20
-115.698
11
160.446
21
-115.256
0
LINE
8
Black
10
160.446
20
-115.256
11
160.337
21
-115.199
0
LINE
8
Black
10
160.337
20
-115.199
11
160.002
21
-115.337
0
LINE
8
Black
10
160.002
20
-115.337
11
159.609
21
-115.695
0
LINE
8
Black
10
159.609
20
-115.695
11
159.553
21
-115.816
0
LINE
8
Black
10
159.553
20
-115.816
11
159.552
21
-115.817
0
LINE
8
Black
10
159.552
20
-115.817
11
159.552
21
-115.818
0
LINE
8
Black
10
159.552
20
-115.818
11
159.539
21
-115.835
0
LINE
8
Black
10
159.539
20
-115.835
11
159.527
21
-115.852
0
LINE
8
Black
10
159.527
20
-115.852
11
159.526
21
-115.852
0
LINE
8
Black
10
159.526
20
-115.852
11
159.526
21
-115.853
0
LINE
8
Black
10
159.526
20
-115.853
11
159.508
21
-115.865
0
LINE
8
Black
10
159.508
20
-115.865
11
159.491
21
-115.877
0
LINE
8
Black
10
159.491
20
-115.877
11
159.49
21
-115.877
0
LINE
8
Black
10
159.49
20
-115.877
11
159.489
21
-115.878
0
LINE
8
Black
10
159.489
20
-115.878
11
159.469
21
-115.883
0
LINE
8
Black
10
159.469
20
-115.883
11
159.448
21
-115.888
0
LINE
8
Black
10
159.448
20
-115.888
11
159.447
21
-115.888
0
LINE
8
Black
10
159.447
20
-115.888
11
159.446
21
-115.888
0
LINE
8
Black
10
159.446
20
-115.888
11
159.425
21
-115.886
0
LINE
8
Black
10
159.425
20
-115.886
11
159.404
21
-115.884
0
LINE
8
Black
10
159.404
20
-115.884
11
159.403
21
-115.884
0
LINE
8
Black
10
159.403
20
-115.884
11
159.402
21
-115.883
0
LINE
8
Black
10
159.402
20
-115.883
11
159.383
21
-115.874
0
LINE
8
Black
10
159.383
20
-115.874
11
159.365
21
-115.865
0
LINE
8
Black
10
159.365
20
-115.865
11
159.364
21
-115.865
0
LINE
8
Black
10
159.364
20
-115.865
11
159.363
21
-115.864
0
LINE
8
Black
10
159.363
20
-115.864
11
159.348
21
-115.849
0
LINE
8
Black
10
159.348
20
-115.849
11
159.333
21
-115.834
0
LINE
8
Black
10
159.333
20
-115.834
11
159.333
21
-115.833
0
LINE
8
Black
10
159.333
20
-115.833
11
159.332
21
-115.832
0
LINE
8
Black
10
159.332
20
-115.832
11
159.118
21
-115.512
0
LINE
8
Black
10
159.118
20
-115.512
11
158.679
21
-115.219
0
LINE
8
Black
10
158.679
20
-115.219
11
158.16
21
-115.115
0
LINE
8
Black
10
158.16
20
-115.115
11
157.641
21
-115.219
0
LINE
8
Black
10
157.641
20
-115.219
11
157.202
21
-115.512
0
LINE
8
Black
10
157.202
20
-115.512
11
156.996
21
-115.821
0
LINE
8
Black
10
156.996
20
-115.821
11
156.986
21
-115.831
0
LINE
8
Black
10
156.986
20
-115.831
11
156.978
21
-115.842
0
LINE
8
Black
10
156.978
20
-115.842
11
156.971
21
-115.846
0
LINE
8
Black
10
156.971
20
-115.846
11
156.965
21
-115.852
0
LINE
8
Black
10
156.965
20
-115.852
11
156.953
21
-115.859
0
LINE
8
Black
10
156.953
20
-115.859
11
156.941
21
-115.866
0
LINE
8
Black
10
156.941
20
-115.866
11
156.933
21
-115.868
0
LINE
8
Black
10
156.933
20
-115.868
11
156.926
21
-115.872
0
LINE
8
Black
10
156.926
20
-115.872
11
156.912
21
-115.873
0
LINE
8
Black
10
156.912
20
-115.873
11
156.898
21
-115.877
0
LINE
8
Black
10
156.898
20
-115.877
11
156.89
21
-115.876
0
LINE
8
Black
10
156.89
20
-115.876
11
156.882
21
-115.877
0
LINE
8
Black
10
156.882
20
-115.877
11
156.868
21
-115.873
0
LINE
8
Black
10
156.868
20
-115.873
11
156.854
21
-115.872
0
LINE
8
Black
10
156.854
20
-115.872
11
156.847
21
-115.868
0
LINE
8
Black
10
156.847
20
-115.868
11
156.839
21
-115.866
0
LINE
8
Black
10
156.839
20
-115.866
11
156.827
21
-115.859
0
LINE
8
Black
10
156.827
20
-115.859
11
156.815
21
-115.852
0
LINE
8
Black
10
156.815
20
-115.852
11
156.809
21
-115.846
0
LINE
8
Black
10
156.809
20
-115.846
11
156.802
21
-115.842
0
LINE
8
Black
10
156.802
20
-115.842
11
156.794
21
-115.831
0
LINE
8
Black
10
156.794
20
-115.831
11
156.784
21
-115.821
0
LINE
8
Black
10
156.784
20
-115.821
11
156.578
21
-115.512
0
LINE
8
Black
10
156.578
20
-115.512
11
156.139
21
-115.219
0
LINE
8
Black
10
156.139
20
-115.219
11
155.62
21
-115.115
0
LINE
8
Black
10
155.62
20
-115.115
11
155.101
21
-115.219
0
LINE
8
Black
10
155.101
20
-115.219
11
154.662
21
-115.512
0
LINE
8
Black
10
154.662
20
-115.512
11
154.368
21
-115.952
0
LINE
8
Black
10
154.368
20
-115.952
11
154.262
21
-116.483
0
LINE
8
Black
10
154.262
20
-116.483
11
154.262
21
-116.517
0
LINE
8
Black
10
154.262
20
-116.517
11
154.368
21
-117.048
0
LINE
8
Black
10
154.368
20
-117.048
11
154.672
21
-117.503
0
LINE
8
Black
10
154.672
20
-117.503
11
154.674
21
-117.505
0
LINE
8
Black
10
154.674
20
-117.505
11
154.675
21
-117.508
0
LINE
8
Black
10
154.675
20
-117.508
11
154.676
21
-117.509
0
LINE
8
Black
10
154.676
20
-117.509
11
154.676
21
-117.511
0
LINE
8
Black
10
154.676
20
-117.511
11
154.681
21
-117.52
0
LINE
8
Black
10
154.681
20
-117.52
11
154.69
21
-117.535
0
LINE
8
Black
10
154.69
20
-117.535
11
154.691
21
-117.54
0
LINE
8
Black
10
154.691
20
-117.54
11
154.693
21
-117.544
0
LINE
8
Black
10
154.693
20
-117.544
11
154.695
21
-117.562
0
LINE
8
Black
10
154.695
20
-117.562
11
154.698
21
-117.579
0
LINE
8
Black
10
154.698
20
-117.579
11
154.697
21
-117.583
0
LINE
8
Black
10
154.697
20
-117.583
11
154.698
21
-117.588
0
LINE
8
Black
10
154.698
20
-117.588
11
154.694
21
-117.605
0
LINE
8
Black
10
154.694
20
-117.605
11
154.691
21
-117.622
0
LINE
8
Black
10
154.691
20
-117.622
11
154.689
21
-117.626
0
LINE
8
Black
10
154.689
20
-117.626
11
154.687
21
-117.631
0
LINE
8
Black
10
154.687
20
-117.631
11
154.678
21
-117.645
0
LINE
8
Black
10
154.678
20
-117.645
11
154.669
21
-117.66
0
LINE
8
Black
10
154.669
20
-117.66
11
154.666
21
-117.664
0
LINE
8
Black
10
154.666
20
-117.664
11
154.663
21
-117.668
0
LINE
8
Black
10
154.663
20
-117.668
11
154.649
21
-117.678
0
LINE
8
Black
10
154.649
20
-117.678
11
154.636
21
-117.689
0
LINE
8
Black
10
154.636
20
-117.689
11
154.631
21
-117.691
0
LINE
8
Black
10
154.631
20
-117.691
11
154.627
21
-117.694
0
LINE
8
Black
10
154.627
20
-117.694
11
154.611
21
-117.699
0
LINE
8
Black
10
154.611
20
-117.699
11
154.595
21
-117.705
0
LINE
8
Black
10
154.595
20
-117.705
11
154.583
21
-117.707
0
LINE
8
Black
10
154.583
20
-117.707
11
154.409
21
-117.819
0
LINE
8
Black
10
154.409
20
-117.819
11
154.293
21
-117.989
0
LINE
8
Black
10
154.293
20
-117.989
11
154.25
21
-118.203
0
LINE
8
Black
10
154.25
20
-118.203
11
154.25
21
-119.878
0
LINE
8
Black
10
154.25
20
-119.878
11
154.287
21
-120.077
0
LINE
8
Black
10
154.287
20
-120.077
11
154.399
21
-120.251
0
LINE
8
Black
10
154.399
20
-120.251
11
154.569
21
-120.367
0
LINE
8
Black
10
154.569
20
-120.367
11
154.783
21
-120.41
0
LINE
8
Black
10
154.783
20
-120.41
11
155.866
21
-120.41
0
LINE
8
Black
10
155.866
20
-120.41
11
155.871
21
-120.411
0
LINE
8
Black
10
155.871
20
-120.411
11
155.877
21
-120.411
0
LINE
8
Black
10
155.877
20
-120.411
11
155.893
21
-120.415
0
LINE
8
Black
10
155.893
20
-120.415
11
155.909
21
-120.418
0
LINE
8
Black
10
155.909
20
-120.418
11
155.914
21
-120.421
0
LINE
8
Black
10
155.914
20
-120.421
11
155.92
21
-120.422
0
LINE
8
Black
10
155.92
20
-120.422
11
155.933
21
-120.432
0
LINE
8
Black
10
155.933
20
-120.432
11
155.947
21
-120.44
0
LINE
8
Black
10
155.947
20
-120.44
11
155.951
21
-120.444
0
LINE
8
Black
10
155.951
20
-120.444
11
155.956
21
-120.448
0
LINE
8
Black
10
155.956
20
-120.448
11
158.705
21
-123.197
0
LINE
8
Black
10
158.705
20
-123.197
11
158.708
21
-123.201
0
LINE
8
Black
10
158.708
20
-123.201
11
158.712
21
-123.205
0
LINE
8
Black
10
158.712
20
-123.205
11
158.721
21
-123.219
0
LINE
8
Black
10
158.721
20
-123.219
11
158.73
21
-123.233
0
LINE
8
Black
10
158.73
20
-123.233
11
158.732
21
-123.238
0
LINE
8
Black
10
158.732
20
-123.238
11
158.734
21
-123.243
0
LINE
8
Black
10
158.734
20
-123.243
11
158.737
21
-123.259
0
LINE
8
Black
10
158.737
20
-123.259
11
158.742
21
-123.276
0
LINE
8
Black
10
158.742
20
-123.276
11
158.741
21
-123.281
0
LINE
8
Black
10
158.741
20
-123.281
11
158.742
21
-123.287
0
LINE
8
Black
10
158.742
20
-123.287
11
158.742
21
-132.013
0
LINE
8
Black
10
158.742
20
-132.013
11
158.739
21
-132.029
0
LINE
8
Black
10
158.739
20
-132.029
11
158.738
21
-132.046
0
LINE
8
Black
10
158.738
20
-132.046
11
158.735
21
-132.051
0
LINE
8
Black
10
158.735
20
-132.051
11
158.734
21
-132.056
0
LINE
8
Black
10
158.734
20
-132.056
11
158.726
21
-132.071
0
LINE
8
Black
10
158.726
20
-132.071
11
158.719
21
-132.086
0
LINE
8
Black
10
158.719
20
-132.086
11
158.715
21
-132.09
0
LINE
8
Black
10
158.715
20
-132.09
11
158.712
21
-132.094
0
LINE
8
Black
10
158.712
20
-132.094
11
158.7
21
-132.105
0
LINE
8
Black
10
158.7
20
-132.105
11
158.688
21
-132.117
0
LINE
8
Black
10
158.688
20
-132.117
11
158.683
21
-132.119
0
LINE
8
Black
10
158.683
20
-132.119
11
158.678
21
-132.123
0
LINE
8
Black
10
158.678
20
-132.123
11
158.663
21
-132.129
0
LINE
8
Black
10
158.663
20
-132.129
11
158.648
21
-132.136
0
LINE
8
Black
10
158.648
20
-132.136
11
158.642
21
-132.136
0
LINE
8
Black
10
158.642
20
-132.136
11
158.637
21
-132.138
0
LINE
8
Black
10
158.637
20
-132.138
11
158.62
21
-132.138
0
LINE
8
Black
10
158.62
20
-132.138
11
158.604
21
-132.139
0
LINE
8
Black
10
158.604
20
-132.139
11
158.598
21
-132.138
0
LINE
8
Black
10
158.598
20
-132.138
11
158.593
21
-132.138
0
LINE
8
Black
10
158.593
20
-132.138
11
158.577
21
-132.132
0
LINE
8
Black
10
158.577
20
-132.132
11
158.561
21
-132.128
0
LINE
8
Black
10
158.561
20
-132.128
11
158.557
21
-132.125
0
LINE
8
Black
10
158.557
20
-132.125
11
158.552
21
-132.123
0
LINE
8
Black
10
158.552
20
-132.123
11
158.539
21
-132.112
0
LINE
8
Black
10
158.539
20
-132.112
11
158.525
21
-132.103
0
LINE
8
Black
10
158.525
20
-132.103
11
158.348
21
-131.925
0
LINE
8
Black
10
158.348
20
-131.925
11
158.051
21
-131.802
0
LINE
8
Black
10
158.051
20
-131.802
11
157.73
21
-131.802
0
LINE
8
Black
10
157.73
20
-131.802
11
157.691
21
-131.818
0
LINE
8
Black
10
157.691
20
-131.818
11
157.683
21
-131.82
0
LINE
8
Black
10
157.683
20
-131.82
11
157.675
21
-131.823
0
LINE
8
Black
10
157.675
20
-131.823
11
157.661
21
-131.825
0
LINE
8
Black
10
157.661
20
-131.825
11
157.648
21
-131.828
0
LINE
8
Black
10
157.648
20
-131.828
11
157.639
21
-131.826
0
LINE
8
Black
10
157.639
20
-131.826
11
157.631
21
-131.827
0
LINE
8
Black
10
157.631
20
-131.827
11
157.618
21
-131.824
0
LINE
8
Black
10
157.618
20
-131.824
11
157.604
21
-131.822
0
LINE
8
Black
10
157.604
20
-131.822
11
157.597
21
-131.818
0
LINE
8
Black
10
157.597
20
-131.818
11
157.589
21
-131.816
0
LINE
8
Black
10
157.589
20
-131.816
11
157.577
21
-131.808
0
LINE
8
Black
10
157.577
20
-131.808
11
157.565
21
-131.801
0
LINE
8
Black
10
157.565
20
-131.801
11
157.559
21
-131.795
0
LINE
8
Black
10
157.559
20
-131.795
11
157.552
21
-131.79
0
LINE
8
Black
10
157.552
20
-131.79
11
156.814
21
-131.052
0
LINE
8
Black
10
156.814
20
-131.052
11
156.813
21
-131.051
0
LINE
8
Black
10
156.813
20
-131.051
11
156.81
21
-131.048
0
LINE
8
Black
10
156.81
20
-131.048
11
156.125
21
-130.363
0
LINE
8
Black
10
156.125
20
-130.363
11
156.105
21
-130.35
0
LINE
8
Black
10
156.105
20
-130.35
11
156.096
21
-130.341
0
LINE
8
Black
10
156.096
20
-130.341
11
156.086
21
-130.334
0
LINE
8
Black
10
156.086
20
-130.334
11
156.065
21
-130.313
0
LINE
8
Black
10
156.065
20
-130.313
11
156.062
21
-130.309
0
LINE
8
Black
10
156.062
20
-130.309
11
156.058
21
-130.305
0
LINE
8
Black
10
156.058
20
-130.305
11
156.049
21
-130.291
0
LINE
8
Black
10
156.049
20
-130.291
11
156.04
21
-130.277
0
LINE
8
Black
10
156.04
20
-130.277
11
156.038
21
-130.272
0
LINE
8
Black
10
156.038
20
-130.272
11
156.036
21
-130.267
0
LINE
8
Black
10
156.036
20
-130.267
11
156.033
21
-130.251
0
LINE
8
Black
10
156.033
20
-130.251
11
156.028
21
-130.234
0
LINE
8
Black
10
156.028
20
-130.234
11
156.029
21
-130.229
0
LINE
8
Black
10
156.029
20
-130.229
11
156.028
21
-130.223
0
LINE
8
Black
10
156.028
20
-130.223
11
156.028
21
-130.178
0
LINE
8
Black
10
156.028
20
-130.178
11
155.968
21
-129.877
0
LINE
8
Black
10
155.968
20
-129.877
11
155.797
21
-129.621
0
LINE
8
Black
10
155.797
20
-129.621
11
155.288
21
-129.112
0
LINE
8
Black
10
155.288
20
-129.112
11
155.282
21
-129.104
0
LINE
8
Black
10
155.282
20
-129.104
11
155.275
21
-129.097
0
LINE
8
Black
10
155.275
20
-129.097
11
155.27
21
-129.086
0
LINE
8
Black
10
155.27
20
-129.086
11
155.263
21
-129.075
0
LINE
8
Black
10
155.263
20
-129.075
11
155.26
21
-129.066
0
LINE
8
Black
10
155.26
20
-129.066
11
155.256
21
-129.057
0
LINE
8
Black
10
155.256
20
-129.057
11
155.254
21
-129.045
0
LINE
8
Black
10
155.254
20
-129.045
11
155.251
21
-129.033
0
LINE
8
Black
10
155.251
20
-129.033
11
155.252
21
-129.023
0
LINE
8
Black
10
155.252
20
-129.023
11
155.251
21
-129.013
0
LINE
8
Black
10
155.251
20
-129.013
11
155.254
21
-129.001
0
LINE
8
Black
10
155.254
20
-129.001
11
155.255
21
-128.989
0
LINE
8
Black
10
155.255
20
-128.989
11
155.259
21
-128.98
0
LINE
8
Black
10
155.259
20
-128.98
11
155.261
21
-128.971
0
LINE
8
Black
10
155.261
20
-128.971
11
155.268
21
-128.96
0
LINE
8
Black
10
155.268
20
-128.96
11
155.274
21
-128.949
0
LINE
8
Black
10
155.274
20
-128.949
11
155.28
21
-128.942
0
LINE
8
Black
10
155.28
20
-128.942
11
155.286
21
-128.934
0
LINE
8
Black
10
155.286
20
-128.934
11
155.296
21
-128.927
0
LINE
8
Black
10
155.296
20
-128.927
11
155.305
21
-128.918
0
LINE
8
Black
10
155.305
20
-128.918
11
155.314
21
-128.914
0
LINE
8
Black
10
155.314
20
-128.914
11
155.321
21
-128.908
0
LINE
8
Black
10
155.321
20
-128.908
11
155.333
21
-128.904
0
LINE
8
Black
10
155.333
20
-128.904
11
155.345
21
-128.899
0
LINE
8
Black
10
155.345
20
-128.899
11
155.354
21
-128.898
0
LINE
8
Black
10
155.354
20
-128.898
11
155.364
21
-128.896
0
LINE
8
Black
10
155.364
20
-128.896
11
155.376
21
-128.896
0
LINE
8
Black
10
155.376
20
-128.896
11
155.389
21
-128.895
0
LINE
8
Black
10
155.389
20
-128.895
11
155.398
21
-128.898
0
LINE
8
Black
10
155.398
20
-128.898
11
155.408
21
-128.898
0
LINE
8
Black
10
155.408
20
-128.898
11
155.419
21
-128.903
0
LINE
8
Black
10
155.419
20
-128.903
11
155.431
21
-128.907
0
LINE
8
Black
10
155.431
20
-128.907
11
155.439
21
-128.912
0
LINE
8
Black
10
155.439
20
-128.912
11
155.448
21
-128.916
0
LINE
8
Black
10
155.448
20
-128.916
11
155.583
21
-129.007
0
LINE
8
Black
10
155.583
20
-129.007
11
155.93
21
-129.076
0
LINE
8
Black
10
155.93
20
-129.076
11
156.277
21
-129.007
0
LINE
8
Black
10
156.277
20
-129.007
11
156.57
21
-128.81
0
LINE
8
Black
10
156.57
20
-128.81
11
156.767
21
-128.517
0
LINE
8
Black
10
156.767
20
-128.517
11
156.836
21
-128.17
0
LINE
8
Black
10
156.836
20
-128.17
11
156.767
21
-127.823
0
LINE
8
Black
10
156.767
20
-127.823
11
156.563
21
-127.519
0
LINE
8
Black
10
156.563
20
-127.519
11
155.765
21
-126.721
0
LINE
8
Black
10
155.765
20
-126.721
11
155.762
21
-126.717
0
LINE
8
Black
10
155.762
20
-126.717
11
155.758
21
-126.713
0
LINE
8
Black
10
155.758
20
-126.713
11
155.749
21
-126.699
0
LINE
8
Black
10
155.749
20
-126.699
11
155.74
21
-126.685
0
LINE
8
Black
10
155.74
20
-126.685
11
155.738
21
-126.68
0
LINE
8
Black
10
155.738
20
-126.68
11
155.736
21
-126.675
0
LINE
8
Black
10
155.736
20
-126.675
11
155.733
21
-126.658
0
LINE
8
Black
10
155.733
20
-126.658
11
155.728
21
-126.642
0
LINE
8
Black
10
155.728
20
-126.642
11
155.729
21
-126.637
0
LINE
8
Black
10
155.729
20
-126.637
11
155.728
21
-126.631
0
LINE
8
Black
10
155.728
20
-126.631
11
155.728
21
-124.153
0
LINE
8
Black
10
155.728
20
-124.153
11
155.657
21
-123.793
0
LINE
8
Black
10
155.657
20
-123.793
11
155.46
21
-123.5
0
LINE
8
Black
10
155.46
20
-123.5
11
155.167
21
-123.303
0
LINE
8
Black
10
155.167
20
-123.303
11
154.82
21
-123.234
0
LINE
8
Black
10
154.82
20
-123.234
11
154.473
21
-123.303
0
LINE
8
Black
10
154.473
20
-123.303
11
154.18
21
-123.5
0
LINE
8
Black
10
154.18
20
-123.5
11
153.983
21
-123.793
0
LINE
8
Black
10
153.983
20
-123.793
11
153.912
21
-124.153
0
LINE
8
Black
10
153.912
20
-124.153
11
153.912
21
-127.047
0
LINE
8
Black
10
153.912
20
-127.047
11
153.983
21
-127.407
0
LINE
8
Black
10
153.983
20
-127.407
11
154.074
21
-127.542
0
LINE
8
Black
10
154.074
20
-127.542
11
154.078
21
-127.551
0
LINE
8
Black
10
154.078
20
-127.551
11
154.083
21
-127.559
0
LINE
8
Black
10
154.083
20
-127.559
11
154.087
21
-127.571
0
LINE
8
Black
10
154.087
20
-127.571
11
154.092
21
-127.582
0
LINE
8
Black
10
154.092
20
-127.582
11
154.092
21
-127.592
0
LINE
8
Black
10
154.092
20
-127.592
11
154.095
21
-127.601
0
LINE
8
Black
10
154.095
20
-127.601
11
154.094
21
-127.614
0
LINE
8
Black
10
154.094
20
-127.614
11
154.094
21
-127.626
0
LINE
8
Black
10
154.094
20
-127.626
11
154.092
21
-127.636
0
LINE
8
Black
10
154.092
20
-127.636
11
154.091
21
-127.645
0
LINE
8
Black
10
154.091
20
-127.645
11
154.086
21
-127.657
0
LINE
8
Black
10
154.086
20
-127.657
11
154.082
21
-127.669
0
LINE
8
Black
10
154.082
20
-127.669
11
154.076
21
-127.676
0
LINE
8
Black
10
154.076
20
-127.676
11
154.072
21
-127.685
0
LINE
8
Black
10
154.072
20
-127.685
11
154.063
21
-127.694
0
LINE
8
Black
10
154.063
20
-127.694
11
154.056
21
-127.704
0
LINE
8
Black
10
154.056
20
-127.704
11
154.048
21
-127.71
0
LINE
8
Black
10
154.048
20
-127.71
11
154.041
21
-127.716
0
LINE
8
Black
10
154.041
20
-127.716
11
154.03
21
-127.722
0
LINE
8
Black
10
154.03
20
-127.722
11
154.019
21
-127.729
0
LINE
8
Black
10
154.019
20
-127.729
11
154.01
21
-127.731
0
LINE
8
Black
10
154.01
20
-127.731
11
154.001
21
-127.735
0
LINE
8
Black
10
154.001
20
-127.735
11
153.989
21
-127.736
0
LINE
8
Black
10
153.989
20
-127.736
11
153.977
21
-127.739
0
LINE
8
Black
10
153.977
20
-127.739
11
153.967
21
-127.738
0
LINE
8
Black
10
153.967
20
-127.738
11
153.957
21
-127.739
0
LINE
8
Black
10
153.957
20
-127.739
11
153.945
21
-127.736
0
LINE
8
Black
10
153.945
20
-127.736
11
153.933
21
-127.734
0
LINE
8
Black
10
153.933
20
-127.734
11
153.924
21
-127.73
0
LINE
8
Black
10
153.924
20
-127.73
11
153.915
21
-127.727
0
LINE
8
Black
10
153.915
20
-127.727
11
153.904
21
-127.72
0
LINE
8
Black
10
153.904
20
-127.72
11
153.893
21
-127.715
0
LINE
8
Black
10
153.893
20
-127.715
11
153.886
21
-127.708
0
LINE
8
Black
10
153.886
20
-127.708
11
153.878
21
-127.702
0
LINE
8
Black
10
153.878
20
-127.702
11
153.655
21
-127.479
0
LINE
8
Black
10
153.655
20
-127.479
11
153.652
21
-127.474
0
LINE
8
Black
10
153.652
20
-127.474
11
153.648
21
-127.471
0
LINE
8
Black
10
153.648
20
-127.471
11
153.639
21
-127.456
0
LINE
8
Black
10
153.639
20
-127.456
11
153.63
21
-127.443
0
LINE
8
Black
10
153.63
20
-127.443
11
153.628
21
-127.437
0
LINE
8
Black
10
153.628
20
-127.437
11
153.626
21
-127.433
0
LINE
8
Black
10
153.626
20
-127.433
11
153.623
21
-127.416
0
LINE
8
Black
10
153.623
20
-127.416
11
153.618
21
-127.4
0
LINE
8
Black
10
153.618
20
-127.4
11
153.619
21
-127.395
0
LINE
8
Black
10
153.619
20
-127.395
11
153.618
21
-127.389
0
LINE
8
Black
10
153.618
20
-127.389
11
153.618
21
-123.197
0
LINE
8
Black
10
153.618
20
-123.197
11
153.618
21
-123.194
0
LINE
8
Black
10
153.618
20
-123.194
11
153.618
21
-123.191
0
LINE
8
Black
10
153.618
20
-123.191
11
153.622
21
-123.172
0
LINE
8
Black
10
153.622
20
-123.172
11
153.626
21
-123.153
0
LINE
8
Black
10
153.626
20
-123.153
11
153.627
21
-123.151
0
LINE
8
Black
10
153.627
20
-123.151
11
153.628
21
-123.148
0
LINE
8
Black
10
153.628
20
-123.148
11
153.668
21
-123.051
0
LINE
8
Black
10
153.668
20
-123.051
11
153.668
21
-122.73
0
LINE
8
Black
10
153.668
20
-122.73
11
153.545
21
-122.433
0
LINE
8
Black
10
153.545
20
-122.433
11
153.318
21
-122.205
0
LINE
8
Black
10
153.318
20
-122.205
11
153.021
21
-122.082
0
LINE
8
Black
10
153.021
20
-122.082
11
152.7
21
-122.082
0
LINE
8
Black
10
152.7
20
-122.082
11
152.403
21
-122.205
0
LINE
8
Black
10
152.403
20
-122.205
11
152.175
21
-122.432
0
LINE
8
Black
10
152.175
20
-122.432
11
152.052
21
-122.729
0
LINE
8
Black
10
152.052
20
-122.729
11
152.052
21
-123.05
0
LINE
8
Black
10
152.052
20
-123.05
11
152.092
21
-123.148
0
LINE
8
Black
10
152.092
20
-123.148
11
152.093
21
-123.151
0
LINE
8
Black
10
152.093
20
-123.151
11
152.094
21
-123.153
0
LINE
8
Black
10
152.094
20
-123.153
11
152.098
21
-123.172
0
LINE
8
Black
10
152.098
20
-123.172
11
152.102
21
-123.191
0
LINE
8
Black
10
152.102
20
-123.191
11
152.102
21
-123.194
0
LINE
8
Black
10
152.102
20
-123.194
11
152.102
21
-123.197
0
LINE
8
Black
10
152.102
20
-123.197
11
152.102
21
-127.751
0
LINE
8
Black
10
152.102
20
-127.751
11
152.103
21
-127.755
0
LINE
8
Black
10
152.103
20
-127.755
11
152.101
21
-127.767
0
LINE
8
Black
10
152.101
20
-127.767
11
152.101
21
-127.78
0
LINE
8
Black
10
152.101
20
-127.78
11
152.098
21
-127.789
0
LINE
8
Black
10
152.098
20
-127.789
11
152.097
21
-127.799
0
LINE
8
Black
10
152.097
20
-127.799
11
152.091
21
-127.81
0
LINE
8
Black
10
152.091
20
-127.81
11
152.087
21
-127.822
0
LINE
8
Black
10
152.087
20
-127.822
11
152.081
21
-127.829
0
LINE
8
Black
10
152.081
20
-127.829
11
152.077
21
-127.838
0
LINE
8
Black
10
152.077
20
-127.838
11
152.067
21
-127.846
0
LINE
8
Black
10
152.067
20
-127.846
11
152.06
21
-127.856
0
LINE
8
Black
10
152.06
20
-127.856
11
152.051
21
-127.861
0
LINE
8
Black
10
152.051
20
-127.861
11
152.044
21
-127.868
0
LINE
8
Black
10
152.044
20
-127.868
11
152.033
21
-127.872
0
LINE
8
Black
10
152.033
20
-127.872
11
152.022
21
-127.879
0
LINE
8
Black
10
152.022
20
-127.879
11
152.012
21
-127.881
0
LINE
8
Black
10
152.012
20
-127.881
11
152.003
21
-127.885
0
LINE
8
Black
10
152.003
20
-127.885
11
151.991
21
-127.885
0
LINE
8
Black
10
151.991
20
-127.885
11
151.979
21
-127.887
0
LINE
8
Black
10
151.979
20
-127.887
11
151.969
21
-127.886
0
LINE
8
Black
10
151.969
20
-127.886
11
151.959
21
-127.886
0
LINE
8
Black
10
151.959
20
-127.886
11
151.947
21
-127.883
0
LINE
8
Black
10
151.947
20
-127.883
11
151.935
21
-127.881
0
LINE
8
Black
10
151.935
20
-127.881
11
151.927
21
-127.876
0
LINE
8
Black
10
151.927
20
-127.876
11
151.917
21
-127.873
0
LINE
8
Black
10
151.917
20
-127.873
11
151.907
21
-127.866
0
LINE
8
Black
10
151.907
20
-127.866
11
151.896
21
-127.86
0
LINE
8
Black
10
151.896
20
-127.86
11
151.89
21
-127.852
0
LINE
8
Black
10
151.89
20
-127.852
11
151.882
21
-127.846
0
LINE
8
Black
10
151.882
20
-127.846
11
151.876
21
-127.836
0
LINE
8
Black
10
151.876
20
-127.836
11
151.867
21
-127.826
0
LINE
8
Black
10
151.867
20
-127.826
11
151.864
21
-127.817
0
LINE
8
Black
10
151.864
20
-127.817
11
151.859
21
-127.809
0
LINE
8
Black
10
151.859
20
-127.809
11
151.835
21
-127.753
0
LINE
8
Black
10
151.835
20
-127.753
11
151.608
21
-127.525
0
LINE
8
Black
10
151.608
20
-127.525
11
151.311
21
-127.402
0
LINE
8
Black
10
151.311
20
-127.402
11
150.99
21
-127.402
0
LINE
8
Black
10
150.99
20
-127.402
11
150.693
21
-127.525
0
LINE
8
Black
10
150.693
20
-127.525
11
150.465
21
-127.752
0
LINE
8
Black
10
150.465
20
-127.752
11
150.425
21
-127.85
0
LINE
8
Black
10
150.425
20
-127.85
11
150.423
21
-127.852
0
LINE
8
Black
10
150.423
20
-127.852
11
150.423
21
-127.855
0
LINE
8
Black
10
150.423
20
-127.855
11
150.411
21
-127.871
0
LINE
8
Black
10
150.411
20
-127.871
11
150.401
21
-127.887
0
LINE
8
Black
10
150.401
20
-127.887
11
150.399
21
-127.889
0
LINE
8
Black
10
150.399
20
-127.889
11
150.397
21
-127.891
0
LINE
8
Black
10
150.397
20
-127.891
11
149.973
21
-128.315
0
LINE
8
Black
10
149.973
20
-128.315
11
149.969
21
-128.318
0
LINE
8
Black
10
149.969
20
-128.318
11
149.965
21
-128.322
0
LINE
8
Black
10
149.965
20
-128.322
11
149.951
21
-128.331
0
LINE
8
Black
10
149.951
20
-128.331
11
149.937
21
-128.34
0
LINE
8
Black
10
149.937
20
-128.34
11
149.932
21
-128.342
0
LINE
8
Black
10
149.932
20
-128.342
11
149.927
21
-128.344
0
LINE
8
Black
10
149.927
20
-128.344
11
149.911
21
-128.347
0
LINE
8
Black
10
149.911
20
-128.347
11
149.894
21
-128.352
0
LINE
8
Black
10
149.894
20
-128.352
11
149.889
21
-128.351
0
LINE
8
Black
10
149.889
20
-128.351
11
149.883
21
-128.352
0
LINE
8
Black
10
149.883
20
-128.352
11
145.237
21
-128.352
0
LINE
8
Black
10
145.237
20
-128.352
11
145.234
21
-128.352
0
LINE
8
Black
10
145.234
20
-128.352
11
145.231
21
-128.352
0
LINE
8
Black
10
145.231
20
-128.352
11
145.212
21
-128.348
0
LINE
8
Black
10
145.212
20
-128.348
11
145.193
21
-128.344
0
LINE
8
Black
10
145.193
20
-128.344
11
145.191
21
-128.343
0
LINE
8
Black
10
145.191
20
-128.343
11
145.188
21
-128.342
0
LINE
8
Black
10
145.188
20
-128.342
11
145.091
21
-128.302
0
LINE
8
Black
10
145.091
20
-128.302
11
144.77
21
-128.302
0
LINE
8
Black
10
144.77
20
-128.302
11
144.473
21
-128.425
0
LINE
8
Black
10
144.473
20
-128.425
11
144.245
21
-128.652
0
LINE
8
Black
10
144.245
20
-128.652
11
144.122
21
-128.949
0
LINE
8
Black
10
144.122
20
-128.949
11
144.122
21
-129.27
0
LINE
8
Black
10
144.122
20
-129.27
11
144.245
21
-129.567
0
LINE
8
Black
10
144.245
20
-129.567
11
144.472
21
-129.795
0
LINE
8
Black
10
144.472
20
-129.795
11
144.769
21
-129.918
0
LINE
8
Black
10
144.769
20
-129.918
11
145.09
21
-129.918
0
LINE
8
Black
10
145.09
20
-129.918
11
145.188
21
-129.878
0
LINE
8
Black
10
145.188
20
-129.878
11
145.191
21
-129.877
0
LINE
8
Black
10
145.191
20
-129.877
11
145.193
21
-129.876
0
LINE
8
Black
10
145.193
20
-129.876
11
145.212
21
-129.872
0
LINE
8
Black
10
145.212
20
-129.872
11
145.231
21
-129.868
0
LINE
8
Black
10
145.231
20
-129.868
11
145.234
21
-129.868
0
LINE
8
Black
10
145.234
20
-129.868
11
145.237
21
-129.868
0
LINE
8
Black
10
145.237
20
-129.868
11
150.237
21
-129.868
0
LINE
8
Black
10
150.237
20
-129.868
11
150.508
21
-129.814
0
LINE
8
Black
10
150.508
20
-129.814
11
150.508
21
-129.814
0
LINE
8
Black
10
150.508
20
-129.814
11
150.539
21
-129.808
0
LINE
8
Black
10
150.539
20
-129.808
11
150.795
21
-129.637
0
LINE
8
Black
10
150.795
20
-129.637
11
151.469
21
-128.963
0
LINE
8
Black
10
151.469
20
-128.963
11
151.471
21
-128.961
0
LINE
8
Black
10
151.471
20
-128.961
11
151.473
21
-128.959
0
LINE
8
Black
10
151.473
20
-128.959
11
151.489
21
-128.949
0
LINE
8
Black
10
151.489
20
-128.949
11
151.505
21
-128.938
0
LINE
8
Black
10
151.505
20
-128.938
11
151.508
21
-128.937
0
LINE
8
Black
10
151.508
20
-128.937
11
151.51
21
-128.935
0
LINE
8
Black
10
151.51
20
-128.935
11
151.607
21
-128.895
0
LINE
8
Black
10
151.607
20
-128.895
11
151.835
21
-128.668
0
LINE
8
Black
10
151.835
20
-128.668
11
151.958
21
-128.371
0
LINE
8
Black
10
151.958
20
-128.371
11
151.958
21
-128.158
0
LINE
8
Black
10
151.958
20
-128.158
11
151.959
21
-128.151
0
LINE
8
Black
10
151.959
20
-128.151
11
151.959
21
-128.144
0
LINE
8
Black
10
151.959
20
-128.144
11
151.963
21
-128.13
0
LINE
8
Black
10
151.963
20
-128.13
11
151.966
21
-128.115
0
LINE
8
Black
10
151.966
20
-128.115
11
151.969
21
-128.109
0
LINE
8
Black
10
151.969
20
-128.109
11
151.971
21
-128.102
0
LINE
8
Black
10
151.971
20
-128.102
11
151.98
21
-128.09
0
LINE
8
Black
10
151.98
20
-128.09
11
151.988
21
-128.077
0
LINE
8
Black
10
151.988
20
-128.077
11
151.993
21
-128.072
0
LINE
8
Black
10
151.993
20
-128.072
11
151.997
21
-128.067
0
LINE
8
Black
10
151.997
20
-128.067
11
152.01
21
-128.058
0
LINE
8
Black
10
152.01
20
-128.058
11
152.022
21
-128.048
0
LINE
8
Black
10
152.022
20
-128.048
11
152.028
21
-128.046
0
LINE
8
Black
10
152.028
20
-128.046
11
152.034
21
-128.042
0
LINE
8
Black
10
152.034
20
-128.042
11
152.049
21
-128.038
0
LINE
8
Black
10
152.049
20
-128.038
11
152.063
21
-128.033
0
LINE
8
Black
10
152.063
20
-128.033
11
152.07
21
-128.033
0
LINE
8
Black
10
152.07
20
-128.033
11
152.077
21
-128.032
0
LINE
8
Black
10
152.077
20
-128.032
11
152.092
21
-128.033
0
LINE
8
Black
10
152.092
20
-128.033
11
152.107
21
-128.033
0
LINE
8
Black
10
152.107
20
-128.033
11
152.114
21
-128.036
0
LINE
8
Black
10
152.114
20
-128.036
11
152.121
21
-128.036
0
LINE
8
Black
10
152.121
20
-128.036
11
152.134
21
-128.043
0
LINE
8
Black
10
152.134
20
-128.043
11
152.149
21
-128.048
0
LINE
8
Black
10
152.149
20
-128.048
11
152.154
21
-128.053
0
LINE
8
Black
10
152.154
20
-128.053
11
152.16
21
-128.056
0
LINE
8
Black
10
152.16
20
-128.056
11
152.171
21
-128.067
0
LINE
8
Black
10
152.171
20
-128.067
11
152.182
21
-128.077
0
LINE
8
Black
10
152.182
20
-128.077
11
152.186
21
-128.083
0
LINE
8
Black
10
152.186
20
-128.083
11
152.191
21
-128.088
0
LINE
8
Black
10
152.191
20
-128.088
11
152.242
21
-128.165
0
LINE
8
Black
10
152.242
20
-128.165
11
152.242
21
-128.165
0
LINE
8
Black
10
152.242
20
-128.165
11
152.333
21
-128.301
0
LINE
8
Black
10
152.333
20
-128.301
11
154.425
21
-130.393
0
LINE
8
Black
10
154.425
20
-130.393
11
154.428
21
-130.397
0
LINE
8
Black
10
154.428
20
-130.397
11
154.432
21
-130.401
0
LINE
8
Black
10
154.432
20
-130.401
11
154.441
21
-130.415
0
LINE
8
Black
10
154.441
20
-130.415
11
154.45
21
-130.429
0
LINE
8
Black
10
154.45
20
-130.429
11
154.452
21
-130.434
0
LINE
8
Black
10
154.452
20
-130.434
11
154.454
21
-130.439
0
LINE
8
Black
10
154.454
20
-130.439
11
154.457
21
-130.455
0
LINE
8
Black
10
154.457
20
-130.455
11
154.462
21
-130.471
0
LINE
8
Black
10
154.462
20
-130.471
11
154.461
21
-130.477
0
LINE
8
Black
10
154.461
20
-130.477
11
154.462
21
-130.483
0
LINE
8
Black
10
154.462
20
-130.483
11
154.462
21
-130.75
0
LINE
8
Black
10
154.462
20
-130.75
11
154.585
21
-131.047
0
LINE
8
Black
10
154.585
20
-131.047
11
154.812
21
-131.275
0
LINE
8
Black
10
154.812
20
-131.275
11
154.91
21
-131.315
0
LINE
8
Black
10
154.91
20
-131.315
11
154.912
21
-131.317
0
LINE
8
Black
10
154.912
20
-131.317
11
154.915
21
-131.317
0
LINE
8
Black
10
154.915
20
-131.317
11
154.931
21
-131.329
0
LINE
8
Black
10
154.931
20
-131.329
11
154.947
21
-131.339
0
LINE
8
Black
10
154.947
20
-131.339
11
154.949
21
-131.341
0
LINE
8
Black
10
154.949
20
-131.341
11
154.951
21
-131.343
0
LINE
8
Black
10
154.951
20
-131.343
11
155.025
21
-131.417
0
LINE
8
Black
10
155.025
20
-131.417
11
155.045
21
-131.43
0
LINE
8
Black
10
155.045
20
-131.43
11
155.054
21
-131.439
0
LINE
8
Black
10
155.054
20
-131.439
11
155.064
21
-131.446
0
LINE
8
Black
10
155.064
20
-131.446
11
156.755
21
-133.137
0
LINE
8
Black
10
156.755
20
-133.137
11
156.902
21
-133.235
0
LINE
8
Black
10
156.902
20
-133.235
11
157.011
21
-133.308
0
LINE
8
Black
10
157.011
20
-133.308
11
157.313
21
-133.368
0
LINE
8
Black
10
157.313
20
-133.368
11
157.583
21
-133.368
0
LINE
8
Black
10
157.583
20
-133.368
11
157.586
21
-133.368
0
LINE
8
Black
10
157.586
20
-133.368
11
157.589
21
-133.368
0
LINE
8
Black
10
157.589
20
-133.368
11
157.608
21
-133.372
0
LINE
8
Black
10
157.608
20
-133.372
11
157.627
21
-133.376
0
LINE
8
Black
10
157.627
20
-133.376
11
157.629
21
-133.377
0
LINE
8
Black
10
157.629
20
-133.377
11
157.632
21
-133.378
0
LINE
8
Black
10
157.632
20
-133.378
11
157.729
21
-133.418
0
LINE
8
Black
10
157.729
20
-133.418
11
158.05
21
-133.418
0
LINE
8
Black
10
158.05
20
-133.418
11
158.347
21
-133.295
0
LINE
8
Black
10
158.347
20
-133.295
11
158.525
21
-133.118
0
LINE
8
Black
10
158.525
20
-133.118
11
158.539
21
-133.108
0
LINE
8
Black
10
158.539
20
-133.108
11
158.552
21
-133.097
0
LINE
8
Black
10
158.552
20
-133.097
11
158.557
21
-133.095
0
LINE
8
Black
10
158.557
20
-133.095
11
158.561
21
-133.092
0
LINE
8
Black
10
158.561
20
-133.092
11
158.577
21
-133.088
0
LINE
8
Black
10
158.577
20
-133.088
11
158.593
21
-133.082
0
LINE
8
Black
10
158.593
20
-133.082
11
158.599
21
-133.082
0
LINE
8
Black
10
158.599
20
-133.082
11
158.604
21
-133.081
0
LINE
8
Black
10
158.604
20
-133.081
11
158.621
21
-133.082
0
LINE
8
Black
10
158.621
20
-133.082
11
158.637
21
-133.082
0
LINE
8
Black
10
158.637
20
-133.082
11
158.642
21
-133.084
0
LINE
8
Black
10
158.642
20
-133.084
11
158.648
21
-133.085
0
LINE
8
Black
10
158.648
20
-133.085
11
158.663
21
-133.092
0
LINE
8
Black
10
158.663
20
-133.092
11
158.678
21
-133.097
0
LINE
8
Black
10
158.678
20
-133.097
11
158.683
21
-133.101
0
LINE
8
Black
10
158.683
20
-133.101
11
158.688
21
-133.103
0
LINE
8
Black
10
158.688
20
-133.103
11
158.7
21
-133.115
0
LINE
8
Black
10
158.7
20
-133.115
11
158.712
21
-133.126
0
LINE
8
Black
10
158.712
20
-133.126
11
158.715
21
-133.131
0
LINE
8
Black
10
158.715
20
-133.131
11
158.719
21
-133.135
0
LINE
8
Black
10
158.719
20
-133.135
11
158.726
21
-133.15
0
LINE
8
Black
10
158.726
20
-133.15
11
158.734
21
-133.164
0
LINE
8
Black
10
158.734
20
-133.164
11
158.735
21
-133.17
0
LINE
8
Black
10
158.735
20
-133.17
11
158.738
21
-133.175
0
LINE
8
Black
10
158.738
20
-133.175
11
158.739
21
-133.191
0
LINE
8
Black
10
158.739
20
-133.191
11
158.742
21
-133.207
0
LINE
8
Black
10
158.742
20
-133.207
11
158.742
21
-133.273
0
LINE
8
Black
10
158.742
20
-133.273
11
158.742
21
-133.276
0
LINE
8
Black
10
158.742
20
-133.276
11
158.742
21
-133.279
0
LINE
8
Black
10
158.742
20
-133.279
11
158.738
21
-133.298
0
LINE
8
Black
10
158.738
20
-133.298
11
158.734
21
-133.317
0
LINE
8
Black
10
158.734
20
-133.317
11
158.733
21
-133.319
0
LINE
8
Black
10
158.733
20
-133.319
11
158.732
21
-133.322
0
LINE
8
Black
10
158.732
20
-133.322
11
158.692
21
-133.419
0
LINE
8
Black
10
158.692
20
-133.419
11
158.692
21
-133.74
0
LINE
8
Black
10
158.692
20
-133.74
11
158.815
21
-134.037
0
LINE
8
Black
10
158.815
20
-134.037
11
159.042
21
-134.265
0
LINE
8
Black
10
159.042
20
-134.265
11
159.339
21
-134.388
0
LINE
8
Black
10
159.339
20
-134.388
11
159.66
21
-134.388
0
LINE
8
Black
10
159.66
20
-134.388
11
159.957
21
-134.265
0
LINE
8
Black
10
159.957
20
-134.265
11
160.185
21
-134.038
0
LINE
8
Black
10
160.185
20
-134.038
11
160.308
21
-133.741
0
LINE
8
Black
10
160.308
20
-133.741
11
160.308
21
-133.42
0
LINE
8
Black
10
160.308
20
-133.42
11
160.268
21
-133.322
0
LINE
8
Black
10
160.268
20
-133.322
11
160.267
21
-133.319
0
LINE
8
Black
10
160.267
20
-133.319
11
160.266
21
-133.317
0
LINE
8
Black
10
160.266
20
-133.317
11
160.262
21
-133.298
0
LINE
8
Black
10
160.262
20
-133.298
11
160.258
21
-133.279
0
LINE
8
Black
10
160.258
20
-133.279
11
160.258
21
-133.276
0
LINE
8
Black
10
160.258
20
-133.276
11
160.258
21
-133.273
0
LINE
8
Black
10
160.258
20
-133.273
11
160.258
21
-122.933
0
LINE
8
Black
10
160.258
20
-122.933
11
160.198
21
-122.631
0
LINE
8
Black
10
160.198
20
-122.631
11
160.027
21
-122.375
0
LINE
8
Black
10
160.027
20
-122.375
11
158.258
21
-120.606
0
LINE
8
Black
10
158.258
20
-120.606
11
158.256
21
-120.603
0
LINE
8
Black
10
158.256
20
-120.603
11
158.253
21
-120.6
0
LINE
8
Black
10
158.253
20
-120.6
11
158.243
21
-120.585
0
LINE
8
Black
10
158.243
20
-120.585
11
158.233
21
-120.57
0
LINE
8
Black
10
158.233
20
-120.57
11
158.232
21
-120.566
0
LINE
8
Black
10
158.232
20
-120.566
11
158.23
21
-120.563
0
LINE
8
Black
10
158.23
20
-120.563
11
158.226
21
-120.545
0
LINE
8
Black
10
158.226
20
-120.545
11
158.222
21
-120.528
0
LINE
8
Black
10
158.222
20
-120.528
11
158.222
21
-120.524
0
LINE
8
Black
10
158.222
20
-120.524
11
158.221
21
-120.519
0
LINE
8
Black
10
158.221
20
-120.519
11
158.224
21
-120.502
0
LINE
8
Black
10
158.224
20
-120.502
11
158.226
21
-120.484
0
LINE
8
Black
10
158.226
20
-120.484
11
158.227
21
-120.48
0
LINE
8
Black
10
158.227
20
-120.48
11
158.228
21
-120.476
0
LINE
8
Black
10
158.228
20
-120.476
11
158.237
21
-120.46
0
LINE
8
Black
10
158.237
20
-120.46
11
158.244
21
-120.444
0
LINE
8
Black
10
158.244
20
-120.444
11
158.247
21
-120.441
0
LINE
8
Black
10
158.247
20
-120.441
11
158.249
21
-120.437
0
LINE
8
Black
10
158.249
20
-120.437
11
158.263
21
-120.425
0
LINE
8
Black
10
158.263
20
-120.425
11
158.275
21
-120.413
0
LINE
8
Black
10
158.275
20
-120.413
11
158.279
21
-120.411
0
LINE
8
Black
10
158.279
20
-120.411
11
158.282
21
-120.408
0
LINE
8
Black
10
158.282
20
-120.408
11
158.299
21
-120.402
0
LINE
8
Black
10
158.299
20
-120.402
11
158.315
21
-120.394
0
LINE
8
Black
10
158.315
20
-120.394
11
158.32
21
-120.394
0
LINE
8
Black
10
158.32
20
-120.394
11
158.323
21
-120.392
0
LINE
8
Black
10
158.323
20
-120.392
11
158.354
21
-120.386
0
LINE
8
Black
10
158.354
20
-120.386
11
158.372
21
-120.386
0
LINE
8
Black
10
158.372
20
-120.386
11
158.39
21
-120.384
0
LINE
8
Black
10
158.39
20
-120.384
11
158.394
21
-120.385
0
LINE
8
Black
10
158.394
20
-120.385
11
158.398
21
-120.385
0
LINE
8
Black
10
158.398
20
-120.385
11
158.415
21
-120.391
0
LINE
8
Black
10
158.415
20
-120.391
11
158.433
21
-120.395
0
LINE
8
Black
10
158.433
20
-120.395
11
158.436
21
-120.398
0
LINE
8
Black
10
158.436
20
-120.398
11
158.44
21
-120.399
0
LINE
8
Black
10
158.44
20
-120.399
11
158.454
21
-120.41
0
LINE
8
Black
10
158.454
20
-120.41
11
158.469
21
-120.421
0
LINE
8
Black
10
158.469
20
-120.421
11
163.144
21
-125.096
0
LINE
8
Black
10
163.144
20
-125.096
11
163.152
21
-125.107
0
LINE
8
Black
10
163.152
20
-125.107
11
163.161
21
-125.118
0
LINE
8
Black
10
163.161
20
-125.118
11
163.165
21
-125.125
0
LINE
8
Black
10
163.165
20
-125.125
11
163.169
21
-125.132
0
LINE
8
Black
10
163.169
20
-125.132
11
163.173
21
-125.146
0
LINE
8
Black
10
163.173
20
-125.146
11
163.178
21
-125.158
0
LINE
8
Black
10
163.178
20
-125.158
11
163.179
21
-125.167
0
LINE
8
Black
10
163.179
20
-125.167
11
163.181
21
-125.175
0
LINE
8
Black
10
163.181
20
-125.175
11
163.179
21
-125.189
0
LINE
8
Black
10
163.179
20
-125.189
11
163.18
21
-125.202
0
LINE
8
Black
10
163.18
20
-125.202
11
163.178
21
-125.21
0
LINE
8
Black
10
163.178
20
-125.21
11
163.177
21
-125.219
0
LINE
8
Black
10
163.177
20
-125.219
11
163.171
21
-125.231
0
LINE
8
Black
10
163.171
20
-125.231
11
163.167
21
-125.245
0
LINE
8
Black
10
163.167
20
-125.245
11
163.162
21
-125.251
0
LINE
8
Black
10
163.162
20
-125.251
11
163.158
21
-125.259
0
LINE
8
Black
10
163.158
20
-125.259
11
163.148
21
-125.268
0
LINE
8
Black
10
163.148
20
-125.268
11
163.14
21
-125.279
0
LINE
8
Black
10
163.14
20
-125.279
11
163.133
21
-125.284
0
LINE
8
Black
10
163.133
20
-125.284
11
163.127
21
-125.29
0
LINE
8
Black
10
163.127
20
-125.29
11
163.114
21
-125.296
0
LINE
8
Black
10
163.114
20
-125.296
11
163.103
21
-125.303
0
LINE
8
Black
10
163.103
20
-125.303
11
162.833
21
-125.415
0
LINE
8
Black
10
162.833
20
-125.415
11
162.605
21
-125.642
0
LINE
8
Black
10
162.605
20
-125.642
11
162.482
21
-125.939
0
LINE
8
Black
10
162.482
20
-125.939
11
162.482
21
-126.26
0
LINE
8
Black
10
162.482
20
-126.26
11
162.522
21
-126.358
0
LINE
8
Black
10
162.522
20
-126.358
11
162.523
21
-126.361
0
LINE
8
Black
10
162.523
20
-126.361
11
162.524
21
-126.363
0
LINE
8
Black
10
162.524
20
-126.363
11
162.528
21
-126.382
0
LINE
8
Black
10
162.528
20
-126.382
11
162.532
21
-126.401
0
LINE
8
Black
10
162.532
20
-126.401
11
162.532
21
-126.404
0
LINE
8
Black
10
162.532
20
-126.404
11
162.532
21
-126.407
0
LINE
8
Black
10
162.532
20
-126.407
11
162.532
21
-136.023
0
LINE
8
Black
10
162.532
20
-136.023
11
162.531
21
-136.029
0
LINE
8
Black
10
162.531
20
-136.029
11
162.532
21
-136.034
0
LINE
8
Black
10
162.532
20
-136.034
11
162.527
21
-136.051
0
LINE
8
Black
10
162.527
20
-136.051
11
162.524
21
-136.067
0
LINE
8
Black
10
162.524
20
-136.067
11
162.522
21
-136.072
0
LINE
8
Black
10
162.522
20
-136.072
11
162.52
21
-136.077
0
LINE
8
Black
10
162.52
20
-136.077
11
162.511
21
-136.091
0
LINE
8
Black
10
162.511
20
-136.091
11
162.502
21
-136.105
0
LINE
8
Black
10
162.502
20
-136.105
11
162.498
21
-136.109
0
LINE
8
Black
10
162.498
20
-136.109
11
162.495
21
-136.113
0
LINE
8
Black
10
162.495
20
-136.113
11
161.943
21
-136.665
0
LINE
8
Black
10
161.943
20
-136.665
11
161.939
21
-136.668
0
LINE
8
Black
10
161.939
20
-136.668
11
161.935
21
-136.672
0
LINE
8
Black
10
161.935
20
-136.672
11
161.921
21
-136.681
0
LINE
8
Black
10
161.921
20
-136.681
11
161.907
21
-136.69
0
LINE
8
Black
10
161.907
20
-136.69
11
161.902
21
-136.692
0
LINE
8
Black
10
161.902
20
-136.692
11
161.897
21
-136.694
0
LINE
8
Black
10
161.897
20
-136.694
11
161.881
21
-136.697
0
LINE
8
Black
10
161.881
20
-136.697
11
161.864
21
-136.702
0
LINE
8
Black
10
161.864
20
-136.702
11
161.859
21
-136.701
0
LINE
8
Black
10
161.859
20
-136.701
11
161.853
21
-136.702
0
LINE
8
Black
10
161.853
20
-136.702
11
161.847
21
-136.702
0
LINE
8
Black
10
161.847
20
-136.702
11
161.844
21
-136.702
0
LINE
8
Black
10
161.844
20
-136.702
11
161.841
21
-136.702
0
LINE
8
Black
10
161.841
20
-136.702
11
161.823
21
-136.698
0
LINE
8
Black
10
161.823
20
-136.698
11
161.821
21
-136.698
0
LINE
8
Black
10
161.821
20
-136.698
11
161.82
21
-136.697
0
LINE
8
Black
10
161.82
20
-136.697
11
161.803
21
-136.694
0
LINE
8
Black
10
161.803
20
-136.694
11
161.801
21
-136.693
0
LINE
8
Black
10
161.801
20
-136.693
11
161.798
21
-136.692
0
LINE
8
Black
10
161.798
20
-136.692
11
161.701
21
-136.652
0
LINE
8
Black
10
161.701
20
-136.652
11
161.38
21
-136.652
0
LINE
8
Black
10
161.38
20
-136.652
11
161.083
21
-136.775
0
LINE
8
Black
10
161.083
20
-136.775
11
160.855
21
-137.002
0
LINE
8
Black
10
160.855
20
-137.002
11
160.732
21
-137.299
0
LINE
8
Black
10
160.732
20
-137.299
11
160.732
21
-137.62
0
LINE
8
Black
10
160.732
20
-137.62
11
160.772
21
-137.718
0
LINE
8
Black
10
160.772
20
-137.718
11
160.773
21
-137.721
0
LINE
8
Black
10
160.773
20
-137.721
11
160.774
21
-137.723
0
LINE
8
Black
10
160.774
20
-137.723
11
160.778
21
-137.742
0
LINE
8
Black
10
160.778
20
-137.742
11
160.782
21
-137.761
0
LINE
8
Black
10
160.782
20
-137.761
11
160.782
21
-137.764
0
LINE
8
Black
10
160.782
20
-137.764
11
160.782
21
-137.767
0
LINE
8
Black
10
160.782
20
-137.767
11
160.782
21
-137.887
0
LINE
8
Black
10
160.782
20
-137.887
11
160.817
21
-138.061
0
LINE
8
Black
10
160.817
20
-138.061
11
160.842
21
-138.189
0
LINE
8
Black
10
160.842
20
-138.189
11
160.932
21
-138.324
0
LINE
8
Black
10
160.932
20
-138.324
11
161.013
21
-138.445
0
LINE
8
Black
10
161.013
20
-138.445
11
161.324
21
-138.756
0
LINE
8
Black
10
161.324
20
-138.756
11
161.324
21
-138.756
0
LINE
8
Black
10
161.324
20
-138.756
11
161.893
21
-139.325
0
LINE
8
Black
10
161.893
20
-139.325
11
161.903
21
-139.339
0
LINE
8
Black
10
161.903
20
-139.339
11
161.913
21
-139.351
0
LINE
8
Black
10
161.913
20
-139.351
11
161.915
21
-139.357
0
LINE
8
Black
10
161.915
20
-139.357
11
161.919
21
-139.361
0
LINE
8
Black
10
161.919
20
-139.361
11
161.923
21
-139.377
0
LINE
8
Black
10
161.923
20
-139.377
11
161.929
21
-139.393
0
LINE
8
Black
10
161.929
20
-139.393
11
161.929
21
-139.399
0
LINE
8
Black
10
161.929
20
-139.399
11
161.93
21
-139.404
0
LINE
8
Black
10
161.93
20
-139.404
11
161.929
21
-139.42
0
LINE
8
Black
10
161.929
20
-139.42
11
161.929
21
-139.437
0
LINE
8
Black
10
161.929
20
-139.437
11
161.927
21
-139.442
0
LINE
8
Black
10
161.927
20
-139.442
11
161.926
21
-139.448
0
LINE
8
Black
10
161.926
20
-139.448
11
161.919
21
-139.463
0
LINE
8
Black
10
161.919
20
-139.463
11
161.913
21
-139.478
0
LINE
8
Black
10
161.913
20
-139.478
11
161.91
21
-139.483
0
LINE
8
Black
10
161.91
20
-139.483
11
161.907
21
-139.488
0
LINE
8
Black
10
161.907
20
-139.488
11
161.896
21
-139.5
0
LINE
8
Black
10
161.896
20
-139.5
11
161.885
21
-139.512
0
LINE
8
Black
10
161.885
20
-139.512
11
161.88
21
-139.515
0
LINE
8
Black
10
161.88
20
-139.515
11
161.876
21
-139.519
0
LINE
8
Black
10
161.876
20
-139.519
11
161.861
21
-139.526
0
LINE
8
Black
10
161.861
20
-139.526
11
161.847
21
-139.534
0
LINE
8
Black
10
161.847
20
-139.534
11
161.841
21
-139.535
0
LINE
8
Black
10
161.841
20
-139.535
11
161.836
21
-139.538
0
LINE
8
Black
10
161.836
20
-139.538
11
161.82
21
-139.539
0
LINE
8
Black
10
161.82
20
-139.539
11
161.803
21
-139.542
0
LINE
8
Black
10
161.803
20
-139.542
11
161.367
21
-139.542
0
LINE
8
Black
10
161.367
20
-139.542
11
161.361
21
-139.541
0
LINE
8
Black
10
161.361
20
-139.541
11
161.356
21
-139.542
0
LINE
8
Black
10
161.356
20
-139.542
11
161.339
21
-139.537
0
LINE
8
Black
10
161.339
20
-139.537
11
161.323
21
-139.534
0
LINE
8
Black
10
161.323
20
-139.534
11
161.318
21
-139.532
0
LINE
8
Black
10
161.318
20
-139.532
11
161.313
21
-139.53
0
LINE
8
Black
10
161.313
20
-139.53
11
161.299
21
-139.521
0
LINE
8
Black
10
161.299
20
-139.521
11
161.285
21
-139.512
0
LINE
8
Black
10
161.285
20
-139.512
11
161.281
21
-139.508
0
LINE
8
Black
10
161.281
20
-139.508
11
161.277
21
-139.505
0
LINE
8
Black
10
161.277
20
-139.505
11
159.506
21
-137.734
0
LINE
8
Black
10
159.506
20
-137.734
11
159.499
21
-137.724
0
LINE
8
Black
10
159.499
20
-137.724
11
159.49
21
-137.715
0
LINE
8
Black
10
159.49
20
-137.715
11
159.477
21
-137.695
0
LINE
8
Black
10
159.477
20
-137.695
11
159.403
21
-137.621
0
LINE
8
Black
10
159.403
20
-137.621
11
159.401
21
-137.619
0
LINE
8
Black
10
159.401
20
-137.619
11
159.399
21
-137.617
0
LINE
8
Black
10
159.399
20
-137.617
11
159.389
21
-137.601
0
LINE
8
Black
10
159.389
20
-137.601
11
159.378
21
-137.585
0
LINE
8
Black
10
159.378
20
-137.585
11
159.377
21
-137.582
0
LINE
8
Black
10
159.377
20
-137.582
11
159.375
21
-137.58
0
LINE
8
Black
10
159.375
20
-137.58
11
159.335
21
-137.483
0
LINE
8
Black
10
159.335
20
-137.483
11
159.108
21
-137.255
0
LINE
8
Black
10
159.108
20
-137.255
11
158.811
21
-137.132
0
LINE
8
Black
10
158.811
20
-137.132
11
158.49
21
-137.132
0
LINE
8
Black
10
158.49
20
-137.132
11
158.193
21
-137.255
0
LINE
8
Black
10
158.193
20
-137.255
11
157.965
21
-137.482
0
LINE
8
Black
10
157.965
20
-137.482
11
157.842
21
-137.779
0
LINE
8
Black
10
157.842
20
-137.779
11
157.842
21
-138.1
0
LINE
8
Black
10
157.842
20
-138.1
11
157.965
21
-138.397
0
LINE
8
Black
10
157.965
20
-138.397
11
158.192
21
-138.625
0
LINE
8
Black
10
158.192
20
-138.625
11
158.29
21
-138.665
0
LINE
8
Black
10
158.29
20
-138.665
11
158.292
21
-138.667
0
LINE
8
Black
10
158.292
20
-138.667
11
158.295
21
-138.667
0
LINE
8
Black
10
158.295
20
-138.667
11
158.311
21
-138.679
0
LINE
8
Black
10
158.311
20
-138.679
11
158.327
21
-138.689
0
LINE
8
Black
10
158.327
20
-138.689
11
158.329
21
-138.691
0
LINE
8
Black
10
158.329
20
-138.691
11
158.331
21
-138.693
0
LINE
8
Black
10
158.331
20
-138.693
11
158.394
21
-138.756
0
LINE
8
Black
10
158.394
20
-138.756
11
158.401
21
-138.766
0
LINE
8
Black
10
158.401
20
-138.766
11
158.41
21
-138.775
0
LINE
8
Black
10
158.41
20
-138.775
11
158.423
21
-138.795
0
LINE
8
Black
10
158.423
20
-138.795
11
160.043
21
-140.415
0
LINE
8
Black
10
160.043
20
-140.415
11
160.053
21
-140.429
0
LINE
8
Black
10
160.053
20
-140.429
11
160.063
21
-140.441
0
LINE
8
Black
10
160.063
20
-140.441
11
160.065
21
-140.447
0
LINE
8
Black
10
160.065
20
-140.447
11
160.069
21
-140.451
0
LINE
8
Black
10
160.069
20
-140.451
11
160.073
21
-140.467
0
LINE
8
Black
10
160.073
20
-140.467
11
160.078
21
-140.483
0
LINE
8
Black
10
160.078
20
-140.483
11
160.078
21
-140.489
0
LINE
8
Black
10
160.078
20
-140.489
11
160.08
21
-140.494
0
LINE
8
Black
10
160.08
20
-140.494
11
160.078
21
-140.51
0
LINE
8
Black
10
160.078
20
-140.51
11
160.078
21
-140.527
0
LINE
8
Black
10
160.078
20
-140.527
11
160.077
21
-140.532
0
LINE
8
Black
10
160.077
20
-140.532
11
160.076
21
-140.538
0
LINE
8
Black
10
160.076
20
-140.538
11
160.069
21
-140.553
0
LINE
8
Black
10
160.069
20
-140.553
11
160.063
21
-140.569
0
LINE
8
Black
10
160.063
20
-140.569
11
160.06
21
-140.573
0
LINE
8
Black
10
160.06
20
-140.573
11
160.057
21
-140.578
0
LINE
8
Black
10
160.057
20
-140.578
11
160.046
21
-140.59
0
LINE
8
Black
10
160.046
20
-140.59
11
160.035
21
-140.602
0
LINE
8
Black
10
160.035
20
-140.602
11
160.03
21
-140.605
0
LINE
8
Black
10
160.03
20
-140.605
11
160.026
21
-140.609
0
LINE
8
Black
10
160.026
20
-140.609
11
160.011
21
-140.616
0
LINE
8
Black
10
160.011
20
-140.616
11
159.997
21
-140.624
0
LINE
8
Black
10
159.997
20
-140.624
11
159.991
21
-140.625
0
LINE
8
Black
10
159.991
20
-140.625
11
159.986
21
-140.628
0
LINE
8
Black
10
159.986
20
-140.628
11
159.97
21
-140.629
0
LINE
8
Black
10
159.97
20
-140.629
11
159.953
21
-140.632
0
LINE
8
Black
10
159.953
20
-140.632
11
98.845
21
-140.632
0
LINE
8
Black
10
98.845
20
-140.632
11
98.8341
21
-140.63
0
LINE
8
Black
10
98.8341
20
-140.63
11
98.8229
21
-140.63
0
LINE
8
Black
10
98.8229
20
-140.63
11
98.8125
21
-140.626
0
LINE
8
Black
10
98.8125
20
-140.626
11
98.8016
21
-140.624
0
LINE
8
Black
10
98.8016
20
-140.624
11
98.7919
21
-140.619
0
LINE
8
Black
10
98.7919
20
-140.619
11
98.7815
21
-140.615
0
LINE
8
Black
10
98.7815
20
-140.615
11
98.773
21
-140.608
0
LINE
8
Black
10
98.773
20
-140.608
11
98.7634
21
-140.602
0
LINE
8
Black
10
98.7634
20
-140.602
11
98.7562
21
-140.594
0
LINE
8
Black
10
98.7562
20
-140.594
11
98.7477
21
-140.587
0
LINE
8
Black
10
98.7477
20
-140.587
11
98.7422
21
-140.577
0
LINE
8
Black
10
98.7422
20
-140.577
11
98.735
21
-140.569
0
LINE
8
Black
10
98.735
20
-140.569
11
98.7312
21
-140.558
0
LINE
8
Black
10
98.7312
20
-140.558
11
98.7257
21
-140.548
0
LINE
8
Black
10
98.7257
20
-140.548
11
98.7237
21
-140.537
0
LINE
8
Black
10
98.7237
20
-140.537
11
98.7199
21
-140.527
0
LINE
8
Black
10
98.7199
20
-140.527
11
98.7199
21
-140.516
0
LINE
8
Black
10
98.7199
20
-140.516
11
98.718
21
-140.505
0
LINE
8
Black
10
98.718
20
-140.505
11
98.718
21
-130.286
0
LINE
8
Black
10
98.718
20
-130.286
11
98.718
21
-129.024
0
LINE
8
Black
10
98.718
20
-129.024
11
98.718
21
-125.725
0
LINE
8
Black
10
98.718
20
-125.725
11
98.7199
21
-125.714
0
LINE
8
Black
10
98.7199
20
-125.714
11
98.7199
21
-125.703
0
LINE
8
Black
10
98.7199
20
-125.703
11
98.7237
21
-125.692
0
LINE
8
Black
10
98.7237
20
-125.692
11
98.7257
21
-125.681
0
LINE
8
Black
10
98.7257
20
-125.681
11
98.7312
21
-125.672
0
LINE
8
Black
10
98.7312
20
-125.672
11
98.7349
21
-125.662
0
LINE
8
Black
10
98.7349
20
-125.662
11
98.7421
21
-125.653
0
LINE
8
Black
10
98.7421
20
-125.653
11
98.7477
21
-125.643
0
LINE
8
Black
10
98.7477
20
-125.643
11
98.7562
21
-125.636
0
LINE
8
Black
10
98.7562
20
-125.636
11
98.7632
21
-125.628
0
LINE
8
Black
10
98.7632
20
-125.628
11
98.7729
21
-125.622
0
LINE
8
Black
10
98.7729
20
-125.622
11
98.7815
21
-125.615
0
LINE
8
Black
10
98.7815
20
-125.615
11
98.7919
21
-125.611
0
LINE
8
Black
10
98.7919
20
-125.611
11
98.8014
21
-125.606
0
LINE
8
Black
10
98.8014
20
-125.606
11
98.8124
21
-125.604
0
LINE
8
Black
10
98.8124
20
-125.604
11
98.8229
21
-125.6
0
LINE
8
Black
10
98.8229
20
-125.6
11
98.834
21
-125.6
0
LINE
8
Black
10
98.834
20
-125.6
11
98.8448
21
-125.598
0
LINE
8
Black
10
98.8448
20
-125.598
11
119.037
21
-125.57
0
LINE
8
Black
10
119.037
20
-125.57
11
119.048
21
-125.568
0
LINE
8
Black
10
119.048
20
-125.568
11
119.05
21
-125.558
0
LINE
8
Black
10
119.05
20
-125.558
11
119.05
21
-114.465
0
LINE
8
Black
10
119.05
20
-114.465
11
119.05
21
-111.875
0
LINE
8
Black
10
119.05
20
-111.875
11
119.052
21
-111.864
0
LINE
8
Black
10
119.052
20
-111.864
11
119.052
21
-111.853
0
LINE
8
Black
10
119.052
20
-111.853
11
119.056
21
-111.843
0
LINE
8
Black
10
119.056
20
-111.843
11
119.058
21
-111.832
0
LINE
8
Black
10
119.058
20
-111.832
11
119.063
21
-111.822
0
LINE
8
Black
10
119.063
20
-111.822
11
119.067
21
-111.811
0
LINE
8
Black
10
119.067
20
-111.811
11
119.074
21
-111.803
0
LINE
8
Black
10
119.074
20
-111.803
11
119.08
21
-111.793
0
LINE
8
Black
10
119.08
20
-111.793
11
119.088
21
-111.786
0
LINE
8
Black
10
119.088
20
-111.786
11
119.095
21
-111.778
0
LINE
8
Black
10
119.095
20
-111.778
11
119.105
21
-111.772
0
LINE
8
Black
10
119.105
20
-111.772
11
119.113
21
-111.765
0
LINE
8
Black
10
119.113
20
-111.765
11
119.124
21
-111.761
0
LINE
8
Black
10
119.124
20
-111.761
11
119.134
21
-111.756
0
LINE
8
Black
10
119.134
20
-111.756
11
119.145
21
-111.754
0
LINE
8
Black
10
119.145
20
-111.754
11
119.155
21
-111.75
0
LINE
8
Black
10
119.155
20
-111.75
11
119.166
21
-111.75
0
LINE
8
Black
10
119.166
20
-111.75
11
119.177
21
-111.748
0
LINE
8
Black
10
119.177
20
-111.748
11
247.475
21
-111.748
0
LINE
8
Black
10
247.475
20
-111.748
11
247.486
21
-111.75
0
LINE
8
Black
10
207.74
20
-136.485
11
207.456
21
-136.768
0
LINE
8
Black
10
207.456
20
-136.768
11
207.302
21
-137.139
0
LINE
8
Black
10
207.302
20
-137.139
11
207.302
21
-137.54
0
LINE
8
Black
10
207.302
20
-137.54
11
207.455
21
-137.91
0
LINE
8
Black
10
207.455
20
-137.91
11
207.738
21
-138.194
0
LINE
8
Black
10
207.738
20
-138.194
11
208.109
21
-138.348
0
LINE
8
Black
10
208.109
20
-138.348
11
208.51
21
-138.348
0
LINE
8
Black
10
208.51
20
-138.348
11
208.88
21
-138.195
0
LINE
8
Black
10
208.88
20
-138.195
11
209.164
21
-137.912
0
LINE
8
Black
10
209.164
20
-137.912
11
209.318
21
-137.541
0
LINE
8
Black
10
209.318
20
-137.541
11
209.318
21
-137.14
0
LINE
8
Black
10
209.318
20
-137.14
11
209.165
21
-136.77
0
LINE
8
Black
10
209.165
20
-136.77
11
208.882
21
-136.486
0
LINE
8
Black
10
208.882
20
-136.486
11
208.511
21
-136.332
0
LINE
8
Black
10
208.511
20
-136.332
11
208.11
21
-136.332
0
LINE
8
Black
10
208.11
20
-136.332
11
207.74
21
-136.485
0
LINE
8
Black
10
206.393
20
-135.644
11
206.285
21
-135.773
0
LINE
8
Black
10
206.285
20
-135.773
11
206.135
21
-135.86
0
LINE
8
Black
10
206.135
20
-135.86
11
205.964
21
-135.89
0
LINE
8
Black
10
205.964
20
-135.89
11
205.764
21
-135.89
0
LINE
8
Black
10
205.764
20
-135.89
11
205.764
21
-136.398
0
LINE
8
Black
10
205.764
20
-136.398
11
206.067
21
-136.398
0
LINE
8
Black
10
206.067
20
-136.398
11
206.449
21
-136.277
0
LINE
8
Black
10
206.449
20
-136.277
11
206.75
21
-136.023
0
LINE
8
Black
10
206.75
20
-136.023
11
206.907
21
-135.704
0
LINE
8
Black
10
206.907
20
-135.704
11
206.863
21
-135.644
0
LINE
8
Black
10
206.863
20
-135.644
11
206.393
21
-135.644
0
LINE
8
Black
10
204.157
20
-135.644
11
204.113
21
-135.704
0
LINE
8
Black
10
204.113
20
-135.704
11
204.27
21
-136.023
0
LINE
8
Black
10
204.27
20
-136.023
11
204.571
21
-136.277
0
LINE
8
Black
10
204.571
20
-136.277
11
204.953
21
-136.398
0
LINE
8
Black
10
204.953
20
-136.398
11
205.256
21
-136.398
0
LINE
8
Black
10
205.256
20
-136.398
11
205.256
21
-135.89
0
LINE
8
Black
10
205.256
20
-135.89
11
205.056
21
-135.89
0
LINE
8
Black
10
205.056
20
-135.89
11
204.885
21
-135.86
0
LINE
8
Black
10
204.885
20
-135.86
11
204.735
21
-135.773
0
LINE
8
Black
10
204.735
20
-135.773
11
204.627
21
-135.644
0
LINE
8
Black
10
204.627
20
-135.644
11
204.157
21
-135.644
0
LINE
8
Black
10
205.764
20
-134.382
11
205.764
21
-134.89
0
LINE
8
Black
10
205.764
20
-134.89
11
205.964
21
-134.89
0
LINE
8
Black
10
205.964
20
-134.89
11
206.135
21
-134.92
0
LINE
8
Black
10
206.135
20
-134.92
11
206.285
21
-135.007
0
LINE
8
Black
10
206.285
20
-135.007
11
206.393
21
-135.136
0
LINE
8
Black
10
206.393
20
-135.136
11
206.863
21
-135.136
0
LINE
8
Black
10
206.863
20
-135.136
11
206.907
21
-135.076
0
LINE
8
Black
10
206.907
20
-135.076
11
206.75
21
-134.757
0
LINE
8
Black
10
206.75
20
-134.757
11
206.449
21
-134.503
0
LINE
8
Black
10
206.449
20
-134.503
11
206.067
21
-134.382
0
LINE
8
Black
10
206.067
20
-134.382
11
205.764
21
-134.382
0
LINE
8
Black
10
204.953
20
-134.382
11
204.571
21
-134.503
0
LINE
8
Black
10
204.571
20
-134.503
11
204.27
21
-134.757
0
LINE
8
Black
10
204.27
20
-134.757
11
204.113
21
-135.076
0
LINE
8
Black
10
204.113
20
-135.076
11
204.157
21
-135.136
0
LINE
8
Black
10
204.157
20
-135.136
11
204.627
21
-135.136
0
LINE
8
Black
10
204.627
20
-135.136
11
204.735
21
-135.007
0
LINE
8
Black
10
204.735
20
-135.007
11
204.885
21
-134.92
0
LINE
8
Black
10
204.885
20
-134.92
11
205.056
21
-134.89
0
LINE
8
Black
10
205.056
20
-134.89
11
205.256
21
-134.89
0
LINE
8
Black
10
205.256
20
-134.89
11
205.256
21
-134.382
0
LINE
8
Black
10
205.256
20
-134.382
11
204.953
21
-134.382
0
LINE
8
Black
10
110.85
20
-130.254
11
110.85
21
-130.85
0
LINE
8
Black
10
110.85
20
-130.85
11
110.254
21
-130.85
0
LINE
8
Black
10
110.254
20
-130.85
11
110.254
21
-131.274
0
LINE
8
Black
10
110.254
20
-131.274
11
110.338
21
-131.358
0
LINE
8
Black
10
110.338
20
-131.358
11
110.951
21
-131.358
0
LINE
8
Black
10
110.951
20
-131.358
11
111.138
21
-131.281
0
LINE
8
Black
10
111.138
20
-131.281
11
111.281
21
-131.138
0
LINE
8
Black
10
111.281
20
-131.138
11
111.358
21
-130.951
0
LINE
8
Black
10
111.358
20
-130.951
11
111.358
21
-130.338
0
LINE
8
Black
10
111.358
20
-130.338
11
111.274
21
-130.254
0
LINE
8
Black
10
111.274
20
-130.254
11
110.85
21
-130.254
0
LINE
8
Black
10
108.726
20
-130.254
11
108.642
21
-130.338
0
LINE
8
Black
10
108.642
20
-130.338
11
108.642
21
-130.951
0
LINE
8
Black
10
108.642
20
-130.951
11
108.719
21
-131.138
0
LINE
8
Black
10
108.719
20
-131.138
11
108.862
21
-131.281
0
LINE
8
Black
10
108.862
20
-131.281
11
109.049
21
-131.358
0
LINE
8
Black
10
109.049
20
-131.358
11
109.662
21
-131.358
0
LINE
8
Black
10
109.662
20
-131.358
11
109.746
21
-131.274
0
LINE
8
Black
10
109.746
20
-131.274
11
109.746
21
-130.85
0
LINE
8
Black
10
109.746
20
-130.85
11
109.15
21
-130.85
0
LINE
8
Black
10
109.15
20
-130.85
11
109.15
21
-130.254
0
LINE
8
Black
10
109.15
20
-130.254
11
108.726
21
-130.254
0
LINE
8
Black
10
110.338
20
-128.642
11
110.254
21
-128.726
0
LINE
8
Black
10
110.254
20
-128.726
11
110.254
21
-129.15
0
LINE
8
Black
10
110.254
20
-129.15
11
110.85
21
-129.15
0
LINE
8
Black
10
110.85
20
-129.15
11
110.85
21
-129.746
0
LINE
8
Black
10
110.85
20
-129.746
11
111.274
21
-129.746
0
LINE
8
Black
10
111.274
20
-129.746
11
111.358
21
-129.662
0
LINE
8
Black
10
111.358
20
-129.662
11
111.358
21
-129.049
0
LINE
8
Black
10
111.358
20
-129.049
11
111.281
21
-128.862
0
LINE
8
Black
10
111.281
20
-128.862
11
111.138
21
-128.719
0
LINE
8
Black
10
111.138
20
-128.719
11
110.951
21
-128.642
0
LINE
8
Black
10
110.951
20
-128.642
11
110.338
21
-128.642
0
LINE
8
Black
10
109.049
20
-128.642
11
108.862
21
-128.719
0
LINE
8
Black
10
108.862
20
-128.719
11
108.719
21
-128.862
0
LINE
8
Black
10
108.719
20
-128.862
11
108.642
21
-129.049
0
LINE
8
Black
10
108.642
20
-129.049
11
108.642
21
-129.662
0
LINE
8
Black
10
108.642
20
-129.662
11
108.726
21
-129.746
0
LINE
8
Black
10
108.726
20
-129.746
11
109.15
21
-129.746
0
LINE
8
Black
10
109.15
20
-129.746
11
109.15
21
-129.15
0
LINE
8
Black
10
109.15
20
-129.15
11
109.746
21
-129.15
0
LINE
8
Black
10
109.746
20
-129.15
11
109.746
21
-128.726
0
LINE
8
Black
10
109.746
20
-128.726
11
109.662
21
-128.642
0
LINE
8
Black
10
109.662
20
-128.642
11
109.049
21
-128.642
0
LINE
8
Black
10
231.69
20
-121.09
11
231.491
21
-121.127
0
LINE
8
Black
10
231.491
20
-121.127
11
231.317
21
-121.239
0
LINE
8
Black
10
231.317
20
-121.239
11
231.201
21
-121.409
0
LINE
8
Black
10
231.201
20
-121.409
11
231.158
21
-121.623
0
LINE
8
Black
10
231.158
20
-121.623
11
231.158
21
-123.075
0
LINE
8
Black
10
231.158
20
-123.075
11
231.156
21
-123.086
0
LINE
8
Black
10
231.156
20
-123.086
11
231.156
21
-123.097
0
LINE
8
Black
10
231.156
20
-123.097
11
231.152
21
-123.107
0
LINE
8
Black
10
231.152
20
-123.107
11
231.15
21
-123.118
0
LINE
8
Black
10
231.15
20
-123.118
11
231.144
21
-123.128
0
LINE
8
Black
10
231.144
20
-123.128
11
231.141
21
-123.138
0
LINE
8
Black
10
231.141
20
-123.138
11
231.133
21
-123.147
0
LINE
8
Black
10
231.133
20
-123.147
11
231.128
21
-123.157
0
LINE
8
Black
10
231.128
20
-123.157
11
231.119
21
-123.164
0
LINE
8
Black
10
231.119
20
-123.164
11
231.112
21
-123.172
0
LINE
8
Black
10
231.112
20
-123.172
11
231.103
21
-123.178
0
LINE
8
Black
10
231.103
20
-123.178
11
231.094
21
-123.185
0
LINE
8
Black
10
231.094
20
-123.185
11
231.084
21
-123.189
0
LINE
8
Black
10
231.084
20
-123.189
11
231.074
21
-123.194
0
LINE
8
Black
10
231.074
20
-123.194
11
231.063
21
-123.196
0
LINE
8
Black
10
231.063
20
-123.196
11
231.053
21
-123.2
0
LINE
8
Black
10
231.053
20
-123.2
11
231.041
21
-123.2
0
LINE
8
Black
10
231.041
20
-123.2
11
231.031
21
-123.202
0
LINE
8
Black
10
231.031
20
-123.202
11
213.849
21
-123.202
0
LINE
8
Black
10
213.849
20
-123.202
11
213.838
21
-123.2
0
LINE
8
Black
10
213.838
20
-123.2
11
213.827
21
-123.2
0
LINE
8
Black
10
213.827
20
-123.2
11
213.817
21
-123.196
0
LINE
8
Black
10
213.817
20
-123.196
11
213.806
21
-123.194
0
LINE
8
Black
10
213.806
20
-123.194
11
213.796
21
-123.189
0
LINE
8
Black
10
213.796
20
-123.189
11
213.786
21
-123.185
0
LINE
8
Black
10
213.786
20
-123.185
11
213.777
21
-123.178
0
LINE
8
Black
10
213.777
20
-123.178
11
213.768
21
-123.172
0
LINE
8
Black
10
213.768
20
-123.172
11
213.761
21
-123.164
0
LINE
8
Black
10
213.761
20
-123.164
11
213.752
21
-123.157
0
LINE
8
Black
10
213.752
20
-123.157
11
213.747
21
-123.147
0
LINE
8
Black
10
213.747
20
-123.147
11
213.739
21
-123.138
0
LINE
8
Black
10
213.739
20
-123.138
11
213.736
21
-123.128
0
LINE
8
Black
10
213.736
20
-123.128
11
213.73
21
-123.118
0
LINE
8
Black
10
213.73
20
-123.118
11
213.728
21
-123.107
0
LINE
8
Black
10
213.728
20
-123.107
11
213.724
21
-123.097
0
LINE
8
Black
10
213.724
20
-123.097
11
213.724
21
-123.086
0
LINE
8
Black
10
213.724
20
-123.086
11
213.722
21
-123.075
0
LINE
8
Black
10
213.722
20
-123.075
11
213.722
21
-121.622
0
LINE
8
Black
10
213.722
20
-121.622
11
213.685
21
-121.423
0
LINE
8
Black
10
213.685
20
-121.423
11
213.573
21
-121.249
0
LINE
8
Black
10
213.573
20
-121.249
11
213.403
21
-121.133
0
LINE
8
Black
10
213.403
20
-121.133
11
213.189
21
-121.09
0
LINE
8
Black
10
213.189
20
-121.09
11
211.69
21
-121.09
0
LINE
8
Black
10
211.69
20
-121.09
11
211.491
21
-121.127
0
LINE
8
Black
10
211.491
20
-121.127
11
211.317
21
-121.239
0
LINE
8
Black
10
211.317
20
-121.239
11
211.201
21
-121.409
0
LINE
8
Black
10
211.201
20
-121.409
11
211.158
21
-121.623
0
LINE
8
Black
10
211.158
20
-121.623
11
211.158
21
-126.598
0
LINE
8
Black
10
211.158
20
-126.598
11
211.195
21
-126.797
0
LINE
8
Black
10
211.195
20
-126.797
11
211.307
21
-126.971
0
LINE
8
Black
10
211.307
20
-126.971
11
211.477
21
-127.087
0
LINE
8
Black
10
211.477
20
-127.087
11
211.691
21
-127.13
0
LINE
8
Black
10
211.691
20
-127.13
11
213.19
21
-127.13
0
LINE
8
Black
10
213.19
20
-127.13
11
213.389
21
-127.093
0
LINE
8
Black
10
213.389
20
-127.093
11
213.563
21
-126.981
0
LINE
8
Black
10
213.563
20
-126.981
11
213.679
21
-126.811
0
LINE
8
Black
10
213.679
20
-126.811
11
213.722
21
-126.597
0
LINE
8
Black
10
213.722
20
-126.597
11
213.722
21
-125.145
0
LINE
8
Black
10
213.722
20
-125.145
11
213.724
21
-125.134
0
LINE
8
Black
10
213.724
20
-125.134
11
213.724
21
-125.123
0
LINE
8
Black
10
213.724
20
-125.123
11
213.728
21
-125.113
0
LINE
8
Black
10
213.728
20
-125.113
11
213.73
21
-125.102
0
LINE
8
Black
10
213.73
20
-125.102
11
213.736
21
-125.092
0
LINE
8
Black
10
213.736
20
-125.092
11
213.739
21
-125.081
0
LINE
8
Black
10
213.739
20
-125.081
11
213.747
21
-125.073
0
LINE
8
Black
10
213.747
20
-125.073
11
213.752
21
-125.063
0
LINE
8
Black
10
213.752
20
-125.063
11
213.761
21
-125.056
0
LINE
8
Black
10
213.761
20
-125.056
11
213.768
21
-125.048
0
LINE
8
Black
10
213.768
20
-125.048
11
213.777
21
-125.042
0
LINE
8
Black
10
213.777
20
-125.042
11
213.786
21
-125.035
0
LINE
8
Black
10
213.786
20
-125.035
11
213.796
21
-125.031
0
LINE
8
Black
10
213.796
20
-125.031
11
213.806
21
-125.026
0
LINE
8
Black
10
213.806
20
-125.026
11
213.817
21
-125.024
0
LINE
8
Black
10
213.817
20
-125.024
11
213.827
21
-125.02
0
LINE
8
Black
10
213.827
20
-125.02
11
213.838
21
-125.02
0
LINE
8
Black
10
213.838
20
-125.02
11
213.849
21
-125.018
0
LINE
8
Black
10
213.849
20
-125.018
11
231.031
21
-125.018
0
LINE
8
Black
10
231.031
20
-125.018
11
231.041
21
-125.02
0
LINE
8
Black
10
231.041
20
-125.02
11
231.053
21
-125.02
0
LINE
8
Black
10
231.053
20
-125.02
11
231.063
21
-125.024
0
LINE
8
Black
10
231.063
20
-125.024
11
231.074
21
-125.026
0
LINE
8
Black
10
231.074
20
-125.026
11
231.084
21
-125.031
0
LINE
8
Black
10
231.084
20
-125.031
11
231.094
21
-125.035
0
LINE
8
Black
10
231.094
20
-125.035
11
231.103
21
-125.042
0
LINE
8
Black
10
231.103
20
-125.042
11
231.112
21
-125.048
0
LINE
8
Black
10
231.112
20
-125.048
11
231.119
21
-125.056
0
LINE
8
Black
10
231.119
20
-125.056
11
231.128
21
-125.063
0
LINE
8
Black
10
231.128
20
-125.063
11
231.133
21
-125.073
0
LINE
8
Black
10
231.133
20
-125.073
11
231.141
21
-125.081
0
LINE
8
Black
10
231.141
20
-125.081
11
231.144
21
-125.092
0
LINE
8
Black
10
231.144
20
-125.092
11
231.15
21
-125.102
0
LINE
8
Black
10
231.15
20
-125.102
11
231.152
21
-125.113
0
LINE
8
Black
10
231.152
20
-125.113
11
231.156
21
-125.123
0
LINE
8
Black
10
231.156
20
-125.123
11
231.156
21
-125.134
0
LINE
8
Black
10
231.156
20
-125.134
11
231.158
21
-125.145
0
LINE
8
Black
10
231.158
20
-125.145
11
231.158
21
-126.598
0
LINE
8
Black
10
231.158
20
-126.598
11
231.195
21
-126.797
0
LINE
8
Black
10
231.195
20
-126.797
11
231.307
21
-126.971
0
LINE
8
Black
10
231.307
20
-126.971
11
231.477
21
-127.087
0
LINE
8
Black
10
231.477
20
-127.087
11
231.691
21
-127.13
0
LINE
8
Black
10
231.691
20
-127.13
11
233.19
21
-127.13
0
LINE
8
Black
10
233.19
20
-127.13
11
233.389
21
-127.093
0
LINE
8
Black
10
233.389
20
-127.093
11
233.563
21
-126.981
0
LINE
8
Black
10
233.563
20
-126.981
11
233.679
21
-126.811
0
LINE
8
Black
10
233.679
20
-126.811
11
233.722
21
-126.597
0
LINE
8
Black
10
233.722
20
-126.597
11
233.722
21
-121.622
0
LINE
8
Black
10
233.722
20
-121.622
11
233.685
21
-121.423
0
LINE
8
Black
10
233.685
20
-121.423
11
233.573
21
-121.249
0
LINE
8
Black
10
233.573
20
-121.249
11
233.403
21
-121.133
0
LINE
8
Black
10
233.403
20
-121.133
11
233.189
21
-121.09
0
LINE
8
Black
10
233.189
20
-121.09
11
231.69
21
-121.09
0
LINE
8
Black
10
239.74
20
-114.82
11
239.372
21
-115.188
0
LINE
8
Black
10
239.372
20
-115.188
11
239.172
21
-115.669
0
LINE
8
Black
10
239.172
20
-115.669
11
239.172
21
-116.189
0
LINE
8
Black
10
239.172
20
-116.189
11
239.37
21
-116.67
0
LINE
8
Black
10
239.37
20
-116.67
11
239.738
21
-117.038
0
LINE
8
Black
10
239.738
20
-117.038
11
239.797
21
-117.063
0
LINE
8
Black
10
239.797
20
-117.063
11
239.811
21
-117.071
0
LINE
8
Black
10
239.811
20
-117.071
11
239.825
21
-117.079
0
LINE
8
Black
10
239.825
20
-117.079
11
239.829
21
-117.083
0
LINE
8
Black
10
239.829
20
-117.083
11
239.834
21
-117.086
0
LINE
8
Black
10
239.834
20
-117.086
11
239.844
21
-117.099
0
LINE
8
Black
10
239.844
20
-117.099
11
239.855
21
-117.112
0
LINE
8
Black
10
239.855
20
-117.112
11
239.857
21
-117.117
0
LINE
8
Black
10
239.857
20
-117.117
11
239.861
21
-117.121
0
LINE
8
Black
10
239.861
20
-117.121
11
239.866
21
-117.137
0
LINE
8
Black
10
239.866
20
-117.137
11
239.872
21
-117.152
0
LINE
8
Black
10
239.872
20
-117.152
11
239.872
21
-117.158
0
LINE
8
Black
10
239.872
20
-117.158
11
239.874
21
-117.163
0
LINE
8
Black
10
239.874
20
-117.163
11
239.873
21
-117.18
0
LINE
8
Black
10
239.873
20
-117.18
11
239.874
21
-117.197
0
LINE
8
Black
10
239.874
20
-117.197
11
239.872
21
-117.202
0
LINE
8
Black
10
239.872
20
-117.202
11
239.872
21
-117.207
0
LINE
8
Black
10
239.872
20
-117.207
11
239.866
21
-117.223
0
LINE
8
Black
10
239.866
20
-117.223
11
239.861
21
-117.239
0
LINE
8
Black
10
239.861
20
-117.239
11
239.857
21
-117.243
0
LINE
8
Black
10
239.857
20
-117.243
11
239.855
21
-117.248
0
LINE
8
Black
10
239.855
20
-117.248
11
239.844
21
-117.26
0
LINE
8
Black
10
239.844
20
-117.26
11
239.834
21
-117.274
0
LINE
8
Black
10
239.834
20
-117.274
11
239.829
21
-117.277
0
LINE
8
Black
10
239.829
20
-117.277
11
239.825
21
-117.281
0
LINE
8
Black
10
239.825
20
-117.281
11
239.81
21
-117.288
0
LINE
8
Black
10
239.81
20
-117.288
11
239.796
21
-117.297
0
LINE
8
Black
10
239.796
20
-117.297
11
239.74
21
-117.32
0
LINE
8
Black
10
239.74
20
-117.32
11
239.372
21
-117.688
0
LINE
8
Black
10
239.372
20
-117.688
11
239.172
21
-118.169
0
LINE
8
Black
10
239.172
20
-118.169
11
239.172
21
-118.689
0
LINE
8
Black
10
239.172
20
-118.689
11
239.37
21
-119.17
0
LINE
8
Black
10
239.37
20
-119.17
11
239.738
21
-119.538
0
LINE
8
Black
10
239.738
20
-119.538
11
239.797
21
-119.563
0
LINE
8
Black
10
239.797
20
-119.563
11
239.811
21
-119.571
0
LINE
8
Black
10
239.811
20
-119.571
11
239.825
21
-119.579
0
LINE
8
Black
10
239.825
20
-119.579
11
239.829
21
-119.583
0
LINE
8
Black
10
239.829
20
-119.583
11
239.834
21
-119.586
0
LINE
8
Black
10
239.834
20
-119.586
11
239.844
21
-119.599
0
LINE
8
Black
10
239.844
20
-119.599
11
239.855
21
-119.612
0
LINE
8
Black
10
239.855
20
-119.612
11
239.857
21
-119.617
0
LINE
8
Black
10
239.857
20
-119.617
11
239.861
21
-119.621
0
LINE
8
Black
10
239.861
20
-119.621
11
239.866
21
-119.637
0
LINE
8
Black
10
239.866
20
-119.637
11
239.872
21
-119.652
0
LINE
8
Black
10
239.872
20
-119.652
11
239.872
21
-119.658
0
LINE
8
Black
10
239.872
20
-119.658
11
239.874
21
-119.663
0
LINE
8
Black
10
239.874
20
-119.663
11
239.873
21
-119.68
0
LINE
8
Black
10
239.873
20
-119.68
11
239.874
21
-119.697
0
LINE
8
Black
10
239.874
20
-119.697
11
239.872
21
-119.702
0
LINE
8
Black
10
239.872
20
-119.702
11
239.872
21
-119.707
0
LINE
8
Black
10
239.872
20
-119.707
11
239.866
21
-119.723
0
LINE
8
Black
10
239.866
20
-119.723
11
239.861
21
-119.739
0
LINE
8
Black
10
239.861
20
-119.739
11
239.857
21
-119.743
0
LINE
8
Black
10
239.857
20
-119.743
11
239.855
21
-119.748
0
LINE
8
Black
10
239.855
20
-119.748
11
239.844
21
-119.76
0
LINE
8
Black
10
239.844
20
-119.76
11
239.834
21
-119.774
0
LINE
8
Black
10
239.834
20
-119.774
11
239.829
21
-119.777
0
LINE
8
Black
10
239.829
20
-119.777
11
239.825
21
-119.781
0
LINE
8
Black
10
239.825
20
-119.781
11
239.81
21
-119.788
0
LINE
8
Black
10
239.81
20
-119.788
11
239.796
21
-119.797
0
LINE
8
Black
10
239.796
20
-119.797
11
239.74
21
-119.82
0
LINE
8
Black
10
239.74
20
-119.82
11
239.372
21
-120.188
0
LINE
8
Black
10
239.372
20
-120.188
11
239.172
21
-120.669
0
LINE
8
Black
10
239.172
20
-120.669
11
239.172
21
-121.189
0
LINE
8
Black
10
239.172
20
-121.189
11
239.37
21
-121.67
0
LINE
8
Black
10
239.37
20
-121.67
11
239.738
21
-122.038
0
LINE
8
Black
10
239.738
20
-122.038
11
240.219
21
-122.238
0
LINE
8
Black
10
240.219
20
-122.238
11
240.739
21
-122.238
0
LINE
8
Black
10
240.739
20
-122.238
11
241.22
21
-122.04
0
LINE
8
Black
10
241.22
20
-122.04
11
241.588
21
-121.672
0
LINE
8
Black
10
241.588
20
-121.672
11
241.788
21
-121.191
0
LINE
8
Black
10
241.788
20
-121.191
11
241.788
21
-120.671
0
LINE
8
Black
10
241.788
20
-120.671
11
241.59
21
-120.19
0
LINE
8
Black
10
241.59
20
-120.19
11
241.222
21
-119.822
0
LINE
8
Black
10
241.222
20
-119.822
11
241.163
21
-119.797
0
LINE
8
Black
10
241.163
20
-119.797
11
241.149
21
-119.789
0
LINE
8
Black
10
241.149
20
-119.789
11
241.135
21
-119.781
0
LINE
8
Black
10
241.135
20
-119.781
11
241.131
21
-119.777
0
LINE
8
Black
10
241.131
20
-119.777
11
241.126
21
-119.774
0
LINE
8
Black
10
241.126
20
-119.774
11
241.116
21
-119.761
0
LINE
8
Black
10
241.116
20
-119.761
11
241.105
21
-119.748
0
LINE
8
Black
10
241.105
20
-119.748
11
241.103
21
-119.743
0
LINE
8
Black
10
241.103
20
-119.743
11
241.099
21
-119.739
0
LINE
8
Black
10
241.099
20
-119.739
11
241.094
21
-119.723
0
LINE
8
Black
10
241.094
20
-119.723
11
241.088
21
-119.708
0
LINE
8
Black
10
241.088
20
-119.708
11
241.088
21
-119.702
0
LINE
8
Black
10
241.088
20
-119.702
11
241.086
21
-119.697
0
LINE
8
Black
10
241.086
20
-119.697
11
241.087
21
-119.68
0
LINE
8
Black
10
241.087
20
-119.68
11
241.086
21
-119.663
0
LINE
8
Black
10
241.086
20
-119.663
11
241.088
21
-119.658
0
LINE
8
Black
10
241.088
20
-119.658
11
241.088
21
-119.653
0
LINE
8
Black
10
241.088
20
-119.653
11
241.094
21
-119.637
0
LINE
8
Black
10
241.094
20
-119.637
11
241.099
21
-119.621
0
LINE
8
Black
10
241.099
20
-119.621
11
241.103
21
-119.617
0
LINE
8
Black
10
241.103
20
-119.617
11
241.105
21
-119.612
0
LINE
8
Black
10
241.105
20
-119.612
11
241.116
21
-119.6
0
LINE
8
Black
10
241.116
20
-119.6
11
241.126
21
-119.586
0
LINE
8
Black
10
241.126
20
-119.586
11
241.131
21
-119.583
0
LINE
8
Black
10
241.131
20
-119.583
11
241.135
21
-119.579
0
LINE
8
Black
10
241.135
20
-119.579
11
241.15
21
-119.572
0
LINE
8
Black
10
241.15
20
-119.572
11
241.164
21
-119.563
0
LINE
8
Black
10
241.164
20
-119.563
11
241.22
21
-119.54
0
LINE
8
Black
10
241.22
20
-119.54
11
241.588
21
-119.172
0
LINE
8
Black
10
241.588
20
-119.172
11
241.788
21
-118.691
0
LINE
8
Black
10
241.788
20
-118.691
11
241.788
21
-118.171
0
LINE
8
Black
10
241.788
20
-118.171
11
241.59
21
-117.69
0
LINE
8
Black
10
241.59
20
-117.69
11
241.222
21
-117.322
0
LINE
8
Black
10
241.222
20
-117.322
11
241.163
21
-117.297
0
LINE
8
Black
10
241.163
20
-117.297
11
241.149
21
-117.289
0
LINE
8
Black
10
241.149
20
-117.289
11
241.135
21
-117.281
0
LINE
8
Black
10
241.135
20
-117.281
11
241.131
21
-117.277
0
LINE
8
Black
10
241.131
20
-117.277
11
241.126
21
-117.274
0
LINE
8
Black
10
241.126
20
-117.274
11
241.116
21
-117.261
0
LINE
8
Black
10
241.116
20
-117.261
11
241.105
21
-117.248
0
LINE
8
Black
10
241.105
20
-117.248
11
241.103
21
-117.243
0
LINE
8
Black
10
241.103
20
-117.243
11
241.099
21
-117.239
0
LINE
8
Black
10
241.099
20
-117.239
11
241.094
21
-117.223
0
LINE
8
Black
10
241.094
20
-117.223
11
241.088
21
-117.208
0
LINE
8
Black
10
241.088
20
-117.208
11
241.088
21
-117.202
0
LINE
8
Black
10
241.088
20
-117.202
11
241.086
21
-117.197
0
LINE
8
Black
10
241.086
20
-117.197
11
241.087
21
-117.18
0
LINE
8
Black
10
241.087
20
-117.18
11
241.086
21
-117.163
0
LINE
8
Black
10
241.086
20
-117.163
11
241.088
21
-117.158
0
LINE
8
Black
10
241.088
20
-117.158
11
241.088
21
-117.153
0
LINE
8
Black
10
241.088
20
-117.153
11
241.094
21
-117.137
0
LINE
8
Black
10
241.094
20
-117.137
11
241.099
21
-117.121
0
LINE
8
Black
10
241.099
20
-117.121
11
241.103
21
-117.117
0
LINE
8
Black
10
241.103
20
-117.117
11
241.105
21
-117.112
0
LINE
8
Black
10
241.105
20
-117.112
11
241.116
21
-117.1
0
LINE
8
Black
10
241.116
20
-117.1
11
241.126
21
-117.086
0
LINE
8
Black
10
241.126
20
-117.086
11
241.131
21
-117.083
0
LINE
8
Black
10
241.131
20
-117.083
11
241.135
21
-117.079
0
LINE
8
Black
10
241.135
20
-117.079
11
241.15
21
-117.072
0
LINE
8
Black
10
241.15
20
-117.072
11
241.164
21
-117.063
0
LINE
8
Black
10
241.164
20
-117.063
11
241.22
21
-117.04
0
LINE
8
Black
10
241.22
20
-117.04
11
241.588
21
-116.672
0
LINE
8
Black
10
241.588
20
-116.672
11
241.788
21
-116.191
0
LINE
8
Black
10
241.788
20
-116.191
11
241.788
21
-115.671
0
LINE
8
Black
10
241.788
20
-115.671
11
241.59
21
-115.19
0
LINE
8
Black
10
241.59
20
-115.19
11
241.222
21
-114.822
0
LINE
8
Black
10
241.222
20
-114.822
11
240.741
21
-114.622
0
LINE
8
Black
10
240.741
20
-114.622
11
240.221
21
-114.622
0
LINE
8
Black
10
240.221
20
-114.622
11
239.74
21
-114.82
0
LINE
8
Black
10
160.954
20
-115.256
11
160.954
21
-115.698
0
LINE
8
Black
10
160.954
20
-115.698
11
161.125
21
-115.761
0
LINE
8
Black
10
161.125
20
-115.761
11
161.351
21
-115.95
0
LINE
8
Black
10
161.351
20
-115.95
11
161.38
21
-116
0
LINE
8
Black
10
161.38
20
-116
11
161.934
21
-116
0
LINE
8
Black
10
161.934
20
-116
11
161.791
21
-115.695
0
LINE
8
Black
10
161.791
20
-115.695
11
161.398
21
-115.337
0
LINE
8
Black
10
161.398
20
-115.337
11
161.063
21
-115.199
0
LINE
8
Black
10
161.063
20
-115.199
11
160.954
21
-115.256
0
LINE
8
Black
10
167.54
20
-113.385
11
167.256
21
-113.668
0
LINE
8
Black
10
167.256
20
-113.668
11
167.102
21
-114.039
0
LINE
8
Black
10
167.102
20
-114.039
11
167.102
21
-114.44
0
LINE
8
Black
10
167.102
20
-114.44
11
167.255
21
-114.81
0
LINE
8
Black
10
167.255
20
-114.81
11
167.538
21
-115.094
0
LINE
8
Black
10
167.538
20
-115.094
11
167.909
21
-115.248
0
LINE
8
Black
10
167.909
20
-115.248
11
168.31
21
-115.248
0
LINE
8
Black
10
168.31
20
-115.248
11
168.68
21
-115.095
0
LINE
8
Black
10
168.68
20
-115.095
11
168.964
21
-114.812
0
LINE
8
Black
10
168.964
20
-114.812
11
169.118
21
-114.441
0
LINE
8
Black
10
169.118
20
-114.441
11
169.118
21
-114.04
0
LINE
8
Black
10
169.118
20
-114.04
11
168.965
21
-113.67
0
LINE
8
Black
10
168.965
20
-113.67
11
168.682
21
-113.386
0
LINE
8
Black
10
168.682
20
-113.386
11
168.311
21
-113.232
0
LINE
8
Black
10
168.311
20
-113.232
11
167.91
21
-113.232
0
LINE
8
Black
10
167.91
20
-113.232
11
167.54
21
-113.385
0
LINE
8
Black
10
207.74
20
-113.375
11
207.456
21
-113.658
0
LINE
8
Black
10
207.456
20
-113.658
11
207.302
21
-114.029
0
LINE
8
Black
10
207.302
20
-114.029
11
207.302
21
-114.43
0
LINE
8
Black
10
207.302
20
-114.43
11
207.455
21
-114.8
0
LINE
8
Black
10
207.455
20
-114.8
11
207.738
21
-115.084
0
LINE
8
Black
10
207.738
20
-115.084
11
208.109
21
-115.238
0
LINE
8
Black
10
208.109
20
-115.238
11
208.51
21
-115.238
0
LINE
8
Black
10
208.51
20
-115.238
11
208.88
21
-115.085
0
LINE
8
Black
10
208.88
20
-115.085
11
209.164
21
-114.802
0
LINE
8
Black
10
209.164
20
-114.802
11
209.318
21
-114.431
0
LINE
8
Black
10
209.318
20
-114.431
11
209.318
21
-114.03
0
LINE
8
Black
10
209.318
20
-114.03
11
209.165
21
-113.66
0
LINE
8
Black
10
209.165
20
-113.66
11
208.882
21
-113.376
0
LINE
8
Black
10
208.882
20
-113.376
11
208.511
21
-113.222
0
LINE
8
Black
10
208.511
20
-113.222
11
208.11
21
-113.222
0
LINE
8
Black
10
208.11
20
-113.222
11
207.74
21
-113.375
0
LINE
8
Black
10
208.482
20
-136.868
11
208.633
21
-136.956
0
LINE
8
Black
10
208.633
20
-136.956
11
208.745
21
-137.089
0
LINE
8
Black
10
208.745
20
-137.089
11
208.804
21
-137.253
0
LINE
8
Black
10
208.804
20
-137.253
11
208.804
21
-137.427
0
LINE
8
Black
10
208.804
20
-137.427
11
208.745
21
-137.591
0
LINE
8
Black
10
208.745
20
-137.591
11
208.633
21
-137.724
0
LINE
8
Black
10
208.633
20
-137.724
11
208.482
21
-137.812
0
LINE
8
Black
10
208.482
20
-137.812
11
208.31
21
-137.842
0
LINE
8
Black
10
208.31
20
-137.842
11
208.138
21
-137.812
0
LINE
8
Black
10
208.138
20
-137.812
11
207.987
21
-137.724
0
LINE
8
Black
10
207.987
20
-137.724
11
207.875
21
-137.591
0
LINE
8
Black
10
207.875
20
-137.591
11
207.816
21
-137.427
0
LINE
8
Black
10
207.816
20
-137.427
11
207.816
21
-137.253
0
LINE
8
Black
10
207.816
20
-137.253
11
207.875
21
-137.089
0
LINE
8
Black
10
207.875
20
-137.089
11
207.987
21
-136.956
0
LINE
8
Black
10
207.987
20
-136.956
11
208.138
21
-136.868
0
LINE
8
Black
10
208.138
20
-136.868
11
208.31
21
-136.838
0
LINE
8
Black
10
208.31
20
-136.838
11
208.482
21
-136.868
0
LINE
8
Black
10
231.678
20
-121.61
11
233.202
21
-121.61
0
LINE
8
Black
10
233.202
20
-121.61
11
233.202
21
-126.61
0
LINE
8
Black
10
233.202
20
-126.61
11
231.678
21
-126.61
0
LINE
8
Black
10
231.678
20
-126.61
11
231.678
21
-124.51
0
LINE
8
Black
10
231.678
20
-124.51
11
230.878
21
-124.51
0
LINE
8
Black
10
230.878
20
-124.51
11
213.202
21
-124.51
0
LINE
8
Black
10
213.202
20
-124.51
11
213.202
21
-126.61
0
LINE
8
Black
10
213.202
20
-126.61
11
211.678
21
-126.61
0
LINE
8
Black
10
211.678
20
-126.61
11
211.678
21
-121.61
0
LINE
8
Black
10
211.678
20
-121.61
11
213.202
21
-121.61
0
LINE
8
Black
10
213.202
20
-121.61
11
213.202
21
-123.71
0
LINE
8
Black
10
213.202
20
-123.71
11
230.878
21
-123.71
0
LINE
8
Black
10
230.878
20
-123.71
11
231.678
21
-123.71
0
LINE
8
Black
10
231.678
20
-123.71
11
231.678
21
-121.61
0
LINE
8
Black
10
240.755
20
-120.175
11
240.996
21
-120.315
0
LINE
8
Black
10
240.996
20
-120.315
11
241.175
21
-120.528
0
LINE
8
Black
10
241.175
20
-120.528
11
241.271
21
-120.791
0
LINE
8
Black
10
241.271
20
-120.791
11
241.271
21
-121.069
0
LINE
8
Black
10
241.271
20
-121.069
11
241.175
21
-121.332
0
LINE
8
Black
10
241.175
20
-121.332
11
240.996
21
-121.545
0
LINE
8
Black
10
240.996
20
-121.545
11
240.755
21
-121.685
0
LINE
8
Black
10
240.755
20
-121.685
11
240.48
21
-121.733
0
LINE
8
Black
10
240.48
20
-121.733
11
240.205
21
-121.685
0
LINE
8
Black
10
240.205
20
-121.685
11
239.964
21
-121.545
0
LINE
8
Black
10
239.964
20
-121.545
11
239.785
21
-121.332
0
LINE
8
Black
10
239.785
20
-121.332
11
239.689
21
-121.069
0
LINE
8
Black
10
239.689
20
-121.069
11
239.689
21
-120.791
0
LINE
8
Black
10
239.689
20
-120.791
11
239.785
21
-120.528
0
LINE
8
Black
10
239.785
20
-120.528
11
239.964
21
-120.315
0
LINE
8
Black
10
239.964
20
-120.315
11
240.205
21
-120.175
0
LINE
8
Black
10
240.205
20
-120.175
11
240.48
21
-120.127
0
LINE
8
Black
10
240.48
20
-120.127
11
240.755
21
-120.175
0
LINE
8
Black
10
240.755
20
-117.675
11
240.996
21
-117.815
0
LINE
8
Black
10
240.996
20
-117.815
11
241.175
21
-118.028
0
LINE
8
Black
10
241.175
20
-118.028
11
241.271
21
-118.291
0
LINE
8
Black
10
241.271
20
-118.291
11
241.271
21
-118.569
0
LINE
8
Black
10
241.271
20
-118.569
11
241.175
21
-118.832
0
LINE
8
Black
10
241.175
20
-118.832
11
240.996
21
-119.045
0
LINE
8
Black
10
240.996
20
-119.045
11
240.755
21
-119.185
0
LINE
8
Black
10
240.755
20
-119.185
11
240.48
21
-119.233
0
LINE
8
Black
10
240.48
20
-119.233
11
240.205
21
-119.185
0
LINE
8
Black
10
240.205
20
-119.185
11
239.964
21
-119.045
0
LINE
8
Black
10
239.964
20
-119.045
11
239.785
21
-118.832
0
LINE
8
Black
10
239.785
20
-118.832
11
239.689
21
-118.569
0
LINE
8
Black
10
239.689
20
-118.569
11
239.689
21
-118.291
0
LINE
8
Black
10
239.689
20
-118.291
11
239.785
21
-118.028
0
LINE
8
Black
10
239.785
20
-118.028
11
239.964
21
-117.815
0
LINE
8
Black
10
239.964
20
-117.815
11
240.205
21
-117.675
0
LINE
8
Black
10
240.205
20
-117.675
11
240.48
21
-117.627
0
LINE
8
Black
10
240.48
20
-117.627
11
240.755
21
-117.675
0
LINE
8
Black
10
240.755
20
-115.175
11
240.996
21
-115.315
0
LINE
8
Black
10
240.996
20
-115.315
11
241.175
21
-115.528
0
LINE
8
Black
10
241.175
20
-115.528
11
241.271
21
-115.791
0
LINE
8
Black
10
241.271
20
-115.791
11
241.271
21
-116.069
0
LINE
8
Black
10
241.271
20
-116.069
11
241.175
21
-116.332
0
LINE
8
Black
10
241.175
20
-116.332
11
240.996
21
-116.545
0
LINE
8
Black
10
240.996
20
-116.545
11
240.755
21
-116.685
0
LINE
8
Black
10
240.755
20
-116.685
11
240.48
21
-116.733
0
LINE
8
Black
10
240.48
20
-116.733
11
240.205
21
-116.685
0
LINE
8
Black
10
240.205
20
-116.685
11
239.964
21
-116.545
0
LINE
8
Black
10
239.964
20
-116.545
11
239.785
21
-116.332
0
LINE
8
Black
10
239.785
20
-116.332
11
239.689
21
-116.069
0
LINE
8
Black
10
239.689
20
-116.069
11
239.689
21
-115.791
0
LINE
8
Black
10
239.689
20
-115.791
11
239.785
21
-115.528
0
LINE
8
Black
10
239.785
20
-115.528
11
239.964
21
-115.315
0
LINE
8
Black
10
239.964
20
-115.315
11
240.205
21
-115.175
0
LINE
8
Black
10
240.205
20
-115.175
11
240.48
21
-115.127
0
LINE
8
Black
10
240.48
20
-115.127
11
240.755
21
-115.175
0
LINE
8
Black
10
168.282
20
-113.768
11
168.433
21
-113.856
0
LINE
8
Black
10
168.433
20
-113.856
11
168.545
21
-113.989
0
LINE
8
Black
10
168.545
20
-113.989
11
168.604
21
-114.153
0
LINE
8
Black
10
168.604
20
-114.153
11
168.604
21
-114.327
0
LINE
8
Black
10
168.604
20
-114.327
11
168.545
21
-114.491
0
LINE
8
Black
10
168.545
20
-114.491
11
168.433
21
-114.624
0
LINE
8
Black
10
168.433
20
-114.624
11
168.282
21
-114.712
0
LINE
8
Black
10
168.282
20
-114.712
11
168.11
21
-114.742
0
LINE
8
Black
10
168.11
20
-114.742
11
167.938
21
-114.712
0
LINE
8
Black
10
167.938
20
-114.712
11
167.787
21
-114.624
0
LINE
8
Black
10
167.787
20
-114.624
11
167.675
21
-114.491
0
LINE
8
Black
10
167.675
20
-114.491
11
167.616
21
-114.327
0
LINE
8
Black
10
167.616
20
-114.327
11
167.616
21
-114.153
0
LINE
8
Black
10
167.616
20
-114.153
11
167.675
21
-113.989
0
LINE
8
Black
10
167.675
20
-113.989
11
167.787
21
-113.856
0
LINE
8
Black
10
167.787
20
-113.856
11
167.938
21
-113.768
0
LINE
8
Black
10
167.938
20
-113.768
11
168.11
21
-113.738
0
LINE
8
Black
10
168.11
20
-113.738
11
168.282
21
-113.768
0
LINE
8
Black
10
208.482
20
-113.758
11
208.633
21
-113.846
0
LINE
8
Black
10
208.633
20
-113.846
11
208.745
21
-113.979
0
LINE
8
Black
10
208.745
20
-113.979
11
208.804
21
-114.143
0
LINE
8
Black
10
208.804
20
-114.143
11
208.804
21
-114.317
0
LINE
8
Black
10
208.804
20
-114.317
11
208.745
21
-114.481
0
LINE
8
Black
10
208.745
20
-114.481
11
208.633
21
-114.614
0
LINE
8
Black
10
208.633
20
-114.614
11
208.482
21
-114.702
0
LINE
8
Black
10
208.482
20
-114.702
11
208.31
21
-114.732
0
LINE
8
Black
10
208.31
20
-114.732
11
208.138
21
-114.702
0
LINE
8
Black
10
208.138
20
-114.702
11
207.987
21
-114.614
0
LINE
8
Black
10
207.987
20
-114.614
11
207.875
21
-114.481
0
LINE
8
Black
10
207.875
20
-114.481
11
207.816
21
-114.317
0
LINE
8
Black
10
207.816
20
-114.317
11
207.816
21
-114.143
0
LINE
8
Black
10
207.816
20
-114.143
11
207.875
21
-113.979
0
LINE
8
Black
10
207.875
20
-113.979
11
207.987
21
-113.846
0
LINE
8
Black
10
207.987
20
-113.846
11
208.138
21
-113.758
0
LINE
8
Black
10
208.138
20
-113.758
11
208.31
21
-113.728
0
LINE
8
Black
10
208.31
20
-113.728
11
208.482
21
-113.758
0
LINE
8
Black
10
160.989
20
-140.548
11
160.978
21
-140.549
0
LINE
8
Black
10
160.978
20
-140.549
11
160.947
21
-140.541
0
LINE
8
Black
10
160.947
20
-140.541
11
160.914
21
-140.535
0
LINE
8
Black
10
160.914
20
-140.535
11
160.905
21
-140.529
0
LINE
8
Black
10
160.905
20
-140.529
11
160.894
21
-140.527
0
LINE
8
Black
10
160.894
20
-140.527
11
160.868
21
-140.508
0
LINE
8
Black
10
160.868
20
-140.508
11
160.839
21
-140.492
0
LINE
8
Black
10
160.839
20
-140.492
11
160.832
21
-140.483
0
LINE
8
Black
10
160.832
20
-140.483
11
160.823
21
-140.477
0
LINE
8
Black
10
160.823
20
-140.477
11
158.773
21
-138.427
0
LINE
8
Black
10
158.773
20
-138.427
11
158.767
21
-138.418
0
LINE
8
Black
10
158.767
20
-138.418
11
158.758
21
-138.411
0
LINE
8
Black
10
158.758
20
-138.411
11
158.747
21
-138.39
0
LINE
8
Black
10
158.747
20
-138.39
11
158.586
21
-138.23
0
LINE
8
Black
10
158.586
20
-138.23
11
158.547
21
-138.223
0
LINE
8
Black
10
158.547
20
-138.223
11
158.456
21
-138.171
0
LINE
8
Black
10
158.456
20
-138.171
11
158.389
21
-138.091
0
LINE
8
Black
10
158.389
20
-138.091
11
158.353
21
-137.992
0
LINE
8
Black
10
158.353
20
-137.992
11
158.353
21
-137.888
0
LINE
8
Black
10
158.353
20
-137.888
11
158.389
21
-137.789
0
LINE
8
Black
10
158.389
20
-137.789
11
158.456
21
-137.709
0
LINE
8
Black
10
158.456
20
-137.709
11
158.547
21
-137.657
0
LINE
8
Black
10
158.547
20
-137.657
11
158.65
21
-137.639
0
LINE
8
Black
10
158.65
20
-137.639
11
158.753
21
-137.657
0
LINE
8
Black
10
158.753
20
-137.657
11
158.844
21
-137.709
0
LINE
8
Black
10
158.844
20
-137.709
11
158.911
21
-137.789
0
LINE
8
Black
10
158.911
20
-137.789
11
158.944
21
-137.88
0
LINE
8
Black
10
158.944
20
-137.88
11
159.127
21
-138.063
0
LINE
8
Black
10
159.127
20
-138.063
11
159.133
21
-138.072
0
LINE
8
Black
10
159.133
20
-138.072
11
159.142
21
-138.079
0
LINE
8
Black
10
159.142
20
-138.079
11
159.153
21
-138.1
0
LINE
8
Black
10
159.153
20
-138.1
11
161.104
21
-140.05
0
LINE
8
Black
10
161.104
20
-140.05
11
161.46
21
-140.05
0
LINE
8
Black
10
161.46
20
-140.05
11
199.006
21
-140.05
0
LINE
8
Black
10
199.006
20
-140.05
11
199.96
21
-139.096
0
LINE
8
Black
10
199.96
20
-139.096
11
199.96
21
-138.69
0
LINE
8
Black
10
199.96
20
-138.69
11
199.71
21
-138.69
0
LINE
8
Black
10
199.71
20
-138.69
11
199.71
21
-135.69
0
LINE
8
Black
10
199.71
20
-135.69
11
200.71
21
-135.69
0
LINE
8
Black
10
200.71
20
-135.69
11
200.71
21
-138.69
0
LINE
8
Black
10
200.71
20
-138.69
11
200.46
21
-138.69
0
LINE
8
Black
10
200.46
20
-138.69
11
200.46
21
-139.2
0
LINE
8
Black
10
200.46
20
-139.2
11
200.458
21
-139.211
0
LINE
8
Black
10
200.458
20
-139.211
11
200.459
21
-139.222
0
LINE
8
Black
10
200.459
20
-139.222
11
200.451
21
-139.253
0
LINE
8
Black
10
200.451
20
-139.253
11
200.445
21
-139.286
0
LINE
8
Black
10
200.445
20
-139.286
11
200.439
21
-139.295
0
LINE
8
Black
10
200.439
20
-139.295
11
200.437
21
-139.306
0
LINE
8
Black
10
200.437
20
-139.306
11
200.418
21
-139.332
0
LINE
8
Black
10
200.418
20
-139.332
11
200.402
21
-139.361
0
LINE
8
Black
10
200.402
20
-139.361
11
200.393
21
-139.368
0
LINE
8
Black
10
200.393
20
-139.368
11
200.387
21
-139.377
0
LINE
8
Black
10
200.387
20
-139.377
11
199.287
21
-140.477
0
LINE
8
Black
10
199.287
20
-140.477
11
199.278
21
-140.483
0
LINE
8
Black
10
199.278
20
-140.483
11
199.271
21
-140.492
0
LINE
8
Black
10
199.271
20
-140.492
11
199.242
21
-140.508
0
LINE
8
Black
10
199.242
20
-140.508
11
199.216
21
-140.527
0
LINE
8
Black
10
199.216
20
-140.527
11
199.205
21
-140.529
0
LINE
8
Black
10
199.205
20
-140.529
11
199.196
21
-140.535
0
LINE
8
Black
10
199.196
20
-140.535
11
199.163
21
-140.541
0
LINE
8
Black
10
199.163
20
-140.541
11
199.132
21
-140.549
0
LINE
8
Black
10
199.132
20
-140.549
11
199.121
21
-140.548
0
LINE
8
Black
10
199.121
20
-140.548
11
199.11
21
-140.55
0
LINE
8
Black
10
199.11
20
-140.55
11
161.46
21
-140.55
0
LINE
8
Black
10
161.46
20
-140.55
11
161
21
-140.55
0
LINE
8
Black
10
161
20
-140.55
11
160.989
21
-140.548
0
LINE
8
Black
10
163.393
20
-125.817
11
163.484
21
-125.869
0
LINE
8
Black
10
163.484
20
-125.869
11
163.551
21
-125.949
0
LINE
8
Black
10
163.551
20
-125.949
11
163.587
21
-126.048
0
LINE
8
Black
10
163.587
20
-126.048
11
163.587
21
-126.152
0
LINE
8
Black
10
163.587
20
-126.152
11
163.551
21
-126.251
0
LINE
8
Black
10
163.551
20
-126.251
11
163.54
21
-126.263
0
LINE
8
Black
10
163.54
20
-126.263
11
163.54
21
-135.11
0
LINE
8
Black
10
163.54
20
-135.11
11
163.54
21
-136.39
0
LINE
8
Black
10
163.54
20
-136.39
11
163.538
21
-136.401
0
LINE
8
Black
10
163.538
20
-136.401
11
163.539
21
-136.412
0
LINE
8
Black
10
163.539
20
-136.412
11
163.531
21
-136.443
0
LINE
8
Black
10
163.531
20
-136.443
11
163.525
21
-136.476
0
LINE
8
Black
10
163.525
20
-136.476
11
163.519
21
-136.485
0
LINE
8
Black
10
163.519
20
-136.485
11
163.517
21
-136.496
0
LINE
8
Black
10
163.517
20
-136.496
11
163.498
21
-136.522
0
LINE
8
Black
10
163.498
20
-136.522
11
163.482
21
-136.551
0
LINE
8
Black
10
163.482
20
-136.551
11
163.473
21
-136.558
0
LINE
8
Black
10
163.473
20
-136.558
11
163.467
21
-136.567
0
LINE
8
Black
10
163.467
20
-136.567
11
162.397
21
-137.637
0
LINE
8
Black
10
162.397
20
-137.637
11
162.388
21
-137.643
0
LINE
8
Black
10
162.388
20
-137.643
11
162.381
21
-137.652
0
LINE
8
Black
10
162.381
20
-137.652
11
162.352
21
-137.668
0
LINE
8
Black
10
162.352
20
-137.668
11
162.326
21
-137.687
0
LINE
8
Black
10
162.326
20
-137.687
11
162.315
21
-137.689
0
LINE
8
Black
10
162.315
20
-137.689
11
162.306
21
-137.695
0
LINE
8
Black
10
162.306
20
-137.695
11
162.273
21
-137.701
0
LINE
8
Black
10
162.273
20
-137.701
11
162.242
21
-137.709
0
LINE
8
Black
10
162.242
20
-137.709
11
162.231
21
-137.708
0
LINE
8
Black
10
162.231
20
-137.708
11
162.22
21
-137.71
0
LINE
8
Black
10
162.22
20
-137.71
11
161.79
21
-137.71
0
LINE
8
Black
10
161.79
20
-137.71
11
161.79
21
-137.796
0
LINE
8
Black
10
161.79
20
-137.796
11
162.037
21
-138.043
0
LINE
8
Black
10
162.037
20
-138.043
11
162.037
21
-138.043
0
LINE
8
Black
10
162.037
20
-138.043
11
163.344
21
-139.35
0
LINE
8
Black
10
163.344
20
-139.35
11
193.696
21
-139.35
0
LINE
8
Black
10
193.696
20
-139.35
11
193.96
21
-139.086
0
LINE
8
Black
10
193.96
20
-139.086
11
193.96
21
-138.69
0
LINE
8
Black
10
193.96
20
-138.69
11
193.71
21
-138.69
0
LINE
8
Black
10
193.71
20
-138.69
11
193.71
21
-135.69
0
LINE
8
Black
10
193.71
20
-135.69
11
194.71
21
-135.69
0
LINE
8
Black
10
194.71
20
-135.69
11
194.71
21
-138.69
0
LINE
8
Black
10
194.71
20
-138.69
11
194.46
21
-138.69
0
LINE
8
Black
10
194.46
20
-138.69
11
194.46
21
-139.19
0
LINE
8
Black
10
194.46
20
-139.19
11
194.458
21
-139.201
0
LINE
8
Black
10
194.458
20
-139.201
11
194.459
21
-139.212
0
LINE
8
Black
10
194.459
20
-139.212
11
194.451
21
-139.243
0
LINE
8
Black
10
194.451
20
-139.243
11
194.445
21
-139.276
0
LINE
8
Black
10
194.445
20
-139.276
11
194.439
21
-139.285
0
LINE
8
Black
10
194.439
20
-139.285
11
194.437
21
-139.296
0
LINE
8
Black
10
194.437
20
-139.296
11
194.418
21
-139.322
0
LINE
8
Black
10
194.418
20
-139.322
11
194.402
21
-139.351
0
LINE
8
Black
10
194.402
20
-139.351
11
194.393
21
-139.358
0
LINE
8
Black
10
194.393
20
-139.358
11
194.387
21
-139.367
0
LINE
8
Black
10
194.387
20
-139.367
11
193.977
21
-139.777
0
LINE
8
Black
10
193.977
20
-139.777
11
193.968
21
-139.783
0
LINE
8
Black
10
193.968
20
-139.783
11
193.961
21
-139.792
0
LINE
8
Black
10
193.961
20
-139.792
11
193.932
21
-139.808
0
LINE
8
Black
10
193.932
20
-139.808
11
193.906
21
-139.827
0
LINE
8
Black
10
193.906
20
-139.827
11
193.895
21
-139.829
0
LINE
8
Black
10
193.895
20
-139.829
11
193.886
21
-139.835
0
LINE
8
Black
10
193.886
20
-139.835
11
193.853
21
-139.841
0
LINE
8
Black
10
193.853
20
-139.841
11
193.822
21
-139.849
0
LINE
8
Black
10
193.822
20
-139.849
11
193.811
21
-139.848
0
LINE
8
Black
10
193.811
20
-139.848
11
193.8
21
-139.85
0
LINE
8
Black
10
193.8
20
-139.85
11
163.24
21
-139.85
0
LINE
8
Black
10
163.24
20
-139.85
11
163.229
21
-139.848
0
LINE
8
Black
10
163.229
20
-139.848
11
163.218
21
-139.849
0
LINE
8
Black
10
163.218
20
-139.849
11
163.187
21
-139.841
0
LINE
8
Black
10
163.187
20
-139.841
11
163.154
21
-139.835
0
LINE
8
Black
10
163.154
20
-139.835
11
163.145
21
-139.829
0
LINE
8
Black
10
163.145
20
-139.829
11
163.134
21
-139.827
0
LINE
8
Black
10
163.134
20
-139.827
11
163.108
21
-139.808
0
LINE
8
Black
10
163.108
20
-139.808
11
163.079
21
-139.792
0
LINE
8
Black
10
163.079
20
-139.792
11
163.072
21
-139.783
0
LINE
8
Black
10
163.072
20
-139.783
11
163.063
21
-139.777
0
LINE
8
Black
10
163.063
20
-139.777
11
161.683
21
-138.397
0
LINE
8
Black
10
161.683
20
-138.397
11
161.683
21
-138.397
0
LINE
8
Black
10
161.683
20
-138.397
11
161.363
21
-138.077
0
LINE
8
Black
10
161.363
20
-138.077
11
161.357
21
-138.068
0
LINE
8
Black
10
161.357
20
-138.068
11
161.348
21
-138.061
0
LINE
8
Black
10
161.348
20
-138.061
11
161.332
21
-138.032
0
LINE
8
Black
10
161.332
20
-138.032
11
161.313
21
-138.006
0
LINE
8
Black
10
161.313
20
-138.006
11
161.311
21
-137.995
0
LINE
8
Black
10
161.311
20
-137.995
11
161.305
21
-137.986
0
LINE
8
Black
10
161.305
20
-137.986
11
161.299
21
-137.953
0
LINE
8
Black
10
161.299
20
-137.953
11
161.291
21
-137.922
0
LINE
8
Black
10
161.291
20
-137.922
11
161.292
21
-137.911
0
LINE
8
Black
10
161.292
20
-137.911
11
161.29
21
-137.9
0
LINE
8
Black
10
161.29
20
-137.9
11
161.29
21
-137.623
0
LINE
8
Black
10
161.29
20
-137.623
11
161.279
21
-137.611
0
LINE
8
Black
10
161.279
20
-137.611
11
161.243
21
-137.512
0
LINE
8
Black
10
161.243
20
-137.512
11
161.243
21
-137.408
0
LINE
8
Black
10
161.243
20
-137.408
11
161.279
21
-137.309
0
LINE
8
Black
10
161.279
20
-137.309
11
161.346
21
-137.229
0
LINE
8
Black
10
161.346
20
-137.229
11
161.437
21
-137.177
0
LINE
8
Black
10
161.437
20
-137.177
11
161.54
21
-137.159
0
LINE
8
Black
10
161.54
20
-137.159
11
161.643
21
-137.177
0
LINE
8
Black
10
161.643
20
-137.177
11
161.7
21
-137.21
0
LINE
8
Black
10
161.7
20
-137.21
11
162.116
21
-137.21
0
LINE
8
Black
10
162.116
20
-137.21
11
163.04
21
-136.286
0
LINE
8
Black
10
163.04
20
-136.286
11
163.04
21
-135.11
0
LINE
8
Black
10
163.04
20
-135.11
11
163.04
21
-126.263
0
LINE
8
Black
10
163.04
20
-126.263
11
163.029
21
-126.251
0
LINE
8
Black
10
163.029
20
-126.251
11
162.993
21
-126.152
0
LINE
8
Black
10
162.993
20
-126.152
11
162.993
21
-126.048
0
LINE
8
Black
10
162.993
20
-126.048
11
163.029
21
-125.949
0
LINE
8
Black
10
163.029
20
-125.949
11
163.096
21
-125.869
0
LINE
8
Black
10
163.096
20
-125.869
11
163.187
21
-125.817
0
LINE
8
Black
10
163.187
20
-125.817
11
163.29
21
-125.799
0
LINE
8
Black
10
163.29
20
-125.799
11
163.393
21
-125.817
0
LINE
8
Black
10
160.934
20
-120.385
11
160.938
21
-120.385
0
LINE
8
Black
10
160.938
20
-120.385
11
160.955
21
-120.391
0
LINE
8
Black
10
160.955
20
-120.391
11
160.973
21
-120.395
0
LINE
8
Black
10
160.973
20
-120.395
11
160.976
21
-120.398
0
LINE
8
Black
10
160.976
20
-120.398
11
160.98
21
-120.399
0
LINE
8
Black
10
160.98
20
-120.399
11
160.993
21
-120.409
0
LINE
8
Black
10
160.993
20
-120.409
11
160.995
21
-120.41
0
LINE
8
Black
10
160.995
20
-120.41
11
161.189
21
-120.54
0
LINE
8
Black
10
161.189
20
-120.54
11
161.261
21
-120.588
0
LINE
8
Black
10
161.261
20
-120.588
11
161.563
21
-120.648
0
LINE
8
Black
10
161.563
20
-120.648
11
163.353
21
-120.648
0
LINE
8
Black
10
163.353
20
-120.648
11
163.359
21
-120.649
0
LINE
8
Black
10
163.359
20
-120.649
11
163.364
21
-120.648
0
LINE
8
Black
10
163.364
20
-120.648
11
163.381
21
-120.653
0
LINE
8
Black
10
163.381
20
-120.653
11
163.397
21
-120.656
0
LINE
8
Black
10
163.397
20
-120.656
11
163.402
21
-120.658
0
LINE
8
Black
10
163.402
20
-120.658
11
163.407
21
-120.66
0
LINE
8
Black
10
163.407
20
-120.66
11
163.421
21
-120.669
0
LINE
8
Black
10
163.421
20
-120.669
11
163.435
21
-120.678
0
LINE
8
Black
10
163.435
20
-120.678
11
163.439
21
-120.682
0
LINE
8
Black
10
163.439
20
-120.682
11
163.443
21
-120.685
0
LINE
8
Black
10
163.443
20
-120.685
11
170.895
21
-128.137
0
LINE
8
Black
10
170.895
20
-128.137
11
171.151
21
-128.308
0
LINE
8
Black
10
171.151
20
-128.308
11
171.453
21
-128.368
0
LINE
8
Black
10
171.453
20
-128.368
11
195.733
21
-128.368
0
LINE
8
Black
10
195.733
20
-128.368
11
195.739
21
-128.369
0
LINE
8
Black
10
195.739
20
-128.369
11
195.744
21
-128.368
0
LINE
8
Black
10
195.744
20
-128.368
11
195.761
21
-128.373
0
LINE
8
Black
10
195.761
20
-128.373
11
195.777
21
-128.376
0
LINE
8
Black
10
195.777
20
-128.376
11
195.782
21
-128.378
0
LINE
8
Black
10
195.782
20
-128.378
11
195.787
21
-128.38
0
LINE
8
Black
10
195.787
20
-128.38
11
195.801
21
-128.389
0
LINE
8
Black
10
195.801
20
-128.389
11
195.815
21
-128.398
0
LINE
8
Black
10
195.815
20
-128.398
11
195.819
21
-128.402
0
LINE
8
Black
10
195.819
20
-128.402
11
195.823
21
-128.405
0
LINE
8
Black
10
195.823
20
-128.405
11
197.915
21
-130.497
0
LINE
8
Black
10
197.915
20
-130.497
11
197.918
21
-130.501
0
LINE
8
Black
10
197.918
20
-130.501
11
197.922
21
-130.505
0
LINE
8
Black
10
197.922
20
-130.505
11
197.931
21
-130.519
0
LINE
8
Black
10
197.931
20
-130.519
11
197.94
21
-130.533
0
LINE
8
Black
10
197.94
20
-130.533
11
197.942
21
-130.538
0
LINE
8
Black
10
197.942
20
-130.538
11
197.944
21
-130.543
0
LINE
8
Black
10
197.944
20
-130.543
11
197.947
21
-130.559
0
LINE
8
Black
10
197.947
20
-130.559
11
197.952
21
-130.576
0
LINE
8
Black
10
197.952
20
-130.576
11
197.951
21
-130.581
0
LINE
8
Black
10
197.951
20
-130.581
11
197.952
21
-130.587
0
LINE
8
Black
10
197.952
20
-130.587
11
197.952
21
-134.293
0
LINE
8
Black
10
197.952
20
-134.293
11
197.949
21
-134.31
0
LINE
8
Black
10
197.949
20
-134.31
11
197.948
21
-134.326
0
LINE
8
Black
10
197.948
20
-134.326
11
197.945
21
-134.331
0
LINE
8
Black
10
197.945
20
-134.331
11
197.944
21
-134.337
0
LINE
8
Black
10
197.944
20
-134.337
11
197.936
21
-134.351
0
LINE
8
Black
10
197.936
20
-134.351
11
197.929
21
-134.366
0
LINE
8
Black
10
197.929
20
-134.366
11
197.925
21
-134.37
0
LINE
8
Black
10
197.925
20
-134.37
11
197.922
21
-134.375
0
LINE
8
Black
10
197.922
20
-134.375
11
197.91
21
-134.386
0
LINE
8
Black
10
197.91
20
-134.386
11
197.898
21
-134.397
0
LINE
8
Black
10
197.898
20
-134.397
11
197.893
21
-134.4
0
LINE
8
Black
10
197.893
20
-134.4
11
197.888
21
-134.403
0
LINE
8
Black
10
197.888
20
-134.403
11
197.873
21
-134.409
0
LINE
8
Black
10
197.873
20
-134.409
11
197.858
21
-134.416
0
LINE
8
Black
10
197.858
20
-134.416
11
197.852
21
-134.417
0
LINE
8
Black
10
197.852
20
-134.417
11
197.847
21
-134.418
0
LINE
8
Black
10
197.847
20
-134.418
11
197.83
21
-134.418
0
LINE
8
Black
10
197.83
20
-134.418
11
197.814
21
-134.42
0
LINE
8
Black
10
197.814
20
-134.42
11
197.809
21
-134.418
0
LINE
8
Black
10
197.809
20
-134.418
11
197.803
21
-134.418
0
LINE
8
Black
10
197.803
20
-134.418
11
197.787
21
-134.413
0
LINE
8
Black
10
197.787
20
-134.413
11
197.771
21
-134.409
0
LINE
8
Black
10
197.771
20
-134.409
11
197.767
21
-134.405
0
LINE
8
Black
10
197.767
20
-134.405
11
197.761
21
-134.403
0
LINE
8
Black
10
197.761
20
-134.403
11
197.749
21
-134.393
0
LINE
8
Black
10
197.749
20
-134.393
11
197.735
21
-134.383
0
LINE
8
Black
10
197.735
20
-134.383
11
196.695
21
-133.343
0
LINE
8
Black
10
196.695
20
-133.343
11
196.693
21
-133.341
0
LINE
8
Black
10
196.693
20
-133.341
11
196.439
21
-133.172
0
LINE
8
Black
10
196.439
20
-133.172
11
196.408
21
-133.166
0
LINE
8
Black
10
196.408
20
-133.166
11
196.408
21
-133.166
0
LINE
8
Black
10
196.408
20
-133.166
11
196.137
21
-133.112
0
LINE
8
Black
10
196.137
20
-133.112
11
195.925
21
-133.112
0
LINE
8
Black
10
195.925
20
-133.112
11
195.914
21
-133.11
0
LINE
8
Black
10
195.914
20
-133.11
11
195.903
21
-133.11
0
LINE
8
Black
10
195.903
20
-133.11
11
195.892
21
-133.106
0
LINE
8
Black
10
195.892
20
-133.106
11
195.882
21
-133.104
0
LINE
8
Black
10
195.882
20
-133.104
11
195.872
21
-133.099
0
LINE
8
Black
10
195.872
20
-133.099
11
195.861
21
-133.095
0
LINE
8
Black
10
195.861
20
-133.095
11
195.853
21
-133.088
0
LINE
8
Black
10
195.853
20
-133.088
11
195.843
21
-133.082
0
LINE
8
Black
10
195.843
20
-133.082
11
195.836
21
-133.074
0
LINE
8
Black
10
195.836
20
-133.074
11
195.828
21
-133.067
0
LINE
8
Black
10
195.828
20
-133.067
11
195.822
21
-133.057
0
LINE
8
Black
10
195.822
20
-133.057
11
195.815
21
-133.048
0
LINE
8
Black
10
195.815
20
-133.048
11
195.811
21
-133.038
0
LINE
8
Black
10
195.811
20
-133.038
11
195.806
21
-133.028
0
LINE
8
Black
10
195.806
20
-133.028
11
195.804
21
-133.017
0
LINE
8
Black
10
195.804
20
-133.017
11
195.8
21
-133.007
0
LINE
8
Black
10
195.8
20
-133.007
11
195.8
21
-132.996
0
LINE
8
Black
10
195.8
20
-132.996
11
195.798
21
-132.985
0
LINE
8
Black
10
195.798
20
-132.985
11
195.798
21
-132.76
0
LINE
8
Black
10
195.798
20
-132.76
11
195.675
21
-132.463
0
LINE
8
Black
10
195.675
20
-132.463
11
195.448
21
-132.235
0
LINE
8
Black
10
195.448
20
-132.235
11
195.151
21
-132.112
0
LINE
8
Black
10
195.151
20
-132.112
11
194.83
21
-132.112
0
LINE
8
Black
10
194.83
20
-132.112
11
194.563
21
-132.222
0
LINE
8
Black
10
194.563
20
-132.222
11
194.56
21
-132.223
0
LINE
8
Black
10
194.56
20
-132.223
11
194.557
21
-132.224
0
LINE
8
Black
10
194.557
20
-132.224
11
194.538
21
-132.228
0
LINE
8
Black
10
194.538
20
-132.228
11
194.519
21
-132.232
0
LINE
8
Black
10
194.519
20
-132.232
11
194.517
21
-132.232
0
LINE
8
Black
10
194.517
20
-132.232
11
194.514
21
-132.232
0
LINE
8
Black
10
194.514
20
-132.232
11
169.447
21
-132.232
0
LINE
8
Black
10
169.447
20
-132.232
11
169.444
21
-132.232
0
LINE
8
Black
10
169.444
20
-132.232
11
169.441
21
-132.232
0
LINE
8
Black
10
169.441
20
-132.232
11
169.422
21
-132.228
0
LINE
8
Black
10
169.422
20
-132.228
11
169.403
21
-132.224
0
LINE
8
Black
10
169.403
20
-132.224
11
169.401
21
-132.223
0
LINE
8
Black
10
169.401
20
-132.223
11
169.398
21
-132.222
0
LINE
8
Black
10
169.398
20
-132.222
11
169.301
21
-132.182
0
LINE
8
Black
10
169.301
20
-132.182
11
168.98
21
-132.182
0
LINE
8
Black
10
168.98
20
-132.182
11
168.683
21
-132.305
0
LINE
8
Black
10
168.683
20
-132.305
11
168.455
21
-132.532
0
LINE
8
Black
10
168.455
20
-132.532
11
168.332
21
-132.829
0
LINE
8
Black
10
168.332
20
-132.829
11
168.332
21
-133.15
0
LINE
8
Black
10
168.332
20
-133.15
11
168.455
21
-133.447
0
LINE
8
Black
10
168.455
20
-133.447
11
168.682
21
-133.675
0
LINE
8
Black
10
168.682
20
-133.675
11
168.979
21
-133.798
0
LINE
8
Black
10
168.979
20
-133.798
11
169.3
21
-133.798
0
LINE
8
Black
10
169.3
20
-133.798
11
169.398
21
-133.758
0
LINE
8
Black
10
169.398
20
-133.758
11
169.401
21
-133.757
0
LINE
8
Black
10
169.401
20
-133.757
11
169.403
21
-133.756
0
LINE
8
Black
10
169.403
20
-133.756
11
169.422
21
-133.752
0
LINE
8
Black
10
169.422
20
-133.752
11
169.441
21
-133.748
0
LINE
8
Black
10
169.441
20
-133.748
11
169.444
21
-133.748
0
LINE
8
Black
10
169.444
20
-133.748
11
169.447
21
-133.748
0
LINE
8
Black
10
169.447
20
-133.748
11
172.575
21
-133.748
0
LINE
8
Black
10
172.575
20
-133.748
11
172.586
21
-133.75
0
LINE
8
Black
10
172.586
20
-133.75
11
172.597
21
-133.75
0
LINE
8
Black
10
172.597
20
-133.75
11
172.608
21
-133.754
0
LINE
8
Black
10
172.608
20
-133.754
11
172.618
21
-133.756
0
LINE
8
Black
10
172.618
20
-133.756
11
172.628
21
-133.761
0
LINE
8
Black
10
172.628
20
-133.761
11
172.639
21
-133.765
0
LINE
8
Black
10
172.639
20
-133.765
11
172.647
21
-133.772
0
LINE
8
Black
10
172.647
20
-133.772
11
172.657
21
-133.778
0
LINE
8
Black
10
172.657
20
-133.778
11
172.664
21
-133.786
0
LINE
8
Black
10
172.664
20
-133.786
11
172.672
21
-133.793
0
LINE
8
Black
10
172.672
20
-133.793
11
172.678
21
-133.803
0
LINE
8
Black
10
172.678
20
-133.803
11
172.685
21
-133.811
0
LINE
8
Black
10
172.685
20
-133.811
11
172.689
21
-133.822
0
LINE
8
Black
10
172.689
20
-133.822
11
172.694
21
-133.832
0
LINE
8
Black
10
172.694
20
-133.832
11
172.696
21
-133.843
0
LINE
8
Black
10
172.696
20
-133.843
11
172.7
21
-133.853
0
LINE
8
Black
10
172.7
20
-133.853
11
172.7
21
-133.864
0
LINE
8
Black
10
172.7
20
-133.864
11
172.702
21
-133.875
0
LINE
8
Black
10
172.702
20
-133.875
11
172.702
21
-133.972
0
LINE
8
Black
10
172.702
20
-133.972
11
172.7
21
-133.981
0
LINE
8
Black
10
172.7
20
-133.981
11
172.701
21
-133.989
0
LINE
8
Black
10
172.701
20
-133.989
11
172.697
21
-134.002
0
LINE
8
Black
10
172.697
20
-134.002
11
172.694
21
-134.016
0
LINE
8
Black
10
172.694
20
-134.016
11
172.69
21
-134.023
0
LINE
8
Black
10
172.69
20
-134.023
11
172.688
21
-134.031
0
LINE
8
Black
10
172.688
20
-134.031
11
172.679
21
-134.042
0
LINE
8
Black
10
172.679
20
-134.042
11
172.672
21
-134.054
0
LINE
8
Black
10
172.672
20
-134.054
11
172.666
21
-134.059
0
LINE
8
Black
10
172.666
20
-134.059
11
172.661
21
-134.066
0
LINE
8
Black
10
172.661
20
-134.066
11
172.649
21
-134.073
0
LINE
8
Black
10
172.649
20
-134.073
11
172.638
21
-134.082
0
LINE
8
Black
10
172.638
20
-134.082
11
172.63
21
-134.085
0
LINE
8
Black
10
172.63
20
-134.085
11
172.623
21
-134.09
0
LINE
8
Black
10
172.623
20
-134.09
11
172.563
21
-134.115
0
LINE
8
Black
10
172.563
20
-134.115
11
172.335
21
-134.342
0
LINE
8
Black
10
172.335
20
-134.342
11
172.234
21
-134.585
0
LINE
8
Black
10
172.234
20
-134.585
11
172.234
21
-134.586
0
LINE
8
Black
10
172.234
20
-134.586
11
172.233
21
-134.587
0
LINE
8
Black
10
172.233
20
-134.587
11
172.222
21
-134.605
0
LINE
8
Black
10
172.222
20
-134.605
11
172.211
21
-134.622
0
LINE
8
Black
10
172.211
20
-134.622
11
172.21
21
-134.623
0
LINE
8
Black
10
172.21
20
-134.623
11
172.209
21
-134.624
0
LINE
8
Black
10
172.209
20
-134.624
11
172.192
21
-134.636
0
LINE
8
Black
10
172.192
20
-134.636
11
172.176
21
-134.649
0
LINE
8
Black
10
172.176
20
-134.649
11
172.174
21
-134.649
0
LINE
8
Black
10
172.174
20
-134.649
11
172.173
21
-134.65
0
LINE
8
Black
10
172.173
20
-134.65
11
172.153
21
-134.656
0
LINE
8
Black
10
172.153
20
-134.656
11
172.134
21
-134.662
0
LINE
8
Black
10
172.134
20
-134.662
11
172.132
21
-134.662
0
LINE
8
Black
10
172.132
20
-134.662
11
172.131
21
-134.663
0
LINE
8
Black
10
172.131
20
-134.663
11
172.11
21
-134.661
0
LINE
8
Black
10
172.11
20
-134.661
11
172.089
21
-134.66
0
LINE
8
Black
10
172.089
20
-134.66
11
172.088
21
-134.66
0
LINE
8
Black
10
172.088
20
-134.66
11
172.087
21
-134.66
0
LINE
8
Black
10
172.087
20
-134.66
11
172.068
21
-134.651
0
LINE
8
Black
10
172.068
20
-134.651
11
172.049
21
-134.643
0
LINE
8
Black
10
172.049
20
-134.643
11
172.048
21
-134.642
0
LINE
8
Black
10
172.048
20
-134.642
11
172.047
21
-134.642
0
LINE
8
Black
10
172.047
20
-134.642
11
171.776
21
-134.461
0
LINE
8
Black
10
171.776
20
-134.461
11
171.379
21
-134.382
0
LINE
8
Black
10
171.379
20
-134.382
11
170.441
21
-134.382
0
LINE
8
Black
10
170.441
20
-134.382
11
170.044
21
-134.461
0
LINE
8
Black
10
170.044
20
-134.461
11
169.718
21
-134.679
0
LINE
8
Black
10
169.718
20
-134.679
11
169.5
21
-135.005
0
LINE
8
Black
10
169.5
20
-135.005
11
169.423
21
-135.39
0
LINE
8
Black
10
169.423
20
-135.39
11
169.5
21
-135.775
0
LINE
8
Black
10
169.5
20
-135.775
11
169.718
21
-136.101
0
LINE
8
Black
10
169.718
20
-136.101
11
170.044
21
-136.319
0
LINE
8
Black
10
170.044
20
-136.319
11
170.441
21
-136.398
0
LINE
8
Black
10
170.441
20
-136.398
11
171.379
21
-136.398
0
LINE
8
Black
10
171.379
20
-136.398
11
171.776
21
-136.319
0
LINE
8
Black
10
171.776
20
-136.319
11
172.102
21
-136.101
0
LINE
8
Black
10
172.102
20
-136.101
11
172.32
21
-135.775
0
LINE
8
Black
10
172.32
20
-135.775
11
172.362
21
-135.564
0
LINE
8
Black
10
172.362
20
-135.564
11
172.363
21
-135.56
0
LINE
8
Black
10
172.363
20
-135.56
11
172.364
21
-135.556
0
LINE
8
Black
10
172.364
20
-135.556
11
172.371
21
-135.54
0
LINE
8
Black
10
172.371
20
-135.54
11
172.378
21
-135.523
0
LINE
8
Black
10
172.378
20
-135.523
11
172.381
21
-135.52
0
LINE
8
Black
10
172.381
20
-135.52
11
172.382
21
-135.516
0
LINE
8
Black
10
172.382
20
-135.516
11
172.395
21
-135.503
0
LINE
8
Black
10
172.395
20
-135.503
11
172.407
21
-135.49
0
LINE
8
Black
10
172.407
20
-135.49
11
172.411
21
-135.488
0
LINE
8
Black
10
172.411
20
-135.488
11
172.414
21
-135.485
0
LINE
8
Black
10
172.414
20
-135.485
11
172.43
21
-135.477
0
LINE
8
Black
10
172.43
20
-135.477
11
172.446
21
-135.469
0
LINE
8
Black
10
172.446
20
-135.469
11
172.45
21
-135.468
0
LINE
8
Black
10
172.45
20
-135.468
11
172.454
21
-135.466
0
LINE
8
Black
10
172.454
20
-135.466
11
172.472
21
-135.465
0
LINE
8
Black
10
172.472
20
-135.465
11
172.489
21
-135.462
0
LINE
8
Black
10
172.489
20
-135.462
11
172.493
21
-135.463
0
LINE
8
Black
10
172.493
20
-135.463
11
172.498
21
-135.462
0
LINE
8
Black
10
172.498
20
-135.462
11
172.515
21
-135.467
0
LINE
8
Black
10
172.515
20
-135.467
11
172.532
21
-135.471
0
LINE
8
Black
10
172.532
20
-135.471
11
172.536
21
-135.473
0
LINE
8
Black
10
172.536
20
-135.473
11
172.54
21
-135.474
0
LINE
8
Black
10
172.54
20
-135.474
11
172.546
21
-135.478
0
LINE
8
Black
10
172.546
20
-135.478
11
172.859
21
-135.608
0
LINE
8
Black
10
172.859
20
-135.608
11
173.18
21
-135.608
0
LINE
8
Black
10
173.18
20
-135.608
11
173.278
21
-135.568
0
LINE
8
Black
10
173.278
20
-135.568
11
173.281
21
-135.567
0
LINE
8
Black
10
173.281
20
-135.567
11
173.283
21
-135.566
0
LINE
8
Black
10
173.283
20
-135.566
11
173.302
21
-135.562
0
LINE
8
Black
10
173.302
20
-135.562
11
173.321
21
-135.558
0
LINE
8
Black
10
173.321
20
-135.558
11
173.324
21
-135.558
0
LINE
8
Black
10
173.324
20
-135.558
11
173.327
21
-135.558
0
LINE
8
Black
10
173.327
20
-135.558
11
175.064
21
-135.558
0
LINE
8
Black
10
175.064
20
-135.558
11
175.065
21
-135.558
0
LINE
8
Black
10
175.065
20
-135.558
11
175.067
21
-135.558
0
LINE
8
Black
10
175.067
20
-135.558
11
175.087
21
-135.562
0
LINE
8
Black
10
175.087
20
-135.562
11
175.107
21
-135.566
0
LINE
8
Black
10
175.107
20
-135.566
11
175.108
21
-135.566
0
LINE
8
Black
10
175.108
20
-135.566
11
175.11
21
-135.567
0
LINE
8
Black
10
175.11
20
-135.567
11
175.127
21
-135.577
0
LINE
8
Black
10
175.127
20
-135.577
11
175.145
21
-135.588
0
LINE
8
Black
10
175.145
20
-135.588
11
175.146
21
-135.589
0
LINE
8
Black
10
175.146
20
-135.589
11
175.148
21
-135.59
0
LINE
8
Black
10
175.148
20
-135.59
11
175.16
21
-135.606
0
LINE
8
Black
10
175.16
20
-135.606
11
175.174
21
-135.621
0
LINE
8
Black
10
175.174
20
-135.621
11
175.174
21
-135.623
0
LINE
8
Black
10
175.174
20
-135.623
11
175.175
21
-135.624
0
LINE
8
Black
10
175.175
20
-135.624
11
175.182
21
-135.644
0
LINE
8
Black
10
175.182
20
-135.644
11
175.189
21
-135.663
0
LINE
8
Black
10
175.189
20
-135.663
11
175.189
21
-135.665
0
LINE
8
Black
10
175.189
20
-135.665
11
175.189
21
-135.666
0
LINE
8
Black
10
175.189
20
-135.666
11
175.189
21
-135.685
0
LINE
8
Black
10
175.189
20
-135.685
11
175.19
21
-135.69
0
LINE
8
Black
10
175.19
20
-135.69
11
175.19
21
-138.678
0
LINE
8
Black
10
175.19
20
-138.678
11
175.192
21
-138.692
0
LINE
8
Black
10
175.192
20
-138.692
11
175.192
21
-138.692
0
LINE
8
Black
10
175.192
20
-138.692
11
175.192
21
-138.693
0
LINE
8
Black
10
175.192
20
-138.693
11
175.192
21
-138.714
0
LINE
8
Black
10
175.192
20
-138.714
11
175.193
21
-138.736
0
LINE
8
Black
10
175.193
20
-138.736
11
175.192
21
-138.736
0
LINE
8
Black
10
175.192
20
-138.736
11
175.192
21
-138.737
0
LINE
8
Black
10
175.192
20
-138.737
11
175.185
21
-138.757
0
LINE
8
Black
10
175.185
20
-138.757
11
175.178
21
-138.777
0
LINE
8
Black
10
175.178
20
-138.777
11
175.177
21
-138.778
0
LINE
8
Black
10
175.177
20
-138.778
11
175.177
21
-138.778
0
LINE
8
Black
10
175.177
20
-138.778
11
175.164
21
-138.795
0
LINE
8
Black
10
175.164
20
-138.795
11
175.15
21
-138.811
0
LINE
8
Black
10
175.15
20
-138.811
11
175.149
21
-138.812
0
LINE
8
Black
10
175.149
20
-138.812
11
175.149
21
-138.812
0
LINE
8
Black
10
175.149
20
-138.812
11
175.13
21
-138.823
0
LINE
8
Black
10
175.13
20
-138.823
11
175.112
21
-138.834
0
LINE
8
Black
10
175.112
20
-138.834
11
175.111
21
-138.834
0
LINE
8
Black
10
175.111
20
-138.834
11
175.111
21
-138.834
0
LINE
8
Black
10
175.111
20
-138.834
11
175.09
21
-138.838
0
LINE
8
Black
10
175.09
20
-138.838
11
175.069
21
-138.842
0
LINE
8
Black
10
175.069
20
-138.842
11
175.068
21
-138.842
0
LINE
8
Black
10
175.068
20
-138.842
11
175.067
21
-138.842
0
LINE
8
Black
10
175.067
20
-138.842
11
163.607
21
-138.842
0
LINE
8
Black
10
163.607
20
-138.842
11
163.601
21
-138.841
0
LINE
8
Black
10
163.601
20
-138.841
11
163.596
21
-138.842
0
LINE
8
Black
10
163.596
20
-138.842
11
163.579
21
-138.837
0
LINE
8
Black
10
163.579
20
-138.837
11
163.563
21
-138.834
0
LINE
8
Black
10
163.563
20
-138.834
11
163.558
21
-138.832
0
LINE
8
Black
10
163.558
20
-138.832
11
163.553
21
-138.83
0
LINE
8
Black
10
163.553
20
-138.83
11
163.539
21
-138.821
0
LINE
8
Black
10
163.539
20
-138.821
11
163.525
21
-138.812
0
LINE
8
Black
10
163.525
20
-138.812
11
163.521
21
-138.808
0
LINE
8
Black
10
163.521
20
-138.808
11
163.517
21
-138.805
0
LINE
8
Black
10
163.517
20
-138.805
11
162.822
21
-138.11
0
LINE
8
Black
10
162.822
20
-138.11
11
162.815
21
-138.101
0
LINE
8
Black
10
162.815
20
-138.101
11
162.808
21
-138.093
0
LINE
8
Black
10
162.808
20
-138.093
11
162.803
21
-138.083
0
LINE
8
Black
10
162.803
20
-138.083
11
162.796
21
-138.074
0
LINE
8
Black
10
162.796
20
-138.074
11
162.794
21
-138.063
0
LINE
8
Black
10
162.794
20
-138.063
11
162.789
21
-138.053
0
LINE
8
Black
10
162.789
20
-138.053
11
162.788
21
-138.042
0
LINE
8
Black
10
162.788
20
-138.042
11
162.785
21
-138.031
0
LINE
8
Black
10
162.785
20
-138.031
11
162.786
21
-138.02
0
LINE
8
Black
10
162.786
20
-138.02
11
162.785
21
-138.009
0
LINE
8
Black
10
162.785
20
-138.009
11
162.788
21
-137.998
0
LINE
8
Black
10
162.788
20
-137.998
11
162.789
21
-137.987
0
LINE
8
Black
10
162.789
20
-137.987
11
162.794
21
-137.977
0
LINE
8
Black
10
162.794
20
-137.977
11
162.796
21
-137.966
0
LINE
8
Black
10
162.796
20
-137.966
11
162.803
21
-137.957
0
LINE
8
Black
10
162.803
20
-137.957
11
162.808
21
-137.947
0
LINE
8
Black
10
162.808
20
-137.947
11
162.815
21
-137.939
0
LINE
8
Black
10
162.815
20
-137.939
11
162.822
21
-137.93
0
LINE
8
Black
10
162.822
20
-137.93
11
163.277
21
-137.475
0
LINE
8
Black
10
163.277
20
-137.475
11
163.277
21
-137.475
0
LINE
8
Black
10
163.277
20
-137.475
11
163.817
21
-136.935
0
LINE
8
Black
10
163.817
20
-136.935
11
163.988
21
-136.679
0
LINE
8
Black
10
163.988
20
-136.679
11
164.048
21
-136.377
0
LINE
8
Black
10
164.048
20
-136.377
11
164.048
21
-134.691
0
LINE
8
Black
10
164.048
20
-134.691
11
164.05
21
-134.677
0
LINE
8
Black
10
164.05
20
-134.677
11
164.051
21
-134.663
0
LINE
8
Black
10
164.051
20
-134.663
11
164.054
21
-134.655
0
LINE
8
Black
10
164.054
20
-134.655
11
164.056
21
-134.647
0
LINE
8
Black
10
164.056
20
-134.647
11
164.063
21
-134.635
0
LINE
8
Black
10
164.063
20
-134.635
11
164.068
21
-134.622
0
LINE
8
Black
10
164.068
20
-134.622
11
164.074
21
-134.616
0
LINE
8
Black
10
164.074
20
-134.616
11
164.078
21
-134.609
0
LINE
8
Black
10
164.078
20
-134.609
11
164.088
21
-134.6
0
LINE
8
Black
10
164.088
20
-134.6
11
164.098
21
-134.59
0
LINE
8
Black
10
164.098
20
-134.59
11
164.105
21
-134.586
0
LINE
8
Black
10
164.105
20
-134.586
11
164.112
21
-134.581
0
LINE
8
Black
10
164.112
20
-134.581
11
164.125
21
-134.576
0
LINE
8
Black
10
164.125
20
-134.576
11
164.137
21
-134.57
0
LINE
8
Black
10
164.137
20
-134.57
11
164.145
21
-134.568
0
LINE
8
Black
10
164.145
20
-134.568
11
164.153
21
-134.566
0
LINE
8
Black
10
164.153
20
-134.566
11
164.167
21
-134.566
0
LINE
8
Black
10
164.167
20
-134.566
11
164.181
21
-134.564
0
LINE
8
Black
10
164.181
20
-134.564
11
164.189
21
-134.566
0
LINE
8
Black
10
164.189
20
-134.566
11
164.197
21
-134.566
0
LINE
8
Black
10
164.197
20
-134.566
11
164.21
21
-134.57
0
LINE
8
Black
10
164.21
20
-134.57
11
164.224
21
-134.573
0
LINE
8
Black
10
164.224
20
-134.573
11
164.259
21
-134.588
0
LINE
8
Black
10
164.259
20
-134.588
11
164.58
21
-134.588
0
LINE
8
Black
10
164.58
20
-134.588
11
164.877
21
-134.465
0
LINE
8
Black
10
164.877
20
-134.465
11
165.105
21
-134.238
0
LINE
8
Black
10
165.105
20
-134.238
11
165.228
21
-133.941
0
LINE
8
Black
10
165.228
20
-133.941
11
165.228
21
-133.62
0
LINE
8
Black
10
165.228
20
-133.62
11
165.188
21
-133.522
0
LINE
8
Black
10
165.188
20
-133.522
11
165.187
21
-133.519
0
LINE
8
Black
10
165.187
20
-133.519
11
165.186
21
-133.517
0
LINE
8
Black
10
165.186
20
-133.517
11
165.182
21
-133.498
0
LINE
8
Black
10
165.182
20
-133.498
11
165.178
21
-133.479
0
LINE
8
Black
10
165.178
20
-133.479
11
165.178
21
-133.476
0
LINE
8
Black
10
165.178
20
-133.476
11
165.178
21
-133.473
0
LINE
8
Black
10
165.178
20
-133.473
11
165.178
21
-125.313
0
LINE
8
Black
10
165.178
20
-125.313
11
165.118
21
-125.011
0
LINE
8
Black
10
165.118
20
-125.011
11
164.947
21
-124.755
0
LINE
8
Black
10
164.947
20
-124.755
11
160.798
21
-120.606
0
LINE
8
Black
10
160.798
20
-120.606
11
160.796
21
-120.603
0
LINE
8
Black
10
160.796
20
-120.603
11
160.793
21
-120.6
0
LINE
8
Black
10
160.793
20
-120.6
11
160.783
21
-120.585
0
LINE
8
Black
10
160.783
20
-120.585
11
160.773
21
-120.57
0
LINE
8
Black
10
160.773
20
-120.57
11
160.772
21
-120.566
0
LINE
8
Black
10
160.772
20
-120.566
11
160.77
21
-120.563
0
LINE
8
Black
10
160.77
20
-120.563
11
160.766
21
-120.545
0
LINE
8
Black
10
160.766
20
-120.545
11
160.762
21
-120.528
0
LINE
8
Black
10
160.762
20
-120.528
11
160.762
21
-120.524
0
LINE
8
Black
10
160.762
20
-120.524
11
160.761
21
-120.519
0
LINE
8
Black
10
160.761
20
-120.519
11
160.764
21
-120.502
0
LINE
8
Black
10
160.764
20
-120.502
11
160.766
21
-120.484
0
LINE
8
Black
10
160.766
20
-120.484
11
160.767
21
-120.48
0
LINE
8
Black
10
160.767
20
-120.48
11
160.768
21
-120.476
0
LINE
8
Black
10
160.768
20
-120.476
11
160.777
21
-120.46
0
LINE
8
Black
10
160.777
20
-120.46
11
160.784
21
-120.444
0
LINE
8
Black
10
160.784
20
-120.444
11
160.787
21
-120.441
0
LINE
8
Black
10
160.787
20
-120.441
11
160.789
21
-120.437
0
LINE
8
Black
10
160.789
20
-120.437
11
160.803
21
-120.425
0
LINE
8
Black
10
160.803
20
-120.425
11
160.815
21
-120.413
0
LINE
8
Black
10
160.815
20
-120.413
11
160.819
21
-120.411
0
LINE
8
Black
10
160.819
20
-120.411
11
160.822
21
-120.408
0
LINE
8
Black
10
160.822
20
-120.408
11
160.839
21
-120.402
0
LINE
8
Black
10
160.839
20
-120.402
11
160.855
21
-120.394
0
LINE
8
Black
10
160.855
20
-120.394
11
160.86
21
-120.394
0
LINE
8
Black
10
160.86
20
-120.394
11
160.863
21
-120.392
0
LINE
8
Black
10
160.863
20
-120.392
11
160.894
21
-120.386
0
LINE
8
Black
10
160.894
20
-120.386
11
160.912
21
-120.386
0
LINE
8
Black
10
160.912
20
-120.386
11
160.93
21
-120.384
0
LINE
8
Black
10
160.93
20
-120.384
11
160.934
21
-120.385
0
LINE
8
Black
10
167.54
20
-136.485
11
167.256
21
-136.768
0
LINE
8
Black
10
167.256
20
-136.768
11
167.102
21
-137.139
0
LINE
8
Black
10
167.102
20
-137.139
11
167.102
21
-137.54
0
LINE
8
Black
10
167.102
20
-137.54
11
167.255
21
-137.91
0
LINE
8
Black
10
167.255
20
-137.91
11
167.538
21
-138.194
0
LINE
8
Black
10
167.538
20
-138.194
11
167.909
21
-138.348
0
LINE
8
Black
10
167.909
20
-138.348
11
168.31
21
-138.348
0
LINE
8
Black
10
168.31
20
-138.348
11
168.68
21
-138.195
0
LINE
8
Black
10
168.68
20
-138.195
11
168.964
21
-137.912
0
LINE
8
Black
10
168.964
20
-137.912
11
169.118
21
-137.541
0
LINE
8
Black
10
169.118
20
-137.541
11
169.118
21
-137.14
0
LINE
8
Black
10
169.118
20
-137.14
11
168.965
21
-136.77
0
LINE
8
Black
10
168.965
20
-136.77
11
168.682
21
-136.486
0
LINE
8
Black
10
168.682
20
-136.486
11
168.311
21
-136.332
0
LINE
8
Black
10
168.311
20
-136.332
11
167.91
21
-136.332
0
LINE
8
Black
10
167.91
20
-136.332
11
167.54
21
-136.485
0
LINE
8
Black
10
168.282
20
-136.868
11
168.433
21
-136.956
0
LINE
8
Black
10
168.433
20
-136.956
11
168.545
21
-137.089
0
LINE
8
Black
10
168.545
20
-137.089
11
168.604
21
-137.253
0
LINE
8
Black
10
168.604
20
-137.253
11
168.604
21
-137.427
0
LINE
8
Black
10
168.604
20
-137.427
11
168.545
21
-137.591
0
LINE
8
Black
10
168.545
20
-137.591
11
168.433
21
-137.724
0
LINE
8
Black
10
168.433
20
-137.724
11
168.282
21
-137.812
0
LINE
8
Black
10
168.282
20
-137.812
11
168.11
21
-137.842
0
LINE
8
Black
10
168.11
20
-137.842
11
167.938
21
-137.812
0
LINE
8
Black
10
167.938
20
-137.812
11
167.787
21
-137.724
0
LINE
8
Black
10
167.787
20
-137.724
11
167.675
21
-137.591
0
LINE
8
Black
10
167.675
20
-137.591
11
167.616
21
-137.427
0
LINE
8
Black
10
167.616
20
-137.427
11
167.616
21
-137.253
0
LINE
8
Black
10
167.616
20
-137.253
11
167.675
21
-137.089
0
LINE
8
Black
10
167.675
20
-137.089
11
167.787
21
-136.956
0
LINE
8
Black
10
167.787
20
-136.956
11
167.938
21
-136.868
0
LINE
8
Black
10
167.938
20
-136.868
11
168.11
21
-136.838
0
LINE
8
Black
10
168.11
20
-136.838
11
168.282
21
-136.868
0
LINE
8
Black
10
193.21
20
-138.7
11
192.21
21
-138.7
0
LINE
8
Black
10
192.21
20
-138.7
11
192.21
21
-135.7
0
LINE
8
Black
10
192.21
20
-135.7
11
193.21
21
-135.7
0
LINE
8
Black
10
193.21
20
-135.7
11
193.21
21
-138.7
0
LINE
8
Black
10
185.71
20
-138.7
11
184.71
21
-138.7
0
LINE
8
Black
10
184.71
20
-138.7
11
184.71
21
-135.7
0
LINE
8
Black
10
184.71
20
-135.7
11
185.71
21
-135.7
0
LINE
8
Black
10
185.71
20
-135.7
11
185.71
21
-138.7
0
LINE
8
Black
10
178.21
20
-138.69
11
177.21
21
-138.69
0
LINE
8
Black
10
177.21
20
-138.69
11
177.21
21
-135.69
0
LINE
8
Black
10
177.21
20
-135.69
11
178.21
21
-135.69
0
LINE
8
Black
10
178.21
20
-135.69
11
178.21
21
-138.69
0
LINE
8
Black
10
176.71
20
-138.69
11
175.71
21
-138.69
0
LINE
8
Black
10
175.71
20
-138.69
11
175.71
21
-135.69
0
LINE
8
Black
10
175.71
20
-135.69
11
176.71
21
-135.69
0
LINE
8
Black
10
176.71
20
-135.69
11
176.71
21
-138.69
0
LINE
8
Black
10
179.71
20
-138.69
11
178.71
21
-138.69
0
LINE
8
Black
10
178.71
20
-138.69
11
178.71
21
-135.69
0
LINE
8
Black
10
178.71
20
-135.69
11
179.71
21
-135.69
0
LINE
8
Black
10
179.71
20
-135.69
11
179.71
21
-138.69
0
LINE
8
Black
10
181.21
20
-138.69
11
180.21
21
-138.69
0
LINE
8
Black
10
180.21
20
-138.69
11
180.21
21
-135.69
0
LINE
8
Black
10
180.21
20
-135.69
11
181.21
21
-135.69
0
LINE
8
Black
10
181.21
20
-135.69
11
181.21
21
-138.69
0
LINE
8
Black
10
182.71
20
-138.69
11
181.71
21
-138.69
0
LINE
8
Black
10
181.71
20
-138.69
11
181.71
21
-135.69
0
LINE
8
Black
10
181.71
20
-135.69
11
182.71
21
-135.69
0
LINE
8
Black
10
182.71
20
-135.69
11
182.71
21
-138.69
0
LINE
8
Black
10
184.21
20
-138.69
11
183.21
21
-138.69
0
LINE
8
Black
10
183.21
20
-138.69
11
183.21
21
-135.69
0
LINE
8
Black
10
183.21
20
-135.69
11
184.21
21
-135.69
0
LINE
8
Black
10
184.21
20
-135.69
11
184.21
21
-138.69
0
LINE
8
Black
10
188.71
20
-138.69
11
187.71
21
-138.69
0
LINE
8
Black
10
187.71
20
-138.69
11
187.71
21
-135.69
0
LINE
8
Black
10
187.71
20
-135.69
11
188.71
21
-135.69
0
LINE
8
Black
10
188.71
20
-135.69
11
188.71
21
-138.69
0
LINE
8
Black
10
190.21
20
-138.69
11
189.21
21
-138.69
0
LINE
8
Black
10
189.21
20
-138.69
11
189.21
21
-135.69
0
LINE
8
Black
10
189.21
20
-135.69
11
190.21
21
-135.69
0
LINE
8
Black
10
190.21
20
-135.69
11
190.21
21
-138.69
0
LINE
8
Black
10
191.71
20
-138.69
11
190.71
21
-138.69
0
LINE
8
Black
10
190.71
20
-138.69
11
190.71
21
-135.69
0
LINE
8
Black
10
190.71
20
-135.69
11
191.71
21
-135.69
0
LINE
8
Black
10
191.71
20
-135.69
11
191.71
21
-138.69
0
LINE
8
Black
10
173.123
20
-134.517
11
173.18
21
-134.55
0
LINE
8
Black
10
173.18
20
-134.55
11
195.5
21
-134.55
0
LINE
8
Black
10
195.5
20
-134.55
11
195.511
21
-134.552
0
LINE
8
Black
10
195.511
20
-134.552
11
195.522
21
-134.551
0
LINE
8
Black
10
195.522
20
-134.551
11
195.553
21
-134.559
0
LINE
8
Black
10
195.553
20
-134.559
11
195.586
21
-134.565
0
LINE
8
Black
10
195.586
20
-134.565
11
195.595
21
-134.571
0
LINE
8
Black
10
195.595
20
-134.571
11
195.606
21
-134.573
0
LINE
8
Black
10
195.606
20
-134.573
11
195.632
21
-134.592
0
LINE
8
Black
10
195.632
20
-134.592
11
195.661
21
-134.608
0
LINE
8
Black
10
195.661
20
-134.608
11
195.668
21
-134.617
0
LINE
8
Black
10
195.668
20
-134.617
11
195.677
21
-134.623
0
LINE
8
Black
10
195.677
20
-134.623
11
195.887
21
-134.833
0
LINE
8
Black
10
195.887
20
-134.833
11
195.893
21
-134.842
0
LINE
8
Black
10
195.893
20
-134.842
11
195.902
21
-134.849
0
LINE
8
Black
10
195.902
20
-134.849
11
195.918
21
-134.878
0
LINE
8
Black
10
195.918
20
-134.878
11
195.937
21
-134.904
0
LINE
8
Black
10
195.937
20
-134.904
11
195.939
21
-134.915
0
LINE
8
Black
10
195.939
20
-134.915
11
195.945
21
-134.924
0
LINE
8
Black
10
195.945
20
-134.924
11
195.951
21
-134.957
0
LINE
8
Black
10
195.951
20
-134.957
11
195.959
21
-134.988
0
LINE
8
Black
10
195.959
20
-134.988
11
195.958
21
-134.999
0
LINE
8
Black
10
195.958
20
-134.999
11
195.96
21
-135.01
0
LINE
8
Black
10
195.96
20
-135.01
11
195.96
21
-135.69
0
LINE
8
Black
10
195.96
20
-135.69
11
196.21
21
-135.69
0
LINE
8
Black
10
196.21
20
-135.69
11
196.21
21
-138.69
0
LINE
8
Black
10
196.21
20
-138.69
11
195.21
21
-138.69
0
LINE
8
Black
10
195.21
20
-138.69
11
195.21
21
-135.69
0
LINE
8
Black
10
195.21
20
-135.69
11
195.46
21
-135.69
0
LINE
8
Black
10
195.46
20
-135.69
11
195.46
21
-135.114
0
LINE
8
Black
10
195.46
20
-135.114
11
195.396
21
-135.05
0
LINE
8
Black
10
195.396
20
-135.05
11
173.18
21
-135.05
0
LINE
8
Black
10
173.18
20
-135.05
11
173.123
21
-135.083
0
LINE
8
Black
10
173.123
20
-135.083
11
173.02
21
-135.101
0
LINE
8
Black
10
173.02
20
-135.101
11
172.917
21
-135.083
0
LINE
8
Black
10
172.917
20
-135.083
11
172.826
21
-135.031
0
LINE
8
Black
10
172.826
20
-135.031
11
172.759
21
-134.951
0
LINE
8
Black
10
172.759
20
-134.951
11
172.723
21
-134.852
0
LINE
8
Black
10
172.723
20
-134.852
11
172.723
21
-134.748
0
LINE
8
Black
10
172.723
20
-134.748
11
172.759
21
-134.649
0
LINE
8
Black
10
172.759
20
-134.649
11
172.826
21
-134.569
0
LINE
8
Black
10
172.826
20
-134.569
11
172.917
21
-134.517
0
LINE
8
Black
10
172.917
20
-134.517
11
173.02
21
-134.499
0
LINE
8
Black
10
173.02
20
-134.499
11
173.123
21
-134.517
0
LINE
8
Black
10
173.613
20
-133.587
11
173.67
21
-133.62
0
LINE
8
Black
10
173.67
20
-133.62
11
196.15
21
-133.62
0
LINE
8
Black
10
196.15
20
-133.62
11
196.161
21
-133.622
0
LINE
8
Black
10
196.161
20
-133.622
11
196.172
21
-133.621
0
LINE
8
Black
10
196.172
20
-133.621
11
196.203
21
-133.629
0
LINE
8
Black
10
196.203
20
-133.629
11
196.236
21
-133.635
0
LINE
8
Black
10
196.236
20
-133.635
11
196.245
21
-133.641
0
LINE
8
Black
10
196.245
20
-133.641
11
196.256
21
-133.643
0
LINE
8
Black
10
196.256
20
-133.643
11
196.282
21
-133.662
0
LINE
8
Black
10
196.282
20
-133.662
11
196.311
21
-133.678
0
LINE
8
Black
10
196.311
20
-133.678
11
196.318
21
-133.687
0
LINE
8
Black
10
196.318
20
-133.687
11
196.327
21
-133.693
0
LINE
8
Black
10
196.327
20
-133.693
11
197.387
21
-134.753
0
LINE
8
Black
10
197.387
20
-134.753
11
197.393
21
-134.762
0
LINE
8
Black
10
197.393
20
-134.762
11
197.402
21
-134.769
0
LINE
8
Black
10
197.402
20
-134.769
11
197.418
21
-134.798
0
LINE
8
Black
10
197.418
20
-134.798
11
197.437
21
-134.824
0
LINE
8
Black
10
197.437
20
-134.824
11
197.439
21
-134.835
0
LINE
8
Black
10
197.439
20
-134.835
11
197.445
21
-134.844
0
LINE
8
Black
10
197.445
20
-134.844
11
197.451
21
-134.877
0
LINE
8
Black
10
197.451
20
-134.877
11
197.459
21
-134.908
0
LINE
8
Black
10
197.459
20
-134.908
11
197.458
21
-134.919
0
LINE
8
Black
10
197.458
20
-134.919
11
197.46
21
-134.93
0
LINE
8
Black
10
197.46
20
-134.93
11
197.46
21
-135.69
0
LINE
8
Black
10
197.46
20
-135.69
11
197.71
21
-135.69
0
LINE
8
Black
10
197.71
20
-135.69
11
197.71
21
-138.69
0
LINE
8
Black
10
197.71
20
-138.69
11
196.71
21
-138.69
0
LINE
8
Black
10
196.71
20
-138.69
11
196.71
21
-135.69
0
LINE
8
Black
10
196.71
20
-135.69
11
196.96
21
-135.69
0
LINE
8
Black
10
196.96
20
-135.69
11
196.96
21
-135.034
0
LINE
8
Black
10
196.96
20
-135.034
11
196.046
21
-134.12
0
LINE
8
Black
10
196.046
20
-134.12
11
173.67
21
-134.12
0
LINE
8
Black
10
173.67
20
-134.12
11
173.613
21
-134.153
0
LINE
8
Black
10
173.613
20
-134.153
11
173.51
21
-134.171
0
LINE
8
Black
10
173.51
20
-134.171
11
173.407
21
-134.153
0
LINE
8
Black
10
173.407
20
-134.153
11
173.316
21
-134.101
0
LINE
8
Black
10
173.316
20
-134.101
11
173.249
21
-134.021
0
LINE
8
Black
10
173.249
20
-134.021
11
173.213
21
-133.922
0
LINE
8
Black
10
173.213
20
-133.922
11
173.213
21
-133.818
0
LINE
8
Black
10
173.213
20
-133.818
11
173.249
21
-133.719
0
LINE
8
Black
10
173.249
20
-133.719
11
173.316
21
-133.639
0
LINE
8
Black
10
173.316
20
-133.639
11
173.407
21
-133.587
0
LINE
8
Black
10
173.407
20
-133.587
11
173.51
21
-133.569
0
LINE
8
Black
10
173.51
20
-133.569
11
173.613
21
-133.587
0
LINE
8
Black
10
161.125
20
-118.301
11
161.351
21
-118.49
0
LINE
8
Black
10
161.351
20
-118.49
11
161.499
21
-118.746
0
LINE
8
Black
10
161.499
20
-118.746
11
161.55
21
-119.037
0
LINE
8
Black
10
161.55
20
-119.037
11
161.55
21
-119.043
0
LINE
8
Black
10
161.55
20
-119.043
11
161.499
21
-119.334
0
LINE
8
Black
10
161.499
20
-119.334
11
161.443
21
-119.43
0
LINE
8
Black
10
161.443
20
-119.43
11
161.654
21
-119.64
0
LINE
8
Black
10
161.654
20
-119.64
11
163.72
21
-119.64
0
LINE
8
Black
10
163.72
20
-119.64
11
163.731
21
-119.642
0
LINE
8
Black
10
163.731
20
-119.642
11
163.742
21
-119.641
0
LINE
8
Black
10
163.742
20
-119.641
11
163.773
21
-119.649
0
LINE
8
Black
10
163.773
20
-119.649
11
163.806
21
-119.655
0
LINE
8
Black
10
163.806
20
-119.655
11
163.815
21
-119.661
0
LINE
8
Black
10
163.815
20
-119.661
11
163.826
21
-119.663
0
LINE
8
Black
10
163.826
20
-119.663
11
163.852
21
-119.682
0
LINE
8
Black
10
163.852
20
-119.682
11
163.881
21
-119.698
0
LINE
8
Black
10
163.881
20
-119.698
11
163.888
21
-119.707
0
LINE
8
Black
10
163.888
20
-119.707
11
163.897
21
-119.713
0
LINE
8
Black
10
163.897
20
-119.713
11
171.544
21
-127.36
0
LINE
8
Black
10
171.544
20
-127.36
11
196.1
21
-127.36
0
LINE
8
Black
10
196.1
20
-127.36
11
196.111
21
-127.362
0
LINE
8
Black
10
196.111
20
-127.362
11
196.122
21
-127.361
0
LINE
8
Black
10
196.122
20
-127.361
11
196.153
21
-127.369
0
LINE
8
Black
10
196.153
20
-127.369
11
196.186
21
-127.375
0
LINE
8
Black
10
196.186
20
-127.375
11
196.195
21
-127.381
0
LINE
8
Black
10
196.195
20
-127.381
11
196.206
21
-127.383
0
LINE
8
Black
10
196.206
20
-127.383
11
196.232
21
-127.402
0
LINE
8
Black
10
196.232
20
-127.402
11
196.261
21
-127.418
0
LINE
8
Black
10
196.261
20
-127.418
11
196.268
21
-127.427
0
LINE
8
Black
10
196.268
20
-127.427
11
196.277
21
-127.433
0
LINE
8
Black
10
196.277
20
-127.433
11
198.887
21
-130.043
0
LINE
8
Black
10
198.887
20
-130.043
11
198.893
21
-130.052
0
LINE
8
Black
10
198.893
20
-130.052
11
198.902
21
-130.059
0
LINE
8
Black
10
198.902
20
-130.059
11
198.918
21
-130.088
0
LINE
8
Black
10
198.918
20
-130.088
11
198.937
21
-130.114
0
LINE
8
Black
10
198.937
20
-130.114
11
198.939
21
-130.125
0
LINE
8
Black
10
198.939
20
-130.125
11
198.945
21
-130.134
0
LINE
8
Black
10
198.945
20
-130.134
11
198.951
21
-130.167
0
LINE
8
Black
10
198.951
20
-130.167
11
198.959
21
-130.198
0
LINE
8
Black
10
198.959
20
-130.198
11
198.958
21
-130.209
0
LINE
8
Black
10
198.958
20
-130.209
11
198.96
21
-130.22
0
LINE
8
Black
10
198.96
20
-130.22
11
198.96
21
-135.69
0
LINE
8
Black
10
198.96
20
-135.69
11
199.21
21
-135.69
0
LINE
8
Black
10
199.21
20
-135.69
11
199.21
21
-138.69
0
LINE
8
Black
10
199.21
20
-138.69
11
198.21
21
-138.69
0
LINE
8
Black
10
198.21
20
-138.69
11
198.21
21
-135.69
0
LINE
8
Black
10
198.21
20
-135.69
11
198.46
21
-135.69
0
LINE
8
Black
10
198.46
20
-135.69
11
198.46
21
-130.324
0
LINE
8
Black
10
198.46
20
-130.324
11
195.996
21
-127.86
0
LINE
8
Black
10
195.996
20
-127.86
11
171.44
21
-127.86
0
LINE
8
Black
10
171.44
20
-127.86
11
171.429
21
-127.858
0
LINE
8
Black
10
171.429
20
-127.858
11
171.418
21
-127.859
0
LINE
8
Black
10
171.418
20
-127.859
11
171.387
21
-127.851
0
LINE
8
Black
10
171.387
20
-127.851
11
171.354
21
-127.845
0
LINE
8
Black
10
171.354
20
-127.845
11
171.345
21
-127.839
0
LINE
8
Black
10
171.345
20
-127.839
11
171.334
21
-127.837
0
LINE
8
Black
10
171.334
20
-127.837
11
171.308
21
-127.818
0
LINE
8
Black
10
171.308
20
-127.818
11
171.279
21
-127.802
0
LINE
8
Black
10
171.279
20
-127.802
11
171.272
21
-127.793
0
LINE
8
Black
10
171.272
20
-127.793
11
171.263
21
-127.787
0
LINE
8
Black
10
171.263
20
-127.787
11
163.616
21
-120.14
0
LINE
8
Black
10
163.616
20
-120.14
11
161.55
21
-120.14
0
LINE
8
Black
10
161.55
20
-120.14
11
161.539
21
-120.138
0
LINE
8
Black
10
161.539
20
-120.138
11
161.528
21
-120.139
0
LINE
8
Black
10
161.528
20
-120.139
11
161.497
21
-120.131
0
LINE
8
Black
10
161.497
20
-120.131
11
161.464
21
-120.125
0
LINE
8
Black
10
161.464
20
-120.125
11
161.455
21
-120.119
0
LINE
8
Black
10
161.455
20
-120.119
11
161.444
21
-120.117
0
LINE
8
Black
10
161.444
20
-120.117
11
161.418
21
-120.098
0
LINE
8
Black
10
161.418
20
-120.098
11
161.389
21
-120.082
0
LINE
8
Black
10
161.389
20
-120.082
11
161.382
21
-120.073
0
LINE
8
Black
10
161.382
20
-120.073
11
161.373
21
-120.067
0
LINE
8
Black
10
161.373
20
-120.067
11
161.096
21
-119.79
0
LINE
8
Black
10
161.096
20
-119.79
11
160.848
21
-119.88
0
LINE
8
Black
10
160.848
20
-119.88
11
160.552
21
-119.88
0
LINE
8
Black
10
160.552
20
-119.88
11
160.275
21
-119.779
0
LINE
8
Black
10
160.275
20
-119.779
11
160.049
21
-119.59
0
LINE
8
Black
10
160.049
20
-119.59
11
159.901
21
-119.334
0
LINE
8
Black
10
159.901
20
-119.334
11
159.85
21
-119.043
0
LINE
8
Black
10
159.85
20
-119.043
11
159.85
21
-119.037
0
LINE
8
Black
10
159.85
20
-119.037
11
159.901
21
-118.746
0
LINE
8
Black
10
159.901
20
-118.746
11
160.049
21
-118.49
0
LINE
8
Black
10
160.049
20
-118.49
11
160.275
21
-118.301
0
LINE
8
Black
10
160.275
20
-118.301
11
160.552
21
-118.2
0
LINE
8
Black
10
160.552
20
-118.2
11
160.848
21
-118.2
0
LINE
8
Black
10
160.848
20
-118.2
11
161.125
21
-118.301
0
LINE
8
Black
10
187.21
20
-138.69
11
186.21
21
-138.69
0
LINE
8
Black
10
186.21
20
-138.69
11
186.21
21
-135.69
0
LINE
8
Black
10
186.21
20
-135.69
11
187.21
21
-135.69
0
LINE
8
Black
10
187.21
20
-135.69
11
187.21
21
-138.69
0
LINE
8
Black
10
171.535
20
-134.92
11
171.685
21
-135.007
0
LINE
8
Black
10
171.685
20
-135.007
11
171.797
21
-135.14
0
LINE
8
Black
10
171.797
20
-135.14
11
171.856
21
-135.303
0
LINE
8
Black
10
171.856
20
-135.303
11
171.856
21
-135.477
0
LINE
8
Black
10
171.856
20
-135.477
11
171.797
21
-135.64
0
LINE
8
Black
10
171.797
20
-135.64
11
171.685
21
-135.773
0
LINE
8
Black
10
171.685
20
-135.773
11
171.535
21
-135.86
0
LINE
8
Black
10
171.535
20
-135.86
11
171.364
21
-135.89
0
LINE
8
Black
10
171.364
20
-135.89
11
170.456
21
-135.89
0
LINE
8
Black
10
170.456
20
-135.89
11
170.285
21
-135.86
0
LINE
8
Black
10
170.285
20
-135.86
11
170.135
21
-135.773
0
LINE
8
Black
10
170.135
20
-135.773
11
170.023
21
-135.64
0
LINE
8
Black
10
170.023
20
-135.64
11
169.964
21
-135.477
0
LINE
8
Black
10
169.964
20
-135.477
11
169.964
21
-135.303
0
LINE
8
Black
10
169.964
20
-135.303
11
170.023
21
-135.14
0
LINE
8
Black
10
170.023
20
-135.14
11
170.135
21
-135.007
0
LINE
8
Black
10
170.135
20
-135.007
11
170.285
21
-134.92
0
LINE
8
Black
10
170.285
20
-134.92
11
170.456
21
-134.89
0
LINE
8
Black
10
170.456
20
-134.89
11
171.364
21
-134.89
0
LINE
8
Black
10
171.364
20
-134.89
11
171.535
21
-134.92
0
LINE
8
Black
10
158.585
20
-118.301
11
158.811
21
-118.49
0
LINE
8
Black
10
158.811
20
-118.49
11
158.959
21
-118.746
0
LINE
8
Black
10
158.959
20
-118.746
11
159.01
21
-119.037
0
LINE
8
Black
10
159.01
20
-119.037
11
159.01
21
-119.043
0
LINE
8
Black
10
159.01
20
-119.043
11
158.959
21
-119.334
0
LINE
8
Black
10
158.959
20
-119.334
11
158.903
21
-119.43
0
LINE
8
Black
10
158.903
20
-119.43
11
164.597
21
-125.123
0
LINE
8
Black
10
164.597
20
-125.123
11
164.603
21
-125.132
0
LINE
8
Black
10
164.603
20
-125.132
11
164.612
21
-125.139
0
LINE
8
Black
10
164.612
20
-125.139
11
164.628
21
-125.168
0
LINE
8
Black
10
164.628
20
-125.168
11
164.647
21
-125.194
0
LINE
8
Black
10
164.647
20
-125.194
11
164.649
21
-125.205
0
LINE
8
Black
10
164.649
20
-125.205
11
164.655
21
-125.214
0
LINE
8
Black
10
164.655
20
-125.214
11
164.661
21
-125.247
0
LINE
8
Black
10
164.661
20
-125.247
11
164.669
21
-125.278
0
LINE
8
Black
10
164.669
20
-125.278
11
164.668
21
-125.289
0
LINE
8
Black
10
164.668
20
-125.289
11
164.67
21
-125.3
0
LINE
8
Black
10
164.67
20
-125.3
11
164.67
21
-133.617
0
LINE
8
Black
10
164.67
20
-133.617
11
164.681
21
-133.629
0
LINE
8
Black
10
164.681
20
-133.629
11
164.717
21
-133.728
0
LINE
8
Black
10
164.717
20
-133.728
11
164.717
21
-133.832
0
LINE
8
Black
10
164.717
20
-133.832
11
164.681
21
-133.931
0
LINE
8
Black
10
164.681
20
-133.931
11
164.614
21
-134.011
0
LINE
8
Black
10
164.614
20
-134.011
11
164.523
21
-134.063
0
LINE
8
Black
10
164.523
20
-134.063
11
164.42
21
-134.081
0
LINE
8
Black
10
164.42
20
-134.081
11
164.317
21
-134.063
0
LINE
8
Black
10
164.317
20
-134.063
11
164.226
21
-134.011
0
LINE
8
Black
10
164.226
20
-134.011
11
164.159
21
-133.931
0
LINE
8
Black
10
164.159
20
-133.931
11
164.123
21
-133.832
0
LINE
8
Black
10
164.123
20
-133.832
11
164.123
21
-133.728
0
LINE
8
Black
10
164.123
20
-133.728
11
164.159
21
-133.629
0
LINE
8
Black
10
164.159
20
-133.629
11
164.17
21
-133.617
0
LINE
8
Black
10
164.17
20
-133.617
11
164.17
21
-125.404
0
LINE
8
Black
10
164.17
20
-125.404
11
158.556
21
-119.79
0
LINE
8
Black
10
158.556
20
-119.79
11
158.308
21
-119.88
0
LINE
8
Black
10
158.308
20
-119.88
11
158.012
21
-119.88
0
LINE
8
Black
10
158.012
20
-119.88
11
157.735
21
-119.779
0
LINE
8
Black
10
157.735
20
-119.779
11
157.509
21
-119.59
0
LINE
8
Black
10
157.509
20
-119.59
11
157.361
21
-119.334
0
LINE
8
Black
10
157.361
20
-119.334
11
157.31
21
-119.043
0
LINE
8
Black
10
157.31
20
-119.043
11
157.31
21
-119.037
0
LINE
8
Black
10
157.31
20
-119.037
11
157.361
21
-118.746
0
LINE
8
Black
10
157.361
20
-118.746
11
157.509
21
-118.49
0
LINE
8
Black
10
157.509
20
-118.49
11
157.735
21
-118.301
0
LINE
8
Black
10
157.735
20
-118.301
11
158.012
21
-118.2
0
LINE
8
Black
10
158.012
20
-118.2
11
158.308
21
-118.2
0
LINE
8
Black
10
158.308
20
-118.2
11
158.585
21
-118.301
0
LINE
8
Black
10
156.47
20
-119.536
11
159.677
21
-122.743
0
LINE
8
Black
10
159.677
20
-122.743
11
159.683
21
-122.752
0
LINE
8
Black
10
159.683
20
-122.752
11
159.692
21
-122.759
0
LINE
8
Black
10
159.692
20
-122.759
11
159.708
21
-122.788
0
LINE
8
Black
10
159.708
20
-122.788
11
159.727
21
-122.814
0
LINE
8
Black
10
159.727
20
-122.814
11
159.729
21
-122.825
0
LINE
8
Black
10
159.729
20
-122.825
11
159.735
21
-122.834
0
LINE
8
Black
10
159.735
20
-122.834
11
159.741
21
-122.867
0
LINE
8
Black
10
159.741
20
-122.867
11
159.749
21
-122.898
0
LINE
8
Black
10
159.749
20
-122.898
11
159.748
21
-122.909
0
LINE
8
Black
10
159.748
20
-122.909
11
159.75
21
-122.92
0
LINE
8
Black
10
159.75
20
-122.92
11
159.75
21
-133.417
0
LINE
8
Black
10
159.75
20
-133.417
11
159.761
21
-133.429
0
LINE
8
Black
10
159.761
20
-133.429
11
159.797
21
-133.528
0
LINE
8
Black
10
159.797
20
-133.528
11
159.797
21
-133.632
0
LINE
8
Black
10
159.797
20
-133.632
11
159.761
21
-133.731
0
LINE
8
Black
10
159.761
20
-133.731
11
159.694
21
-133.811
0
LINE
8
Black
10
159.694
20
-133.811
11
159.603
21
-133.863
0
LINE
8
Black
10
159.603
20
-133.863
11
159.5
21
-133.881
0
LINE
8
Black
10
159.5
20
-133.881
11
159.397
21
-133.863
0
LINE
8
Black
10
159.397
20
-133.863
11
159.306
21
-133.811
0
LINE
8
Black
10
159.306
20
-133.811
11
159.239
21
-133.731
0
LINE
8
Black
10
159.239
20
-133.731
11
159.203
21
-133.632
0
LINE
8
Black
10
159.203
20
-133.632
11
159.203
21
-133.528
0
LINE
8
Black
10
159.203
20
-133.528
11
159.239
21
-133.429
0
LINE
8
Black
10
159.239
20
-133.429
11
159.25
21
-133.417
0
LINE
8
Black
10
159.25
20
-133.417
11
159.25
21
-123.024
0
LINE
8
Black
10
159.25
20
-123.024
11
156.116
21
-119.89
0
LINE
8
Black
10
156.116
20
-119.89
11
154.77
21
-119.89
0
LINE
8
Black
10
154.77
20
-119.89
11
154.77
21
-118.19
0
LINE
8
Black
10
154.77
20
-118.19
11
156.47
21
-118.19
0
LINE
8
Black
10
156.47
20
-118.19
11
156.47
21
-119.536
0
LINE
8
Black
10
195.093
20
-132.637
11
195.184
21
-132.689
0
LINE
8
Black
10
195.184
20
-132.689
11
195.251
21
-132.769
0
LINE
8
Black
10
195.251
20
-132.769
11
195.287
21
-132.868
0
LINE
8
Black
10
195.287
20
-132.868
11
195.287
21
-132.972
0
LINE
8
Black
10
195.287
20
-132.972
11
195.251
21
-133.071
0
LINE
8
Black
10
195.251
20
-133.071
11
195.184
21
-133.151
0
LINE
8
Black
10
195.184
20
-133.151
11
195.093
21
-133.203
0
LINE
8
Black
10
195.093
20
-133.203
11
195.029
21
-133.214
0
LINE
8
Black
10
195.029
20
-133.214
11
195.026
21
-133.217
0
LINE
8
Black
10
195.026
20
-133.217
11
195.015
21
-133.219
0
LINE
8
Black
10
195.015
20
-133.219
11
195.006
21
-133.225
0
LINE
8
Black
10
195.006
20
-133.225
11
194.973
21
-133.231
0
LINE
8
Black
10
194.973
20
-133.231
11
194.942
21
-133.239
0
LINE
8
Black
10
194.942
20
-133.239
11
194.931
21
-133.238
0
LINE
8
Black
10
194.931
20
-133.238
11
194.92
21
-133.24
0
LINE
8
Black
10
194.92
20
-133.24
11
169.3
21
-133.24
0
LINE
8
Black
10
169.3
20
-133.24
11
169.243
21
-133.273
0
LINE
8
Black
10
169.243
20
-133.273
11
169.14
21
-133.291
0
LINE
8
Black
10
169.14
20
-133.291
11
169.037
21
-133.273
0
LINE
8
Black
10
169.037
20
-133.273
11
168.946
21
-133.221
0
LINE
8
Black
10
168.946
20
-133.221
11
168.879
21
-133.141
0
LINE
8
Black
10
168.879
20
-133.141
11
168.843
21
-133.042
0
LINE
8
Black
10
168.843
20
-133.042
11
168.843
21
-132.938
0
LINE
8
Black
10
168.843
20
-132.938
11
168.879
21
-132.839
0
LINE
8
Black
10
168.879
20
-132.839
11
168.946
21
-132.759
0
LINE
8
Black
10
168.946
20
-132.759
11
169.037
21
-132.707
0
LINE
8
Black
10
169.037
20
-132.707
11
169.14
21
-132.689
0
LINE
8
Black
10
169.14
20
-132.689
11
169.243
21
-132.707
0
LINE
8
Black
10
169.243
20
-132.707
11
169.3
21
-132.74
0
LINE
8
Black
10
169.3
20
-132.74
11
194.754
21
-132.74
0
LINE
8
Black
10
194.754
20
-132.74
11
194.796
21
-132.689
0
LINE
8
Black
10
194.796
20
-132.689
11
194.887
21
-132.637
0
LINE
8
Black
10
194.887
20
-132.637
11
194.99
21
-132.619
0
LINE
8
Black
10
194.99
20
-132.619
11
195.093
21
-132.637
0
LINE
8
Black
10
152.963
20
-122.607
11
153.054
21
-122.659
0
LINE
8
Black
10
153.054
20
-122.659
11
153.121
21
-122.739
0
LINE
8
Black
10
153.121
20
-122.739
11
153.157
21
-122.838
0
LINE
8
Black
10
153.157
20
-122.838
11
153.157
21
-122.942
0
LINE
8
Black
10
153.157
20
-122.942
11
153.121
21
-123.041
0
LINE
8
Black
10
153.121
20
-123.041
11
153.11
21
-123.053
0
LINE
8
Black
10
153.11
20
-123.053
11
153.11
21
-127.652
0
LINE
8
Black
10
153.11
20
-127.652
11
155.447
21
-129.989
0
LINE
8
Black
10
155.447
20
-129.989
11
155.453
21
-129.998
0
LINE
8
Black
10
155.453
20
-129.998
11
155.462
21
-130.005
0
LINE
8
Black
10
155.462
20
-130.005
11
155.478
21
-130.033
0
LINE
8
Black
10
155.478
20
-130.033
11
155.497
21
-130.06
0
LINE
8
Black
10
155.497
20
-130.06
11
155.499
21
-130.071
0
LINE
8
Black
10
155.499
20
-130.071
11
155.505
21
-130.08
0
LINE
8
Black
10
155.505
20
-130.08
11
155.511
21
-130.112
0
LINE
8
Black
10
155.511
20
-130.112
11
155.519
21
-130.144
0
LINE
8
Black
10
155.519
20
-130.144
11
155.518
21
-130.155
0
LINE
8
Black
10
155.518
20
-130.155
11
155.52
21
-130.166
0
LINE
8
Black
10
155.52
20
-130.166
11
155.52
21
-130.427
0
LINE
8
Black
10
155.52
20
-130.427
11
155.531
21
-130.439
0
LINE
8
Black
10
155.531
20
-130.439
11
155.564
21
-130.53
0
LINE
8
Black
10
155.564
20
-130.53
11
155.72
21
-130.687
0
LINE
8
Black
10
155.72
20
-130.687
11
155.741
21
-130.698
0
LINE
8
Black
10
155.741
20
-130.698
11
155.748
21
-130.707
0
LINE
8
Black
10
155.748
20
-130.707
11
155.757
21
-130.713
0
LINE
8
Black
10
155.757
20
-130.713
11
157.404
21
-132.36
0
LINE
8
Black
10
157.404
20
-132.36
11
157.73
21
-132.36
0
LINE
8
Black
10
157.73
20
-132.36
11
157.787
21
-132.327
0
LINE
8
Black
10
157.787
20
-132.327
11
157.89
21
-132.309
0
LINE
8
Black
10
157.89
20
-132.309
11
157.993
21
-132.327
0
LINE
8
Black
10
157.993
20
-132.327
11
158.084
21
-132.379
0
LINE
8
Black
10
158.084
20
-132.379
11
158.151
21
-132.459
0
LINE
8
Black
10
158.151
20
-132.459
11
158.187
21
-132.558
0
LINE
8
Black
10
158.187
20
-132.558
11
158.187
21
-132.662
0
LINE
8
Black
10
158.187
20
-132.662
11
158.151
21
-132.761
0
LINE
8
Black
10
158.151
20
-132.761
11
158.084
21
-132.841
0
LINE
8
Black
10
158.084
20
-132.841
11
157.993
21
-132.893
0
LINE
8
Black
10
157.993
20
-132.893
11
157.89
21
-132.911
0
LINE
8
Black
10
157.89
20
-132.911
11
157.787
21
-132.893
0
LINE
8
Black
10
157.787
20
-132.893
11
157.73
21
-132.86
0
LINE
8
Black
10
157.73
20
-132.86
11
157.3
21
-132.86
0
LINE
8
Black
10
157.3
20
-132.86
11
157.289
21
-132.858
0
LINE
8
Black
10
157.289
20
-132.858
11
157.278
21
-132.859
0
LINE
8
Black
10
157.278
20
-132.859
11
157.247
21
-132.851
0
LINE
8
Black
10
157.247
20
-132.851
11
157.214
21
-132.845
0
LINE
8
Black
10
157.214
20
-132.845
11
157.205
21
-132.839
0
LINE
8
Black
10
157.205
20
-132.839
11
157.194
21
-132.837
0
LINE
8
Black
10
157.194
20
-132.837
11
157.168
21
-132.818
0
LINE
8
Black
10
157.168
20
-132.818
11
157.139
21
-132.802
0
LINE
8
Black
10
157.139
20
-132.802
11
157.132
21
-132.793
0
LINE
8
Black
10
157.132
20
-132.793
11
157.123
21
-132.787
0
LINE
8
Black
10
157.123
20
-132.787
11
155.43
21
-131.093
0
LINE
8
Black
10
155.43
20
-131.093
11
155.409
21
-131.082
0
LINE
8
Black
10
155.409
20
-131.082
11
155.402
21
-131.073
0
LINE
8
Black
10
155.402
20
-131.073
11
155.393
21
-131.067
0
LINE
8
Black
10
155.393
20
-131.067
11
155.206
21
-130.88
0
LINE
8
Black
10
155.206
20
-130.88
11
155.167
21
-130.873
0
LINE
8
Black
10
155.167
20
-130.873
11
155.076
21
-130.821
0
LINE
8
Black
10
155.076
20
-130.821
11
155.009
21
-130.741
0
LINE
8
Black
10
155.009
20
-130.741
11
154.973
21
-130.642
0
LINE
8
Black
10
154.973
20
-130.642
11
154.973
21
-130.538
0
LINE
8
Black
10
154.973
20
-130.538
11
155.009
21
-130.439
0
LINE
8
Black
10
155.009
20
-130.439
11
155.02
21
-130.427
0
LINE
8
Black
10
155.02
20
-130.427
11
155.02
21
-130.269
0
LINE
8
Black
10
155.02
20
-130.269
11
152.683
21
-127.933
0
LINE
8
Black
10
152.683
20
-127.933
11
152.677
21
-127.924
0
LINE
8
Black
10
152.677
20
-127.924
11
152.668
21
-127.916
0
LINE
8
Black
10
152.668
20
-127.916
11
152.652
21
-127.888
0
LINE
8
Black
10
152.652
20
-127.888
11
152.633
21
-127.861
0
LINE
8
Black
10
152.633
20
-127.861
11
152.631
21
-127.851
0
LINE
8
Black
10
152.631
20
-127.851
11
152.625
21
-127.841
0
LINE
8
Black
10
152.625
20
-127.841
11
152.619
21
-127.809
0
LINE
8
Black
10
152.619
20
-127.809
11
152.611
21
-127.778
0
LINE
8
Black
10
152.611
20
-127.778
11
152.612
21
-127.767
0
LINE
8
Black
10
152.612
20
-127.767
11
152.61
21
-127.756
0
LINE
8
Black
10
152.61
20
-127.756
11
152.61
21
-123.053
0
LINE
8
Black
10
152.61
20
-123.053
11
152.599
21
-123.041
0
LINE
8
Black
10
152.599
20
-123.041
11
152.563
21
-122.942
0
LINE
8
Black
10
152.563
20
-122.942
11
152.563
21
-122.838
0
LINE
8
Black
10
152.563
20
-122.838
11
152.599
21
-122.739
0
LINE
8
Black
10
152.599
20
-122.739
11
152.666
21
-122.659
0
LINE
8
Black
10
152.666
20
-122.659
11
152.757
21
-122.607
0
LINE
8
Black
10
152.757
20
-122.607
11
152.86
21
-122.589
0
LINE
8
Black
10
152.86
20
-122.589
11
152.963
21
-122.607
0
LINE
8
Black
10
151.253
20
-127.927
11
151.344
21
-127.979
0
LINE
8
Black
10
151.344
20
-127.979
11
151.411
21
-128.059
0
LINE
8
Black
10
151.411
20
-128.059
11
151.447
21
-128.158
0
LINE
8
Black
10
151.447
20
-128.158
11
151.447
21
-128.262
0
LINE
8
Black
10
151.447
20
-128.262
11
151.411
21
-128.361
0
LINE
8
Black
10
151.411
20
-128.361
11
151.344
21
-128.441
0
LINE
8
Black
10
151.344
20
-128.441
11
151.253
21
-128.493
0
LINE
8
Black
10
151.253
20
-128.493
11
151.214
21
-128.5
0
LINE
8
Black
10
151.214
20
-128.5
11
150.427
21
-129.287
0
LINE
8
Black
10
150.427
20
-129.287
11
150.418
21
-129.293
0
LINE
8
Black
10
150.418
20
-129.293
11
150.411
21
-129.302
0
LINE
8
Black
10
150.411
20
-129.302
11
150.382
21
-129.318
0
LINE
8
Black
10
150.382
20
-129.318
11
150.356
21
-129.337
0
LINE
8
Black
10
150.356
20
-129.337
11
150.345
21
-129.339
0
LINE
8
Black
10
150.345
20
-129.339
11
150.336
21
-129.345
0
LINE
8
Black
10
150.336
20
-129.345
11
150.303
21
-129.351
0
LINE
8
Black
10
150.303
20
-129.351
11
150.272
21
-129.359
0
LINE
8
Black
10
150.272
20
-129.359
11
150.261
21
-129.358
0
LINE
8
Black
10
150.261
20
-129.358
11
150.25
21
-129.36
0
LINE
8
Black
10
150.25
20
-129.36
11
145.09
21
-129.36
0
LINE
8
Black
10
145.09
20
-129.36
11
145.033
21
-129.393
0
LINE
8
Black
10
145.033
20
-129.393
11
144.93
21
-129.411
0
LINE
8
Black
10
144.93
20
-129.411
11
144.827
21
-129.393
0
LINE
8
Black
10
144.827
20
-129.393
11
144.736
21
-129.341
0
LINE
8
Black
10
144.736
20
-129.341
11
144.669
21
-129.261
0
LINE
8
Black
10
144.669
20
-129.261
11
144.633
21
-129.162
0
LINE
8
Black
10
144.633
20
-129.162
11
144.633
21
-129.058
0
LINE
8
Black
10
144.633
20
-129.058
11
144.669
21
-128.959
0
LINE
8
Black
10
144.669
20
-128.959
11
144.736
21
-128.879
0
LINE
8
Black
10
144.736
20
-128.879
11
144.827
21
-128.827
0
LINE
8
Black
10
144.827
20
-128.827
11
144.93
21
-128.809
0
LINE
8
Black
10
144.93
20
-128.809
11
145.033
21
-128.827
0
LINE
8
Black
10
145.033
20
-128.827
11
145.09
21
-128.86
0
LINE
8
Black
10
145.09
20
-128.86
11
150.146
21
-128.86
0
LINE
8
Black
10
150.146
20
-128.86
11
150.856
21
-128.15
0
LINE
8
Black
10
150.856
20
-128.15
11
150.889
21
-128.059
0
LINE
8
Black
10
150.889
20
-128.059
11
150.956
21
-127.979
0
LINE
8
Black
10
150.956
20
-127.979
11
151.047
21
-127.927
0
LINE
8
Black
10
151.047
20
-127.927
11
151.15
21
-127.909
0
LINE
8
Black
10
151.15
20
-127.909
11
151.253
21
-127.927
0
LINE
8
Black
10
155.02
20
-123.794
11
155.126
21
-123.883
0
LINE
8
Black
10
155.126
20
-123.883
11
155.196
21
-124.003
0
LINE
8
Black
10
155.196
20
-124.003
11
155.22
21
-124.14
0
LINE
8
Black
10
155.22
20
-124.14
11
155.22
21
-126.894
0
LINE
8
Black
10
155.22
20
-126.894
11
156.213
21
-127.887
0
LINE
8
Black
10
156.213
20
-127.887
11
156.293
21
-128.001
0
LINE
8
Black
10
156.293
20
-128.001
11
156.328
21
-128.135
0
LINE
8
Black
10
156.328
20
-128.135
11
156.316
21
-128.274
0
LINE
8
Black
10
156.316
20
-128.274
11
156.258
21
-128.399
0
LINE
8
Black
10
156.258
20
-128.399
11
156.159
21
-128.498
0
LINE
8
Black
10
156.159
20
-128.498
11
156.034
21
-128.556
0
LINE
8
Black
10
156.034
20
-128.556
11
155.895
21
-128.568
0
LINE
8
Black
10
155.895
20
-128.568
11
155.761
21
-128.533
0
LINE
8
Black
10
155.761
20
-128.533
11
155.647
21
-128.453
0
LINE
8
Black
10
155.647
20
-128.453
11
154.537
21
-127.343
0
LINE
8
Black
10
154.537
20
-127.343
11
154.527
21
-127.328
0
LINE
8
Black
10
154.527
20
-127.328
11
154.514
21
-127.317
0
LINE
8
Black
10
154.514
20
-127.317
11
154.487
21
-127.272
0
LINE
8
Black
10
154.487
20
-127.272
11
154.457
21
-127.229
0
LINE
8
Black
10
154.457
20
-127.229
11
154.453
21
-127.212
0
LINE
8
Black
10
154.453
20
-127.212
11
154.444
21
-127.197
0
LINE
8
Black
10
154.444
20
-127.197
11
154.435
21
-127.145
0
LINE
8
Black
10
154.435
20
-127.145
11
154.422
21
-127.095
0
LINE
8
Black
10
154.422
20
-127.095
11
154.423
21
-127.077
0
LINE
8
Black
10
154.423
20
-127.077
11
154.42
21
-127.06
0
LINE
8
Black
10
154.42
20
-127.06
11
154.42
21
-124.14
0
LINE
8
Black
10
154.42
20
-124.14
11
154.444
21
-124.003
0
LINE
8
Black
10
154.444
20
-124.003
11
154.514
21
-123.883
0
LINE
8
Black
10
154.514
20
-123.883
11
154.62
21
-123.794
0
LINE
8
Black
10
154.62
20
-123.794
11
154.751
21
-123.746
0
LINE
8
Black
10
154.751
20
-123.746
11
154.889
21
-123.746
0
LINE
8
Black
10
154.889
20
-123.746
11
155.02
21
-123.794
0
LINE
8
Black
10
245.61
20
-123.04
11
246.41
21
-123.502
0
LINE
8
Black
10
246.41
20
-123.502
11
247.004
21
-124.21
0
LINE
8
Black
10
247.004
20
-124.21
11
247.32
21
-125.078
0
LINE
8
Black
10
247.32
20
-125.078
11
247.32
21
-126.002
0
LINE
8
Black
10
247.32
20
-126.002
11
247.004
21
-126.87
0
LINE
8
Black
10
247.004
20
-126.87
11
246.41
21
-127.578
0
LINE
8
Black
10
246.41
20
-127.578
11
245.61
21
-128.04
0
LINE
8
Black
10
245.61
20
-128.04
11
244.7
21
-128.2
0
LINE
8
Black
10
244.7
20
-128.2
11
243.79
21
-128.04
0
LINE
8
Black
10
243.79
20
-128.04
11
242.99
21
-127.578
0
LINE
8
Black
10
242.99
20
-127.578
11
242.396
21
-126.87
0
LINE
8
Black
10
242.396
20
-126.87
11
242.08
21
-126.002
0
LINE
8
Black
10
242.08
20
-126.002
11
242.08
21
-125.078
0
LINE
8
Black
10
242.08
20
-125.078
11
242.396
21
-124.21
0
LINE
8
Black
10
242.396
20
-124.21
11
242.99
21
-123.502
0
LINE
8
Black
10
242.99
20
-123.502
11
243.79
21
-123.04
0
LINE
8
Black
10
243.79
20
-123.04
11
244.7
21
-122.88
0
LINE
8
Black
10
244.7
20
-122.88
11
245.61
21
-123.04
0
LINE
8
Black
10
110.85
20
-120.85
11
109.15
21
-120.85
0
LINE
8
Black
10
109.15
20
-120.85
11
109.15
21
-119.15
0
LINE
8
Black
10
109.15
20
-119.15
11
110.85
21
-119.15
0
LINE
8
Black
10
110.85
20
-119.15
11
110.85
21
-120.85
0
LINE
8
Black
10
156.045
20
-115.761
11
156.271
21
-115.95
0
LINE
8
Black
10
156.271
20
-115.95
11
156.419
21
-116.206
0
LINE
8
Black
10
156.419
20
-116.206
11
156.47
21
-116.497
0
LINE
8
Black
10
156.47
20
-116.497
11
156.47
21
-116.503
0
LINE
8
Black
10
156.47
20
-116.503
11
156.419
21
-116.794
0
LINE
8
Black
10
156.419
20
-116.794
11
156.271
21
-117.05
0
LINE
8
Black
10
156.271
20
-117.05
11
156.045
21
-117.239
0
LINE
8
Black
10
156.045
20
-117.239
11
155.768
21
-117.34
0
LINE
8
Black
10
155.768
20
-117.34
11
155.472
21
-117.34
0
LINE
8
Black
10
155.472
20
-117.34
11
155.195
21
-117.239
0
LINE
8
Black
10
155.195
20
-117.239
11
154.969
21
-117.05
0
LINE
8
Black
10
154.969
20
-117.05
11
154.821
21
-116.794
0
LINE
8
Black
10
154.821
20
-116.794
11
154.77
21
-116.503
0
LINE
8
Black
10
154.77
20
-116.503
11
154.77
21
-116.497
0
LINE
8
Black
10
154.77
20
-116.497
11
154.821
21
-116.206
0
LINE
8
Black
10
154.821
20
-116.206
11
154.969
21
-115.95
0
LINE
8
Black
10
154.969
20
-115.95
11
155.195
21
-115.761
0
LINE
8
Black
10
155.195
20
-115.761
11
155.472
21
-115.66
0
LINE
8
Black
10
155.472
20
-115.66
11
155.768
21
-115.66
0
LINE
8
Black
10
155.768
20
-115.66
11
156.045
21
-115.761
0
LINE
8
Black
10
158.585
20
-115.761
11
158.811
21
-115.95
0
LINE
8
Black
10
158.811
20
-115.95
11
158.959
21
-116.206
0
LINE
8
Black
10
158.959
20
-116.206
11
159.01
21
-116.497
0
LINE
8
Black
10
159.01
20
-116.497
11
159.01
21
-116.503
0
LINE
8
Black
10
159.01
20
-116.503
11
158.959
21
-116.794
0
LINE
8
Black
10
158.959
20
-116.794
11
158.811
21
-117.05
0
LINE
8
Black
10
158.811
20
-117.05
11
158.585
21
-117.239
0
LINE
8
Black
10
158.585
20
-117.239
11
158.308
21
-117.34
0
LINE
8
Black
10
158.308
20
-117.34
11
158.012
21
-117.34
0
LINE
8
Black
10
158.012
20
-117.34
11
157.735
21
-117.239
0
LINE
8
Black
10
157.735
20
-117.239
11
157.509
21
-117.05
0
LINE
8
Black
10
157.509
20
-117.05
11
157.361
21
-116.794
0
LINE
8
Black
10
157.361
20
-116.794
11
157.31
21
-116.503
0
LINE
8
Black
10
157.31
20
-116.503
11
157.31
21
-116.497
0
LINE
8
Black
10
157.31
20
-116.497
11
157.361
21
-116.206
0
LINE
8
Black
10
157.361
20
-116.206
11
157.509
21
-115.95
0
LINE
8
Black
10
157.509
20
-115.95
11
157.735
21
-115.761
0
LINE
8
Black
10
157.735
20
-115.761
11
158.012
21
-115.66
0
LINE
8
Black
10
158.012
20
-115.66
11
158.308
21
-115.66
0
LINE
8
Black
10
158.308
20
-115.66
11
158.585
21
-115.761
0
CIRCLE
8
Black
10
245
20
-114.88
40
0.4
0
CIRCLE
8
Black
10
244.61
20
-132.65
40
0.4
0
CIRCLE
8
Black
10
244.64
20
-137.69
40
0.4
0
CIRCLE
8
Black
10
233.92
20
-137.9
40
0.4
0
CIRCLE
8
Black
10
232.38
20
-115.5
40
0.4
0
CIRCLE
8
Black
10
224.8
20
-134.37
40
0.4
0
CIRCLE
8
Black
10
216.35
20
-134.37
40
0.4
0
CIRCLE
8
Black
10
165.71
20
-136.11
40
0.4
0
CIRCLE
8
Black
10
167.17
20
-130.91
40
0.4
0
CIRCLE
8
Black
10
148.98
20
-115.18
40
0.4
0
CIRCLE
8
Black
10
128.35
20
-113.33
40
0.4
0
CIRCLE
8
Black
10
127.56
20
-117.86
40
0.4
0
CIRCLE
8
Black
10
204.7
20
-117.09
40
0.4
0
CIRCLE
8
Black
10
198.67
20
-123.1
40
0.4
0
CIRCLE
8
Black
10
192.28
20
-130.12
40
0.4
0
CIRCLE
8
Black
10
141.56
20
-134.99
40
0.4
0
CIRCLE
8
Black
10
123.02
20
-134.96
40
0.4
0
CIRCLE
8
Black
10
157.2
20
-130.59
40
0.4
0
CIRCLE
8
Black
10
141.71
20
-130.34
40
0.4
0
CIRCLE
8
Black
10
142.82
20
-120.76
40
0.4
0
CIRCLE
8
Black
10
189.72
20
-118.96
40
0.4
0
CIRCLE
8
Black
10
181.52
20
-115.29
40
0.4
0
CIRCLE
8
Black
10
168.51
20
-116.51
40
0.4
0
CIRCLE
8
Black
10
226.17
20
-126.84
40
0.4
0
CIRCLE
8
Black
10
222.13
20
-128.6
40
0.4
0
CIRCLE
8
Black
10
218.24
20
-126.73
40
0.4
0
CIRCLE
8
Black
10
222.35
20
-118.61
40
0.4
0
CIRCLE
8
Black
10
226.17
20
-121.14
40
0.4
0
CIRCLE
8
Black
10
218.16
20
-120.99
40
0.4
0
CIRCLE
8
Black
10
139.43
20
-124.15
40
0.4
0
CIRCLE
8
Black
10
133.31
20
-124.34
40
0.4
0
CIRCLE
8
Black
10
194.99
20
-132.92
40
0.2
0
CIRCLE
8
Black
10
169.14
20
-132.99
40
0.2
0
CIRCLE
8
Black
10
152.86
20
-122.89
40
0.2
0
CIRCLE
8
Black
10
157.89
20
-132.61
40
0.2
0
CIRCLE
8
Black
10
155.27
20
-130.59
40
0.2
0
CIRCLE
8
Black
10
159.5
20
-133.58
40
0.2
0
CIRCLE
8
Black
10
164.42
20
-133.78
40
0.2
0
CIRCLE
8
Black
10
173.02
20
-134.8
40
0.2
0
CIRCLE
8
Black
10
161.54
20
-137.46
40
0.2
0
CIRCLE
8
Black
10
163.29
20
-126.1
40
0.2
0
CIRCLE
8
Black
10
151.15
20
-128.21
40
0.2
0
CIRCLE
8
Black
10
144.93
20
-129.11
40
0.2
0
CIRCLE
8
Black
10
155.93
20
-128.17
40
0.2
0
CIRCLE
8
Black
10
154.82
20
-124.14
40
0.2
0
CIRCLE
8
Black
10
158.65
20
-137.94
40
0.2
0
CIRCLE
8
Black
10
173.51
20
-133.87
40
0.2
  0
ENDSEC
  0
EOF
