  0
SECTION
  2
HEADER
  9
$ANGBASE
  50
0.0
  9
$ANGDIR
  70
  1
  9
$MEASUREMENT
  70
0
  0
ENDSEC
  0
SECTION
  2
TABLES
  0
TABLE
  2
LTYPE
  70
1
  0
LTYPE
  2
CONTINUOUS
  70
0
  3
Solid line
  72
65
  73
0
  40
0.0
  0
ENDTAB
  0
TABLE
  2
STYLE
  70
4
  0
STYLE
  2
KICAD
  70
0
  40
0
  41
1
  42
1
  50
0
  71
0
  3
isocp.shx
  0
STYLE
  2
KICADB
  70
0
  40
0
  41
1
  42
1
  50
0
  71
0
  3
isocp.shx
  0
STYLE
  2
KICADI
  70
0
  40
0
  41
1
  42
1
  50
15
  71
0
  3
isocp.shx
  0
STYLE
  2
KICADBI
  70
0
  40
0
  41
1
  42
1
  50
15
  71
0
  3
isocp.shx
  0
ENDTAB
  0
TABLE
  2
LAYER
  70
30
  0
LAYER
  2
BLACK
  70
0
  62
7
  6
CONTINUOUS
  0
LAYER
  2
GRAY1
  70
0
  62
251
  6
CONTINUOUS
  0
LAYER
  2
GRAY2
  70
0
  62
8
  6
CONTINUOUS
  0
LAYER
  2
GRAY3
  70
0
  62
9
  6
CONTINUOUS
  0
LAYER
  2
WHITE
  70
0
  62
7
  6
CONTINUOUS
  0
LAYER
  2
LYELLOW
  70
0
  62
51
  6
CONTINUOUS
  0
LAYER
  2
BLUE1
  70
0
  62
178
  6
CONTINUOUS
  0
LAYER
  2
GREEN1
  70
0
  62
98
  6
CONTINUOUS
  0
LAYER
  2
CYAN1
  70
0
  62
138
  6
CONTINUOUS
  0
LAYER
  2
RED1
  70
0
  62
18
  6
CONTINUOUS
  0
LAYER
  2
MAGENTA1
  70
0
  62
228
  6
CONTINUOUS
  0
LAYER
  2
BROWN1
  70
0
  62
58
  6
CONTINUOUS
  0
LAYER
  2
BLUE2
  70
0
  62
5
  6
CONTINUOUS
  0
LAYER
  2
GREEN2
  70
0
  62
3
  6
CONTINUOUS
  0
LAYER
  2
CYAN2
  70
0
  62
4
  6
CONTINUOUS
  0
LAYER
  2
RED2
  70
0
  62
1
  6
CONTINUOUS
  0
LAYER
  2
MAGENTA2
  70
0
  62
6
  6
CONTINUOUS
  0
LAYER
  2
BROWN2
  70
0
  62
54
  6
CONTINUOUS
  0
LAYER
  2
BLUE3
  70
0
  62
171
  6
CONTINUOUS
  0
LAYER
  2
GREEN3
  70
0
  62
91
  6
CONTINUOUS
  0
LAYER
  2
CYAN3
  70
0
  62
131
  6
CONTINUOUS
  0
LAYER
  2
RED3
  70
0
  62
11
  6
CONTINUOUS
  0
LAYER
  2
MAGENTA3
  70
0
  62
221
  6
CONTINUOUS
  0
LAYER
  2
YELLOW3
  70
0
  62
2
  6
CONTINUOUS
  0
LAYER
  2
BLUE4
  70
0
  62
5
  6
CONTINUOUS
  0
LAYER
  2
GREEN4
  70
0
  62
3
  6
CONTINUOUS
  0
LAYER
  2
CYAN4
  70
0
  62
4
  6
CONTINUOUS
  0
LAYER
  2
RED4
  70
0
  62
1
  6
CONTINUOUS
  0
LAYER
  2
MAGENTA4
  70
0
  62
6
  6
CONTINUOUS
  0
LAYER
  2
YELLOW4
  70
0
  62
2
  6
CONTINUOUS
  0
ENDTAB
  0
ENDSEC
  0
SECTION
  2
ENTITIES
0
LINE
8
Black
10
248.164
20
-111.141
11
248.169
21
-111.141
0
LINE
8
Black
10
248.169
20
-111.141
11
248.173
21
-111.142
0
LINE
8
Black
10
248.173
20
-111.142
11
248.177
21
-111.143
0
LINE
8
Black
10
248.177
20
-111.143
11
248.181
21
-111.145
0
LINE
8
Black
10
248.181
20
-111.145
11
248.185
21
-111.147
0
LINE
8
Black
10
248.185
20
-111.147
11
248.188
21
-111.15
0
LINE
8
Black
10
248.188
20
-111.15
11
248.192
21
-111.152
0
LINE
8
Black
10
248.192
20
-111.152
11
248.195
21
-111.155
0
LINE
8
Black
10
248.195
20
-111.155
11
248.198
21
-111.158
0
LINE
8
Black
10
248.198
20
-111.158
11
248.2
21
-111.162
0
LINE
8
Black
10
248.2
20
-111.162
11
248.203
21
-111.165
0
LINE
8
Black
10
248.203
20
-111.165
11
248.205
21
-111.169
0
LINE
8
Black
10
248.205
20
-111.169
11
248.207
21
-111.173
0
LINE
8
Black
10
248.207
20
-111.173
11
248.208
21
-111.177
0
LINE
8
Black
10
248.208
20
-111.177
11
248.209
21
-111.181
0
LINE
8
Black
10
248.209
20
-111.181
11
248.209
21
-111.186
0
LINE
8
Black
10
248.209
20
-111.186
11
248.21
21
-111.19
0
LINE
8
Black
10
248.21
20
-111.19
11
248.21
21
-141.19
0
LINE
8
Black
10
248.21
20
-141.19
11
248.209
21
-141.194
0
LINE
8
Black
10
248.209
20
-141.194
11
248.209
21
-141.199
0
LINE
8
Black
10
248.209
20
-141.199
11
248.208
21
-141.203
0
LINE
8
Black
10
248.208
20
-141.203
11
248.207
21
-141.207
0
LINE
8
Black
10
248.207
20
-141.207
11
248.205
21
-141.211
0
LINE
8
Black
10
248.205
20
-141.211
11
248.203
21
-141.215
0
LINE
8
Black
10
248.203
20
-141.215
11
248.2
21
-141.218
0
LINE
8
Black
10
248.2
20
-141.218
11
248.198
21
-141.222
0
LINE
8
Black
10
248.198
20
-141.222
11
248.195
21
-141.225
0
LINE
8
Black
10
248.195
20
-141.225
11
248.192
21
-141.228
0
LINE
8
Black
10
248.192
20
-141.228
11
248.188
21
-141.23
0
LINE
8
Black
10
248.188
20
-141.23
11
248.185
21
-141.233
0
LINE
8
Black
10
248.185
20
-141.233
11
248.181
21
-141.235
0
LINE
8
Black
10
248.181
20
-141.235
11
248.177
21
-141.237
0
LINE
8
Black
10
248.177
20
-141.237
11
248.173
21
-141.238
0
LINE
8
Black
10
248.173
20
-141.238
11
248.169
21
-141.239
0
LINE
8
Black
10
248.169
20
-141.239
11
248.164
21
-141.239
0
LINE
8
Black
10
248.164
20
-141.239
11
248.16
21
-141.24
0
LINE
8
Black
10
248.16
20
-141.24
11
98.16
21
-141.24
0
LINE
8
Black
10
98.16
20
-141.24
11
98.1557
21
-141.239
0
LINE
8
Black
10
98.1557
20
-141.239
11
98.1513
21
-141.239
0
LINE
8
Black
10
98.1513
20
-141.239
11
98.1472
21
-141.238
0
LINE
8
Black
10
98.1472
20
-141.238
11
98.1429
21
-141.237
0
LINE
8
Black
10
98.1429
20
-141.237
11
98.1391
21
-141.235
0
LINE
8
Black
10
98.1391
20
-141.235
11
98.135
21
-141.233
0
LINE
8
Black
10
98.135
20
-141.233
11
98.1316
21
-141.23
0
LINE
8
Black
10
98.1316
20
-141.23
11
98.1279
21
-141.228
0
LINE
8
Black
10
98.1279
20
-141.228
11
98.125
21
-141.225
0
LINE
8
Black
10
98.125
20
-141.225
11
98.1217
21
-141.222
0
LINE
8
Black
10
98.1217
20
-141.222
11
98.1195
21
-141.218
0
LINE
8
Black
10
98.1195
20
-141.218
11
98.1167
21
-141.215
0
LINE
8
Black
10
98.1167
20
-141.215
11
98.1152
21
-141.211
0
LINE
8
Black
10
98.1152
20
-141.211
11
98.113
21
-141.207
0
LINE
8
Black
10
98.113
20
-141.207
11
98.1123
21
-141.203
0
LINE
8
Black
10
98.1123
20
-141.203
11
98.1108
21
-141.199
0
LINE
8
Black
10
98.1108
20
-141.199
11
98.1108
21
-141.194
0
LINE
8
Black
10
98.1108
20
-141.194
11
98.11
21
-141.19
0
LINE
8
Black
10
98.11
20
-141.19
11
98.11
21
-111.19
0
LINE
8
Black
10
98.11
20
-111.19
11
98.1108
21
-111.186
0
LINE
8
Black
10
98.1108
20
-111.186
11
98.1108
21
-111.181
0
LINE
8
Black
10
98.1108
20
-111.181
11
98.1123
21
-111.177
0
LINE
8
Black
10
98.1123
20
-111.177
11
98.113
21
-111.173
0
LINE
8
Black
10
98.113
20
-111.173
11
98.1152
21
-111.169
0
LINE
8
Black
10
98.1152
20
-111.169
11
98.1167
21
-111.165
0
LINE
8
Black
10
98.1167
20
-111.165
11
98.1195
21
-111.162
0
LINE
8
Black
10
98.1195
20
-111.162
11
98.1217
21
-111.158
0
LINE
8
Black
10
98.1217
20
-111.158
11
98.125
21
-111.155
0
LINE
8
Black
10
98.125
20
-111.155
11
98.1279
21
-111.152
0
LINE
8
Black
10
98.1279
20
-111.152
11
98.1316
21
-111.15
0
LINE
8
Black
10
98.1316
20
-111.15
11
98.135
21
-111.147
0
LINE
8
Black
10
98.135
20
-111.147
11
98.1391
21
-111.145
0
LINE
8
Black
10
98.1391
20
-111.145
11
98.1429
21
-111.143
0
LINE
8
Black
10
98.1429
20
-111.143
11
98.1472
21
-111.142
0
LINE
8
Black
10
98.1472
20
-111.142
11
98.1513
21
-111.141
0
LINE
8
Black
10
98.1513
20
-111.141
11
98.1557
21
-111.141
0
LINE
8
Black
10
98.1557
20
-111.141
11
98.16
21
-111.14
0
LINE
8
Black
10
98.16
20
-111.14
11
248.16
21
-111.14
0
LINE
8
Black
10
248.16
20
-111.14
11
248.164
21
-111.141
0
LINE
8
Black
10
98.21
20
-111.24
11
98.21
21
-141.14
0
LINE
8
Black
10
98.21
20
-141.14
11
248.11
21
-141.14
0
LINE
8
Black
10
248.11
20
-141.14
11
248.11
21
-111.24
0
LINE
8
Black
10
248.11
20
-111.24
11
98.21
21
-111.24
  0
ENDSEC
  0
EOF
