 0
SECTION
 2
ENTITIES
  0
POLYLINE
 8
Layer0
 66
     1
70
    8
 10
0.0
 20
 0.0
 30
0.0
  0
VERTEX
  8
MY3DLAYER
10
-20.1
20
11.55
30
0.0
 70
     32
  0
VERTEX
  8
MY3DLAYER
10
-20.7
20
11.55
30
0.0
 70
     32
  0
VERTEX
  8
MY3DLAYER
10
-20.7
20
12.15
30
0.0
 70
     32
  0
VERTEX
  8
MY3DLAYER
10
-20.1
20
12.15
30
0.0
 70
     32
  0
VERTEX
  8
MY3DLAYER
10
-20.1
20
11.55
30
0.0
 70
     32
  0
SEQEND
  0
POLYLINE
 8
Layer0
 66
     1
70
    8
 10
0.0
 20
 0.0
 30
0.0
  0
VERTEX
  8
MY3DLAYER
10
20.1
20
-12.15
30
0.0
 70
     32
  0
VERTEX
  8
MY3DLAYER
10
20.1
20
-11.55
30
0.0
 70
     32
  0
VERTEX
  8
MY3DLAYER
10
20.7
20
-11.55
30
0.0
 70
     32
  0
VERTEX
  8
MY3DLAYER
10
20.7
20
-12.15
30
0.0
 70
     32
  0
VERTEX
  8
MY3DLAYER
10
20.1
20
-12.15
30
0.0
 70
     32
  0
SEQEND
  0
POLYLINE
 8
Layer0
 66
     1
70
    8
 10
0.0
 20
 0.0
 30
0.0
  0
VERTEX
  8
MY3DLAYER
10
20.1
20
11.55
30
0.0
 70
     32
  0
VERTEX
  8
MY3DLAYER
10
20.1
20
12.15
30
0.0
 70
     32
  0
VERTEX
  8
MY3DLAYER
10
20.7
20
12.15
30
0.0
 70
     32
  0
VERTEX
  8
MY3DLAYER
10
20.7
20
11.55
30
0.0
 70
     32
  0
VERTEX
  8
MY3DLAYER
10
20.1
20
11.55
30
0.0
 70
     32
  0
SEQEND
  0
POLYLINE
 8
Layer0
 66
     1
70
    8
 10
0.0
 20
 0.0
 30
0.0
  0
VERTEX
  8
MY3DLAYER
10
16.7
20
-9.90000000000001
30
0.0
 70
     32
  0
VERTEX
  8
MY3DLAYER
10
16.7
20
-9.30000000000001
30
0.0
 70
     32
  0
VERTEX
  8
MY3DLAYER
10
17.9
20
-9.30000000000001
30
0.0
 70
     32
  0
VERTEX
  8
MY3DLAYER
10
17.9
20
-9.90000000000001
30
0.0
 70
     32
  0
VERTEX
  8
MY3DLAYER
10
16.7
20
-9.90000000000001
30
0.0
 70
     32
  0
SEQEND
  0
POLYLINE
 8
Layer0
 66
     1
70
    8
 10
0.0
 20
 0.0
 30
0.0
  0
VERTEX
  8
MY3DLAYER
10
-20.1
20
-12.15
30
0.0
 70
     32
  0
VERTEX
  8
MY3DLAYER
10
-20.7
20
-12.15
30
0.0
 70
     32
  0
VERTEX
  8
MY3DLAYER
10
-20.7
20
-11.55
30
0.0
 70
     32
  0
VERTEX
  8
MY3DLAYER
10
-20.1
20
-11.55
30
0.0
 70
     32
  0
VERTEX
  8
MY3DLAYER
10
-20.1
20
-12.15
30
0.0
 70
     32
  0
SEQEND
  0
LINE
 8
Layer0
10
-16.0
20
-12.15
30
0.0
11
-20.1
21
-12.15
31
0.0
  0
LINE
 8
Layer0
10
16.0
20
-12.15
30
0.0
11
16.0
21
-11.4
31
0.0
  0
LINE
 8
Layer0
10
16.0
20
-11.4
30
0.0
11
12.0
21
-11.4
31
0.0
  0
LINE
 8
Layer0
10
-16.0
20
-9.90000000000001
30
0.0
11
-16.0
21
-11.4
31
0.0
  0
LINE
 8
Layer0
10
-16.0
20
-11.4
30
0.0
11
-16.0
21
-12.15
31
0.0
  0
LINE
 8
Layer0
10
16.0
20
-11.4
30
0.0
11
16.0
21
-9.90000000000001
31
0.0
  0
LINE
 8
Layer0
10
-12.0
20
-11.4
30
0.0
11
-16.0
21
-11.4
31
0.0
  0
LINE
 8
Layer0
10
-12.0
20
-11.4
30
0.0
11
-12.0
21
-12.15
31
0.0
  0
LINE
 8
Layer0
10
12.0
20
-11.4
30
0.0
11
10.5
21
-11.4
31
0.0
  0
LINE
 8
Layer0
10
16.0
20
-9.90000000000001
30
0.0
11
-16.0
21
-9.90000000000001
31
0.0
  0
LINE
 8
Layer0
10
-6.00000000000001
20
-11.4
30
0.0
11
-7.50000000000002
21
-11.4
31
0.0
  0
LINE
 8
Layer0
10
-7.50000000000002
20
-11.4
30
0.0
11
-7.50000000000001
21
-12.15
31
0.0
  0
LINE
 8
Layer0
10
-7.50000000000002
20
-11.4
30
0.0
11
-9.00000000000001
21
-11.4
31
0.0
  0
POLYLINE
 8
Layer0
 66
     1
70
    8
 10
0.0
 20
 0.0
 30
0.0
  0
VERTEX
  8
MY3DLAYER
10
-17.9
20
-9.90000000000001
30
0.0
 70
     32
  0
VERTEX
  8
MY3DLAYER
10
-17.9
20
-9.30000000000001
30
0.0
 70
     32
  0
VERTEX
  8
MY3DLAYER
10
-16.7
20
-9.30000000000001
30
0.0
 70
     32
  0
VERTEX
  8
MY3DLAYER
10
-16.7
20
-9.90000000000001
30
0.0
 70
     32
  0
VERTEX
  8
MY3DLAYER
10
-17.9
20
-9.90000000000001
30
0.0
 70
     32
  0
SEQEND
  0
LINE
 8
Layer0
10
-4.50000000000001
20
-11.4
30
0.0
11
-4.50000000000001
21
-12.15
31
0.0
  0
LINE
 8
Layer0
10
-1.50000000000001
20
-11.4
30
0.0
11
-3.0
21
-11.4
31
0.0
  0
LINE
 8
Layer0
10
-3.0
20
-11.4
30
0.0
11
-4.50000000000001
21
-11.4
31
0.0
  0
LINE
 8
Layer0
10
-20.7
20
10.35
30
0.0
11
-20.7
21
11.55
31
0.0
  0
LINE
 8
Layer0
10
18.9
20
-12.15
30
0.0
11
16.0
21
-12.15
31
0.0
  0
LINE
 8
Layer0
10
20.1
20
-12.15
30
0.0
11
18.9
21
-12.15
31
0.0
  0
LINE
 8
Layer0
10
20.7
20
11.55
30
0.0
11
20.7
21
-11.55
31
0.0
  0
LINE
 8
Layer0
10
-20.1
20
12.15
30
0.0
11
20.1
21
12.15
31
0.0
  0
LINE
 8
Layer0
10
-20.7
20
-11.55
30
0.0
11
-20.7
21
10.35
31
0.0
  0
LINE
 8
Layer0
10
6.0
20
-11.4
30
0.0
11
4.49999999999999
21
-11.4
31
0.0
  0
LINE
 8
Layer0
10
1.49999999999999
20
-11.4
30
0.0
11
1.49999999999999
21
-12.15
31
0.0
  0
LINE
 8
Layer0
10
4.49999999999999
20
-11.4
30
0.0
11
3.0
21
-11.4
31
0.0
  0
LINE
 8
Layer0
10
4.49999999999999
20
-11.4
30
0.0
11
4.49999999999999
21
-12.15
31
0.0
  0
LINE
 8
Layer0
10
1.49999999999999
20
-11.4
30
0.0
11
0.0
21
-11.4
31
0.0
  0
LINE
 8
Layer0
10
3.0
20
-11.4
30
0.0
11
3.00000000000001
21
-12.15
31
0.0
  0
LINE
 8
Layer0
10
9.00000000000001
20
-11.4
30
0.0
11
7.5
21
-11.4
31
0.0
  0
LINE
 8
Layer0
10
12.0
20
-11.4
30
0.0
11
12.0
21
-12.15
31
0.0
  0
LINE
 8
Layer0
10
10.5
20
-11.4
30
0.0
11
10.5
21
-12.15
31
0.0
  0
LINE
 8
Layer0
10
10.5
20
-11.4
30
0.0
11
9.00000000000001
21
-11.4
31
0.0
  0
LINE
 8
Layer0
10
3.0
20
-11.4
30
0.0
11
1.49999999999999
21
-11.4
31
0.0
  0
LINE
 8
Layer0
10
9.00000000000001
20
-11.4
30
0.0
11
9.00000000000001
21
-12.15
31
0.0
  0
LINE
 8
Layer0
10
7.5
20
-11.4
30
0.0
11
7.5
21
-12.15
31
0.0
  0
LINE
 8
Layer0
10
7.5
20
-11.4
30
0.0
11
6.0
21
-11.4
31
0.0
  0
LINE
 8
Layer0
10
6.0
20
-11.4
30
0.0
11
6.0
21
-12.15
31
0.0
  0
LINE
 8
Layer0
10
-9.00000000000001
20
-11.4
30
0.0
11
-10.5
21
-11.4
31
0.0
  0
LINE
 8
Layer0
10
-9.00000000000001
20
-11.4
30
0.0
11
-9.00000000000001
21
-12.15
31
0.0
  0
LINE
 8
Layer0
10
-10.5
20
-11.4
30
0.0
11
-12.0
21
-11.4
31
0.0
  0
LINE
 8
Layer0
10
-10.5
20
-11.4
30
0.0
11
-10.5
21
-12.15
31
0.0
  0
LINE
 8
Layer0
10
-4.50000000000001
20
-11.4
30
0.0
11
-6.00000000000001
21
-11.4
31
0.0
  0
LINE
 8
Layer0
10
0.0
20
-11.4
30
0.0
11
-1.50000000000001
21
-11.4
31
0.0
  0
LINE
 8
Layer0
10
-6.00000000000001
20
-11.4
30
0.0
11
-6.0
21
-12.15
31
0.0
  0
LINE
 8
Layer0
10
0.0
20
-11.4
30
0.0
11
2.8199664825479e-015
21
-12.15
31
0.0
  0
LINE
 8
Layer0
10
-1.50000000000001
20
-11.4
30
0.0
11
-1.50000000000001
21
-12.15
31
0.0
  0
LINE
 8
Layer0
10
-3.0
20
-11.4
30
0.0
11
-3.0
21
-12.15
31
0.0
 0
ENDSEC
 0
EOF
